<?xml version="1.0" encoding="UTF-8" standalone="no"?>
<svg
   version="1.1"
   x="0px"
   y="0px"
   viewBox="0 0 90.972 90.970001"
   xml:space="preserve"
   id="svg2"
   sodipodi:docname="noun-team-4.svg"
   width="90.972"
   height="90.970001"
   inkscape:version="1.4.2 (f4327f4, 2025-05-13)"
   xmlns:inkscape="http://www.inkscape.org/namespaces/inkscape"
   xmlns:sodipodi="http://sodipodi.sourceforge.net/DTD/sodipodi-0.dtd"
   xmlns="http://www.w3.org/2000/svg"
   xmlns:svg="http://www.w3.org/2000/svg"><defs
     id="defs2" /><sodipodi:namedview
     id="namedview2"
     pagecolor="#ffffff"
     bordercolor="#000000"
     borderopacity="0.25"
     inkscape:showpageshadow="2"
     inkscape:pageopacity="0.0"
     inkscape:pagecheckerboard="0"
     inkscape:deskcolor="#d1d1d1"
     inkscape:zoom="7.1250003"
     inkscape:cx="32.491227"
     inkscape:cy="58.315787"
     inkscape:window-width="2560"
     inkscape:window-height="1057"
     inkscape:window-x="1912"
     inkscape:window-y="-8"
     inkscape:window-maximized="1"
     inkscape:current-layer="svg2" /><path
     style="fill:#66ff00"
     d="m 45.547687,63.549552 -14.092514,2.87805 -3.671993,3.77123 -1.190917,13.99328 0.297729,6.55004 37.513881,-0.0992 -0.19849,-20.44407 -6.05383,-4.56518 z"
     id="path3" /><path
     style="fill:#66ff00"
     id="path2"
     sodipodi:type="arc"
     sodipodi:cx="45.870224"
     sodipodi:cy="51.268227"
     sodipodi:rx="8.2123632"
     sodipodi:ry="9.5025225"
     sodipodi:start="1.6287184"
     sodipodi:end="1.6280593"
     sodipodi:open="true"
     sodipodi:arc-type="arc"
     d="m 45.394813,60.754813 a 8.2123632,9.5025225 0 0 1 -7.723258,-10.035121 8.2123632,9.5025225 0 0 1 8.671378,-8.938233 8.2123632,9.5025225 0 0 1 7.726116,10.032176 8.2123632,9.5025225 0 0 1 -8.668832,8.941539" /><path
     style="fill:#66ff00"
     id="path4"
     sodipodi:type="arc"
     sodipodi:cx="12.752732"
     sodipodi:cy="41.334732"
     sodipodi:rx="4.714045"
     sodipodi:ry="4.9125314"
     sodipodi:start="1.6287184"
     sodipodi:end="1.6280593"
     sodipodi:open="true"
     sodipodi:arc-type="arc"
     d="m 12.479838,46.239025 a 4.714045,4.9125314 0 0 1 -4.4332902,-5.18787 4.714045,4.9125314 0 0 1 4.9775282,-4.620809 4.714045,4.9125314 0 0 1 4.43493,5.186347 4.714045,4.9125314 0 0 1 -4.976066,4.622518" /><path
     style="fill:#66ff00"
     d="M 1.3894027,65.599658 24.413791,65.500415 23.917576,52.201846 18.85618,49.423041 9.5273331,48.827582 1.6871319,51.507145 Z"
     id="path5" /><path
     style="fill:#66ff00"
     id="path4-9"
     sodipodi:type="arc"
     sodipodi:cx="78.100166"
     sodipodi:cy="41.473938"
     sodipodi:rx="4.714045"
     sodipodi:ry="4.9125314"
     sodipodi:start="1.6287184"
     sodipodi:end="1.6280593"
     sodipodi:open="true"
     sodipodi:arc-type="arc"
     d="m 77.827272,46.378231 a 4.714045,4.9125314 0 0 1 -4.43329,-5.18787 4.714045,4.9125314 0 0 1 4.977528,-4.620809 4.714045,4.9125314 0 0 1 4.43493,5.186347 4.714045,4.9125314 0 0 1 -4.976066,4.622518" /><path
     style="fill:#66ff00"
     d="m 66.736839,65.73886 23.024388,-0.09924 -0.496215,-13.298569 -5.061396,-2.778805 -9.328847,-0.595459 -7.8402,2.679563 z"
     id="path5-4" /><path
     style="fill:#66ff00"
     id="path4-9-9"
     sodipodi:type="arc"
     sodipodi:cx="45.503677"
     sodipodi:cy="7.2458673"
     sodipodi:rx="4.714045"
     sodipodi:ry="4.9125314"
     sodipodi:start="1.6287184"
     sodipodi:end="1.6280593"
     sodipodi:open="true"
     sodipodi:arc-type="arc"
     d="m 45.230783,12.15016 a 4.714045,4.9125314 0 0 1 -4.43329,-5.1878696 4.714045,4.9125314 0 0 1 4.977528,-4.6208096 4.714045,4.9125314 0 0 1 4.43493,5.186347 4.714045,4.9125314 0 0 1 -4.976066,4.6225192" /><path
     style="fill:#66ff00"
     d="m 34.140352,31.510787 23.024388,-0.09924 -0.496215,-13.298569 -5.061396,-2.778805 -9.328847,-0.595459 -7.8402,2.679563 z"
     id="path5-4-4" /><path
     d="M 85.029,14.189 C 83.946,13.92 82.864,13.716 81.784,13.571 83.52,12.092 84.662,9.606 84.662,6.794 84.662,2.667 82.078,0 78.079,0 74.08,0 71.496,2.667 71.496,6.794 c 0,2.805 1.136,5.286 2.865,6.766 -1.09,0.146 -2.173,0.355 -3.247,0.632 -3.768,0.964 -5.929,3.158 -5.929,6.02 v 10.421 c 0,0.784 0.636,1.42 1.42,1.42 0.784,0 1.42,-0.636 1.42,-1.42 V 20.211 c 0,-1.899 2.062,-2.825 3.795,-3.268 4.072,-1.05 8.286,-1.049 12.526,0.003 1.414,0.349 3.786,1.238 3.786,3.265 v 10.421 c 0,0.784 0.636,1.42 1.42,1.42 0.784,0 1.42,-0.636 1.42,-1.42 V 20.211 c 0,-2.893 -2.167,-5.089 -5.943,-6.022 z M 78.079,2.84 c 1.707,0 3.742,0.686 3.742,3.954 0,2.908 -1.714,5.364 -3.742,5.364 -2.028,0 -3.742,-2.456 -3.742,-5.364 0,-3.268 2.034,-3.954 3.742,-3.954 z m -6.261,29.212 c -0.784,0 -1.42,-0.636 -1.42,-1.42 v -8.028 c 0,-0.784 0.636,-1.42 1.42,-1.42 0.784,0 1.42,0.636 1.42,1.42 v 8.028 c 0.001,0.785 -0.635,1.42 -1.42,1.42 z m 12.516,0 c -0.784,0 -1.42,-0.636 -1.42,-1.42 v -8.028 c 0,-0.784 0.636,-1.42 1.42,-1.42 0.784,0 1.42,0.636 1.42,1.42 v 8.028 c 0,0.785 -0.636,1.42 -1.42,1.42 z M 56.668,63.467 c -2.574,-0.639 -5.145,-1.06 -7.704,-1.263 3.741,-1.789 6.41,-6.377 6.41,-11.743 0,-6.313 -3.789,-10.234 -9.887,-10.234 -6.098,0 -9.887,3.922 -9.887,10.234 0,5.354 2.658,9.933 6.386,11.731 -2.588,0.199 -5.157,0.624 -7.697,1.278 -5.829,1.499 -9.04,4.692 -9.04,8.991 V 89.55 c 0,0.784 0.636,1.42 1.42,1.42 0.784,0 1.42,-0.636 1.42,-1.42 V 72.461 c 0,-3.689 3.756,-5.43 6.906,-6.24 6.833,-1.759 13.894,-1.758 20.987,0.003 2.575,0.638 6.894,2.297 6.894,6.237 V 89.55 c 0,0.784 0.636,1.42 1.42,1.42 0.784,0 1.42,-0.636 1.42,-1.42 V 72.461 c 0.003,-4.29 -3.296,-7.568 -9.048,-8.994 z M 38.441,50.461 c 0,-6.433 4.415,-7.394 7.046,-7.394 2.631,0 7.046,0.961 7.046,7.394 0,5.352 -3.161,9.705 -7.046,9.705 -3.885,0 -7.046,-4.353 -7.046,-9.705 z m -1.798,25.928 v 13.16 c 0,0.784 -0.636,1.42 -1.42,1.42 -0.784,0 -1.42,-0.636 -1.42,-1.42 v -13.16 c 0,-0.784 0.636,-1.42 1.42,-1.42 0.784,0 1.42,0.636 1.42,1.42 z m 20.529,0 v 13.16 c 0,0.784 -0.636,1.42 -1.42,1.42 -0.784,0 -1.42,-0.636 -1.42,-1.42 v -13.16 c 0,-0.784 0.636,-1.42 1.42,-1.42 0.784,0 1.42,0.636 1.42,1.42 z M 1.422,32.052 c 0.784,0 1.42,-0.636 1.42,-1.42 V 20.211 c 0,-1.9 2.062,-2.826 3.794,-3.268 4.072,-1.05 8.286,-1.049 12.526,0.003 1.412,0.349 3.781,1.237 3.781,3.265 v 10.421 c 0,0.784 0.636,1.42 1.42,1.42 0.784,0 1.42,-0.636 1.42,-1.42 V 20.211 c 0,-2.895 -2.165,-5.09 -5.939,-6.022 C 18.761,13.92 17.679,13.716 16.599,13.571 18.335,12.092 19.477,9.606 19.477,6.794 19.477,2.667 16.893,0 12.894,0 8.895,0 6.311,2.667 6.311,6.794 c 0,2.805 1.136,5.286 2.865,6.766 -1.089,0.146 -2.172,0.355 -3.246,0.632 -3.768,0.962 -5.929,3.156 -5.929,6.02 v 10.421 c 0.001,0.784 0.637,1.419 1.421,1.419 z M 12.895,2.84 c 1.707,0 3.742,0.686 3.742,3.954 0,2.908 -1.714,5.364 -3.742,5.364 -2.029,0 -3.742,-2.456 -3.742,-5.364 0,-3.268 2.035,-3.954 3.742,-3.954 z m -6.26,18.344 c 0.784,0 1.42,0.636 1.42,1.42 v 8.028 c 0,0.784 -0.636,1.42 -1.42,1.42 -0.784,0 -1.42,-0.636 -1.42,-1.42 v -8.028 c -10e-4,-0.784 0.635,-1.42 1.42,-1.42 z m 12.516,0 c 0.784,0 1.42,0.636 1.42,1.42 v 8.028 c 0,0.784 -0.636,1.42 -1.42,1.42 -0.784,0 -1.42,-0.636 -1.42,-1.42 v -8.028 c -0.001,-0.784 0.635,-1.42 1.42,-1.42 z m 14.863,10.868 c 0.784,0 1.42,-0.636 1.42,-1.42 V 20.211 c 0,-1.899 2.062,-2.825 3.795,-3.268 4.072,-1.05 8.285,-1.049 12.526,0.004 1.412,0.349 3.781,1.237 3.781,3.265 v 10.421 c 0,0.784 0.636,1.42 1.42,1.42 0.784,0 1.42,-0.636 1.42,-1.42 V 20.211 c 0,-2.895 -2.165,-5.09 -5.939,-6.022 C 51.354,13.92 50.272,13.716 49.192,13.571 50.928,12.092 52.07,9.606 52.07,6.794 52.07,2.667 49.486,0 45.487,0 c -3.999,0 -6.583,2.667 -6.583,6.794 0,2.805 1.136,5.286 2.865,6.766 -1.089,0.146 -2.172,0.355 -3.247,0.632 -3.768,0.964 -5.929,3.158 -5.929,6.02 v 10.421 c 0,0.784 0.636,1.419 1.421,1.419 z M 45.487,2.84 c 1.707,0 3.742,0.686 3.742,3.954 0,2.908 -1.714,5.364 -3.742,5.364 -2.029,0 -3.742,-2.456 -3.742,-5.364 0,-3.268 2.035,-3.954 3.742,-3.954 z m -6.26,18.344 c 0.784,0 1.42,0.636 1.42,1.42 v 8.028 c 0,0.784 -0.636,1.42 -1.42,1.42 -0.784,0 -1.42,-0.636 -1.42,-1.42 v -8.028 c -0.001,-0.784 0.635,-1.42 1.42,-1.42 z m 12.515,0 c 0.784,0 1.42,0.636 1.42,1.42 v 8.028 c 0,0.784 -0.636,1.42 -1.42,1.42 -0.784,0 -1.42,-0.636 -1.42,-1.42 v -8.028 c 0,-0.784 0.636,-1.42 1.42,-1.42 z m 33.287,26.901 c -1.081,-0.268 -2.162,-0.472 -3.241,-0.617 1.733,-1.479 2.874,-3.963 2.874,-6.774 0,-4.127 -2.584,-6.794 -6.583,-6.794 -3.999,0 -6.583,2.667 -6.583,6.794 0,2.804 1.135,5.283 2.862,6.763 -1.089,0.146 -2.172,0.354 -3.247,0.63 -3.766,0.971 -5.926,3.165 -5.926,6.019 v 10.426 c 0,0.784 0.636,1.42 1.42,1.42 0.784,0 1.42,-0.636 1.42,-1.42 V 54.108 c 0,-1.893 2.063,-2.822 3.793,-3.268 4.082,-1.048 8.296,-1.047 12.524,0.003 1.415,0.352 3.788,1.245 3.788,3.266 v 10.426 c 0,0.784 0.636,1.42 1.42,1.42 0.784,0 1.42,-0.636 1.42,-1.42 V 54.108 c 0.002,-2.887 -2.164,-5.082 -5.941,-6.023 z m -6.95,-11.343 c 1.707,0 3.742,0.686 3.742,3.954 0,2.908 -1.714,5.364 -3.742,5.364 -2.028,0 -3.742,-2.456 -3.742,-5.364 0,-3.269 2.034,-3.954 3.742,-3.954 z m -4.84,19.763 v 8.028 c 0,0.784 -0.636,1.42 -1.42,1.42 -0.784,0 -1.42,-0.636 -1.42,-1.42 v -8.028 c 0,-0.784 0.636,-1.42 1.42,-1.42 0.784,0 1.42,0.636 1.42,1.42 z m 12.515,0 v 8.028 c 0,0.784 -0.636,1.42 -1.42,1.42 -0.784,0 -1.42,-0.636 -1.42,-1.42 v -8.028 c 0,-0.784 0.636,-1.42 1.42,-1.42 0.784,0 1.42,0.636 1.42,1.42 z m -59.97,8.028 V 54.108 c 0,-2.887 -2.164,-5.082 -5.939,-6.022 -1.081,-0.268 -2.162,-0.472 -3.241,-0.617 1.733,-1.479 2.873,-3.963 2.873,-6.774 0,-4.127 -2.584,-6.794 -6.583,-6.794 -3.999,0 -6.583,2.667 -6.583,6.794 0,2.804 1.135,5.283 2.862,6.763 -1.089,0.145 -2.171,0.354 -3.246,0.63 C 2.161,49.057 0,51.251 0,54.107 v 10.426 c 0,0.784 0.636,1.42 1.42,1.42 0.784,0 1.42,-0.636 1.42,-1.42 V 54.108 c 0,-1.894 2.063,-2.823 3.793,-3.268 4.082,-1.048 8.296,-1.047 12.525,0.003 1.413,0.352 3.783,1.244 3.783,3.266 v 10.426 c 0,0.784 0.636,1.42 1.42,1.42 0.787,-0.001 1.423,-0.637 1.423,-1.422 z M 12.895,36.742 c 1.707,0 3.742,0.686 3.742,3.954 0,2.908 -1.714,5.364 -3.742,5.364 -2.029,0 -3.742,-2.456 -3.742,-5.364 0,-3.269 2.035,-3.954 3.742,-3.954 z m -4.84,19.763 v 8.028 c 0,0.784 -0.636,1.42 -1.42,1.42 -0.784,0 -1.42,-0.636 -1.42,-1.42 v -8.028 c 0,-0.784 0.636,-1.42 1.42,-1.42 0.784,0 1.42,0.636 1.42,1.42 z m 12.516,0 v 8.028 c 0,0.784 -0.636,1.42 -1.42,1.42 -0.784,0 -1.42,-0.636 -1.42,-1.42 v -8.028 c 0,-0.784 0.636,-1.42 1.42,-1.42 0.784,0 1.42,0.636 1.42,1.42 z"
     id="path1" /></svg>
