<?xml version="1.0" encoding="UTF-8" standalone="no"?>
<svg
   version="1.1"
   viewBox="-5 -10 97.319046 97.214561"
   id="svg2"
   sodipodi:docname="noun-team-7662436.svg"
   width="97.319046"
   height="97.214561"
   inkscape:version="1.4.2 (f4327f4, 2025-05-13)"
   xmlns:inkscape="http://www.inkscape.org/namespaces/inkscape"
   xmlns:sodipodi="http://sodipodi.sourceforge.net/DTD/sodipodi-0.dtd"
   xmlns="http://www.w3.org/2000/svg"
   xmlns:svg="http://www.w3.org/2000/svg">
  <defs
     id="defs2" />
  <sodipodi:namedview
     id="namedview2"
     pagecolor="#ffffff"
     bordercolor="#000000"
     borderopacity="0.25"
     inkscape:showpageshadow="2"
     inkscape:pageopacity="0.0"
     inkscape:pagecheckerboard="0"
     inkscape:deskcolor="#d1d1d1"
     inkscape:zoom="4.4783429"
     inkscape:cx="52.25147"
     inkscape:cy="45.887508"
     inkscape:window-width="2498"
     inkscape:window-height="1057"
     inkscape:window-x="1912"
     inkscape:window-y="-8"
     inkscape:window-maximized="1"
     inkscape:current-layer="svg2" />
  <path
     style="fill:#808080;stroke-width:0.731255"
     id="path12"
     sodipodi:type="arc"
     sodipodi:cx="43.659523"
     sodipodi:cy="38.659523"
     sodipodi:rx="48.659523"
     sodipodi:ry="48.659523"
     sodipodi:start="1.6363414"
     sodipodi:end="1.4478877"
     sodipodi:open="true"
     sodipodi:arc-type="arc"
     d="M 40.472414,87.214559 A 48.659523,48.659523 0 0 1 -4.9917348,37.762699 48.659523,48.659523 0 0 1 42.264073,-9.9799866 48.659523,48.659523 0 0 1 92.179341,34.974895 48.659523,48.659523 0 0 1 49.625152,86.95197" />
  <g
     id="g12"
     transform="translate(-6.344477,-11.388628)">
    <path
       style="fill:#71c837;stroke-width:1.10757"
       id="path8"
       sodipodi:type="arc"
       sodipodi:cx="84.644737"
       sodipodi:cy="53.11108"
       sodipodi:rx="10.776316"
       sodipodi:ry="12.347925"
       sodipodi:start="3.1462481"
       sodipodi:end="0.003215131"
       sodipodi:arc-type="slice"
       d="M 73.868538,53.053595 A 10.776316,12.347925 0 0 1 84.687145,40.763251 10.776316,12.347925 0 0 1 95.420997,53.15078 l -10.77626,-0.0397 z" />
    <path
       style="fill:#37abc8"
       id="path10"
       sodipodi:type="arc"
       sodipodi:cx="15.131578"
       sodipodi:cy="50.868423"
       sodipodi:rx="10.421053"
       sodipodi:ry="9.6315794"
       sodipodi:start="2.8836248"
       sodipodi:end="0.35167654"
       sodipodi:open="true"
       sodipodi:arc-type="arc"
       d="M 5.0553539,53.325595 A 10.421053,9.6315794 0 0 1 9.4349665,42.803278 10.421053,9.6315794 0 0 1 21.619723,43.331323 10.421053,9.6315794 0 0 1 24.914827,54.186235" />
    <ellipse
       style="fill:#ff2a2a"
       id="path2"
       cx="50.433449"
       cy="39.292786"
       rx="8.2061605"
       ry="7.0896759" />
    <path
       style="fill:#ff7f2a;stroke-width:1.07923"
       id="path4"
       sodipodi:type="arc"
       sodipodi:cx="67.809219"
       sodipodi:cy="57.08942"
       sodipodi:rx="12.098684"
       sodipodi:ry="11.076261"
       sodipodi:start="2.6513751"
       sodipodi:end="0.4153209"
       sodipodi:arc-type="arc"
       d="m 57.135392,62.304321 a 12.098684,11.076261 0 0 1 2.769435,-13.600474 12.098684,11.076261 0 0 1 15.101241,-0.517968 12.098684,11.076261 0 0 1 3.873289,13.37263"
       sodipodi:open="true" />
    <path
       style="fill:#ff7f2a"
       id="path5"
       sodipodi:type="arc"
       sodipodi:cx="67.671051"
       sodipodi:cy="36.914474"
       sodipodi:rx="6.0394735"
       sodipodi:ry="5.9013157"
       sodipodi:start="1.6363414"
       sodipodi:end="1.4478877"
       sodipodi:open="true"
       sodipodi:arc-type="arc"
       d="m 67.275477,42.803118 a 6.0394735,5.9013157 0 0 1 -5.642874,-5.997408 6.0394735,5.9013157 0 0 1 5.865249,-5.790124 6.0394735,5.9013157 0 0 1 6.195333,5.452025 6.0394735,5.9013157 0 0 1 -5.281698,6.303661" />
    <path
       style="fill:#ffdd55"
       id="path6"
       sodipodi:type="arc"
       sodipodi:cx="32.736843"
       sodipodi:cy="37.546051"
       sodipodi:rx="6.7894735"
       sodipodi:ry="6.0592103"
       sodipodi:start="1.6363414"
       sodipodi:end="1.4478877"
       sodipodi:open="true"
       sodipodi:arc-type="arc"
       d="m 32.292145,43.59225 a 6.7894735,6.0592103 0 0 1 -6.343622,-6.157874 6.7894735,6.0592103 0 0 1 6.593613,-5.945043 6.7894735,6.0592103 0 0 1 6.964688,5.597899 6.7894735,6.0592103 0 0 1 -5.937595,6.47232" />
    <path
       style="fill:#ffdd55;stroke-width:1.04454"
       id="path7"
       sodipodi:type="arc"
       sodipodi:cx="32.480263"
       sodipodi:cy="58.526318"
       sodipodi:rx="13.006579"
       sodipodi:ry="12.75"
       sodipodi:start="2.8997581"
       sodipodi:end="0.24298201"
       sodipodi:open="true"
       sodipodi:arc-type="arc"
       d="m 19.852171,61.579741 a 13.006579,12.75 0 0 1 5.242988,-13.548818 13.006579,12.75 0 0 1 14.782488,0.0083 13.006579,12.75 0 0 1 5.227125,13.554707" />
    <path
       style="fill:#71c837;stroke-width:0.902673"
       id="path9"
       sodipodi:type="arc"
       sodipodi:cx="85.201805"
       sodipodi:cy="34.367825"
       sodipodi:rx="5.1666169"
       sodipodi:ry="5.1309848"
       sodipodi:start="1.6363414"
       sodipodi:end="1.4478877"
       sodipodi:open="true"
       sodipodi:arc-type="arc"
       d="m 84.863401,39.487792 a 5.1666169,5.1309848 0 0 1 -4.827335,-5.214535 5.1666169,5.1309848 0 0 1 5.017572,-5.034307 5.1666169,5.1309848 0 0 1 5.29995,4.740343 5.1666169,5.1309848 0 0 1 -4.518359,5.480809" />
    <path
       style="fill:#37abc8;stroke-width:0.964401"
       id="path11"
       sodipodi:type="arc"
       sodipodi:cx="15.25"
       sodipodi:cy="34.407894"
       sodipodi:rx="5.25"
       sodipodi:ry="4.7763157"
       sodipodi:start="1.6363414"
       sodipodi:end="1.4478877"
       sodipodi:open="true"
       sodipodi:arc-type="arc"
       d="m 14.906135,39.173954 a 5.25,4.7763157 0 0 1 -4.905243,-4.85409 5.25,4.7763157 0 0 1 5.098549,-4.686321 5.25,4.7763157 0 0 1 5.385486,4.412676 5.25,4.7763157 0 0 1 -4.59128,5.101959" />
    <path
       style="fill:#ff2a2a"
       id="path3"
       sodipodi:type="arc"
       sodipodi:cx="50.098503"
       sodipodi:cy="67.093246"
       sodipodi:rx="16.356497"
       sodipodi:ry="16.244848"
       sodipodi:start="2.9812919"
       sodipodi:end="0.15280794"
       sodipodi:open="true"
       sodipodi:arc-type="arc"
       d="m 33.951708,69.68617 a 16.356497,16.244848 0 0 1 7.189475,-16.185315 16.356497,16.244848 0 0 1 17.811844,-0.06628 16.356497,16.244848 0 0 1 7.31138,16.13136" />
    <path
       d="m 15.141,40.148 c 3.2383,0 5.8789,-2.6406 5.8789,-5.8789 0,-3.2383 -2.6406,-5.8789 -5.8789,-5.8789 -3.2383,0 -5.8789,2.6406 -5.8789,5.8789 0,3.2422 2.6367,5.8789 5.8789,5.8789 z m 0,-9.5 c 2,0 3.6289,1.6289 3.6289,3.6289 0,2 -1.6289,3.6289 -3.6289,3.6289 -2,0 -3.6289,-1.6289 -3.6289,-3.6289 0.0078,-1.9961 1.6289,-3.6289 3.6289,-3.6289 z m 69.719,9.5 c 3.2383,0 5.8789,-2.6406 5.8789,-5.8789 0,-3.2383 -2.6406,-5.8789 -5.8789,-5.8789 -3.2383,0 -5.8789,2.6406 -5.8789,5.8789 0,3.2422 2.6406,5.8789 5.8789,5.8789 z m 0,-9.5 c 2,0 3.6289,1.6289 3.6289,3.6289 0,2 -1.6289,3.6289 -3.6289,3.6289 -2,0 -3.6289,-1.6289 -3.6289,-3.6289 0,-1.9961 1.6289,-3.6289 3.6289,-3.6289 z m 0,9.5312 c -4.4297,0 -8.4609,2.6797 -10.262,6.6602 -2.1094,-1.2305 -4.5508,-1.9414 -7.1602,-1.9414 -4.5508,0 -8.7695,2.1484 -11.48,5.7891 -1.8672,-0.6875 -3.8672,-1.0859 -5.957,-1.0859 -2.0898,0 -4.0898,0.39063 -5.9492,1.0781 -2.6992,-3.6406 -6.9297,-5.7891 -11.48,-5.7891 -2.6094,0 -5.0508,0.71875 -7.1602,1.9414 -1.8008,-3.9805 -5.8281,-6.6602 -10.262,-6.6602 -6.2109,0 -11.27,5.0508 -11.27,11.27 v 0.44922 c 0,1.5898 1.2891,2.8906 2.8906,2.8906 h 12.211 c -0.44922,1.3906 -0.69922,2.8711 -0.69922,4.4102 v 0.58984 c 0,1.8789 1.5312,3.4102 3.4102,3.4102 h 11.398 c -0.26953,1.2109 -0.42188,2.4609 -0.42188,3.75 v 0.71875 c 0,2.1719 1.7695,3.9414 3.9414,3.9414 h 26.789 c 2.1719,0 3.9414,-1.7695 3.9414,-3.9414 v -0.71875 c 0,-1.2891 -0.14844,-2.5391 -0.42188,-3.75 h 11.398 c 1.8789,0 3.4102,-1.5312 3.4102,-3.4102 v -0.58984 c 0,-1.5391 -0.25,-3.0195 -0.69922,-4.4102 h 12.211 c 1.5898,0 2.8906,-1.2891 2.8906,-2.8906 V 51.4414 C 96.1208,45.2305 91.07,40.1794 84.8586,40.1794 Z M 6.762,52.5312 c -0.35156,0 -0.64062,-0.28906 -0.64062,-0.64062 v -0.44922 c 0,-4.9688 4.0508,-9.0195 9.0195,-9.0195 3.6797,0 7.0195,2.3086 8.3789,5.6992 -1.4688,1.2109 -2.6992,2.7109 -3.6016,4.3984 h -13.156 z m 14.918,8.4102 c -0.64063,0 -1.1602,-0.51953 -1.1602,-1.1602 v -0.58984 c 0,-6.6484 5.4102,-12.051 12.051,-12.051 3.6484,0 7.0508,1.6602 9.3398,4.4805 -3.75,1.9883 -6.6719,5.3086 -8.1602,9.3203 z m 43.41,6.7188 c 0,0.92969 -0.76172,1.6914 -1.6914,1.6914 h -26.797 c -0.92969,0 -1.6914,-0.76172 -1.6914,-1.6914 v -0.71875 c 0,-8.3203 6.7695,-15.09 15.09,-15.09 8.3205,0 15.09,6.7695 15.09,15.09 z m 14.391,-7.8789 c 0,0.64062 -0.51953,1.1602 -1.1602,1.1602 h -12.082 c -1.4883,-4.0195 -4.4102,-7.3398 -8.1602,-9.3203 2.2891,-2.8203 5.6914,-4.4805 9.3398,-4.4805 6.6484,0 12.051,5.4102 12.051,12.051 v 0.58984 z m 14.391,-7.8828 c 0,0.35156 -0.28906,0.64062 -0.64062,0.64062 h -13.16 c -0.89844,-1.6992 -2.1211,-3.1992 -3.6016,-4.3984 1.3594,-3.3906 4.6992,-5.6992 8.3789,-5.6992 4.9688,0 9.0195,4.0508 9.0195,9.0195 z m -26.441,-7.707 c 4.0195,0 7.3008,-3.2695 7.3008,-7.3008 0,-4.0313 -3.2695,-7.3008 -7.3008,-7.3008 -4.0195,0 -7.3008,3.2695 -7.3008,7.3008 0,4.0313 3.2695,7.3008 7.3008,7.3008 z m 0,-12.352 c 2.7812,0 5.0508,2.2617 5.0508,5.0508 0,2.7812 -2.2617,5.0508 -5.0508,5.0508 -2.7812,0 -5.0508,-2.2617 -5.0508,-5.0508 0,-2.7891 2.2695,-5.0508 5.0508,-5.0508 z m -34.859,12.352 c 4.0195,0 7.3008,-3.2695 7.3008,-7.3008 0,-4.0313 -3.2695,-7.3008 -7.3008,-7.3008 -4.0313,0 -7.3008,3.2695 -7.3008,7.3008 0,4.0313 3.2812,7.3008 7.3008,7.3008 z m 0,-12.352 c 2.7812,0 5.0508,2.2617 5.0508,5.0508 0,2.7812 -2.2617,5.0508 -5.0508,5.0508 -2.7891,0 -5.0508,-2.2617 -5.0508,-5.0508 0,-2.7891 2.2695,-5.0508 5.0508,-5.0508 z m 14.84,15.988 c 0.82031,0.26172 1.6914,0.39062 2.5898,0.39062 4.8086,0 8.7188,-3.9102 8.7188,-8.7188 0,-4.8086 -3.9102,-8.7188 -8.7188,-8.7188 -0.89844,0 -1.7695,0.14062 -2.5898,0.39062 -3.5508,1.1094 -6.1289,4.4219 -6.1289,8.3281 0,3.9102 2.5781,7.2188 6.1289,8.3281 z m 2.5898,-14.797 c 3.5703,0 6.4688,2.8984 6.4688,6.4688 0,3.5704 -2.8984,6.4688 -6.4688,6.4688 -0.67188,0 -1.3086,-0.10156 -1.9219,-0.28906 -2.6289,-0.82031 -4.5508,-3.2812 -4.5508,-6.1797 0,-2.8985 1.9219,-5.3594 4.5508,-6.1797 0.61328,-0.19141 1.25,-0.28906 1.9219,-0.28906 z"
       id="path1" />
  </g>
</svg>
