<?xml version="1.0" encoding="UTF-8" standalone="no"?>
<svg
   version="1.1"
   x="0px"
   y="0px"
   viewBox="0 0 76.905907 76.822563"
   xml:space="preserve"
   id="svg2"
   sodipodi:docname="noun-male-player-2851844.svg"
   width="76.905907"
   height="76.822563"
   inkscape:version="1.4.2 (f4327f4, 2025-05-13)"
   xmlns:inkscape="http://www.inkscape.org/namespaces/inkscape"
   xmlns:sodipodi="http://sodipodi.sourceforge.net/DTD/sodipodi-0.dtd"
   xmlns="http://www.w3.org/2000/svg"
   xmlns:svg="http://www.w3.org/2000/svg"><defs
     id="defs2" /><sodipodi:namedview
     id="namedview2"
     pagecolor="#ffffff"
     bordercolor="#000000"
     borderopacity="0.25"
     inkscape:showpageshadow="2"
     inkscape:pageopacity="0.0"
     inkscape:pagecheckerboard="0"
     inkscape:deskcolor="#d1d1d1"
     inkscape:zoom="7.5572037"
     inkscape:cx="40.821977"
     inkscape:cy="33.941125"
     inkscape:window-width="2498"
     inkscape:window-height="1057"
     inkscape:window-x="1912"
     inkscape:window-y="-8"
     inkscape:window-maximized="1"
     inkscape:current-layer="svg2" /><path
     style="fill:#b3b3b3;stroke:#333333;stroke-width:0.741346"
     id="path12"
     sodipodi:type="arc"
     sodipodi:cx="38.45224"
     sodipodi:cy="38.452702"
     sodipodi:rx="38.081451"
     sodipodi:ry="38.08176"
     sodipodi:start="1.6287184"
     sodipodi:end="1.6280593"
     sodipodi:arc-type="arc"
     d="M 36.247717,76.470598 A 38.081451,38.08176 0 0 1 0.43428898,36.254425 38.081451,38.08176 0 0 1 40.644235,0.43408038 38.081451,38.08176 0 0 1 76.470913,40.638449 38.081451,38.08176 0 0 1 36.272774,76.472043"
     sodipodi:open="true" /><g
     id="g12"
     transform="translate(6.4522393,6.4118149)"><path
       style="fill:#225500"
       d="m 12.372301,55.708436 c 0.264648,0 7.277824,0.33081 7.277824,0.33081 l 0.396973,6.81469 23.818333,-0.529296 0.33081,-6.748528 8.270255,-0.132324 -0.66162,-11.843005 -8.137931,-4.763667 -4.432856,-0.132324 -2.646482,3.969723 -4.829829,1.32324 -4.23437,-1.124754 -3.043454,-5.094477 -9.990468,3.506588 -2.844967,4.631342 z"
       id="path9" /><path
       style="fill:#ffe6d5"
       d="m 45.387158,19.186991 -0.03308,7.972526 c 0,0 3.043454,-3.010373 3.208859,-3.142697 0.165405,-0.132324 -0.264648,-4.102047 -0.264648,-4.102047 z"
       id="path7" /><path
       style="fill:#00aa88"
       d="m 19.418558,15.878889 25.406223,0.264648 -0.09924,6.516961 -1.654051,1.223998 -7.377067,0.06616 -3.440426,-1.95178 -3.705075,2.017942 -8.071768,-0.06616 c 0,0 -2.117185,-2.216428 -1.984861,-2.348753 0.132324,-0.132324 0.926268,-5.723016 0.926268,-5.723016 z"
       id="path2" /><path
       style="fill:#ffe6d5"
       d="m 11.942248,55.807679 8.071769,0.297729 0.03308,5.52453 -7.740959,0.363892 z"
       id="path3" /><path
       style="fill:#ffe6d5"
       d="m 44.361647,56.370056 c 0,0.29773 0.03308,5.987665 0.165405,5.921503 0.132324,-0.06616 7.178581,-0.396972 7.178581,-0.396972 l 0.562377,-5.756098 z"
       id="path4" /><path
       style="fill:#ff7f2a"
       d="M 18.994152,2.1988304 19.22807,9.871345 45.099415,9.6608187 45.02924,4.5380117 39.976608,6.7368421 35.836257,3.6725146 25.380117,1.5672515 Z"
       id="path8" /><path
       style="fill:#666666"
       d="m 18.856181,9.7258196 0.463134,6.0869074 25.207737,-0.396972 0.06616,-5.6237734 z"
       id="path10" /><path
       style="fill:#ffe6d5"
       d="m 20.576394,33.147181 4.432856,4.730586 1.62097,4.598261 6.053827,2.017943 c 0,0 5.888421,-3.738156 6.053826,-4.035885 0.165405,-0.297729 0.03308,-2.745724 0.595459,-3.043453 0.562377,-0.29773 3.539669,-3.473507 3.671993,-3.738156 0.132324,-0.264648 -7.44323,-1.091673 -7.44323,-1.091673 z"
       id="path5" /><path
       style="fill:#666666"
       d="m 18.790019,22.958227 0.33081,9.924306 25.604709,0.06616 -0.132324,-9.990468 -1.984862,0.926269 -7.608634,0.06616 -2.646481,-2.381834 -3.705075,2.117186 -7.1455,0.396972 z"
       id="path11" /><path
       style="fill:#ffe6d5"
       d="m 17.665264,19.15391 -2.414914,4.068965 0.827025,2.844968 2.315672,1.058593 0.860106,-7.211663 z"
       id="path6" /><path
       d="M 48.059,39.741 41.132,37.61 C 42.306,36.598 43.318,35.385 44.118,34 H 45 c 0.552,0 1,-0.448 1,-1 V 27.899 C 48.279,27.434 50,25.415 50,23 50,20.585 48.279,18.566 46,18.101 V 10 4 C 46,3.64 45.806,3.307 45.493,3.13 45.18,2.952 44.795,2.957 44.486,3.143 L 40.14,5.75 C 36.799,2.681 32.493,1 27.929,1 H 19 c -0.552,0 -1,0.448 -1,1 v 8 8.101 c -2.279,0.465 -4,2.484 -4,4.899 0,2.415 1.721,4.434 4,4.899 V 33 c 0,0.552 0.448,1 1,1 h 0.882 c 0.8,1.385 1.813,2.598 2.986,3.61 l -6.927,2.131 C 12.986,40.65 11,43.339 11,46.432 V 62 c 0,0.552 0.448,1 1,1 h 40 c 0.552,0 1,-0.448 1,-1 V 46.432 C 53,43.339 51.014,40.65 48.059,39.741 Z M 51,46.432 V 55 H 45 V 40.892 l 2.471,0.76 C 49.582,42.302 51,44.223 51,46.432 Z M 31,45 h 2 c 3.41,0 6.255,-2.453 6.872,-5.686 L 43,40.277 V 49 h -6 v 2 h 6 v 2 H 21 v -2 h 6 v -2 h -6 v -8.723 l 3.128,-0.962 C 24.745,42.547 27.59,45 31,45 Z M 26.354,39.816 C 28.1,40.584 30.015,41 32,41 33.985,41 35.9,40.584 37.646,39.816 36.917,41.675 35.115,43 33,43 h -2 c -2.115,0 -3.917,-1.325 -4.646,-3.184 z M 43,55 v 2 H 21 v -2 z m -22,4 h 22 v 2 H 21 Z M 20,32 v -7.586 l 0.293,0.293 C 20.48,24.895 20.735,25 21,25 h 7.171 c 0.801,0 1.555,-0.312 2.122,-0.879 L 31,23.414 c 0.526,-0.526 1.474,-0.526 2,0 l 0.707,0.707 C 34.273,24.688 35.027,25 35.829,25 H 43 c 0.265,0 0.52,-0.105 0.707,-0.293 L 44,24.414 V 32 Z M 44,21.586 42.586,23 H 35.829 C 35.562,23 35.31,22.896 35.121,22.707 L 34.414,22 c -1.289,-1.29 -3.539,-1.29 -4.828,0 l -0.707,0.707 C 28.69,22.896 28.438,23 28.171,23 H 21.414 L 20,21.586 V 17 H 44 Z M 44,15 H 20 v -4 h 24 z m 4,8 c 0,1.302 -0.839,2.402 -2,2.816 v -5.631 c 1.161,0.413 2,1.513 2,2.815 z M 27.929,3 c 4.293,0 8.329,1.672 11.364,4.707 0.324,0.325 0.828,0.387 1.222,0.15 L 44,5.766 V 9 H 20 V 3 Z M 16,23 c 0,-1.302 0.839,-2.402 2,-2.816 v 5.631 C 16.839,25.402 16,24.302 16,23 Z M 41.748,34 C 39.511,37.12 35.912,39 32,39 28.088,39 24.488,37.12 22.252,34 Z M 16.529,41.652 19,40.892 V 55 h -6 v -8.568 c 0,-2.209 1.418,-4.13 3.529,-4.78 z M 13,57 h 6 v 4 h -6 z m 32,4 v -4 h 6 v 4 z"
       id="path1" /></g></svg>
