<?xml version="1.0" encoding="UTF-8" standalone="no"?>
<svg
   version="1.1"
   viewBox="-5 -10 122.14339 122.01225"
   id="svg2"
   sodipodi:docname="noun-leadership-7195245.svg"
   width="122.14339"
   height="122.01225"
   inkscape:version="1.4.2 (f4327f4, 2025-05-13)"
   xmlns:inkscape="http://www.inkscape.org/namespaces/inkscape"
   xmlns:sodipodi="http://sodipodi.sourceforge.net/DTD/sodipodi-0.dtd"
   xmlns:xlink="http://www.w3.org/1999/xlink"
   xmlns="http://www.w3.org/2000/svg"
   xmlns:svg="http://www.w3.org/2000/svg">
  <defs
     id="defs2">
    <linearGradient
       id="linearGradient110"
       inkscape:collect="always">
      <stop
         style="stop-color:#37c8ab;stop-opacity:1;"
         offset="0"
         id="stop109" />
      <stop
         style="stop-color:#37c8ab;stop-opacity:0;"
         offset="1"
         id="stop110" />
    </linearGradient>
    <linearGradient
       id="linearGradient104"
       inkscape:collect="always">
      <stop
         style="stop-color:#37c8ab;stop-opacity:1;"
         offset="0"
         id="stop103" />
      <stop
         style="stop-color:#37c8ab;stop-opacity:0;"
         offset="1"
         id="stop104" />
    </linearGradient>
    <linearGradient
       id="linearGradient99"
       inkscape:collect="always">
      <stop
         style="stop-color:#37c8ab;stop-opacity:1;"
         offset="0"
         id="stop99" />
      <stop
         style="stop-color:#37c8ab;stop-opacity:0;"
         offset="1"
         id="stop100" />
    </linearGradient>
    <linearGradient
       inkscape:collect="always"
       xlink:href="#linearGradient110"
       id="linearGradient100"
       x1="67.315788"
       y1="55.565792"
       x2="94.86842"
       y2="55.565792"
       gradientUnits="userSpaceOnUse" />
    <linearGradient
       inkscape:collect="always"
       xlink:href="#linearGradient99"
       id="linearGradient101"
       x1="50.105263"
       y1="67.881579"
       x2="76.473684"
       y2="67.881579"
       gradientUnits="userSpaceOnUse" />
    <linearGradient
       inkscape:collect="always"
       xlink:href="#linearGradient104"
       id="linearGradient103"
       x1="13.947369"
       y1="92.197368"
       x2="40.710527"
       y2="92.197368"
       gradientUnits="userSpaceOnUse" />
    <linearGradient
       inkscape:collect="always"
       xlink:href="#linearGradient99"
       id="linearGradient109"
       gradientUnits="userSpaceOnUse"
       x1="31.710526"
       y1="80.078944"
       x2="58.86842"
       y2="80.078944" />
  </defs>
  <sodipodi:namedview
     id="namedview2"
     pagecolor="#ffffff"
     bordercolor="#000000"
     borderopacity="0.25"
     inkscape:showpageshadow="2"
     inkscape:pageopacity="0.0"
     inkscape:pagecheckerboard="0"
     inkscape:deskcolor="#d1d1d1"
     inkscape:zoom="4.4783429"
     inkscape:cx="28.358704"
     inkscape:cy="60.625102"
     inkscape:window-width="2498"
     inkscape:window-height="1057"
     inkscape:window-x="1912"
     inkscape:window-y="-8"
     inkscape:window-maximized="1"
     inkscape:current-layer="g15" />
  <path
     style="fill:#b3b3b3;stroke-width:0.805596"
     id="path15"
     sodipodi:type="arc"
     sodipodi:cx="56.071693"
     sodipodi:cy="51.071693"
     sodipodi:rx="61.071693"
     sodipodi:ry="61.071693"
     sodipodi:start="1.6363414"
     sodipodi:end="1.4478877"
     sodipodi:open="true"
     sodipodi:arc-type="arc"
     d="M 52.07161,112.01225 A 61.071693,61.071693 0 0 1 -4.9896265,49.946105 61.071693,61.071693 0 0 1 54.320289,-9.9748816 61.071693,61.071693 0 0 1 116.96805,46.447183 61.071693,61.071693 0 0 1 63.559047,111.68268" />
  <g
     id="g15"
     transform="translate(6.073148,1.0069919)">
    <rect
       style="fill:url(#linearGradient103);fill-opacity:1;stroke:none;stroke-opacity:1"
       id="rect2"
       width="26.763159"
       height="7.1842103"
       x="13.947369"
       y="88.605263" />
    <rect
       style="fill:url(#linearGradient109);fill-opacity:1;stroke:none;stroke-opacity:1"
       id="rect3"
       width="27.157894"
       height="7.2631578"
       x="31.710526"
       y="76.447365" />
    <rect
       style="fill:url(#linearGradient101);fill-opacity:1;stroke:none;stroke-opacity:1"
       id="rect4"
       width="26.368422"
       height="7.9736843"
       x="50.105263"
       y="63.894737" />
    <rect
       style="fill:url(#linearGradient100);fill-opacity:1;stroke:none;stroke-opacity:1"
       id="rect5"
       width="27.552631"
       height="7.5"
       x="67.315788"
       y="51.815792" />
    <path
       style="fill:#d40055"
       d="m 82.560289,4.095615 c -0.300776,0.0087 -0.593853,0.091 -0.893188,0.111649 -0.401032,0.02766 -0.800493,-0.0165 -1.200221,0.02791 -0.02774,0.0031 -0.05666,-0.0068 -0.08374,0 -0.113259,0.02832 -0.198097,0.08052 -0.307033,0.111648 -0.02684,0.0077 -0.0569,-0.0077 -0.08374,0 -0.173846,0.04967 -0.05107,0.0498 -0.195384,0.111649 -0.07052,0.03022 -0.152778,0.0256 -0.223297,0.05582 -0.03083,0.01322 -0.0529,0.04261 -0.08374,0.05582 -0.06807,0.02918 -0.163635,0.04396 -0.223296,0.08374 -0.07295,0.04863 -0.128448,0.139603 -0.195385,0.195384 -0.02577,0.02148 -0.06002,0.0321 -0.08374,0.05583 -0.02372,0.02372 -0.02963,0.06278 -0.05582,0.08374 -0.02297,0.01838 -0.06293,0.0071 -0.08374,0.02791 -0.03836,0.03836 -0.04537,0.101199 -0.08374,0.139561 -0.03836,0.03836 -0.104255,0.04255 -0.139561,0.08374 -0.02496,0.02913 -0.0089,0.07834 -0.02791,0.111648 -0.108059,0.189104 -0.07146,-0.03162 -0.139561,0.195385 -0.01626,0.05421 -0.0045,0.115951 -0.02791,0.167473 -0.02465,0.05424 -0.08007,0.08904 -0.111648,0.13956 -0.03756,0.06009 -0.04858,0.133864 -0.08374,0.195385 -0.05216,0.09128 -0.09623,0.122183 -0.13956,0.223297 -0.03598,0.08394 -0.184357,0.406483 -0.251209,0.446594 -0.05808,0.03485 -0.137946,0.01993 -0.195385,0.05582 -0.267695,0.167309 0.01199,0.04383 -0.167472,0.223297 -0.0208,0.0208 -0.05819,0.01332 -0.08374,0.02791 -0.179723,0.102699 -0.04704,0.06003 -0.167472,0.111648 -0.111173,0.04765 -0.2202,0.101312 -0.334946,0.139561 -0.3477,0.1159 -0.102468,-0.01338 -0.446594,0.139561 -0.174915,0.05166 -0.312329,0.175526 -0.474505,0.251209 -0.125339,0.05849 -0.269861,0.07239 -0.39077,0.13956 -0.117299,0.06517 -0.216203,0.160801 -0.334945,0.223297 -0.05994,0.03155 -0.132861,0.02977 -0.195385,0.05582 -0.05008,0.02087 -0.08919,0.06359 -0.139561,0.08374 -0.04405,0.01762 -0.09514,0.01125 -0.13956,0.02791 -0.103492,0.03881 -0.19359,0.131236 -0.279121,0.195384 -0.04008,0.03006 -0.104132,0.0204 -0.139561,0.05583 -0.03836,0.03836 -0.05043,0.09674 -0.08374,0.13956 -0.08059,0.103621 -0.136593,0.105714 -0.195385,0.223297 -0.02632,0.05263 -0.03193,0.1137 -0.05582,0.167473 -0.01362,0.03065 -0.04522,0.05191 -0.05582,0.08374 -0.02372,0.07116 -5.4e-5,0.15365 -0.02791,0.223297 -0.01246,0.03115 -0.04769,0.05119 -0.05582,0.08374 -0.0028,0.01123 -0.01297,0.246697 0,0.279121 0.0098,0.02443 0.04406,0.03229 0.05582,0.05583 0.0083,0.01664 -0.01032,0.04034 0,0.05582 0.03873,0.05809 0.714343,0.211408 0.809451,0.223297 0.05539,0.0069 0.113315,-0.01354 0.167472,0 0.09201,0.023 0.09799,0.06738 0.195385,0.111648 0.06166,0.02803 0.132165,0.03151 0.195385,0.05582 0.158647,0.06102 0.313249,0.141633 0.474506,0.195385 0.06179,0.0206 0.130524,-0.0059 0.195385,0 0.234769,0.02134 0.464151,0.06037 0.697802,0.08374 0.287088,0.02871 0.05917,0.0358 0.418682,0.08374 0.05533,0.0074 0.111813,-0.0043 0.167473,0 0.150914,0.01161 0.29836,0.0373 0.446593,0.05582 0.06463,0.0081 0.131143,-0.01071 0.195385,0 0.45117,0.0752 0.04923,0.03776 0.558242,0.13956 0.138062,0.02761 0.278465,0.04308 0.418682,0.05582 0.08339,0.0076 0.168314,-0.01184 0.251209,0 0.139814,0.01997 0.336377,0.07712 0.474506,0.111648 0.188473,0.04712 0.367102,0.13272 0.558242,0.167473 0.612778,0.111414 0.06389,-0.07229 0.641979,0.111648 0.103774,0.03302 0.208155,0.06601 0.307033,0.111649 0.02389,0.01103 0.03052,0.04859 0.05582,0.05582 0.04473,0.01278 0.095,-0.01337 0.139561,0 0.05196,0.01559 0.08771,0.06778 0.13956,0.08374 0.0717,0.02206 0.149742,0.0132 0.223297,0.02791 0.132838,0.02657 0.262253,0.06881 0.39077,0.111649 0.111648,0.03722 0.224343,0.07143 0.334945,0.111648 0.146965,0.05344 0.257783,0.177507 0.418681,0.195385 0.26865,0.02985 0.539504,0.02208 0.809452,0.05582 0.0277,0.0035 0.07491,0.02648 0.08374,0 0.0088,-0.02648 0,-0.05582 0,-0.08374 0.02791,-0.02791 0.06608,-0.04843 0.08374,-0.08374 0.03836,-0.07672 0.03118,-0.169048 0.05582,-0.251209 0.161091,-0.536972 0.129233,-1.096244 0.05582,-1.646815 -0.0033,-0.0244 -0.03948,-0.34174 -0.05582,-0.390769 -0.01974,-0.05921 -0.06133,-0.10922 -0.08374,-0.167473 -0.109105,-0.283674 -0.01205,-0.104019 -0.08374,-0.39077 -0.03601,-0.144034 -0.13528,-0.273813 -0.167473,-0.418681 -0.0081,-0.03633 0.01512,-0.07764 0,-0.111649 -0.02419,-0.05444 -0.08745,-0.08512 -0.111648,-0.13956 -0.01511,-0.03401 0.01177,-0.07634 0,-0.111649 C 83.230527,7.613636 83.387231,8.320175 83.25807,7.835827 83.19201,7.588089 83.16934,7.334288 83.146422,7.0822 c -0.0093,-0.101924 0.0113,-0.205315 0,-0.307033 -0.02475,-0.222729 -0.08558,-0.465148 -0.167473,-0.669891 -0.0097,-0.02413 0.0082,-0.05902 0,-0.08374 -0.01316,-0.03947 -0.04267,-0.07217 -0.05582,-0.111648 -0.01832,-0.05496 -0.0081,-0.145879 -0.02791,-0.195385 -0.0098,-0.02443 -0.04406,-0.03229 -0.05582,-0.05582 -0.02122,-0.04243 -0.0092,-0.09596 -0.02791,-0.139561 -0.03404,-0.07944 -0.06737,-0.113561 -0.08374,-0.195385 -0.0036,-0.01825 0.0059,-0.03817 0,-0.05582 -0.01316,-0.03947 -0.04439,-0.07164 -0.05582,-0.111648 -0.0077,-0.02684 0.0035,-0.05604 0,-0.08374 -0.07537,-0.602995 0.01589,0.250785 -0.05582,-0.251209 -0.02319,-0.162299 0.03546,-0.342842 0,-0.502418 -0.01664,-0.0749 -0.03722,-0.148864 -0.05582,-0.223297 z"
       id="path9" />
    <rect
       style="fill:#ffd42a"
       id="rect12"
       width="7.5"
       height="8.1710529"
       x="20.223684"
       y="80.118423" />
    <path
       style="fill:#ffd42a"
       d="m 46.079161,40.632567 c 0.485582,0.226039 0.903277,0.645679 1.172309,1.116485 0.07031,0.123043 0.06726,0.290562 0.167472,0.390769 0.02632,0.02632 0.091,-0.03097 0.111649,0 0.03793,0.0569 0.204008,0.665809 0.223297,0.781539 0.0092,0.05506 -0.01354,0.113315 0,0.167473 0.0064,0.02553 0.04944,0.03029 0.05582,0.05582 0.01354,0.05416 -0.01765,0.114513 0,0.167473 0.272883,0.818649 -0.02235,-0.424355 0.167472,0.334945 0.03008,0.120306 0.118244,1.438239 0.05582,1.563078 -0.01861,0.03722 -0.08668,0.02254 -0.111649,0.05582 -0.08239,0.109856 -0.05897,0.285414 -0.111648,0.39077 -0.0083,0.01664 -0.04267,-0.01316 -0.05582,0 -0.209426,0.209425 -0.03532,0.102916 -0.167473,0.279121 -0.158388,0.211184 -0.283073,0.289919 -0.502418,0.446594 -0.04283,0.03059 -0.06457,0.08811 -0.111649,0.111648 -0.06862,0.03431 -0.157507,0.01635 -0.223296,0.05582 -0.05356,0.03214 -0.169737,0.246985 -0.223297,0.279122 -0.03191,0.01915 -0.07709,-0.01382 -0.111649,0 -0.146569,0.05863 -0.355901,0.269846 -0.446593,0.390769 -0.01116,0.01489 0.01316,0.04267 0,0.05582 -0.09187,0.09187 -0.188244,0.1097 -0.279122,0.223297 -0.112199,0.14025 -0.166921,0.306344 -0.279121,0.446594 -0.03288,0.0411 -0.08457,0.06652 -0.111648,0.111648 -0.0327,0.0545 -0.05516,0.222636 -0.111649,0.279121 -0.06579,0.06579 -0.157507,0.101684 -0.223296,0.167473 -0.139561,0.139561 -0.139561,0.418682 -0.279122,0.558242 -0.04744,0.04744 -0.134185,0.0534 -0.167472,0.111649 -0.08211,0.143693 0.0061,0.342456 -0.167473,0.446594 -0.04787,0.02872 -0.117542,-0.02497 -0.167473,0 -0.586702,0.293351 -0.112231,0.09382 -0.334945,0.390769 -0.04993,0.06657 -0.164453,0.0528 -0.223297,0.111649 -0.09993,0.09993 -0.153783,0.29345 -0.223297,0.390769 -0.08447,0.118263 -0.202094,0.211703 -0.279121,0.334945 -0.1474,0.235841 0.181442,-0.01397 -0.05582,0.223297 -0.02942,0.02942 -0.08223,0.0264 -0.111648,0.05582 -0.06579,0.06579 -0.115864,0.145883 -0.167473,0.223297 -0.139704,0.209557 -0.05968,0.244478 -0.279121,0.39077 -0.04896,0.03264 -0.121523,0.01906 -0.167473,0.05582 -0.05239,0.04191 -0.06421,0.120031 -0.111648,0.167473 -0.280456,0.280455 -0.05887,-0.0087 -0.279121,0.167472 -0.186216,0.148973 -0.159759,0.21944 -0.39077,0.334946 -0.06862,0.03431 -0.155942,0.01909 -0.223297,0.05582 -0.0838,0.04571 -0.644501,0.399639 -0.781539,0.502418 -0.0421,0.03158 -0.06652,0.08457 -0.111648,0.111648 -0.05046,0.03028 -0.122268,0.01815 -0.167473,0.05582 -0.175667,0.146389 -0.388323,0.46452 -0.502418,0.66989 -0.04041,0.07275 -0.0528,0.164453 -0.111648,0.223297 -0.04161,0.04161 -0.118512,0.02318 -0.167473,0.05582 -0.03097,0.02064 0.01177,0.07634 0,0.111649 -0.01316,0.03947 -0.03274,0.07703 -0.05582,0.111648 -0.10795,0.161924 -0.264147,0.264147 -0.39077,0.39077 -0.06579,0.06579 -0.09683,0.162747 -0.167472,0.223297 -0.06318,0.05416 -0.158315,0.05966 -0.223297,0.111648 -0.03249,0.02599 -0.0212,0.08857 -0.05582,0.111649 -0.03097,0.02064 -0.07634,-0.01177 -0.111649,0 -0.112803,0.0376 -0.0635,0.230972 -0.111648,0.279121 -0.03585,0.03585 -0.743298,0.379011 -0.837364,0.390769 -0.166179,0.02077 -0.337224,-0.02753 -0.502418,0 -0.04104,0.0068 -0.07217,0.04267 -0.111648,0.05582 -0.123572,0.04119 -0.260513,0 -0.39077,0 -0.48381,0 -0.967619,0 -1.451429,0 -0.714326,0 -1.480203,0.06033 -2.177145,-0.05582 -0.357275,-0.05955 0.04962,0.09924 -0.446594,0 -0.01825,-0.0036 0.01765,-0.04994 0,-0.05582 -0.05296,-0.01765 -0.112732,0.01095 -0.167472,0 -0.214416,-0.04288 -0.404046,-0.237117 -0.614067,-0.279121 -0.05474,-0.01095 -0.114513,0.01765 -0.167472,0 -0.06365,-0.02122 -0.105179,-0.08673 -0.167473,-0.111649 -0.03455,-0.01382 -0.07634,0.01177 -0.111648,0 -0.02497,-0.0083 -0.03139,-0.04605 -0.05583,-0.05582 -0.07123,-0.02849 -0.152777,-0.0256 -0.223297,-0.05582 -0.06167,-0.02643 -0.105805,-0.08522 -0.167472,-0.111648 -0.03894,-0.01669 -0.376942,-0.153543 -0.446594,-0.167473 -0.05474,-0.01095 -0.114513,0.01765 -0.167473,0 -0.06365,-0.02122 -0.103823,-0.09043 -0.167472,-0.111649 -0.05296,-0.01765 -0.112408,0.0092 -0.167473,0 -0.145126,-0.02419 -0.366605,-0.135813 -0.502418,0 -0.06335,0.06335 -0.0481,0.305835 -0.05582,0.39077 -0.01358,0.149407 -0.0409,0.297315 -0.05582,0.446594 -0.05079,0.507934 0.01914,0.982472 -0.05582,1.507254 -0.0079,0.05526 0.02497,0.117542 0,0.167472 -0.01861,0.03722 -0.0962,0.01719 -0.111648,0.05582 -0.03102,0.07754 -0.02632,0.981707 0,1.06066 0.0246,0.07379 0.131894,0.152139 0.167473,0.223297 0.05235,0.104711 0.143729,0.574494 0.167472,0.614066 0.04062,0.0677 0.120105,0.104315 0.167473,0.167473 0.02233,0.02977 -0.01664,0.07836 0,0.111648 0.123027,0.246055 0.16951,0.400957 0.223297,0.669891 0.01026,0.05132 -0.01649,0.118011 0,0.167472 0.02632,0.07895 0.08533,0.14435 0.111648,0.223297 0.01052,0.03157 -0.02242,0.145052 0,0.167473 0.01316,0.01316 0.0455,-0.01548 0.05582,0 0.03264,0.04896 0.02951,0.114841 0.05583,0.167473 0.07096,0.141915 0.223793,0.224786 0.279121,0.390769 0.0745,0.223508 -0.03397,0.116524 0.111648,0.334945 0.01743,0.02615 0.198608,0.08696 0.223297,0.111649 0.04744,0.04744 0.05798,0.127217 0.111649,0.167473 0.04293,0.0322 0.544204,0.05426 0.558242,0.05582 0.07625,0.0085 0.147166,0.04631 0.223297,0.05582 0.330087,0.04126 0.663968,0.01322 1.004836,0.05582 0.181134,0.02264 0.379649,-0.03572 0.558242,0 0.0258,0.0052 0.03086,0.0475 0.05582,0.05582 0.223552,0.07452 0.558602,-0.04053 0.781539,0 0.08188,0.01489 0.14435,0.08533 0.223297,0.111649 0.167473,0.05582 0.05582,-0.02791 0.167473,0 0.260459,0.06511 0.516876,0.03947 0.781539,0.111648 0.39258,0.107068 0.06596,0.09337 0.390769,0.223297 0.03456,0.01382 0.07554,-0.009 0.111649,0 0.09845,0.02461 0.195075,0.131453 0.279121,0.167473 0.335204,0.143659 0.731231,0.193761 1.06066,0.334945 0.206663,0.08857 0.412961,0.178569 0.614066,0.279121 0.02354,0.01177 0.03722,0.03722 0.05582,0.05582 0.05582,0.03722 0.105179,0.08673 0.167472,0.111649 0.03455,0.01382 0.07836,-0.01664 0.111649,0 0.01664,0.0083 -0.01316,0.04267 0,0.05582 0.01316,0.01316 0.04034,-0.01032 0.05582,0 0.04379,0.0292 0.06954,0.08007 0.111648,0.111649 0.06658,0.04993 0.15558,0.06328 0.223297,0.111648 0.173438,0.123884 0.32624,0.329142 0.502418,0.446594 0.287561,0.191707 0.621598,0.34485 0.893188,0.558242 0.300826,0.236364 0.512795,0.568619 0.781539,0.837363 0.130256,0.130257 0.240871,0.2837 0.390769,0.39077 0.0059,0.0042 0.24063,0.09049 0.279121,0.167472 0.01664,0.03329 -0.01972,0.08009 0,0.111649 0.08484,0.135741 0.194283,0.255028 0.279121,0.390769 1.04536,1.672576 -0.167359,-0.241698 0.39077,0.781539 0.25976,0.476227 0.281925,0.228905 0.39077,0.446594 0.01664,0.03329 -0.0073,0.07515 0,0.111649 0.01729,0.08647 0.173306,0.43993 0.223296,0.502418 0.04191,0.05239 0.131914,0.05475 0.167473,0.111648 0.03101,0.04962 0.124054,0.393871 0.167473,0.502418 0.12018,0.300451 0.287896,0.584567 0.390769,0.893188 0.05864,0.175924 0.13725,0.432731 0.167473,0.614066 0.01224,0.07342 -0.01805,0.151087 0,0.223297 0.117206,0.468823 0.386243,0.912797 0.446594,1.395605 0.01154,0.09232 -0.02018,0.188297 0,0.279121 0.01805,0.08124 0.08975,0.143012 0.111648,0.223297 0.03462,0.126943 0.01422,0.265943 0.05582,0.39077 0.03431,0.102935 0.130393,0.177151 0.167473,0.279121 0.04208,0.115707 0.133938,1.429342 0.111648,1.563078 -0.0068,0.04104 -0.04898,0.07061 -0.05582,0.111649 -0.06249,0.374942 0,0.791288 0,1.172308 0,0.04217 0.03947,0.199473 -0.05582,0.223297 -0.464358,0.11609 -0.93107,-0.0022 -1.395605,0.05582 -0.05839,0.0073 -0.109221,0.0475 -0.167473,0.05582 -0.287225,0.04103 -0.743601,0.03126 -1.004836,-0.05582 -0.142494,-0.0475 -0.311718,-0.178338 -0.446594,-0.223297 -0.123572,-0.04119 -0.260513,0 -0.390769,0 -0.282992,0 -1.117804,0.06945 -1.395606,0 -0.04037,-0.01009 -0.07085,-0.04766 -0.111648,-0.05582 -0.20336,-0.04067 -0.472705,0.06573 -0.669891,0 -0.22336,-0.07445 -0.412329,-0.198426 -0.614066,-0.279121 -0.256844,-0.102737 -0.52372,-0.178858 -0.781539,-0.279121 -0.07756,-0.03016 -0.14435,-0.08533 -0.223297,-0.111648 -0.239648,-0.07988 -0.274606,0.0045 -0.446594,-0.167473 -0.150396,-0.150396 0.01895,-0.947982 -0.05582,-1.172309 -0.02122,-0.06365 -0.09043,-0.103823 -0.111649,-0.167472 -0.0233,-0.06989 -0.102337,-0.688425 -0.111648,-0.781539 -0.0093,-0.09258 0.02674,-0.190005 0,-0.279122 -0.03118,-0.103926 -0.123406,-0.17997 -0.167473,-0.279121 -0.221907,-0.499291 0.02036,-0.03021 -0.05582,-0.334945 -0.03831,-0.153248 -0.1661,-0.389397 -0.279121,-0.502418 -0.114197,-0.114197 -0.285402,-0.194455 -0.39077,-0.334945 -0.07912,-0.105494 -0.126905,-0.238554 -0.223297,-0.334946 -0.115502,-0.115502 0.0045,0.176503 -0.111648,-0.05582 -0.02632,-0.05263 -0.02951,-0.114841 -0.05582,-0.167472 -0.06705,-0.134103 -0.251102,-0.20918 -0.334946,-0.334946 -0.04402,-0.06602 -0.04273,-0.210203 -0.111648,-0.279121 -0.02942,-0.02942 -0.09024,-0.02014 -0.111648,-0.05582 -0.09759,-0.162648 -0.13315,-0.489596 -0.223297,-0.669891 -0.04275,-0.0855 -0.09948,-0.04366 -0.167473,-0.111648 -0.04161,-0.04161 -0.01422,-0.125864 -0.05582,-0.167473 -0.09646,-0.09646 -1.185851,-0.210469 -1.339781,-0.223297 -0.09272,-0.0077 -0.188297,0.02018 -0.279122,0 -0.08124,-0.01805 -0.145377,-0.08243 -0.223296,-0.111648 -0.212175,-0.07957 -0.6183,-0.11059 -0.837364,-0.05582 -0.08073,0.02018 -0.144349,0.08533 -0.223297,0.111648 -0.03531,0.01177 -0.07554,-0.009 -0.111648,0 -0.14733,0.03683 -0.297052,0.124746 -0.446594,0.167473 -0.126516,0.03615 -0.268601,0.007 -0.390769,0.05582 -0.279121,0.111648 0,0.08374 -0.167473,0.167473 -0.186139,0.09307 -1.100921,-0.01556 -1.172309,0.05582 -0.02632,0.02632 0.02134,0.08116 0,0.111648 -0.183539,0.262199 -0.504713,0.565128 -0.614066,0.893188 -0.04267,0.128002 0.01508,0.381783 0,0.502418 -0.0073,0.05839 -0.0475,0.10922 -0.05582,0.167472 -0.04074,0.285185 0.0697,0.614378 0,0.893188 -0.01009,0.04037 -0.04766,0.07085 -0.05582,0.111648 -0.0501,0.250494 0.0501,0.531046 0,0.781539 -0.07731,0.386534 -0.05582,0.777385 -0.05582,1.172309 0,0.157243 -0.07922,0.606885 0,0.725715 0.0292,0.04379 0.08007,0.06954 0.111649,0.111648 0.04993,0.06658 0.0528,0.164453 0.111648,0.223297 0.01316,0.01316 0.0475,-0.01664 0.05582,0 0.06214,0.124277 0,0.836258 0,1.004836 0,0.359916 0.06677,1.095167 0,1.395606 -0.01805,0.08124 -0.08879,0.143281 -0.111648,0.223297 -0.0344,0.120401 0.02464,0.267578 0,0.390769 -0.05244,0.262177 -0.01655,0.434232 -0.05582,0.669891 -0.0068,0.04104 -0.04898,0.07061 -0.05582,0.111648 -0.02384,0.143049 0.04704,0.361291 0,0.502418 -0.01316,0.03947 -0.05066,0.07036 -0.05582,0.111649 -0.07767,0.621394 0.03944,1.293671 -0.111648,1.898023 -0.0452,0.180818 0.07808,0.664424 0,0.781539 -0.02308,0.03462 -0.09304,0.01861 -0.111649,0.05582 -0.200369,0.40074 0.213405,-0.08533 -0.167472,0.39077 -0.164318,0.205397 -0.670389,0.223048 -0.893188,0.111648 -0.06044,-0.03022 -0.481268,-0.37667 -0.502418,-0.390769 -0.316125,-0.21075 -0.798402,-0.315989 -1.172308,-0.39077 -0.31113,-0.06223 -0.639096,-0.01155 -0.949012,-0.05582 -0.05825,-0.0083 -0.10922,-0.0475 -0.167473,-0.05582 -0.494843,-0.07069 -1.092053,0.132585 -1.563078,-0.05582 -0.03722,-0.01861 -0.07443,-0.03722 -0.111648,-0.05582 -0.01861,-0.01861 -0.03229,-0.04406 -0.05582,-0.05582 -0.154475,-0.07724 -0.346022,-0.125549 -0.502418,-0.223297 -0.123243,-0.07703 -0.210323,-0.204347 -0.334946,-0.279121 -0.05046,-0.03028 -0.118511,-0.02318 -0.167472,-0.05582 -0.01548,-0.01032 0.0083,-0.03918 0,-0.05582 -0.05445,-0.108895 -0.157208,-0.224796 -0.223297,-0.334946 -0.04787,-0.07978 -0.125864,-0.140079 -0.167473,-0.223296 -0.125645,-0.251291 -0.34592,-1.037286 -0.39077,-1.283958 -0.01664,-0.09154 0.0093,-0.186542 0,-0.279121 0.07507,-0.208617 -0.142507,-0.32766 -0.167472,-0.502418 -0.0563,-0.394096 0,-0.880876 0,-1.283957 0,-0.399681 -0.06979,-0.955967 0,-1.339781 0.03896,-0.214289 0.180582,-0.400494 0.223297,-0.614066 0.0146,-0.07299 -0.0082,-0.14932 0,-0.223297 0.02871,-0.258408 0.08529,-0.590828 0.167472,-0.837364 0.0083,-0.02497 0.0475,-0.03086 0.05582,-0.05582 0.01177,-0.03531 -0.01022,-0.07586 0,-0.111648 0.02753,-0.09635 0.08991,-0.1813 0.111648,-0.279121 0.02508,-0.112879 -0.0046,-0.533494 0.05582,-0.614067 0.04026,-0.05367 0.120031,-0.06421 0.167473,-0.111648 0.05543,-0.05543 0.15212,-0.466126 0.167473,-0.558242 0.02691,-0.161471 -0.02027,-0.340304 0,-0.502418 0.04563,-0.36506 0.09738,-0.742504 0.05582,-1.116485 -0.05333,-0.479953 -0.02989,-0.08968 -0.167473,-0.502418 -0.08251,-0.247528 -0.06938,-0.527901 -0.111648,-0.781539 -0.02125,-0.127489 -0.04327,-0.44428 -0.111649,-0.558242 -0.02708,-0.04513 -0.0921,-0.06278 -0.111648,-0.111648 -0.02073,-0.05183 0.01765,-0.114514 0,-0.167473 -0.04712,-0.141353 -0.19167,-0.228061 -0.279121,-0.334945 -0.17675,-0.216028 -0.320769,-0.457966 -0.502418,-0.669891 -0.05138,-0.05994 -0.123681,-0.101784 -0.167473,-0.167473 -0.225167,-0.33775 0.08093,-0.02235 -0.111648,-0.279121 -0.04737,-0.06316 -0.132167,-0.09686 -0.167473,-0.167472 -0.02632,-0.05263 -0.02555,-0.117015 -0.05582,-0.167473 -0.137199,-0.228664 -0.431032,-0.551819 -0.502418,-0.837363 -0.01805,-0.07221 0.01615,-0.150637 0,-0.223297 -0.02174,-0.09782 -0.08734,-0.181906 -0.111649,-0.279121 -0.06073,-0.242914 -0.05399,-0.531683 -0.111648,-0.781539 -0.289197,-1.253185 0.08094,0.414468 -0.279121,-0.725715 -0.43154,-1.366543 -0.01787,-0.238946 -0.223297,-1.06066 -0.02854,-0.114174 -0.0906,-0.219156 -0.111649,-0.334946 -0.01664,-0.09154 0.0093,-0.186542 0,-0.279121 -0.0094,-0.09441 -0.04638,-0.184709 -0.05582,-0.279121 -0.04052,-0.405186 0.03382,-0.822322 0,-1.228133 -0.0064,-0.07646 -0.04994,-0.1468 -0.05582,-0.223297 -0.139561,-1.814287 0.09304,0.465202 0,-0.837363 -0.01069,-0.149642 -0.04647,-0.296863 -0.05582,-0.446594 -0.0346,-0.553533 0.05519,-1.122858 0,-1.674726 -0.126766,-1.26766 -0.05582,-2.57312 -0.05582,-3.851871 0,-0.243694 0.09337,-0.787632 -0.223297,-0.893188 -0.147418,-0.04914 -0.109179,0.04318 -0.223297,0.111648 -0.05046,0.03027 -0.118512,0.02318 -0.167473,0.05582 -0.09953,0.06635 -0.458361,0.592791 -0.502418,0.66989 -0.01846,0.03231 0,0.07443 0,0.111649 -0.05582,0.111648 -0.09084,0.236413 -0.167472,0.334945 -0.05712,0.07344 -0.163734,0.096 -0.223297,0.167473 -0.0056,0.0068 -0.181275,0.432381 -0.223297,0.502418 -0.234193,0.39032 -0.617056,0.698415 -0.949012,1.004836 -0.2594,0.239446 -0.497544,0.568542 -0.781539,0.781539 -0.08737,0.06553 -0.21488,0.07111 -0.279121,0.167472 -0.138678,0.208017 -0.228275,0.419073 -0.39077,0.614067 -0.101081,0.121298 -0.233863,0.213647 -0.334945,0.334945 -0.427071,0.512485 -0.02194,0.159505 -0.446594,0.725715 -0.07895,0.105263 -0.1958,0.177285 -0.279121,0.279121 -0.08497,0.103853 -0.138326,0.231092 -0.223297,0.334945 -0.157856,0.192936 -0.342682,0.36656 -0.502418,0.558243 -0.09035,0.108423 -0.285461,0.378707 -0.334945,0.502418 -0.105045,0.262613 -0.09339,0.577543 -0.223297,0.837363 -0.05582,0.09304 -0.111648,0.186081 -0.167473,0.279121 0,0.03722 0.01177,0.07634 0,0.111648 -0.01664,0.04993 -0.095,0.06172 -0.111648,0.111649 -0.04703,0.141092 -0.0228,0.31332 -0.111648,0.446594 -0.03401,0.05102 -0.585195,0.711279 -0.614067,0.725714 -0.01664,0.0083 -0.04267,-0.01316 -0.05582,0 -0.165686,0.165687 -0.100107,0.282341 -0.223297,0.446594 -0.06622,0.0883 -0.303567,0.123872 -0.390769,0.167473 -0.141824,0.07091 0.05717,0.06672 -0.167473,0.111648 -0.05474,0.01095 -0.114513,-0.01765 -0.167473,0 -0.01765,0.0059 0.01664,0.0475 0,0.05582 -0.08112,0.04056 -0.504707,0.04374 -0.614066,0 -0.131579,-0.05263 -0.258078,-0.117714 -0.39077,-0.167473 -0.01742,-0.0065 -0.04267,0.01316 -0.05582,0 -0.02632,-0.02632 0.02632,-0.08533 0,-0.111649 -0.01316,-0.01316 -0.04034,0.01032 -0.05582,0 -0.145309,-0.09687 -0.290606,-0.201127 -0.446594,-0.279121 -0.137007,-0.0685 -0.354005,0.04947 -0.502418,0 C 7.129962,63.265299 6.731992,62.926014 6.66733,62.850576 6.61317,62.787396 6.59979,62.697847 6.555681,62.627279 6.378459,62.343723 6.067624,62.104938 5.941615,61.789915 5.889605,61.659886 5.861465,61.333363 5.829967,61.175849 c -0.02068,-0.103378 0.03101,-0.170574 0,-0.279121 -0.02286,-0.08002 -0.08533,-0.14435 -0.111649,-0.223297 -0.06626,-0.198786 0.04132,-0.463298 0,-0.669891 -0.03516,-0.175799 -0.09883,-0.364714 -0.05582,-0.558242 0.0593,-0.266866 0.184525,-0.529281 0.279121,-0.781539 0.08762,-0.233648 0.125147,-0.496697 0.223297,-0.725715 0.123371,-0.287867 0.381103,-0.528483 0.558242,-0.781539 0.405513,-0.579304 -0.03078,-0.0066 0.279121,-0.502418 0.09862,-0.157796 0.242624,-0.28503 0.334946,-0.446594 0.02919,-0.05109 0.02951,-0.114841 0.05582,-0.167472 0.09174,-0.183486 0.269813,-0.362847 0.334945,-0.558242 0.01177,-0.03531 -0.02064,-0.08068 0,-0.111649 0.02308,-0.03462 0.08223,-0.0264 0.111649,-0.05582 0.124366,-0.124367 0.214015,-0.325664 0.334945,-0.446594 0.01316,-0.01316 0.03722,0 0.05582,0 0.03722,-0.03722 0.08245,-0.06786 0.111648,-0.111648 0.09515,-0.142724 0.227169,-0.337527 0.39077,-0.446594 0.116342,-0.07756 0.232043,-0.0044 0.334945,-0.05582 0.0855,-0.04275 0.04366,-0.09948 0.111649,-0.167473 0.02021,-0.02021 0.650866,-0.269609 0.66989,-0.279121 0.422324,-0.211162 -0.315618,0.18089 0.223297,-0.223297 0.02977,-0.02233 0.07974,0.01915 0.111649,0 0.0677,-0.04062 0.107531,-0.116094 0.167472,-0.167473 0.177323,-0.15199 0.456054,-0.288581 0.614067,-0.446593 0.01316,-0.01316 -0.01032,-0.04034 0,-0.05582 0.09994,-0.149916 0.42666,-0.538309 0.558242,-0.669891 0.04093,-0.04093 0.232678,-0.105549 0.279121,-0.167473 0.373257,-0.497676 -0.175237,-0.05194 0.167473,-0.223297 0.04993,-0.02496 -0.01765,-0.114513 0,-0.167472 0.01899,-0.05698 0.808446,-0.603981 0.893187,-0.669891 0.175402,-0.136423 0.364438,-0.280024 0.558242,-0.39077 0.07225,-0.04129 0.158315,-0.05966 0.223297,-0.111648 0.03249,-0.02599 0.0212,-0.08857 0.05583,-0.111648 0.03096,-0.02064 0.08533,0.02631 0.111648,0 0.296185,-0.296186 -0.0591,-0.143672 0.223297,-0.39077 0.100984,-0.08836 0.229026,-0.140915 0.334945,-0.223297 0.172271,-0.133988 0.320458,-0.325287 0.502418,-0.446594 0.16962,-0.11308 0.951824,-0.533845 1.06066,-0.66989 0.405025,-0.506281 -0.21643,0.02448 0.167473,-0.167473 0.04993,-0.02497 -0.03947,-0.127999 0,-0.167473 0.04161,-0.04161 0.121523,-0.01906 0.167473,-0.05582 0.05239,-0.04191 0.06421,-0.120031 0.111648,-0.167472 0.02942,-0.02942 0.08223,-0.0264 0.111649,-0.05583 0.137863,-0.137863 0.23204,-0.31961 0.390769,-0.446593 0.176732,-0.141386 0.251969,-0.04942 0.334945,-0.111649 0.119731,-0.0898 0.549302,-0.472271 0.669891,-0.502418 0.109809,-0.02745 0.230909,-0.01124 0.334945,-0.05582 0.03824,-0.01639 0.01719,-0.09619 0.05583,-0.111648 0.06911,-0.02764 0.151087,0.01805 0.223296,0 0.01805,-0.0045 0,-0.03722 0,-0.05582 0.01861,-0.01861 0.0303,-0.04944 0.05583,-0.05582 0.05416,-0.01354 0.111648,0 0.167472,0 0.07443,-0.03722 0.143281,-0.08879 0.223297,-0.111648 0.215404,-0.06154 0.655213,0.09108 0.837364,0 0.529806,-0.264904 2.007602,0.167768 2.79121,0.05582 0.150711,-0.02153 0.251317,-0.127629 0.39077,-0.167473 0.0099,-0.0028 0.46521,-0.04094 0.502418,-0.05582 0.04887,-0.01955 0.06237,-0.09317 0.111648,-0.111648 0.211964,-0.07949 0.444444,-0.09115 0.669891,-0.111649 0.03604,-0.0033 0.296333,0.02361 0.39077,0 0.114174,-0.02854 0.21844,-0.09501 0.334945,-0.111648 0.07368,-0.01053 0.152684,0.02354 0.223297,0 0.04993,-0.01664 0.06457,-0.08811 0.111648,-0.111649 0.04655,-0.02327 1.399939,-0.01951 1.507254,0 0.11579,0.02105 0.224114,0.07207 0.334945,0.111649 0.148865,0.05582 0.29773,0.111648 0.446594,0.167472 0.05582,0 0.114513,-0.01765 0.167473,0 0.01765,0.0059 -0.01316,0.04267 0,0.05583 0.08191,0.08191 0.868328,-0.06411 1.06066,0 0.190131,0.06338 0.388291,0.117077 0.558242,0.223296 0.111579,0.06974 0.161434,0.220278 0.279121,0.279122 0.06862,0.03431 0.154674,0.02151 0.223297,0.05582 0.02693,0.01347 0.391988,0.224515 0.446594,0.279121 0.114807,0.114807 0.188164,0.319253 0.279121,0.446594 0.0122,0.01708 0.23692,0.292744 0.279121,0.334945 0.01316,0.01316 0.04267,-0.01316 0.05582,0 0.02632,0.02632 -0.03329,0.09501 0,0.111648 0.03329,0.01664 0.07709,-0.01382 0.111649,0 0.06229,0.02492 0.105179,0.08673 0.167473,0.111649 0.03455,0.01382 0.08068,-0.02064 0.111648,0 0.06839,0.04559 0.0259,0.138888 0.111648,0.167472 0.298148,0.09938 0.661361,0.07159 0.949012,0.167473 0.445233,0.148411 -0.407602,-0.05025 0.334945,0.05582 0.567035,0.081 0.0467,-0.0091 0.167473,0.111649 0.04107,0.04107 0.532684,0 0.558242,0 0.186721,0 0.896581,0.05413 1.004836,0 0.06001,-0.03001 0.105179,-0.08673 0.167473,-0.111649 0.05727,-0.02291 0.166616,0.02834 0.223297,0 0.06277,-0.03139 0.101346,-0.14543 0.167472,-0.167472 0.03531,-0.01177 0.07836,0.01664 0.111649,0 0.200771,-0.100386 0.04091,-0.09674 0.167473,-0.223297 0.01316,-0.01316 0.04034,0.01032 0.05582,0 0.04379,-0.0292 0.06786,-0.08245 0.111648,-0.111649 0.03383,-0.02255 0.262141,0.03396 0.279121,0 0.01664,-0.03329 -0.02632,-0.08533 0,-0.111648 0.03905,-0.03905 0.17171,0.02579 0.223297,0 0.07061,-0.03531 0.104315,-0.120104 0.167473,-0.167473 0.152139,-0.114104 0.191354,-0.0079 0.390769,-0.167472 0.02906,-0.02325 -0.02632,-0.08533 0,-0.111649 0.02632,-0.02632 0.08533,0.02632 0.111649,0 0.04161,-0.04161 0.02555,-0.117014 0.05582,-0.167472 0.07477,-0.124623 0.176355,-0.232179 0.279121,-0.334946 0.113761,-0.11376 0.257702,-0.180457 0.334945,-0.334945 0.04243,-0.08487 0.02582,-0.189107 0.05583,-0.279121 0.05389,-0.161665 0.210225,-0.252977 0.279121,-0.39077 0.01664,-0.03329 -0.01177,-0.07634 0,-0.111648 0.02137,-0.06412 0.133276,-0.07745 0.167472,-0.111649 0.05438,-0.05438 0.09431,-0.261786 0.167473,-0.334945 0.08269,-0.08269 0.207217,-0.11544 0.279121,-0.223297 0.02308,-0.03462 0.02254,-0.08668 0.05582,-0.111648 0.120902,-0.09068 0.317384,-0.12639 0.446594,-0.223297 0.08969,-0.06727 0.357935,-0.290616 0.446594,-0.334945 0.03329,-0.01664 0.07443,0 0.111648,0 0.07443,-0.03722 0.154056,-0.06549 0.223297,-0.111649 0.192223,-0.128148 0.02562,-0.121896 0.279121,-0.223297 0.03456,-0.01382 0.08068,0.02064 0.111649,0 0.03462,-0.02308 0.0264,-0.08223 0.05582,-0.111648 0.06802,-0.06802 0.211098,-0.09945 0.279121,-0.167473 0.01316,-0.01316 -0.01316,-0.04267 0,-0.05582 0.369105,-0.369105 -0.130464,0.209496 0.223297,-0.05582 0.05367,-0.04026 0.05926,-0.125561 0.111648,-0.167473 0.501507,-0.401205 0.0086,0.05153 0.223297,-0.05582 0.112213,-0.05611 0.215426,-0.163537 0.334946,-0.223297"
       id="path12" />
    <path
       style="fill:#ffd42a"
       id="path10"
       sodipodi:type="arc"
       sodipodi:cx="22.563208"
       sodipodi:cy="38.148388"
       sodipodi:rx="5.3451691"
       sodipodi:ry="5.2195644"
       sodipodi:start="1.6363414"
       sodipodi:end="1.4478877"
       sodipodi:open="true"
       sodipodi:arc-type="arc"
       d="m 22.213109,43.356744 a 5.3451691,5.2195644 0 0 1 -4.994163,-5.304556 5.3451691,5.2195644 0 0 1 5.190974,-5.121218 5.3451691,5.2195644 0 0 1 5.48311,4.822179 5.3451691,5.2195644 0 0 1 -4.674508,5.575428" />
    <path
       style="fill:#0066ff"
       d="m 66.802632,22.210526 -11.605264,-0.118421 -7.815789,6.513158 -5.289474,6.828948 0.789474,2.605263 3.078947,0.710526 8.921053,-9.355263 0.75,1.973684 -0.552632,9.789474 2.447369,2.328947 -3.276316,20.56579 7.342105,0.118421 2.56579,-19.421053 6.315789,1.894737 1.973685,5.013158 7.263157,0.473684 -1.973684,-9.197368 -9.157895,-5.210527 -1.381579,-0.236842 -0.276315,-6.868421 4.697368,1.736842 2.25,0.986842 10.184211,-5.763158 2.368421,-2.092105 -1.381579,-3.276316 -2.407895,-0.07895 -8.802632,3.907895 z"
       id="path14" />
    <path
       style="fill:#0066ff"
       id="path13"
       sodipodi:type="arc"
       sodipodi:cx="62.268181"
       sodipodi:cy="13.111227"
       sodipodi:rx="5.1916523"
       sodipodi:ry="5.6940703"
       sodipodi:start="1.6363414"
       sodipodi:end="1.4478877"
       sodipodi:open="true"
       sodipodi:arc-type="arc"
       d="m 61.928137,18.79307 a 5.1916523,5.6940703 0 0 1 -4.850727,-5.786788 5.1916523,5.6940703 0 0 1 5.041885,-5.5867834 5.1916523,5.6940703 0 0 1 5.325632,5.2605584 5.1916523,5.6940703 0 0 1 -4.540253,6.082286" />
    <path
       d="m 57.605,42.312 c 2.4766,0.9375 4.1055,1.3555 6.7656,1.793 2.0703,0.3125 4.0547,0.72266 6.0078,1.3711 1.2578,0.41797 2.125,1.4883 2.2695,2.8047 0.10547,0.94141 0.14844,2.0234 0.16406,2.7773 l 5.0586,0.0078 -0.51562,-4.7227 c -0.42188,-4.6367 -5.5312,-6.5469 -10.148,-7.3047 -0.83203,-0.13672 -1.4336,-0.83984 -1.4375,-1.6836 l 0.05859,-6.457 c 0.03125,-1.375 1.6445,-2.0586 2.6445,-1.1836 v -0.0039 c 1.1328,0.96484 2.2969,1.7773 3.4609,2.1875 1.0547,0.37109 2.1328,0.40625 3.207,-0.11328 l 9.0586,-5.043 c 0.48828,-0.30078 0.79297,-0.59766 0.95312,-1.1758 0.22266,-0.8125 -0.06641,-1.2109 -0.35938,-1.7852 -0.53906,-0.86719 -1.6797,-1.1523 -2.5859,-0.66016 l -6.8555,3.6992 c -1.4688,0.79297 -3.1367,0.57813 -4.4102,-0.51172 -2.3711,-2.0273 -4.6758,-4 -7.0938,-3.8555 l -7.5508,0.36328 v 0.0039 c -3.8906,0.33203 -9.25,7.6992 -12.754,12.262 l 0.0039,0.0039 c -0.48438,0.60937 -0.64844,1.9062 -0.01953,2.3945 l 0.0039,-0.0039 c 0.87891,0.67188 2.1133,0.88672 2.8398,0.0078 l 5.6797,-6.8633 c 0.58203,-0.72656 1.1211,-1.2539 1.7148,-1.5508 v -0.0039 c 1.1953,-0.62109 2.8203,-0.32031 2.707,0.85938 -0.46094,6.6133 -0.71094,9.1836 -0.74219,9.4883 -0.0078,0.82422 0.15234,1.3984 0.45703,1.8242 0.30469,0.4375 0.79297,0.76562 1.418,1.0742 z M 21.968,69.566 C 21.48753,80.257 21.26488,85.64 21.17894,87.718 h 5.375 c 0.13281,-2.9805 0.54297,-12.492 0.66797,-17.387 -1.9141,-0.14844 -3.4023,-0.32031 -5.2539,-0.76562 z m -2.6953,18.152 c 0.08594,-2.0703 0.31641,-7.6367 0.81641,-18.73 -1.7852,-0.79297 -2.6094,-1.9922 -2.8477,-4.0742 -0.0039,-0.03125 -0.0078,-0.0625 -0.0078,-0.09375 l -0.35938,-9.5898 c -0.26953,0.22266 -0.55078,0.57422 -0.84766,1.0586 l -4.3047,6.9883 c -1.8398,2.9883 -6.3242,2.207 -7.1406,-1.1211 -0.25391,-1.0273 -0.09375,-2.043 0.45703,-2.9453 2.5195,-4.1211 7.5625,-11.934 12.535,-12.902 v 0.0039 c 2.4023,-0.41797 5.0625,-0.74609 7.4648,-1.168 3.2578,-0.56641 5.8633,0.78906 8.5742,2.6484 0.57422,0.39453 1.5547,0.67969 2.0859,0.12891 l 7.1875,-7.4609 c 0.29688,-0.30859 0.63281,-0.53125 0.99219,-0.68359 -0.53125,-0.16406 -1.043,-0.42969 -1.5078,-0.78125 l 0.0039,-0.0039 c -1.5352,-1.1289 -1.4375,-3.6289 -0.34375,-5.0664 l 0.0039,0.0039 c 3.5977,-4.7305 9.3398,-12.605 14.113,-13.012 v 0.0039 c 2.4492,-0.16406 5.1445,-0.20312 7.5938,-0.36719 3.1875,-0.19141 5.7773,2.0273 8.4492,4.3086 0.66797,0.57422 1.4883,0.69922 2.2656,0.27734 l 6.8555,-3.6992 c 0.98438,-0.53125 2.1016,-0.59766 3.0859,-0.26562 l -1.1758,-8.1914 -1.3711,-0.80469 c -2.3047,-1.3555 -3.5195,0.60547 -6.4883,-0.71094 -0.52344,-0.23047 -1.6367,-0.58203 -2.5586,-0.87109 -1.1055,-0.34766 -2.0117,-0.63281 -2.1641,-1.1875 -0.16797,-0.60547 0.05078,-1.0078 0.67578,-1.1836 l 5.0078,-1.3828 c 1.0586,-0.29297 1.6641,-3.7852 4.1445,-3.7109 0.4375,0.015626 2.4688,0.050782 2.7461,0.13281 0.32031,0.085937 0.59375,0.33594 0.65625,0.77344 l 2.7305,19.059 c 0.01563,0.02734 0.03125,0.05859 0.04688,0.08594 0.50781,0.91406 0.60547,1.9531 0.34766,2.8906 -0.25391,0.91797 -0.83984,1.7422 -1.7188,2.2578 l -0.01172,0.0078 c -3.043,1.7383 -6.1406,3.418 -9.2031,5.1211 -2.9805,1.5547 -5.9688,0.01562 -8.3398,-1.8945 l -0.04297,5.6172 c 3.4297,0.57812 6.168,1.6016 8.125,3.0625 2.1016,1.5742 3.1602,3.457 3.457,5.9453 l 0.53516,4.875 h 13.98 c 0.96875,0 1.7578,0.79297 1.7578,1.7578 v 5.6406 c 0,0.96484 -0.79297,1.7578 -1.7578,1.7578 l -25.645,-0.0039 c -0.48047,0 -0.91797,-0.19922 -1.2383,-0.51953 l -0.0039,0.0039 c -0.31641,-0.31641 -0.51562,-0.75781 -0.51562,-1.2422 v -5.6406 c 0,-0.96875 0.78906,-1.7578 1.7578,-1.7578 h 2.7695 c -0.01563,-0.71875 -0.05469,-1.7266 -0.14844,-2.5742 -0.06641,-0.58203 -0.41797,-1.0156 -0.97266,-1.1992 -1.3672,-0.45312 -3.1953,-0.89844 -4.7227,-1.1523 -0.71094,5.5469 -1.5195,11.465 -2.5742,17.148 h 13.461 c 0.96875,0 1.7578,0.79297 1.7578,1.7578 v 5.6367 c 0,0.96484 -0.79297,1.7578 -1.7578,1.7578 l -25.641,-0.0039 c -0.48047,0 -0.91797,-0.19922 -1.2383,-0.51953 l -0.0039,0.0039 c -0.31641,-0.31641 -0.51562,-0.75781 -0.51562,-1.2422 v -5.6367 c 0,-0.96875 0.78906,-1.7578 1.7578,-1.7578 h 2.9531 l 2.957,-19.555 c -1.6875,-0.98047 -2.3828,-2.2578 -2.3945,-4.3516 0,-0.19531 0.21094,-2.082 0.66797,-8.5234 -0.38281,0.25781 -0.57812,0.51563 -0.97266,0.99219 l -5.6758,6.8555 c -0.42578,0.51172 -0.93359,0.85938 -1.4922,1.0586 0.99609,0.35156 1.5938,0.90234 2.1758,1.7305 1.2539,1.7773 0.17578,3.8086 -1.125,5.1953 l -8.543,9.082 c -0.05469,0.05859 -0.11719,0.10938 -0.1875,0.15234 -2.7617,1.7422 -5.7383,1.3906 -8.4492,-0.26953 l 0.55469,5.5977 c 5.6953,0.34375 11.258,2.1445 12.477,7.7266 l 1.3633,6.5234 h 13.492 c 0.96875,0 1.7578,0.79297 1.7578,1.7578 v 5.6406 c 0,0.96484 -0.79297,1.7578 -1.7578,1.7578 h -25.629 c -0.48047,0 -0.91797,-0.19922 -1.2383,-0.51953 l -0.0039,0.0039 c -0.31641,-0.31641 -0.51562,-0.75781 -0.51562,-1.2422 v -5.6406 c 0,-0.96875 0.78906,-1.7578 1.7578,-1.7578 h 3.1016 c -0.12891,-0.98438 -0.33203,-2.4258 -0.53125,-3.332 -0.125,-0.56641 -0.52734,-0.96484 -1.0977,-1.0898 -1.3867,-0.30078 -3.2891,-0.55078 -4.8203,-0.64453 -0.12891,4.918 -0.53125,14.23 -0.66406,17.285 h 11.824 c 0.96484,0 1.7578,0.79297 1.7578,1.7578 v 5.6367 c 0,0.96484 -0.79297,1.7578 -1.7578,1.7578 h -25.641 c -0.48047,0 -0.91797,-0.19922 -1.2383,-0.51953 l -0.0039,0.0039 c -0.31641,-0.31641 -0.51562,-0.75781 -0.51562,-1.2422 v -5.6367 c 0,-0.96875 0.78906,-1.7578 1.7578,-1.7578 h 4.625 z m 27.695,-45.129 c 0.61328,0.87109 -0.30859,2.1055 -0.95312,2.7891 l -8.457,8.9922 c -1.0195,0.61719 -2.0742,0.85547 -3.1367,0.77734 -1.2031,-0.08984 -2.4336,-0.58594 -3.6484,-1.4141 -0.51172,-0.34766 -1.1797,-0.375 -1.7148,-0.0625 l 0.0039,0.0039 c -0.53516,0.30469 -0.84375,0.90234 -0.79297,1.5195 l 0.63281,6.4297 c 0.09375,0.83203 0.76953,1.4766 1.6094,1.5234 4.7148,0.26172 9.8984,1.6016 10.871,6.1719 l 1.3086,6.1797 h -5.1836 c -0.12891,-1 -0.35937,-2.668 -0.59766,-3.7422 -0.28516,-1.2969 -1.2578,-2.2656 -2.5547,-2.5469 -1.9141,-0.41406 -4.0508,-0.64844 -6.0781,-0.71875 -2.0742,-0.07031 -4.9531,-0.47266 -6.8906,-1.0391 -1.375,-0.42969 -2.1484,-1.1992 -2.2461,-2.7109 l -0.39844,-10.664 c -0.0039,-0.41406 -0.27734,-0.79688 -0.69922,-0.91406 -1.5781,-0.4375 -2.793,0.74219 -3.6406,2.1328 l -4.2969,6.9805 c -0.28906,0.46875 -0.73828,0.77734 -1.2305,0.90234 -1.6641,0.41406 -3.1602,-1.4023 -2.1992,-2.9727 2.1367,-3.4961 7.0664,-11.207 11.266,-12.02 l 7.3984,-1.1562 c 0.02344,-0.0039 0.04297,-0.0039 0.06641,-0.0078 2.6641,-0.44531 4.8555,0.78516 7.1367,2.3477 1.3477,0.92578 3.3086,1.1445 4.5352,-0.125 l 7.1875,-7.4609 c 0.28906,-0.30078 0.70703,-0.37891 1.1406,-0.30469 0.75781,0.13281 1.1523,0.52734 1.5625,1.1094 z M 21.4327,32.015 c -3.4297,0.60156 -5.7344,3.8867 -5.1289,7.3164 0.60156,3.4297 3.8867,5.7305 7.3164,5.1289 3.4297,-0.60156 5.7344,-3.8867 5.1289,-7.3164 -0.60547,-3.4297 -3.8867,-5.7305 -7.3164,-5.1289 z m 3.625,2.6133 c -3.168,-2.2227 -7.543,0.45312 -6.8711,4.375 0.66016,3.8477 5.7031,4.9727 7.9492,1.7695 1.3906,-1.9883 0.91016,-4.75 -1.0781,-6.1445 z m 15.074,55 h -25.328 v 5.3281 h 25.328 z m 36.695,-80.949 -2.0156,0.55469 c 0.51953,0.17188 0.99609,0.34375 1.3164,0.48438 1.8789,0.83203 2.7461,-0.27344 4.8984,0.13281 0.66406,0.125 1.2305,0.35547 1.8438,0.71875 l -0.78516,-5.4766 -1.6758,-0.058594 c -0.95703,-0.019531 -1.5898,3.0938 -3.582,3.6445 z m -18.867,68.734 h -25.328 v 5.3281 h 25.328 z m 35.656,-24.438 h -25.328 v 5.3281 h 25.328 z m -17.828,12.219 h -25.328 v 5.3281 h 25.328 z m -17.758,-20.684 c 1.7891,0.63672 3.2539,0.96875 5.1445,1.3164 -0.69922,5.4336 -1.5664,11.766 -2.6367,17.453 h -5.3477 c 0.33594,-2.2695 1.207,-8.0898 2.8398,-18.77 z m 3.4688,-37.395 c -1.7227,0.10156 -3.2812,0.94531 -4.332,2.1484 -2.2852,2.6133 -2.0156,6.6289 0.59766,8.9102 2.6133,2.2852 6.6289,2.0156 8.9102,-0.59766 2.2891,-2.6211 2.0195,-6.6211 -0.59766,-8.9102 -1.2148,-1.0664 -2.8398,-1.668 -4.5781,-1.5508 z m 3.3242,2.9805 C 62.9985,8.502 60.1977,8.6896 58.6,10.51377 c -1.5938,1.8242 -1.4062,4.625 0.41797,6.2227 2.9297,2.5586 7.5625,0.3125 7.2969,-3.6172 -0.07813,-1.2148 -0.64453,-2.2812 -1.4922,-3.0234 z"
       fill-rule="evenodd"
       id="path1"
       sodipodi:insensitive="true"
       inkscape:label="LOGO" />
  </g>
</svg>
