<?xml version="1.0" encoding="UTF-8" standalone="no"?>
<svg
   version="1.1"
   x="0px"
   y="0px"
   viewBox="0 0 190.54668 190.54668"
   xml:space="preserve"
   id="svg6"
   sodipodi:docname="noun-hack-2277937.svg"
   width="190.54668"
   height="190.54668"
   inkscape:version="1.4.2 (f4327f4, 2025-05-13)"
   xmlns:inkscape="http://www.inkscape.org/namespaces/inkscape"
   xmlns:sodipodi="http://sodipodi.sourceforge.net/DTD/sodipodi-0.dtd"
   xmlns="http://www.w3.org/2000/svg"
   xmlns:svg="http://www.w3.org/2000/svg"
   xmlns:rdf="http://www.w3.org/1999/02/22-rdf-syntax-ns#"
   xmlns:cc="http://creativecommons.org/ns#"
   xmlns:dc="http://purl.org/dc/elements/1.1/"><defs
     id="defs6" /><sodipodi:namedview
     id="namedview6"
     pagecolor="#ffffff"
     bordercolor="#000000"
     borderopacity="0.25"
     inkscape:showpageshadow="2"
     inkscape:pageopacity="0.0"
     inkscape:pagecheckerboard="0"
     inkscape:deskcolor="#d1d1d1"
     inkscape:zoom="2.671875"
     inkscape:cx="43.415205"
     inkscape:cy="91.134503"
     inkscape:window-width="2498"
     inkscape:window-height="1057"
     inkscape:window-x="1912"
     inkscape:window-y="-8"
     inkscape:window-maximized="1"
     inkscape:current-layer="svg6" /><title
     id="title1">100 Miscellaneous 25 final</title><circle
     style="fill:#c83737"
     id="path6"
     cx="95.273338"
     cy="95.273338"
     r="95.273338" /><path
     style="fill:#3771c8"
     d="m 87.03942,56.817198 c -0.879609,0.904859 -2.14083,1.564447 -3.368421,1.871345 -0.121032,0.03026 -0.255915,-0.03945 -0.374269,0 -0.148613,0.04954 -0.366051,0.557294 -0.374269,0.561403 -0.111586,0.05579 -0.262684,-0.05579 -0.374269,0 -0.05579,0.0279 0.0279,0.131342 0,0.187135 -0.162663,0.325324 -0.398741,0.610347 -0.561404,0.935672 -0.05579,0.111586 0.08822,0.286053 0,0.374269 -0.04411,0.04411 -0.143026,-0.04411 -0.187134,0 -0.108758,0.108758 -0.108502,0.591273 -0.187135,0.748538 -0.100581,0.201164 -0.273687,0.36024 -0.374269,0.561404 -0.125742,0.251484 0.126221,0.996586 -0.187134,1.309941 -0.09863,0.09863 -0.275641,0.08851 -0.374269,0.187135 -0.04845,0.04845 -0.507429,1.148018 -0.561404,1.309941 -0.03945,0.118355 0.08822,0.286053 0,0.374269 -0.04411,0.04411 -0.143026,-0.04411 -0.187134,0 -0.06226,0.06226 0.01259,0.710773 0,0.748538 -0.107101,0.321303 -0.552775,0.674656 -0.748538,0.935673 -0.282875,0.377166 -0.244298,0.732893 -0.374269,1.122807 -0.08033,0.240982 -0.481076,0.507556 -0.561404,0.748538 -0.03945,0.118354 0.05579,0.262683 0,0.374269 -0.0279,0.05579 -0.143026,-0.04411 -0.187134,0 -0.09863,0.09863 -0.08851,0.27564 -0.187135,0.374269 -0.203621,0.203621 -0.244467,-0.332072 -0.374269,0.187134 -0.04539,0.181547 0.04539,0.379857 0,0.561404 -0.0214,0.08558 -0.159238,0.103445 -0.187134,0.187134 -0.03945,0.118355 0.02447,0.251936 0,0.374269 -0.06238,0.187135 -0.124757,0.374269 -0.187135,0.561404 -0.06238,0.06238 -0.159238,0.103445 -0.187134,0.187134 -0.03945,0.118355 0.02447,0.251936 0,0.374269 -0.119137,0.595685 -0.441911,1.086745 -0.561404,1.684211 -0.04893,0.244667 0.111586,0.525367 0,0.748538 -0.0279,0.05579 -0.143026,-0.04411 -0.187134,0 -0.139482,0.139482 -0.124757,0.374269 -0.187135,0.561403 -0.01973,0.05918 0,0.124757 0,0.187135 0,0.124756 0.03945,0.255915 0,0.374269 -0.05579,0.167378 -0.295366,0.216463 -0.374269,0.374269 -0.08369,0.167378 0.05918,0.383872 0,0.561403 -0.0279,0.08369 -0.147683,0.108232 -0.187134,0.187135 -0.0279,0.05579 0,0.124756 0,0.187134 -0.06238,0.187135 -0.09892,0.384972 -0.187135,0.561404 -0.279267,0.558534 -0.653181,1.119228 -0.935672,1.68421 -0.09981,0.199611 0.0998,0.548928 0,0.748539 -0.519708,1.039414 -0.999043,2.185219 -1.497076,3.181286 -0.05579,0.111586 0.03945,0.255915 0,0.374269 0.338873,0.782926 -0.295367,0.216463 -0.374269,0.374269 -0.124993,0.249985 0.08932,0.667723 0,0.935673 -0.04411,0.132324 -0.153306,0.238951 -0.187135,0.374269 -0.114163,0.456653 -0.138562,1.642791 0,2.058479 0.373858,1.121575 -0.04788,-0.470025 0.561404,0.748538 0.05579,0.111586 -0.05579,0.262684 0,0.374269 0.0279,0.05579 0.143026,-0.04411 0.187134,0 0.139482,0.139482 0.07772,0.397276 0.187135,0.561404 0.147431,0.221146 0.449072,0.261938 0.561403,0.374269 0.09863,0.09863 0.07822,0.287135 0.187135,0.374269 0.366669,0.293335 1.639851,0.517044 1.871345,0.748538 0.0743,0.0743 0,1.165462 0,1.309941 0,0.249513 0.0789,0.51183 0,0.748538 -0.116376,0.349126 -0.314349,0.314349 -0.561404,0.561404 -0.12279,0.12279 -0.417534,1.094137 -0.561403,1.309941 -0.09787,0.146801 -0.276402,0.227469 -0.374269,0.374269 -0.0346,0.0519 0,0.124757 0,0.187135 -0.06238,0.124756 -0.08851,0.27564 -0.187135,0.374269 -0.09863,0.09863 -0.27564,0.08851 -0.374269,0.187134 -0.139402,0.139402 -0.268531,0.642801 -0.374269,0.748538 -0.03448,0.03448 -0.526922,0.152653 -0.561403,0.187135 -0.09863,0.09863 -0.08851,0.27564 -0.187135,0.374269 -0.09737,0.09737 -1.01757,0.865514 -1.122807,0.935672 -0.517994,0.34533 -1.270914,0.491211 -1.871345,0.748538 -0.487115,-0.208273 -0.816424,0.595347 -1.122807,0.748538 -0.111585,0.05579 -0.274464,-0.07485 -0.374269,0 -0.179926,0.134945 -0.215235,0.40237 -0.374269,0.561404 -0.387188,0.387191 0.01514,-0.591675 -0.374269,0.187134 -0.126662,0.253327 -0.456312,0.672947 -0.561403,0.935677 -0.04633,0.11583 0,0.24951 0,0.37427 -0.06238,0.24951 -0.07212,0.51849 -0.187135,0.74853 -0.0789,0.15781 -0.308744,0.21046 -0.374269,0.37427 -0.160911,0.40228 -0.02712,0.90992 -0.187134,1.30994 -0.04329,0.10823 -0.723373,1.04731 -0.748538,1.12281 -0.05918,0.17753 0.103803,0.4057 0,0.5614 -0.146801,0.2202 -0.44305,0.3247 -0.561404,0.56141 -0.08369,0.16738 0.08369,0.39402 0,0.5614 -0.0797,0.15941 -0.437928,-0.18329 -0.561403,0.18714 -0.206021,0.61806 0.128766,1.41464 0,2.05848 -0.290213,1.45106 -0.187135,2.99375 -0.187135,4.49122 0,0.0818 -0.08524,1.2247 0,1.30995 0.04411,0.0441 0.143026,-0.0441 0.187135,0 0.114155,0.11415 0.838087,1.51343 0.935672,1.68421 0.28322,0.49563 0.704774,0.84814 0.935673,1.30994 0.244981,0.48996 -0.167936,1.32914 0.748538,2.24561 0.04411,0.0441 0.143026,-0.0441 0.187134,0 0.176432,0.17643 -0.128373,0.53459 0,0.74854 0.115714,0.19286 0.374269,0.24951 0.561404,0.37427 0.21353,0.14235 0.647956,0.4655 0.935672,0.5614 0.358674,0.11956 1.006958,-0.20199 1.309942,0 1.383693,0.92247 -0.980193,-0.15148 1.122807,0.37427 0.121031,0.0303 -0.08822,0.28606 0,0.37427 0.22054,0.22054 0.477741,0.40666 0.748538,0.5614 0.171267,0.0979 0.374269,0.12476 0.561403,0.18714 0.187135,0.24951 0.317858,0.5537 0.561404,0.74854 0.09742,0.0779 0.270465,-0.0692 0.374269,0 0.116056,0.0774 0.08851,0.27564 0.187134,0.37427 0.181862,0.18186 0.534542,0.0445 0.748538,0.18713 0.220201,0.1468 0.324695,0.44305 0.561404,0.5614 0.347613,0.17381 2.898639,0.84016 3.181286,1.12281 0.04411,0.0441 -0.0519,0.15253 0,0.18714 1.660161,1.10677 -0.509805,-0.62918 1.122807,0.18713 0.124757,0.0624 0.07108,0.2969 0.187135,0.37427 0.247844,0.16523 1.326779,0.0168 1.497076,0.18713 0.04411,0.0441 -0.05579,0.15924 0,0.18714 0.249985,0.12499 0.667723,-0.0893 0.935672,0 0.462737,0.15424 0.808972,0.47791 1.309942,0.5614 0.184588,0.0308 0.383872,-0.0592 0.561403,0 0.05918,0.0197 -0.05579,0.15924 0,0.18714 0.318562,0.15928 1.003052,-0.0175 1.309942,0.18713 0.1468,0.0979 0.216463,0.29537 0.374269,0.37427 0.223171,0.11159 0.503871,-0.0489 0.748538,0 0.749395,0.14988 1.479446,0.47627 2.245614,0.5614 0.309983,0.0345 0.625329,-0.031 0.935672,0 1.253309,0.12533 1.629476,0.53444 2.807018,0.74854 0.30686,0.0558 0.623782,0 0.935672,0 0.374269,0.0624 0.752411,0.10483 1.122807,0.18714 0.476038,0.10578 1.172389,0.35774 1.684211,0.18713 0.531128,-0.17704 0.752729,-0.60923 1.309942,-0.74854 0.383648,-0.0959 1.551987,0 1.68421,0 1.434701,0 2.869401,0 4.304091,0 0.384,0 0.94964,0.1201 1.30994,0 0.0837,-0.0279 0.10156,-0.16574 0.18714,-0.18713 0.44682,-0.11171 1.06849,0.0271 1.49708,-0.18714 0.35026,-0.17513 0.72357,-0.42832 1.1228,-0.5614 0.34487,-0.11496 0.73562,-0.0581 1.12281,-0.18713 0.74854,-0.24952 -0.0378,-0.17957 0.93567,-0.37427 0.12234,-0.0245 0.26269,0.0558 0.37427,0 0.92497,-0.46249 -0.12919,-0.37427 0.74854,-0.37427 0.94831,0 -0.22317,0.0558 0.74854,-0.18714 1.19101,-0.29775 2.22178,0.19905 3.36842,-0.37427 0.12475,-0.0624 0.23895,-0.1533 0.37427,-0.18713 0.18154,-0.0454 0.50222,0.17753 0.5614,0 0.0592,-0.17753 -0.0454,-0.37986 0,-0.5614 0.13703,-0.54814 0.82485,-0.72554 1.12281,-1.12281 0.23371,-0.31162 0.28712,-0.84853 0.5614,-1.12281 0.57439,-0.57439 0.1556,0.10934 0.74854,-0.18713 0.0558,-0.0279 -0.0441,-0.14303 0,-0.18714 0.25719,-0.25719 0.61035,-0.39874 0.93567,-0.5614 0.20842,-0.10421 1.28016,-0.50183 1.30994,-0.5614 0.0558,-0.11159 -0.0692,-0.27047 0,-0.37427 0.0774,-0.11606 0.27564,-0.0885 0.37427,-0.18714 0.0986,-0.0986 0.0885,-0.27564 0.18714,-0.37427 0.35561,-0.35561 0.89149,-0.46957 1.30994,-0.74853 0.36156,-0.24104 0.47135,-0.65849 0.74854,-0.93568 0.0441,-0.0441 0.14302,0.0441 0.18713,0 0.0345,-0.0345 0.15265,-0.52692 0.18713,-0.5614 0.13949,-0.13948 0.47319,-0.0107 0.56141,-0.18714 0.0558,-0.11158 -0.0394,-0.25591 0,-0.37426 0.21197,-0.63592 0.92875,-0.92875 1.30994,-1.30995 0.13828,-0.13828 0.63524,-1.27047 0.74854,-1.49707 0.12475,-0.18714 0.24951,-0.37427 0.37427,-0.56141 0.0624,0 0.14302,0.0441 0.18713,0 0.0882,-0.0882 -0.0558,-0.26268 0,-0.37427 0.14475,-0.28949 0.67059,-0.24959 0.74854,-0.5614 0.13209,-0.52838 -0.1321,-1.15583 0,-1.68421 0.28788,-1.1515 0.18713,-2.36141 0.18713,-3.55556 0,-0.52091 0.17314,-2.18705 0,-2.61988 -0.16705,-0.41764 -0.54737,-0.72048 -0.74853,-1.12281 -0.0558,-0.11158 0.0558,-0.26268 0,-0.37426 -0.11299,-0.22597 -0.39762,-0.87713 -0.56141,-1.12281 -0.10548,-0.15822 -0.52603,-0.32121 -0.5614,-0.37427 -0.10942,-0.16413 -0.0989,-0.38497 -0.18714,-0.5614 -0.16315,-0.32631 -0.98363,-1.14679 -1.30994,-1.30995 -0.87911,-0.43955 -1.97132,-0.93994 -2.80701,-1.49707 -0.25951,-0.173008 -0.528,-0.340866 -0.74854,-0.561406 -0.0441,-0.04411 0.0558,-0.159238 0,-0.187134 -0.11159,-0.05579 -0.26269,0.05579 -0.37427,0 -0.12713,-0.06356 -0.23803,-0.799435 -0.37427,-0.935673 -0.0986,-0.09863 -0.27564,-0.08851 -0.37427,-0.187134 -0.0784,-0.07842 -0.13043,-0.447989 -0.18713,-0.561404 -0.15508,-0.310151 -0.53645,-0.349315 -0.74854,-0.561403 -0.13948,-0.139482 -0.0777,-0.397276 -0.18714,-0.561404 -0.0755,-0.113315 -0.55748,-0.366438 -0.5614,-0.374269 -0.0558,-0.111585 0.0395,-0.255914 0,-0.374269 -0.11939,-0.358162 -0.53923,-0.0603 -0.74854,-0.374269 -0.0692,-0.103803 0.0642,-0.267291 0,-0.374269 -0.18221,-0.303693 -0.76264,-0.58961 -0.93567,-0.935672 -0.0279,-0.05579 0.0441,-0.143027 0,-0.187135 -0.11232,-0.112322 -0.53961,0.06539 -0.74854,-0.561403 -0.19004,-0.570131 0,-1.600369 0,-2.245614 0,-0.07706 -0.0495,-0.511868 0,-0.561404 0.0986,-0.09863 0.27564,-0.08851 0.37427,-0.187134 0.0882,-0.08822 -0.0395,-0.255915 0,-0.374269 0.45183,-1.355493 -0.054,0.295037 0.37427,-0.561404 0.0998,-0.19961 -0.0998,-0.548928 0,-0.748538 0.0882,-0.176432 0.42192,-0.04765 0.5614,-0.187134 0.0882,-0.08822 -0.11158,-0.318477 0,-0.374269 0.30935,-0.154675 0.81901,-0.03523 1.12281,-0.187135 0.11159,-0.05579 -0.0882,-0.286053 0,-0.374269 0.0441,-0.04411 0.15924,0.05579 0.18713,0 0.11159,-0.223171 -0.0789,-0.511829 0,-0.748538 0.0717,-0.214958 0.44677,-0.259635 0.56141,-0.374269 0.14891,-0.148911 0,-1.098578 0,-1.309941 0,-0.595336 0.18797,-2.337095 0,-2.807018 -0.0835,-0.208821 -0.27369,-0.36024 -0.37427,-0.561403 -0.19467,-0.389336 0.10759,-1.06673 0,-1.497076 -0.0974,-0.389813 -0.24651,-0.739541 -0.37427,-1.122808 -0.11868,-0.35604 0.17028,-0.969385 0,-1.309941 -0.15547,-0.31094 -0.2509,-0.56556 -0.37427,-0.935673 -0.0748,-0.224561 0.0748,-0.523976 0,-0.748538 -0.24951,-0.748538 -0.0624,-0.06238 -0.5614,-0.561403 -0.0559,-0.05591 0.006,-0.724446 0,-0.748538 -0.31513,-1.26049 -0.003,-0.0029 -0.37427,-0.374269 -0.13233,-0.132324 0.0454,-0.379856 0,-0.561404 -0.22592,-0.903662 -0.0889,0.0093 -0.37427,-0.561403 -0.0739,-0.14778 0.0526,-0.403584 0,-0.561404 -0.15215,-0.456448 -0.22212,-0.853492 -0.37427,-1.309941 -0.0589,-0.176621 0.12055,-0.627987 0,-0.748538 -0.0986,-0.09863 -0.27564,-0.08851 -0.37427,-0.187135 -0.04,-0.04002 -0.17221,-2.028624 -0.37427,-2.432748 -0.13948,-0.278964 -0.46277,-0.452653 -0.5614,-0.748538 -0.0395,-0.118354 0.0558,-0.262684 0,-0.374269 -0.0279,-0.05579 -0.14303,0.04411 -0.18714,0 -0.10573,-0.105738 -0.23486,-0.609136 -0.37426,-0.748538 -0.0441,-0.04411 -0.15924,0.05579 -0.18714,0 -0.0837,-0.167378 0.1038,-0.405698 0,-0.561404 -0.67303,-1.00954 -0.0582,0.128888 -0.74854,-0.561403 -0.0937,-0.0937 -0.26714,-0.614637 -0.37427,-0.748538 -0.90964,-1.13705 -0.19314,-0.191639 -0.93567,-0.748538 -0.74075,-0.555561 -0.012,-0.199095 -0.74854,-0.935673 -0.13948,-0.139482 -0.42192,-0.04765 -0.5614,-0.187134 -0.0969,-0.09686 -0.0903,-0.651678 -0.18713,-0.748538 -0.002,-0.0022 -1.11886,-0.74261 -1.12281,-0.748538 -0.0808,-0.121249 -0.0558,-0.617206 -0.18714,-0.748538 -0.0441,-0.04411 -0.13134,0.0279 -0.18713,0 -0.4379,-0.21895 -0.67984,-0.739059 -0.93567,-1.122807 -0.18923,-0.283843 -0.56857,-0.201462 -0.74854,-0.561404 -0.0279,-0.05579 0.0441,-0.143026 0,-0.187134 -0.13948,-0.139482 -0.42192,-0.04765 -0.5614,-0.187135 -0.37826,-0.378259 -0.65112,-0.995481 -1.12281,-1.309941 -0.25294,-0.168628 -2.93018,-0.08669 -3.18129,-0.187135 -0.16381,-0.06553 -0.20689,-0.318476 -0.37427,-0.374269 -0.23671,-0.0789 -0.50242,0.04102 -0.74854,0 -0.13758,-0.02293 -0.24194,-0.143026 -0.37426,-0.187134 -0.168426,-0.05614 -0.392987,0.05614 -0.561408,0 -0.08369,-0.0279 -0.103446,-0.159239 -0.187135,-0.187135 -0.48643,-0.162143 -1.162415,0 -1.68421,0"
     id="path8" /><path
     style="fill:#deaa87"
     d="m 81.953459,82.295483 c -1.336478,0.890985 0.349874,-0.127227 -0.727782,0.264648 -0.389411,0.141603 -0.741608,0.37153 -1.124755,0.529296 -0.62988,0.259362 -1.354981,0.402258 -1.984861,0.66162 -0.474326,0.195311 -0.914352,0.468081 -1.389403,0.661621 -0.228348,0.09303 -0.493864,0.05435 -0.727782,0.132324 -0.223186,0.07439 -0.384884,0.24658 -0.595459,0.33081 -0.04095,0.01638 -0.09287,-0.01973 -0.132324,0 -0.230686,0.115343 -0.313249,0.445573 -0.463134,0.595458 -0.112454,0.112454 -0.284518,0.152195 -0.396972,0.264649 -0.05623,0.05623 -0.0761,0.142259 -0.132324,0.198486 -0.05623,0.05623 -0.142259,0.0761 -0.198486,0.132324 -0.01139,0.01139 -0.467468,0.471801 -0.529297,0.595458 -0.0099,0.01973 0,0.04411 0,0.06616 -0.06616,0.08822 -0.120513,0.186676 -0.198486,0.264648 -0.01734,0.01734 -0.461198,0.389228 -0.463134,0.396972 -0.01605,0.06419 0.01605,0.1343 0,0.198487 -0.0076,0.03026 -0.04411,0.04411 -0.06616,0.06616 -0.02205,0.06616 -0.05248,0.130099 -0.06616,0.198486 -0.04788,0.239418 -0.02685,0.602933 0.132324,0.793944 0.354893,0.425872 0.983686,0.394474 1.455565,0.529297 0.161496,0.04614 0.303795,0.145373 0.463134,0.198486 0.345059,0.115019 0.69736,0.22215 1.058593,0.264648 0.197126,0.02319 0.397314,-0.01166 0.595458,0 0.177498,0.01044 0.352221,0.05006 0.529296,0.06616 0.254769,0.02316 0.857918,-0.134513 1.058593,0.06616 0.03487,0.03487 0.03881,0.09129 0.06616,0.132324 0.09555,0.143318 0.235264,0.253654 0.33081,0.396972 0.2349,0.35235 0.223075,0.795888 0.33081,1.190917 0.0367,0.134567 0.10497,0.260199 0.132324,0.396972 0.02365,0.118226 0.08457,0.891442 0.132324,1.058593 0.108636,0.380223 0.708443,1.724284 0.926269,2.051023 0.275323,0.412984 0.74929,0.633096 0.992431,1.058592 0.261298,0.457273 0.501788,0.951169 0.793944,1.389403 0.0346,0.0519 0.100231,0.07884 0.132324,0.132324 0.179929,0.05663 0.03239,0.180221 0.06616,0.264648 0.07083,0.177078 0.203867,0.346952 0.264648,0.529297 0.09698,0.290926 0.01802,0.258598 0.198486,0.529296 0.237951,0.356927 0.02059,-0.04557 0.264649,0.198486 0.134149,0.13415 0.209357,0.317391 0.33081,0.463134 0.102389,0.122867 0.188805,0.122643 0.33081,0.264649 0.245364,0.245365 0.401477,0.564635 0.727782,0.727785 0.168537,0.0843 0.358545,0.1188 0.529297,0.19848 0.625748,0.29202 0.261399,0.1971 0.727782,0.39698 0.0641,0.0275 0.140458,0.0275 0.198486,0.0662 0.33081,0.22054 0.07351,0.14702 0.33081,0.33081 0.154378,0.11027 0.300455,0.2332 0.463135,0.33081 0.04684,0.20173 0.183317,0.0255 0.264648,0.0662 0.3604,0.1802 0.782138,0.65689 1.124754,0.79394 0.06143,0.0246 0.139309,-0.0296 0.198487,0 0.08369,0.0418 0.123632,0.14235 0.198486,0.19849 0.311008,0.23325 0.728021,0.26479 1.058592,0.46313 0.273158,0.1639 0.562444,0.41023 0.860107,0.5293 0.104411,0.0418 0.230228,0.0159 0.33081,0.0662 0.126306,0.0632 0.213313,0.18631 0.33081,0.26465 0.268121,0.17874 0.577021,0.18926 0.860107,0.33081 0.09863,0.0493 0.176432,0.13232 0.264648,0.19848 0.154378,0.0441 0.31328,0.0747 0.463134,0.13233 0.582976,0.22422 1.105956,0.57421 1.720213,0.72778 0.937558,0.23439 2.783836,0.35432 3.705074,0 0.159719,-0.0614 0.719373,-0.36261 0.860107,-0.46314 0.05076,-0.0363 0.07883,-0.10023 0.132324,-0.13232 0.0598,-0.0359 0.136108,-0.035 0.198486,-0.0662 0.247162,-0.12358 0.474615,-0.28621 0.727782,-0.39697 0.103026,-0.0451 0.223099,-0.0339 0.330811,-0.0662 0.221096,-0.0663 0.386816,-0.18641 0.595456,-0.26465 0.65779,-0.24667 1.24522,-0.27452 1.9187,-0.39697 0.0605,-0.011 0.3575,-0.18157 0.39697,-0.19849 0.0654,-0.028 0.31731,-0.0527 0.39698,-0.13232 0.0349,-0.0349 0.0441,-0.0882 0.0662,-0.13233 0.15437,-0.0882 0.31519,-0.16602 0.46313,-0.26464 0.16046,-0.10698 0.20027,-0.26643 0.33081,-0.39698 0.27893,-0.27892 0.15056,0.0339 0.46313,-0.33081 0.0642,-0.0749 0.0776,-0.18258 0.13233,-0.26465 0.11027,-0.1654 0.22054,-0.13783 0.33081,-0.33081 0.0451,-0.079 0.0211,-0.18569 0.0662,-0.26464 0.0928,-0.16248 0.28469,-0.24727 0.39697,-0.39698 0.12484,-0.16644 0.23777,-0.3432 0.33081,-0.52929 0.11153,-0.22307 0.0149,-0.23368 0.19849,-0.46314 0.0308,-0.0385 0.10152,-0.0277 0.13232,-0.0662 0.0616,-0.077 0.0776,-0.182581 0.13233,-0.264645 0.0692,-0.103804 0.18979,-0.164843 0.26464,-0.264649 0.1339,-0.178521 -0.001,-0.108422 0.13233,-0.33081 0.11654,-0.19424 0.25865,-0.344875 0.39697,-0.529296 0.0132,-0.01764 -0.0183,-0.05393 0,-0.06616 0.058,-0.03869 0.13232,-0.04411 0.19849,-0.06616 0.0441,-0.08822 0.0626,-0.194907 0.13232,-0.264648 0.0493,-0.04932 0.14917,-0.01685 0.19849,-0.06616 0.0493,-0.04932 0.0169,-0.149172 0.0662,-0.198486 0.0312,-0.03119 0.10113,0.03119 0.13232,0 0.0493,-0.04931 0.0168,-0.149172 0.0662,-0.198487 0.0493,-0.04931 0.14046,-0.02748 0.19849,-0.06616 0.0779,-0.0519 0.11479,-0.156641 0.19848,-0.198486 0.0592,-0.02959 0.13931,0.02959 0.19849,0 0.0368,-0.01838 0.26955,-0.281801 0.33081,-0.33081 0.17955,-0.143644 0.42119,-0.1914 0.59546,-0.33081 0.0731,-0.05845 0.12234,-0.144101 0.19848,-0.198486 0.0803,-0.05733 0.19491,-0.06258 0.26465,-0.132324 0.0697,-0.06974 0.0692,-0.18888 0.13233,-0.264648 0.0509,-0.06109 0.14758,-0.07124 0.19848,-0.132324 0.0631,-0.07577 0.075,-0.184391 0.13233,-0.264649 0.10877,-0.152277 0.2882,-0.244694 0.39697,-0.396972 0.0573,-0.08026 0.08,-0.181011 0.13232,-0.264648 0.11689,-0.187018 0.24103,-0.373351 0.39697,-0.529296 0.0562,-0.05623 0.16293,-0.0612 0.19849,-0.132324 0.16265,-0.325294 -0.18905,-0.210284 0.0662,-0.529297 0.0436,-0.05446 0.14917,-0.01685 0.19849,-0.06616 0.0484,-0.04839 -0.0235,-0.260386 0,-0.33081 0.0463,-0.13894 0.15217,-0.258032 0.19848,-0.396972 0.0611,-0.183431 0.004,-0.416361 0.13233,-0.595458 0.13626,-0.19077 0.32687,-0.338527 0.46313,-0.529297 0.12349,-0.172879 0.15082,-0.358554 0.26465,-0.529296 -0.007,-0.131071 0.0974,-0.03129 0.13232,-0.06616 0.1607,-0.160695 -0.0197,-0.09715 0.13233,-0.198486 0.041,-0.02736 0.10273,-0.02671 0.13232,-0.06616 0.0418,-0.05579 0.0226,-0.144028 0.0662,-0.198486 0.0497,-0.06209 0.1364,-0.08265 0.19849,-0.132324 0.0487,-0.03897 0.0788,-0.100231 0.13232,-0.132325 0.2058,-0.123475 0.38834,-0.02876 0.59546,-0.132324 0.16589,-0.08294 0.41604,-0.168582 0.59546,-0.198486 0.0435,-0.0073 0.0918,0.01738 0.13232,0 0.1182,-0.05066 0.2133,-0.146258 0.33081,-0.198486 0.32756,-0.145583 0.72644,-0.14009 1.0586,-0.264648 0.0744,-0.02792 0.12305,-0.107179 0.19848,-0.132324 0.0628,-0.02092 0.13572,0.02092 0.19849,0 0.0209,-0.007 -0.0197,-0.0563 0,-0.06616 0.52194,0 -0.0515,0.04411 0.13232,-0.06616 0.10184,-0.0611 0.22699,-0.07465 0.33081,-0.132324 0.0463,-0.02573 0.3172,-0.211465 0.39697,-0.264648 0.2697,-0.179798 1.12469,-1.290054 1.32324,-1.587889 0.15524,-0.232849 0.6036,-0.664691 0.46314,-0.992431 -0.29758,-0.694347 -0.44352,-0.494538 -0.99243,-0.793944 -0.71846,-0.391888 0.0834,-0.154905 -0.72778,-0.529297 -0.14578,-0.06728 -0.31194,-0.07832 -0.46314,-0.132324 -0.15817,-0.05649 -0.3026,-0.149092 -0.46313,-0.198486 -0.40928,-0.125931 -0.84627,-0.143821 -1.25708,-0.264648 -0.17626,-0.05184 -0.44529,-0.261502 -0.59546,-0.33081 -0.17109,-0.07896 -0.35184,-0.135111 -0.5293,-0.198486 -0.28249,-0.10089 -0.57923,-0.159323 -0.8601,-0.264648 -0.20338,-0.07627 -0.3894,-0.195962 -0.59546,-0.264649 -0.19289,-0.0643 -0.3993,-0.07882 -0.59546,-0.132324 -0.79502,-0.216824 -1.58582,-0.449351 -2.38183,-0.66162 -0.44784,-0.119424 -0.93749,-0.317223 -1.38941,-0.396972 -0.23988,-0.04233 -0.48663,-0.03171 -0.72778,-0.06616 -2.4714,-0.353058 2.1895,0.162173 -1.9187,-0.33081 -0.36976,-0.04437 -0.75408,0.03707 -1.12475,0 -0.1119,-0.01119 -0.21869,-0.05754 -0.33081,-0.06616 -1.33518,-0.102706 -2.69791,0.05817 -4.03589,0 -0.643366,-0.02797 -1.272398,-0.06616 -1.918695,-0.06616 -1.609943,0 -3.219886,0 -4.829829,0 -0.745173,0 -1.505416,-0.03916 -2.249509,0 -0.804077,0.04232 -1.573264,0.132325 -2.381834,0.132325 -1.433511,0 -2.867021,0 -4.300532,0 -0.909001,0 -1.807883,-0.02432 -2.712644,0.06616 z"
     id="path9" /><g
     id="g6"
     transform="translate(31.273338,31.128168)"
     style="fill:#333333"><path
       d="M 120,43.1 V 16.6 c 0,-1.1 -0.9,-2 -2,-2 h -6.8 L 101.9,5.3 C 101.5,4.9 101,4.7 100.5,4.7 H 86.6 c -1.3,-3.6 -5.3,-5.5 -9,-4.2 -3.7,1.3 -5.5,5.3 -4.2,8.9 1.3,3.6 5.3,5.5 9,4.2 2.2,-0.8 3.9,-2.7 4.4,-5 H 99.7 L 109,18 c 0.4,0.4 0.9,0.6 1.4,0.6 H 116 V 52.1 L 112.1,56 H 107 C 105.8,32.3 85.7,14 62,15.1 39.8,16.1 22.1,33.8 21,56 H 15.9 L 12,52.1 V 18.6 h 5.6 c 0.5,0 1,-0.2 1.4,-0.6 l 9.3,-9.3 h 12.9 c 0.9,3.8 4.7,6.1 8.4,5.2 3.8,-0.9 6.1,-4.7 5.2,-8.4 -0.9,-3.7 -4.7,-6.1 -8.4,-5.2 -2.3,0.5 -4.2,2.2 -5,4.4 H 27.5 c -0.5,0 -1,0.2 -1.4,0.6 l -9.3,9.3 H 10 c -1.1,0 -2,0.9 -2,2 v 26.5 l -7.3,6 C 0.3,49.4 0,50 0,50.6 v 65.6 c 0,1.1 0.9,2 2,2 h 20 c 0.5,0 1,-0.2 1.4,-0.6 L 34.3,106.7 H 95 c 1.1,0 2,-0.9 2,-2 0,-1.1 -0.9,-2 -2,-2 H 33.5 c -0.5,0 -1,0.2 -1.4,0.6 L 21.2,114.2 H 4 V 51.5 l 4,-3.3 v 4.6 c 0,0.5 0.2,1 0.6,1.4 l 5.1,5.1 c 0.4,0.4 0.9,0.6 1.4,0.6 H 21 c 0.1,3 0.6,6 1.4,9 h -5.3 c -0.5,0 -1.1,0.2 -1.4,0.6 L 8.6,76.8 C 8.2,77.2 8,77.7 8,78.3 V 107 c 0,1.1 0.9,2 2,2 1.1,0 2,-0.9 2,-2 V 79.1 L 18,73 h 5.7 C 32,95.2 56.7,106.5 79,98.3 90.7,94 99.9,84.7 104.3,73 h 5.7 l 6,6.1 v 27.8 c 0,1.1 0.9,2 2,2 1.1,0 2,-0.9 2,-2 V 78.3 c 0,-0.5 -0.2,-1 -0.6,-1.4 l -7.1,-7.3 C 111.9,69.2 111.4,69 110.9,69 h -5.3 c 0.8,-2.9 1.2,-5.9 1.4,-9 h 5.9 c 0.5,0 1,-0.2 1.4,-0.6 l 5.1,-5.1 c 0.4,-0.4 0.6,-0.9 0.6,-1.4 v -4.6 l 4,3.3 v 60.6 h -18 c -0.8,0.3 -1.6,0.6 -2.4,1.1 L 92.7,124.2 H 32 c -1.1,0 -2,0.9 -2,2 0,1.1 0.9,2 2,2 h 61.5 c 0.5,0 1,-0.2 1.4,-0.6 l 11.4,-11.4 H 126 c 1.1,0 2,-0.9 2,-2 V 50.6 c 0,-0.6 -0.3,-1.2 -0.7,-1.5 z m -40,-33 c -1.7,0 -3,-1.3 -3,-3 0,-1.7 1.3,-3 3,-3 1.7,0 3,1.3 3,3 0,1.7 -1.3,3 -3,3 z m -32,-6 c 1.7,0 3,1.3 3,3 0,1.7 -1.3,3 -3,3 -1.7,0 -3,-1.3 -3,-3 0,-1.6 1.3,-3 3,-3 z M 93,84 C 78.7,100 54,101.3 38,87 36.9,86.1 35.9,85 35,84 V 74.3 L 46.5,63.2 c 2.3,9.6 12,15.6 21.7,13.2 6.6,-1.6 11.7,-6.7 13.3,-13.2 L 93,74.3 Z M 47.4,54.2 c 0.1,0 0.1,0 0.2,-0.1 5.3,-1.1 10.8,-1.7 16.2,-1.6 5,0 9.9,0.4 14.8,1.3 0.5,0.1 1,0.2 1.4,0.3 3.6,0.8 5.2,1.8 5.7,2.2 -1.1,0.8 -2.4,1.4 -3.7,1.7 V 55.5 H 78 V 59 C 78,66.7 71.7,73 64,73 56.3,73 50,66.7 50,59 v -3.5 h -4 v 2.6 c -1.5,-0.3 -2.8,-0.9 -4.1,-1.8 0.5,-0.4 2,-1.3 5.5,-2.1 z m -3.7,-3.1 4.7,-13.3 c 2.2,-6.2 7,-10.2 12.3,-10.2 h 6.7 c 5.3,0 10.1,4 12.3,10.2 l 4.7,13.4 C 83.3,50.8 82.1,50.5 81,50.2 80.5,50.1 80,50 79.4,49.9 74.3,49 69.1,48.5 63.8,48.5 58.1,48.4 52.3,49 46.7,50.2 h -0.2 c -1,0.3 -2,0.6 -2.8,0.9 z M 97,78.7 V 73.5 C 97,73 96.8,72.4 96.4,72.1 L 85.1,61.2 c 3.2,-1.3 4.7,-2.9 4.7,-4.9 v 0 c 0.2,-0.5 0.2,-1 0.1,-1.5 L 83.4,36.4 C 80.6,28.6 74.3,23.5 67.3,23.5 h -6.7 c -7,0 -13.3,5.1 -16.1,12.9 L 38,54.8 c 0,0.1 0,0.2 -0.1,0.2 -0.1,0.4 -0.2,0.8 -0.2,1.2 0,2 1.6,3.7 5,5 L 31.6,72.1 C 31.2,72.5 31,73 31,73.5 v 5.2 C 19.5,60.5 25,36.5 43.2,25 61.4,13.5 85.5,19 97,37.2 c 8,12.7 8,28.8 0,41.5 z"
       id="path1"
       style="fill:#333333" /><path
       d="m 35,115.9 c 0,1.1 0.9,2 2,2 h 0.4 l -0.8,1.1 c -0.6,0.9 -0.4,2.1 0.5,2.8 0.9,0.6 2.1,0.4 2.8,-0.5 l 1.4,-1.9 1.4,1.9 c 0.6,0.9 1.9,1.1 2.8,0.5 0.9,-0.6 1.1,-1.9 0.5,-2.8 l -0.8,-1.1 h 0.4 c 1.1,0 2,-0.9 2,-2 0,-1.1 -0.9,-2 -2,-2 h -0.4 l 0.8,-1.1 c 0.6,-0.9 0.4,-2.1 -0.5,-2.8 -0.9,-0.6 -2.1,-0.4 -2.8,0.5 0,0 0,0 0,0 l -1.4,1.9 -1.4,-1.9 c -0.6,-0.9 -1.9,-1.1 -2.8,-0.5 -0.9,0.6 -1.1,1.9 -0.5,2.8 0,0 0,0 0,0 l 0.8,1.1 H 37 c -1.1,0 -2,0.9 -2,2 z"
       id="path2"
       style="fill:#333333" /><path
       d="m 50.2,115.9 c 0,1.1 0.9,2 2,2 h 0.4 l -0.8,1.1 c -0.6,0.9 -0.4,2.1 0.5,2.8 0.9,0.6 2.1,0.4 2.8,-0.5 l 1.4,-1.9 1.4,1.9 c 0.6,0.9 1.9,1.1 2.8,0.5 0.9,-0.6 1.1,-1.9 0.5,-2.8 l -0.8,-1.1 h 0.4 c 1.1,0 2,-0.9 2,-2 0,-1.1 -0.9,-2 -2,-2 h -0.4 l 0.8,-1.1 c 0.6,-0.9 0.4,-2.1 -0.5,-2.8 -0.9,-0.6 -2.1,-0.4 -2.8,0.5 0,0 0,0 0,0 l -1.4,1.9 -1.4,-1.9 c -0.6,-0.9 -1.9,-1.1 -2.8,-0.5 -0.9,0.6 -1.1,1.9 -0.5,2.8 0,0 0,0 0,0 l 0.8,1.1 h -0.4 c -1.1,0 -2,0.9 -2,2 z"
       id="path3"
       style="fill:#333333" /><path
       d="m 65.4,115.9 c 0,1.1 0.9,2 2,2 h 0.4 L 67,119 c -0.6,0.9 -0.4,2.1 0.5,2.8 0.9,0.6 2.1,0.4 2.8,-0.5 l 1.4,-1.9 1.4,1.9 c 0.6,0.9 1.9,1.1 2.8,0.5 0.9,-0.6 1.1,-1.9 0.5,-2.8 l -0.8,-1.1 H 76 c 1.1,0 2,-0.9 2,-2 0,-1.1 -0.9,-2 -2,-2 h -0.4 l 0.8,-1.1 c 0.6,-0.9 0.4,-2.1 -0.5,-2.8 -0.9,-0.6 -2.1,-0.4 -2.8,0.5 0,0 0,0 0,0 l -1.4,1.9 -1.4,-1.9 c -0.6,-0.9 -1.9,-1.1 -2.8,-0.5 -0.9,0.6 -1.1,1.9 -0.5,2.8 0,0 0,0 0,0 l 0.8,1.1 h -0.4 c -1.1,0 -2,0.9 -2,2 z"
       id="path4"
       style="fill:#333333" /><path
       d="m 80.6,115.9 c 0,1.1 0.9,2 2,2 H 83 l -0.8,1.1 c -0.6,0.9 -0.4,2.1 0.5,2.8 0.9,0.6 2.1,0.4 2.8,-0.5 l 1.4,-1.9 1.4,1.9 c 0.6,0.9 1.9,1.1 2.8,0.5 0.9,-0.6 1.1,-1.9 0.5,-2.8 l -0.8,-1.1 H 91 c 1.1,0 2,-0.9 2,-2 0,-1.1 -0.9,-2 -2,-2 h -0.4 l 0.8,-1.1 c 0.6,-0.9 0.4,-2.1 -0.5,-2.8 -0.9,-0.6 -2.1,-0.4 -2.8,0.5 0,0 0,0 0,0 l -1.4,1.9 -1.4,-1.9 c -0.6,-0.9 -1.9,-1.1 -2.8,-0.5 -0.9,0.6 -1.1,1.9 -0.5,2.8 0,0 0,0 0,0 l 0.8,1.1 h -0.4 c -0.9,0 -1.8,0.9 -1.8,2 z"
       id="path5"
       style="fill:#333333" /></g><metadata
     id="metadata9"><rdf:RDF><cc:Work
         rdf:about=""><dc:title>100 Miscellaneous 25 final</dc:title></cc:Work></rdf:RDF></metadata></svg>
