<?xml version="1.0" encoding="UTF-8" standalone="no"?>
<svg
   data-name="Layer 1"
   viewBox="0 0 133.99035 133.99035"
   x="0px"
   y="0px"
   version="1.1"
   id="svg13"
   sodipodi:docname="2003-1.svg"
   width="133.99036"
   height="133.99036"
   inkscape:version="1.4.2 (f4327f4, 2025-05-13)"
   xmlns:inkscape="http://www.inkscape.org/namespaces/inkscape"
   xmlns:sodipodi="http://sodipodi.sourceforge.net/DTD/sodipodi-0.dtd"
   xmlns:xlink="http://www.w3.org/1999/xlink"
   xmlns="http://www.w3.org/2000/svg"
   xmlns:svg="http://www.w3.org/2000/svg">
  <defs
     id="defs13" />
  <sodipodi:namedview
     id="namedview13"
     pagecolor="#ffffff"
     bordercolor="#000000"
     borderopacity="0.25"
     inkscape:showpageshadow="2"
     inkscape:pageopacity="0.0"
     inkscape:pagecheckerboard="0"
     inkscape:deskcolor="#d1d1d1"
     inkscape:zoom="5.0381358"
     inkscape:cx="32.15475"
     inkscape:cy="53.492008"
     inkscape:window-width="2498"
     inkscape:window-height="1057"
     inkscape:window-x="1974"
     inkscape:window-y="-8"
     inkscape:window-maximized="1"
     inkscape:current-layer="svg13" />
  <path
     style="fill:#786721;stroke-width:1.2849"
     id="path13"
     sodipodi:type="arc"
     sodipodi:cx="66.995178"
     sodipodi:cy="66.995178"
     sodipodi:rx="66.995178"
     sodipodi:ry="66.995178"
     sodipodi:start="1.6287184"
     sodipodi:end="1.6280593"
     sodipodi:open="true"
     sodipodi:arc-type="arc"
     d="M 63.116848,133.878 A 66.995178,66.995178 0 0 1 0.11171373,63.127869 66.995178,66.995178 0 0 1 70.851467,0.1110774 66.995178,66.995178 0 0 1 133.87991,70.840446 66.995178,66.995178 0 0 1 63.160931,133.88055" />
  <path
     style="fill:#ffdd55"
     id="path14"
     sodipodi:type="arc"
     sodipodi:cx="-66.584114"
     sodipodi:cy="-67.403732"
     sodipodi:rx="53.052631"
     sodipodi:ry="53.052631"
     sodipodi:start="1.6287184"
     sodipodi:end="1.6280593"
     sodipodi:open="true"
     sodipodi:arc-type="arc"
     d="m -69.655315,-14.440071 a 53.052631,53.052631 0 0 1 -49.892965,-56.026135 53.052631,53.052631 0 0 1 56.017912,-49.902194 53.052631,53.052631 0 0 1 49.911427,56.009686 53.052631,53.052631 0 0 1 -56.001464,49.920656"
     transform="rotate(179.64952)" />
  <path
     style="fill:#ffdd55"
     id="path14-9"
     sodipodi:type="arc"
     sodipodi:cx="63.679836"
     sodipodi:cy="70.154015"
     sodipodi:rx="53.052631"
     sodipodi:ry="53.052631"
     sodipodi:start="1.6287184"
     sodipodi:end="1.6280593"
     sodipodi:open="true"
     sodipodi:arc-type="arc"
     d="M 60.608636,123.11768 A 53.052631,53.052631 0 0 1 10.71567,67.091541 53.052631,53.052631 0 0 1 66.733582,17.189344 53.052631,53.052631 0 0 1 116.64501,73.199033 53.052631,53.052631 0 0 1 60.643545,123.11969"
     transform="rotate(-2.7695097)" />
  <path
     style="fill:#ff6600"
     id="path15"
     sodipodi:type="arc"
     sodipodi:cx="42.129444"
     sodipodi:cy="47.062634"
     sodipodi:rx="16.631578"
     sodipodi:ry="16.421053"
     sodipodi:start="1.6287184"
     sodipodi:end="1.6280593"
     sodipodi:open="true"
     sodipodi:arc-type="arc"
     d="M 41.166647,63.456148 A 16.631578,16.421053 0 0 1 25.525599,46.114725 16.631578,16.421053 0 0 1 43.086769,30.668807 16.631578,16.421053 0 0 1 58.733605,48.005139 16.631578,16.421053 0 0 1 41.177591,63.456771" />
  <path
     style="fill:#ff6600"
     id="path16"
     sodipodi:type="arc"
     sodipodi:cx="44.063919"
     sodipodi:cy="63.540371"
     sodipodi:rx="8.9318752"
     sodipodi:ry="7.8650122"
     sodipodi:start="1.6287184"
     sodipodi:end="1.6280593"
     sodipodi:open="true"
     sodipodi:arc-type="arc"
     d="m 43.546856,71.392193 a 8.9318752,7.8650122 0 0 1 -8.399918,-8.305831 8.9318752,7.8650122 0 0 1 9.431106,-7.397963 8.9318752,7.8650122 0 0 1 8.403026,8.303394 8.9318752,7.8650122 0 0 1 -9.428337,7.400699" />
  <path
     style="fill:#9dac93"
     d="m 81.230445,69.07317 0.09924,6.053827 6.053826,1.935239 1.687132,-7.840201 z"
     id="path18" />
  <path
     style="fill:#9dac93"
     d="m 85.732019,46.328511 0.07018,9.543859 -4.45614,10.877193 10.877189,-0.175438 -0.07018,9.614035 10.877198,-3.754386 4.91227,-11.578948 0.63158,-13.298245 -1.82456,-0.982456 -0.87719,1.578947 -1.57895,13.192983 -2.66666,3.192982 c 0,0 -1.36842,-1.298246 -1.19299,-1.263158 0.17544,0.03509 2.42106,-7.754386 2.42106,-7.754386 l 0.17544,-10.561403 h -3.1579 l -0.596491,12.175438 -3.789474,4.77193 -3.929824,-0.03509 -1.578948,-2.561403 -0.350877,-9.54386 z"
     id="path19" />
  <path
     style="fill:#803300"
     d="m 77.359965,71.157274 -19.15391,11.958789 -0.942809,-0.942809 -4.416316,-17.764507 -2.084104,3.27502 -3.820858,3.87048 -5.259882,0.595458 -3.721614,-2.28259 5.607233,23.967198 0.744322,4.465938 4.118587,3.721619 3.026914,0.99243 5.756097,-0.74433 26.497896,-22.280064 -5.607233,-1.835996 z"
     id="path20" />
  <path
     style="fill:#225500"
     d="m 48.92683,77.707316 -0.148865,5.210261 -0.148865,5.061396 0.496216,9.031118 3.374264,1.488646 1.736753,-1.29016 -0.148864,-7.989066 3.423885,-6.15307 -1.042052,-3.671993 -6.450799,-2.530698 z"
     id="path17" />
  <g
     id="g13"
     transform="translate(24.655761,30.080177)">
    <path
       d="m 18.98,37.44 c 2.11,0 3.83,-1.72 3.83,-3.83 0,-2.11 -1.72,-3.83 -3.83,-3.83 -2.11,0 -3.83,1.72 -3.83,3.83 0,2.11 1.72,3.83 3.83,3.83 z m 0,-5.86 c 1.12,0 2.03,0.91 2.03,2.03 0,1.12 -0.91,2.03 -2.03,2.03 -1.12,0 -2.03,-0.91 -2.03,-2.03 0,-1.12 0.91,-2.03 2.03,-2.03 z"
       id="path1" />
    <path
       d="m 14.05,6.01 c 0.07,0 0.13,0 0.2,-0.02 0.94,-0.21 1.96,-0.33 3.02,-0.35 0.5,-0.01 0.89,-0.42 0.88,-0.92 -0.01,-0.5 -0.46,-0.86 -0.92,-0.88 -1.18,0.03 -2.32,0.16 -3.38,0.4 -0.48,0.11 -0.79,0.59 -0.68,1.08 0.09,0.42 0.47,0.7 0.88,0.7 z"
       id="path2" />
    <path
       d="m 4,18.24 c 0,0 0.04,0 0.06,0 0.47,0 0.87,-0.37 0.9,-0.84 C 4.96,17.32 5.5,9.82 11.71,6.85 12.16,6.64 12.35,6.1 12.13,5.65 11.92,5.2 11.38,5.01 10.93,5.23 3.76,8.65 3.18,16.94 3.15,17.29 c -0.03,0.5 0.35,0.92 0.84,0.95 z"
       id="path3" />
    <path
       d="m 60.17,49.81 c -0.07,-0.32 -0.3,-0.58 -0.62,-0.68 l -5.44,-1.69 v -5.92 c 0,-0.31 -0.16,-0.59 -0.41,-0.76 -0.26,-0.17 -0.58,-0.19 -0.86,-0.06 -0.99,0.45 -2.04,0.94 -3.12,1.46 -0.53,-0.57 -1.12,-1 -1.75,-1.3 -0.45,-0.21 -0.99,-0.02 -1.2,0.43 -0.21,0.45 -0.02,0.99 0.43,1.2 0.28,0.13 0.54,0.3 0.79,0.51 -5.16,2.55 -10.82,5.72 -14.76,8.95 -0.22,-2.31 -0.56,-4.51 -0.97,-6.58 0.16,-0.28 0.5,-0.78 1.14,-1.13 C 33.84,44 34,43.45 33.76,43.02 33.52,42.59 32.97,42.43 32.54,42.66 32.25,42.82 32.01,43 31.79,43.18 30.38,37.08 28.5,32.56 27.75,30.9 31.97,27.65 34.48,22.61 34.48,17.25 34.48,7.74 26.74,0 17.23,0 7.72,0 0,7.74 0,17.25 c 0,4.37 1.64,8.46 4.44,11.57 -0.3,0.34 -0.69,0.81 -1.09,1.37 -0.29,0.4 -0.2,0.97 0.21,1.26 0.16,0.11 0.34,0.17 0.52,0.17 0.28,0 0.56,-0.13 0.73,-0.38 0.34,-0.47 0.65,-0.86 0.91,-1.16 1.23,1.1 2.62,2.04 4.16,2.76 -0.02,0.25 -0.04,0.5 -0.04,0.76 0,2.41 0.95,4.6 2.48,6.23 1.14,4.44 2.87,11.39 4.08,16.87 -0.39,0.06 -0.88,0.12 -1.41,0.13 -0.5,0 -0.9,0.41 -0.89,0.91 0,0.49 0.41,0.89 0.9,0.89 v 0 c 0.68,0 1.3,-0.08 1.78,-0.17 0.14,0.64 0.26,1.26 0.38,1.83 0,0 0,0 0,0 0,0 0,0 0,0 0.39,1.96 0.63,3.47 0.65,4.22 0.05,2.53 1.72,6.07 4.84,7.96 1.2,0.73 2.86,1.36 5.02,1.36 1.62,0 3.51,-0.36 5.69,-1.29 0.49,-0.11 0.96,-0.32 1.35,-0.66 L 54.95,54.8 c 0.43,0.24 1.06,0.57 1.82,0.86 0.11,0.04 0.21,0.06 0.32,0.06 0.36,0 0.7,-0.22 0.84,-0.58 0.18,-0.46 -0.05,-0.98 -0.52,-1.16 -0.36,-0.14 -0.69,-0.29 -0.98,-0.43 l 3.42,-2.89 c 0.25,-0.21 0.37,-0.54 0.3,-0.87 z M 28.74,66.83 c -0.82,0.8 -2.01,0.76 -2.86,0.34 -0.35,-0.17 -1.44,-0.84 -1.05,-2.09 0.81,-2.61 0.14,-5.79 -0.19,-7.03 0.21,-0.25 0.4,-0.52 0.55,-0.81 0.67,-1.29 0.63,-2.9 -0.09,-4.78 -0.8,-2.07 -0.15,-3.56 0.24,-4.18 3.03,0.14 5.04,1.06 5.99,2.77 0.09,0.83 0.17,1.68 0.23,2.53 -3.56,4.03 -3.62,9.18 -2.82,13.26 z M 16.13,47.65 c 1.24,0.58 2.99,1.09 5.04,0.83 0.77,-0.1 1.49,-0.16 2.17,-0.2 -0.44,1.11 -0.71,2.77 0.08,4.82 0.54,1.4 0.6,2.48 0.17,3.31 -0.72,1.39 -2.83,2.05 -4.87,2.58 -0.7,-3.38 -1.7,-7.64 -2.6,-11.33 z m 14.79,0.38 c -1.46,-0.99 -3.45,-1.52 -5.98,-1.57 -0.05,0 -0.09,0 -0.13,0 -1.18,-0.02 -2.46,0.05 -3.87,0.23 -2.7,0.34 -4.78,-1.02 -5.41,-1.48 -0.34,-1.37 -0.64,-2.59 -0.89,-3.57 1.29,0.7 2.77,1.1 4.34,1.1 4.24,0 7.8,-2.9 8.82,-6.82 1.07,3.02 2.32,7.24 3.11,12.1 z M 32.7,17.26 c 0,4.67 -2.12,9.07 -5.71,11.98 -0.32,-0.59 -0.71,-1.13 -1.15,-1.63 L 28.43,6.63 c 2.64,2.77 4.26,6.51 4.26,10.63 z M 17.25,1.81 c 3.61,0 6.92,1.25 9.55,3.33 l -0.78,6.29 C 11.47,11.19 5.63,20.92 3.84,24.95 2.52,22.66 1.79,20.02 1.79,17.25 1.79,8.73 8.72,1.8 17.25,1.8 Z M 6.33,28.2 c 0,0 0,-0.01 0,-0.02 0,0 0,0 -0.01,0 C 5.87,27.73 5.45,27.26 5.06,26.76 5.86,24.42 10.55,13.07 25.82,13.24 L 24.23,26.15 C 22.75,25.11 20.94,24.49 19,24.49 c -4.14,0 -7.64,2.77 -8.75,6.55 C 8.79,30.29 7.48,29.33 6.36,28.21 Z m 12.65,-1.92 c 4.04,0 7.33,3.29 7.33,7.33 0,4.04 -3.29,7.33 -7.33,7.33 -4.04,0 -7.33,-3.29 -7.33,-7.33 0,-4.04 3.29,-7.33 7.33,-7.33 z m 4.6,44.67 C 20.74,69.23 19.64,66.08 19.61,64.5 19.6,63.77 19.4,62.43 19.08,60.75 c 1.39,-0.36 2.82,-0.77 4.01,-1.45 0.28,1.33 0.57,3.5 0.03,5.24 -0.52,1.68 0.27,3.38 1.96,4.23 0.62,0.31 1.35,0.5 2.1,0.5 0.69,0 1.38,-0.16 2.02,-0.53 0.18,0.64 0.36,1.23 0.55,1.77 0.15,0.43 0.4,0.81 0.71,1.13 -2.61,0.68 -4.95,0.46 -6.86,-0.7 z m 10.07,-0.51 c -0.29,0.14 -0.57,0.26 -0.85,0.38 -0.15,0.01 -0.3,0 -0.45,-0.04 C 31.92,70.66 31.59,70.35 31.44,69.93 30.02,65.84 28.5,58.26 34.17,53.51 38.89,49.57 46.4,45.67 52.31,42.93 v 5.17 c 0,0.39 0.26,0.74 0.63,0.86 l 4.5,1.4 -23.8,20.08 z"
       id="path4" />
    <path
       d="m 64.6,38.34 -7.78,0.17 c -0.49,0.01 -0.88,0.41 -0.88,0.9 v 6.02 c 0,0.42 0.29,0.79 0.7,0.88 l 6.65,1.48 c 0.06,0.01 0.13,0.02 0.2,0.02 0.18,0 0.36,-0.05 0.51,-0.16 0.21,-0.14 0.34,-0.36 0.38,-0.61 l 1.12,-7.67 c 0.04,-0.26 -0.04,-0.53 -0.22,-0.73 -0.18,-0.2 -0.43,-0.3 -0.69,-0.3 z m -1.85,7.48 -5,-1.11 v -4.42 l 5.83,-0.13 z"
       id="path5" />
    <path
       d="m 84.57,17.79 c -0.06,-1.17 -1.02,-2.08 -2.19,-2.08 -0.6,0 -1.17,0.24 -1.58,0.68 -0.42,0.44 -0.64,1.03 -0.61,1.64 0.35,7.56 -1.49,12.93 -2.61,15.46 -0.06,0.15 -0.19,0.19 -0.25,0.21 -0.07,0.02 -0.2,0.03 -0.34,-0.08 -0.15,-0.12 -0.19,-0.32 -0.09,-0.49 2.81,-5.04 2.57,-13.93 2.34,-17.52 -0.08,-1.29 -1.16,-2.3 -2.46,-2.3 -0.68,0 -1.31,0.27 -1.78,0.76 -0.47,0.49 -0.71,1.13 -0.68,1.81 0.35,8.4 -0.07,12.79 -3.42,14.99 -2.29,1.51 -3.82,0.32 -4.69,-0.94 -0.03,-0.04 -0.04,-0.09 -0.03,-0.15 0.64,-6.92 -0.19,-11.43 -2.46,-13.4 -1.22,-1.06 -2.57,-1.09 -3.19,-0.95 -0.23,0.06 -0.44,0.2 -0.56,0.41 -0.12,0.2 -0.16,0.45 -0.1,0.68 0.02,0.07 1.7,7.03 -0.5,10.92 -2.45,4.33 -3.36,8.71 -3.4,8.89 -0.05,0.27 0.01,0.54 0.18,0.75 0.17,0.21 0.43,0.33 0.7,0.33 h 10.07 l -0.17,8.6 c 0,0.27 0.11,0.53 0.32,0.71 0.16,0.14 0.37,0.21 0.58,0.21 0.06,0 0.12,0 0.18,-0.02 2.31,-0.46 4.18,-0.98 5.72,-1.5 -0.07,0.15 -0.16,0.3 -0.26,0.45 -0.28,0.41 -0.18,0.97 0.23,1.25 0.16,0.11 0.33,0.16 0.51,0.16 0.29,0 0.57,-0.14 0.74,-0.39 0.48,-0.69 0.75,-1.45 0.83,-2.25 1.21,-0.52 2.11,-1.02 2.75,-1.45 0.86,-0.57 1.48,-1.43 1.75,-2.42 0.45,-1.61 0.99,-2.58 1.56,-3.6 0.74,-1.31 1.57,-2.8 2.24,-5.74 1,-4.38 0.8,-11 0.67,-13.64 z m -2.43,13.24 c -0.61,2.69 -1.35,3.99 -2.06,5.26 -0.6,1.07 -1.22,2.18 -1.73,4 -0.16,0.58 -0.52,1.07 -1.01,1.4 -1.13,0.75 -3.73,2.11 -8.79,3.24 l 0.17,-8.39 c 0,-0.24 -0.09,-0.48 -0.26,-0.65 -0.17,-0.17 -0.4,-0.27 -0.64,-0.27 h -9.84 c 0.41,-1.53 1.33,-4.45 2.93,-7.29 1.96,-3.47 1.35,-8.66 0.93,-11.01 0.22,0.09 0.47,0.23 0.72,0.46 1,0.9 2.56,3.64 1.81,11.84 -0.04,0.48 0.08,0.95 0.35,1.34 1.41,2.03 4.03,3.47 7.16,1.42 4.07,-2.68 4.6,-7.48 4.23,-16.57 0,-0.18 0.06,-0.35 0.18,-0.48 0.37,-0.38 1.1,-0.11 1.14,0.41 0.22,3.43 0.46,11.91 -2.12,16.53 -0.52,0.94 -0.29,2.11 0.55,2.77 0.54,0.43 1.23,0.58 1.88,0.41 0.66,-0.16 1.19,-0.61 1.47,-1.22 1.19,-2.67 3.14,-8.34 2.77,-16.28 0,-0.16 0.07,-0.26 0.11,-0.31 0.05,-0.05 0.14,-0.12 0.28,-0.12 0.21,0 0.38,0.16 0.4,0.37 0.13,2.57 0.32,8.99 -0.63,13.15 z"
       id="path6" />
    <path
       d="M 2.71,36.67 C 2.71,36.2 2.77,35.71 2.89,35.21 3,34.73 2.7,34.24 2.22,34.13 1.74,34.01 1.25,34.32 1.14,34.8 c -0.15,0.64 -0.23,1.27 -0.23,1.88 0,1.22 0.31,2.37 0.91,3.41 0.17,0.29 0.47,0.45 0.78,0.45 0.15,0 0.31,-0.04 0.45,-0.12 0.43,-0.25 0.58,-0.8 0.33,-1.23 C 2.94,38.42 2.71,37.58 2.71,36.68 Z"
       id="path7" />
    <path
       d="m 11.58,53.83 c 0,-0.29 0.02,-0.6 0.06,-0.92 0.06,-0.49 0.09,-0.97 0.09,-1.43 0,-0.21 0,-0.42 -0.02,-0.62 -0.03,-0.5 -0.47,-0.88 -0.95,-0.84 -0.5,0.03 -0.87,0.46 -0.84,0.95 0.01,0.17 0.02,0.34 0.02,0.51 0,0.39 -0.03,0.79 -0.08,1.2 -0.05,0.4 -0.08,0.79 -0.08,1.15 0,0.81 0.13,1.54 0.39,2.16 0.14,0.35 0.48,0.55 0.83,0.55 0.12,0 0.23,-0.02 0.35,-0.07 0.46,-0.19 0.68,-0.72 0.48,-1.18 -0.17,-0.4 -0.25,-0.9 -0.25,-1.47 z"
       id="path8" />
    <path
       d="m 9.97,45.95 c -1,-1.43 -2.26,-2.56 -3.47,-3.6 -0.38,-0.32 -0.95,-0.28 -1.27,0.1 -0.32,0.38 -0.28,0.95 0.1,1.27 1.12,0.96 2.29,2 3.17,3.26 0.17,0.25 0.45,0.39 0.74,0.39 0.18,0 0.36,-0.05 0.51,-0.16 0.41,-0.28 0.51,-0.85 0.22,-1.25 z"
       id="path9" />
    <path
       d="m 37.89,44.02 c 0,0 0.06,0 0.09,0 1.21,-0.12 2.45,-0.54 3.65,-0.95 0.44,-0.15 0.89,-0.3 1.33,-0.44 0.48,-0.15 0.74,-0.65 0.6,-1.12 -0.15,-0.47 -0.65,-0.74 -1.12,-0.6 -0.46,0.14 -0.92,0.3 -1.39,0.45 -1.16,0.39 -2.25,0.76 -3.25,0.86 -0.49,0.05 -0.86,0.49 -0.81,0.98 0.05,0.46 0.44,0.81 0.89,0.81 z"
       id="path10" />
    <path
       d="m 63.5,52.4 c -0.24,0.25 -0.47,0.51 -0.66,0.77 -0.52,0.71 -1.17,1.13 -2,1.29 -0.49,0.1 -0.81,0.57 -0.71,1.06 0.08,0.43 0.46,0.73 0.88,0.73 0.06,0 0.12,0 0.17,-0.02 1.27,-0.25 2.31,-0.92 3.1,-1.99 0.15,-0.2 0.31,-0.39 0.5,-0.58 0.35,-0.35 0.34,-0.92 -0.01,-1.27 -0.35,-0.35 -0.92,-0.34 -1.27,0.01 z"
       id="path11" />
    <path
       d="m 70.49,48.11 c -0.63,0.36 -1.31,0.71 -1.98,1.05 -0.51,0.26 -1.03,0.53 -1.53,0.8 -0.44,0.24 -0.6,0.78 -0.36,1.22 0.16,0.3 0.47,0.47 0.79,0.47 0.15,0 0.29,-0.04 0.43,-0.11 0.49,-0.27 1,-0.53 1.5,-0.78 0.7,-0.36 1.4,-0.72 2.05,-1.09 0.43,-0.25 0.58,-0.8 0.34,-1.23 -0.25,-0.43 -0.79,-0.58 -1.23,-0.34 z"
       id="path12" />
  </g>
  <text
     xml:space="preserve"
     style="font-weight:300;font-size:12px;font-family:Lato;-inkscape-font-specification:'Lato, Light';text-align:center;writing-mode:lr-tb;direction:ltr;text-anchor:middle;fill:#e6e6e6"
     id="text21"
     transform="matrix(1,0,0,1.0503284,0.19848898,-3.7870088)"><textPath
       xlink:href="#path14"
       startOffset="50%"
       id="textPath21"><tspan
         id="tspan21"
         style="font-style:italic;font-variant:normal;font-weight:bold;font-stretch:normal;font-size:12px;font-family:Sans;-inkscape-font-specification:'Sans, Bold Italic';font-variant-ligatures:normal;font-variant-caps:normal;font-variant-numeric:normal;font-variant-east-asian:normal">GET PAID</tspan></textPath></text>
  <text
     xml:space="preserve"
     style="font-style:italic;font-variant:normal;font-weight:bold;font-stretch:normal;font-size:12px;font-family:Sans;-inkscape-font-specification:'Sans, Bold Italic';font-variant-ligatures:normal;font-variant-caps:normal;font-variant-numeric:normal;font-variant-east-asian:normal;text-align:center;writing-mode:lr-tb;direction:ltr;text-anchor:middle;fill:#e6e6e6"
     id="text22"
     transform="translate(0.59546121,-2.9772888)"><textPath
       xlink:href="#path14-9"
       startOffset="50%"
       id="textPath22"><tspan
         id="tspan22">FIGHT FOR THE DAY</tspan></textPath></text>
</svg>
