<?xml version="1.0" encoding="UTF-8" standalone="no"?>
<svg
   version="1.1"
   viewBox="-5 -10 120.28388 120.15474"
   id="svg5"
   sodipodi:docname="noun-airborne-8005870.svg"
   width="120.28388"
   height="120.15474"
   inkscape:version="1.4.2 (f4327f4, 2025-05-13)"
   xmlns:inkscape="http://www.inkscape.org/namespaces/inkscape"
   xmlns:sodipodi="http://sodipodi.sourceforge.net/DTD/sodipodi-0.dtd"
   xmlns="http://www.w3.org/2000/svg"
   xmlns:svg="http://www.w3.org/2000/svg">
  <defs
     id="defs5" />
  <sodipodi:namedview
     id="namedview5"
     pagecolor="#ffffff"
     bordercolor="#000000"
     borderopacity="0.25"
     inkscape:showpageshadow="2"
     inkscape:pageopacity="0.0"
     inkscape:pagecheckerboard="0"
     inkscape:deskcolor="#d1d1d1"
     inkscape:zoom="2.2391715"
     inkscape:cx="93.784689"
     inkscape:cy="23.892766"
     inkscape:window-width="2498"
     inkscape:window-height="1057"
     inkscape:window-x="1912"
     inkscape:window-y="-8"
     inkscape:window-maximized="1"
     inkscape:current-layer="svg5" />
  <path
     style="fill:#aaffee;stroke-width:0.801893"
     id="path10"
     sodipodi:type="arc"
     sodipodi:cx="55.141941"
     sodipodi:cy="50.141941"
     sodipodi:rx="60.141941"
     sodipodi:ry="60.141941"
     sodipodi:start="1.6363414"
     sodipodi:end="1.4478877"
     sodipodi:open="true"
     sodipodi:arc-type="arc"
     d="M 51.202755,110.15474 A 60.141941,60.141941 0 0 1 -4.9897844,49.033489 60.141941,60.141941 0 0 1 53.4172,-9.975264 60.141941,60.141941 0 0 1 115.11121,45.587834 60.141941,60.141941 0 0 1 62.515307,109.83019" />
  <path
     style="fill:#93aca7"
     d="m 75.504637,64.973918 -6.698906,6.363961 -6.363961,4.354289 -1.339781,6.587258 3.684398,5.247474 30.256727,-0.55824 2.679563,-6.587257 -2.679563,-5.135828 0.223297,-4.465938 -4.019344,-1.674727 -2.456265,1.116485 c 0,0 -7.368797,-6.587258 -8.485282,-5.917368 -1.116484,0.669891 -4.800883,0.669891 -4.800883,0.669891 z"
     id="path12" />
  <path
     style="fill:#93aca7"
     d="m 29.728777,12.666624 -7.536269,0.502418 -1.8422,2.456266 -5.917367,1.06066 -0.614066,6.531434 16.579793,2.400441 17.19386,-1.842199 1.563078,-6.252313 -6.419785,-2.288793 -3.740223,-5.7498943 -6.47561,0.8373633 -1.618902,3.293629 z"
     id="path11" />
  <g
     id="g9"
     transform="translate(5.1349464,0.04456049)">
    <path
       style="fill:#44aa00"
       d="m 23.805297,33.096298 -9.825062,6.698906 -4.019344,7.703742 4.019344,-0.334945 8.373633,-0.334945 2.902859,2.567914 1.674727,0.893187 8.373633,-3.57275 11.723086,3.126156 7.257148,-3.461101 8.373633,4.354289 -1.563078,-8.59693 L 49.819384,32.761352 35.75168,30.416735 Z"
       id="path6" />
    <path
       style="fill:#44aa00"
       d="m 70.920939,12.106391 -8.931876,4.800883 -2.456265,5.247476 6.252312,-0.781539 4.242641,2.232969 5.02418,-2.009672 6.922203,2.232969 5.917367,-1.674727 h 4.130993 L 85.10029,14.116063 Z"
       id="path7" />
    <path
       style="fill:#de87cd"
       d="m 36.198274,64.692806 -4.912531,2.12132 -0.893188,8.485282 1.228133,1.898023 -5.582422,3.684398 -2.12132,8.59693 4.689234,1.674731 20.878258,-0.55825 -2.456265,-9.155168 -5.582422,-3.126157 -0.334946,-3.907695 2.567914,-5.69407 z"
       id="path8" />
    <path
       style="fill:#de87cd"
       d="m 73.153907,32.649704 c -0.446593,0.334945 -2.232968,4.577586 -2.232968,4.577586 l 0.223297,3.796047 -3.572751,5.247476 0.669891,3.126157 15.630782,-0.446594 -1.45143,-5.359125 -4.019344,-3.907696 0.781539,-6.140664 z"
       id="path9" />
    <g
       id="g7">
      <path
         d="m 46.688,78.809 c 6.0312,-8.6484 12.051,-17.301 18.062,-25.953 0.41797,-0.48438 0.50781,-1.1719 0.22656,-1.75 -1.7461,-12.762 -13.836,-22.395 -28.637,-22.387 -14.789,-0.0039 -26.906,9.6211 -28.637,22.387 -0.26953,0.54297 -0.20312,1.1914 0.17188,1.668 l 18.117,26.035 c -2.2266,2.0898 -3.4922,5.0117 -3.4961,8.0703 v 4.0664 c 0,0.41406 0.16406,0.8125 0.45703,1.1055 0.29688,0.29297 0.69141,0.45703 1.1055,0.45703 h 24.562 c 0.41406,0 0.8125,-0.16406 1.1055,-0.45703 0.29297,-0.29297 0.45703,-0.69141 0.45703,-1.1055 v -4.0664 c 0,-3.0586 -1.2656,-5.9766 -3.4961,-8.0703 z M 61.329,52.305 C 55.6024,60.5394 49.872,68.77 44.138,77 h 0.0039 c -0.57031,-0.29688 -1.1602,-0.54297 -1.7695,-0.73438 1.6328,-1.707 2.4531,-4.0312 2.2539,-6.3867 -0.19922,-2.3516 -1.3984,-4.5078 -3.293,-5.9141 l 6.0039,-11.52 h -0.0039 c 1.4961,-2.4688 4.1211,-4.0273 7.0039,-4.1602 2.8789,-0.12891 5.6367,1.1875 7.3477,3.5078 z m -30.176,18.27 c 0.02344,-2.8477 2.3398,-5.1445 5.1875,-5.1445 2.8477,0 5.1641,2.2969 5.1914,5.1445 -0.02734,2.8477 -2.3438,5.1445 -5.1914,5.1445 -2.8477,-0.0039 -5.1641,-2.2969 -5.1875,-5.1445 z m 5.1875,-8.3164 c -0.69531,0.01172 -1.3867,0.10547 -2.0625,0.29297 l -5.3828,-10.734 c 1.8398,-2.3281 4.6484,-3.6914 7.6211,-3.6953 2.9727,0 5.7812,1.3555 7.6289,3.6836 l -5.6172,10.781 c -0.71094,-0.20703 -1.4453,-0.31641 -2.1875,-0.32813 z m 0,-30.414 c 11.199,0 20.746,6.1094 24.238,14.852 -1.4922,-0.89844 -3.1758,-1.4336 -4.9141,-1.5586 -3.6914,-0.25 -7.2891,1.2266 -9.7422,3.9961 -2.5312,-2.7031 -6.082,-4.2188 -9.7891,-4.1758 -3.4062,0.15234 -6.625,1.6289 -8.9609,4.1133 -2.4336,-2.9492 -6.1445,-4.5391 -9.957,-4.2695 -1.7812,0.13672 -3.5,0.69922 -5.0156,1.6406 3.5703,-8.5977 13.051,-14.598 24.141,-14.598 z m -25.359,19.91 c 1.6758,-2.4961 4.5352,-3.9375 7.5391,-3.8047 3.0039,0.13281 5.7227,1.8203 7.1719,4.457 l 5.7578,11.477 h 0.0039 c -1.9375,1.3906 -3.1719,3.5547 -3.3906,5.9297 -0.22266,2.375 0.60156,4.7305 2.2461,6.4531 -0.60547,0.19141 -1.1992,0.4375 -1.7656,0.73438 z m 36.082,37.629 h -2.4062 v -5.2461 c -0.01172,-0.85547 -0.70703,-1.543 -1.5625,-1.543 -0.85547,0 -1.5508,0.6875 -1.5625,1.543 v 5.2461 h -10.379 v -5.2461 c 0,-0.86328 -0.69922,-1.5625 -1.5625,-1.5625 -0.86328,0 -1.5625,0.69922 -1.5625,1.5625 v 5.2461 h -2.4062 v -2.5039 c 0.0078,-4.4102 3.582,-7.9844 7.9922,-7.9883 h 5.457 c 4.4102,0.0039 7.9844,3.5781 7.9883,7.9883 z"
         id="path1" />
      <path
         d="m 57.164,25.559 c 0.03516,0.08984 0.08203,0.17578 0.13281,0.25781 l 10.891,15.656 c -1.9922,1.9727 -2.1133,4.8477 -1.9961,7.5586 h 0.0039 c 0,0.41406 0.16406,0.8125 0.45703,1.1055 0.29297,0.29297 0.69141,0.45703 1.1055,0.45703 h 15.184 c 0.41406,0 0.8125,-0.16406 1.1055,-0.45703 0.293,-0.29297 0.45703,-0.69141 0.45703,-1.1055 v -2.5156 c -0.0039,-1.8711 -0.71875,-3.6719 -1.9922,-5.0391 3.6367,-5.2148 7.2656,-10.434 10.891,-15.648 0.37891,-0.47656 0.45312,-1.125 0.19141,-1.6719 -3.0508,-18.812 -33.438,-18.809 -36.488,0.0039 -0.19141,0.44922 -0.16797,0.96484 0.05859,1.3984 z m 6.5547,-2.5312 c 1.8594,-0.12109 3.6211,0.83984 4.5273,2.4688 l 3.3359,6.6484 c -1.918,1.6445 -2.5078,4.3633 -1.4453,6.6523 l -9.7227,-13.973 c 0.81641,-1.0195 2.0078,-1.668 3.3047,-1.7969 z m 14.242,13.41 c -0.01953,1.4258 -1.1836,2.5742 -2.6094,2.5742 -1.4297,0 -2.5938,-1.1484 -2.6133,-2.5742 0.02344,-1.4258 1.1836,-2.5703 2.6133,-2.5703 1.4258,0 2.5898,1.1445 2.6094,2.5703 z m -6.7852,6.8203 c -0.16016,0.0078 -0.31641,0.03906 -0.46875,0.09375 0.80078,-0.75391 1.8555,-1.1758 2.957,-1.1797 h 3.375 -0.0039 c 1.1016,0.0039 2.1562,0.42578 2.957,1.1797 -0.15234,-0.05469 -0.30859,-0.08594 -0.46875,-0.09375 -0.41406,0 -0.8125,0.16406 -1.1055,0.45703 -0.29297,0.29297 -0.45703,0.69141 -0.45703,1.1055 v 2.6484 h -5.2227 v -2.6484 c 0,-0.41406 -0.16406,-0.8125 -0.45703,-1.1055 -0.29297,-0.29297 -0.69141,-0.45703 -1.1055,-0.45703 z m 4.1719,-12.559 c -0.31641,0.0078 -0.63281,0.03906 -0.94531,0.09766 l -2.9414,-5.8555 v -0.0039 c 1.0078,-1.1484 2.4648,-1.8086 3.9922,-1.8086 1.5312,0 2.9883,0.65625 3.9961,1.8047 l -3.0586,5.8711 c -0.34375,-0.06641 -0.69141,-0.10156 -1.043,-0.10547 z m -6.0273,15.816 c 0.0039,-0.52344 0.10156,-1.043 0.29297,-1.5312 v 2.4844 H 69.3201 Z m 12.059,0.95312 h -0.29297 v -2.4844 c 0.26562,0.80078 0.36328,1.6445 0.29297,2.4844 z m -0.81641,-8.6641 c 1.0273,-2.2656 0.46875,-4.9375 -1.3789,-6.6016 l 3.4727,-6.6641 c 0.78516,-1.2891 2.1328,-2.1289 3.6328,-2.2617 1.5039,-0.13281 2.9766,0.45703 3.9727,1.5898 -3.2305,4.6445 -6.4648,9.2891 -9.6992,13.938 z m -5.2148,-25.711 c 2.7422,-0.08984 5.457,0.55078 7.8711,1.8477 2.4141,1.29692 4.4414,3.2109 5.8789,5.543 -0.56641,-0.19141 -1.1562,-0.31641 -1.7539,-0.36719 -2.2539,-0.15234 -4.4648,0.65625 -6.0859,2.2266 -1.6445,-1.5312 -3.8125,-2.3672 -6.0547,-2.3398 -2.0469,0.07422 -4,0.88281 -5.5,2.2812 -1.625,-1.668 -3.8984,-2.5391 -6.2227,-2.375 -0.61328,0.05469 -1.2148,0.18359 -1.793,0.38672 2.9688,-4.6367 8.1562,-7.375 13.66,-7.2031 z"
         id="path2" />
      <path
         d="m 9.5469,25.953 c 0.25,0.15625 0.53516,0.23828 0.83203,0.23828 l 28.867,0.03516 c 4.4219,-0.64453 7.2109,-4.5742 6.6914,-7.4297 -0.53906,-3.3047 -4.6484,-5.3906 -7.9531,-4.9727 -1.2227,-7.7344 -9.7578,-8.3438 -12.523,-1.6367 -3.2734,-2.3633 -7.8359,-1.668 -10.258,1.5625 -3.2695,-1.1133 -6.8555,0.42188 -8.3086,3.5586 -1.457,3.1367 -0.3125,6.8633 2.6523,8.6445 z M 9.7344,18.4803 H 9.73049 c 0.51562,-0.89844 1.3672,-1.5508 2.3672,-1.8125 1,-0.26562 2.0625,-0.11719 2.9492,0.41016 0.38281,0.21875 0.83984,0.26953 1.2578,0.13672 0.41797,-0.12891 0.76562,-0.43359 0.95312,-0.82812 0.68359,-1.5234 2.1953,-2.5039 3.8633,-2.5039 1.6719,0 3.1836,0.97656 3.8672,2.5 0.32031,0.66797 1.0664,1.0234 1.7852,0.84766 0.7188,-0.17574 1.2188,-0.83203 1.1953,-1.5703 -0.08984,-1.5195 0.49219,-3 1.5977,-4.0469 2.6211,-2.4375 5.5312,-0.0039 5.3438,3.9688 -0.04687,0.52344 0.16797,1.0391 0.58203,1.3672 0.41016,0.32812 0.96094,0.42969 1.4609,0.26562 2.0742,-0.80859 5.3672,0.04297 5.8984,2.0859 0.1875,1.1602 -1.1914,3.1875 -3.7773,3.8047 l -28.199,-0.03906 c -1.4141,-1.0664 -1.8906,-2.9805 -1.1445,-4.5859 z"
         id="path3" />
      <path
         d="m 89.559,69.152 c -1.8047,-1.418 -4.2266,-1.7617 -6.3555,-0.89844 -2.5078,-3.7109 -6.8867,-5.707 -11.332,-5.1641 -4.4492,0.53906 -8.2188,3.5273 -9.7656,7.7305 -4.5117,0.58203 -7.9258,4.3711 -8.0273,8.9219 -0.10547,4.5508 3.1289,8.4922 7.6133,9.2773 0.46094,0.16016 24.316,-0.05469 24.75,0.02734 H 86.438 c 2.9961,-0.16797 5.6172,-2.0547 6.7266,-4.8398 1.1094,-2.7852 0.5,-5.9609 -1.5625,-8.1406 0.80078,-2.5039 -0.01172,-5.2461 -2.043,-6.9141 z m 0.82812,13.703 c -0.60938,1.7383 -2.1953,2.9453 -4.0312,3.0664 h -24.207 c -3.0938,-0.58984 -5.2266,-3.4453 -4.918,-6.5781 0.30469,-3.1367 2.9531,-5.5195 6.1055,-5.5 0.69531,-0.01953 1.293,-0.5 1.4648,-1.1719 0.94922,-3.5469 3.9922,-6.1328 7.6445,-6.4922 3.6523,-0.35938 7.1445,1.582 8.7656,4.8711 0.21094,0.42188 0.59766,0.73047 1.0547,0.83594 0.46094,0.10938 0.94141,0.0039 1.3164,-0.28516 1.207,-0.94922 2.9219,-0.91406 4.0859,0.08984 1.1641,1.0039 1.457,2.6914 0.69531,4.0273 -0.38281,0.68359 -0.20312,1.5391 0.42188,2.0117 1.5859,1.1836 2.2305,3.25 1.6016,5.125 z"
         id="path4" />
    </g>
  </g>
</svg>
