<?xml version="1.0" encoding="UTF-8" standalone="no"?>
<svg
   version="1.1"
   x="0px"
   y="0px"
   viewBox="0 0 988.22845 979.63971"
   xml:space="preserve"
   id="svg4"
   sodipodi:docname="noun-assassin-5981200.svg"
   width="988.22845"
   height="979.63971"
   inkscape:version="1.4.2 (f4327f4, 2025-05-13)"
   xmlns:inkscape="http://www.inkscape.org/namespaces/inkscape"
   xmlns:sodipodi="http://sodipodi.sourceforge.net/DTD/sodipodi-0.dtd"
   xmlns="http://www.w3.org/2000/svg"
   xmlns:svg="http://www.w3.org/2000/svg"><defs
     id="defs4" /><sodipodi:namedview
     id="namedview4"
     pagecolor="#ffffff"
     bordercolor="#000000"
     borderopacity="0.25"
     inkscape:showpageshadow="2"
     inkscape:pageopacity="0.0"
     inkscape:pagecheckerboard="0"
     inkscape:deskcolor="#d1d1d1"
     inkscape:zoom="0.342"
     inkscape:cx="-181.28655"
     inkscape:cy="504.38596"
     inkscape:window-width="2498"
     inkscape:window-height="1057"
     inkscape:window-x="1912"
     inkscape:window-y="-8"
     inkscape:window-maximized="1"
     inkscape:current-layer="svg4" /><path
     style="fill:#008033;stroke-width:0.982379"
     id="path4"
     sodipodi:type="arc"
     sodipodi:cx="494.11423"
     sodipodi:cy="490.34491"
     sodipodi:rx="489.03506"
     sodipodi:ry="489.03506"
     sodipodi:start="1.6363414"
     sodipodi:end="1.4478877"
     sodipodi:open="true"
     sodipodi:arc-type="arc"
     d="M 462.08333,978.32986 A 489.03506,489.03506 0 0 1 5.1622291,481.3317 489.03506,489.03506 0 0 1 480.08976,1.5109821 489.03506,489.03506 0 0 1 981.74523,453.31388 489.03506,489.03506 0 0 1 554.06964,975.69081" /><path
     style="fill:#e9afaf"
     d="m 481.74234,464.68494 -171.60779,3.10134 -32.04723,3.61824 58.92556,214.50973 228.46579,44.45262 123.53693,-134.39164 3.10134,-138.00987 z"
     id="path7" /><path
     style="fill:#a0892c"
     d="m 314.32749,373.90351 c 0,3.65497 -2.92398,23.39181 -2.92398,23.39181 l 70.81506,-1.64473 53.17982,10.87353 113.79822,2.3366 10.59626,-8.5287 37.21615,-10.33782 65.90359,-13.43916 c 0,0 20.41719,-12.14694 -10.33782,-18.34963 -30.75501,-6.20269 -207.79015,15.24828 -207.79015,15.24828 L 341.92335,361.82365 Z"
     id="path6" /><path
     style="fill:#e9afaf"
     d="m 618.05556,326.02339 -165.57018,2.19298 -107.82164,15.35088 12.4269,17.17836 191.52047,0.731 97.58772,-14.25439 z"
     id="path8" /><path
     style="fill:#80ffb3"
     d="m 369.88304,725.1462 127.92398,141.08187 70.90643,38.74269 45.32164,-29.23977 43.12865,-121.34502 -223.68421,-40.93568 z"
     id="path9" /><path
     style="fill:#f9f9f9"
     d="m 431.60392,406.01782 -46.26174,-10.07937 -40.83438,3.35979 17.57429,33.59791 131.2903,-14.47295 125.60449,9.04559 32.04724,-34.1148 c 0,0 -59.44246,-1.55067 -60.73469,-1.03378 -1.29222,0.51689 -66.16203,18.09118 -66.16203,18.09118 z"
     id="path5" /><g
     id="g3"
     transform="translate(-5.8857525,-10.180135)"><path
       d="m 802.07098,658.08899 c 7.62525,43.36084 7.96192,85.48291 2.14746,129.3642 28.61005,-14.12452 45.24805,-43.57257 53.85541,-73.10852 2.73999,19.05798 -0.31573,58.69024 -15.26953,91.24414 15.63684,13.42706 19.81635,-7.47846 25.84863,-18.24244 6.89557,-12.30438 22.29004,-11.06359 34.0622,-5.70916 C 835.30322,877.33527 745.48792,939.89996 633.37787,971.9502 581.19836,941.2348 529.06714,910.48712 477.34637,879.00067 453.24185,864.32629 426.77325,850.81824 405.12357,832.60852 384.80634,815.51959 371.77307,793.13214 358.92419,770.28381 331.09906,720.8045 303.65875,667.48627 286.65033,613.1554 c -8.35245,-26.68073 -10.81522,-56.06055 -14.61795,-83.67707 -1.86267,-13.52734 -3.6503,-27.07693 -5.18301,-40.64584 -0.70844,-6.27164 -1.59144,-12.5784 0.91165,-18.60162 2.46927,-5.94193 7.90585,-10.02549 11.37576,-15.36145 6.15384,-9.46332 9.65799,-20.55381 14.31442,-30.7746 6.63123,-14.55539 13.39136,-29.06156 20.42743,-43.42615 4.76294,-9.72378 8.52017,-21.18884 19.16254,-25.74792 13.8309,-5.92502 31.26776,-7.68711 45.99463,-10.16422 58.68875,-9.87152 118.51877,-15.07211 178.0386,-15.10718 14.61347,-0.009 29.22888,0.43686 43.8078,1.4567 14.34687,1.00363 30.49457,1.18048 44.17255,5.92819 22.56067,7.83096 37.97882,33.49402 50.4248,52.51715 15.40821,23.55087 26.59015,47.05875 28.97205,75.39731 2.49585,29.6926 1.73401,59.40622 -1.51691,89.00546 -7.17322,65.31177 -21.44739,130.10157 -41.07971,192.76618 -10.04852,32.07428 -21.7547,63.55548 -34.24866,94.74981 -12.11932,30.25885 -28.13653,60.47156 -35.33276,92.37397 18.3501,14.56854 26.89532,-9.94141 33.99475,-23.93518 10.16614,-20.03858 18.62769,-40.88129 26.71668,-61.82728 16.47058,-42.64965 30.98846,-86.03375 43.62152,-129.97235 12.63519,-43.9458 23.43609,-88.40997 32.64697,-133.19647 1.13293,-5.5086 2.84534,-11.35431 3.18176,-16.9942 0.30255,-5.0722 -1.49048,-8.56287 -2.36023,-13.4317 -1.8811,-10.53009 3.20075,-21.60913 5.61438,-31.67359 5.15729,-21.50558 7.69391,-43.66757 6.21228,-65.77664 -1.71612,-25.60745 -12.56946,-45.12347 -26.13202,-66.43005 -6.47131,-10.16623 -13.33709,-20.07617 -20.49676,-29.76895 -5.35748,-7.25284 -17.35199,-17.51917 -18.89142,-26.75305 17.59283,11.85507 34.83179,22.26455 55.56354,29.94796 -7.89466,-14.26812 -15.34992,-28.23715 -29.3523,-37.34625 -15.33307,-9.97476 -31.98022,-18.68478 -48.60229,-26.29278 -35.23004,-16.12494 -72.11035,-22.8808 -110.64398,-24.96402 -40.65741,-2.19806 -81.73069,0.12359 -122.12076,5.02429 -20.46836,2.48349 -40.92795,5.75631 -61.009,10.46921 -13.47675,3.16287 -30.05402,6.06054 -27.58893,23.40148 2.746,4.05399 7.60952,3.02774 12.46652,4.93961 -9.84964,10.37097 -22.50797,12.25833 -34.68778,15.19989 -2.15051,-2.77243 1.03977,-6.28906 0.97303,-9.2709 -0.0774,-3.46036 -1.736,-6.00782 -4.03153,-8.46222 -7.38897,-7.90064 -14.59161,-3.30225 -22.73944,0.9046 -18.78125,9.69705 -36.88992,20.64172 -54.55418,32.23697 11.05769,2.45056 23.27134,-5.87476 30.89927,6.24655 -6.86087,18.79785 -38.2666,19.68787 -30.74232,44.6145 9.70491,-8.12707 17.96577,-17.86548 29.92561,-26.0282 -3.47717,12.06314 -14.72537,22.66461 -21.40551,33.14884 -6.829,10.71783 -12.92855,21.95761 -17.44388,33.8569 -10.55216,27.80811 -10.12769,56.55865 -2.32277,85.00137 3.61848,13.18665 8.94198,25.9632 10.12085,39.7121 1.18223,13.78796 -3.10613,24.79041 -7.40169,37.52216 -7.31371,21.67743 -0.71953,43.84869 4.51033,65.24261 -8.29613,-10.60058 -16.17018,-21.32526 -23.86287,-32.36865 -5.74588,10.62012 -10.44704,21.9975 -12.36441,33.97778 -2.1545,13.46198 3.8105,21.15009 10.16927,32.67133 12.93704,23.44018 26.56877,46.49579 40.83372,69.15191 13.90582,22.08582 28.41415,43.79059 43.46704,65.11078 7.53516,10.67243 15.20658,21.24823 23.00705,31.72821 7.01087,9.41913 13.93356,22.36341 23.4531,29.41651 C 321.22513,827.01459 298.814,754.65509 285.27478,679.57251 330.58826,786.9953 384.83655,889.53522 450.9534,986.8252 c -16.89087,-1.10657 -34.11887,-3.99207 -50.80826,-6.80097 -14.0841,-2.37042 -26.1149,-9.18414 -35.98709,-19.42621 -24.85593,-25.78729 -45.20767,-57.99286 -65.42493,-87.44531 -41.31903,-60.19318 -81.8278,-122.82086 -110.81935,-190.03278 -21.17244,-3.46606 -46.49791,6.91291 -65.99067,14.2251 -20.87307,7.83008 -40.649334,17.88257 -60.495942,27.95746 C -5.6090127,595.78607 -12.996487,443.04871 44.90284,308.67761 94.337624,193.95076 187.59125,97.192802 303.53552,49.399487 416.85681,2.6874135 551.34985,-3.705848 667.10059,37.830791 784.64392,80.010651 888.37048,170.8377 943.7113,282.93588 c 61.3268,124.22354 67.2069,269.8663 14.80317,398.07327 -3.10529,7.59711 -6.3863,15.12195 -9.8241,22.5744 -2.67267,5.79383 -5.59546,15.83966 -10.43048,20.08521 -43.56885,-24.30591 -88.65967,-46.28015 -136.18891,-65.57977 z M 303.15265,288.16977 c 2.06842,-8.86688 7.00098,-16.26587 10.6849,-24.06934 -2.09057,-7.27234 -8.20596,-11.49408 -12.10513,-17.40999 9.49204,-7.87664 20.05884,-11.76516 31.82053,-13.79241 0.068,4.72757 -4.4086,6.91735 -3.8837,11.87162 5.40732,7.61144 14.0246,12.47873 22.02222,18.0568 1.55459,1.08429 3.34744,0.87088 5.11267,0.46652 35.14926,-8.05267 70.73327,-13.34532 106.58056,-17.09688 57.8841,-6.05785 115.68067,-7.06969 173.40381,1.8898 4.284,0.66498 8.72437,2.63814 13.72864,0.54691 0.50165,-14.4735 -5.40716,-26.03104 -17.5788,-36.64579 12.46076,1.42232 22.51612,2.65052 32.52436,0.97292 12.80444,-2.14629 16.87909,-8.64487 14.6112,-21.45692 -1.13421,-6.40731 -4.86828,-11.78087 -7.1466,-18.67324 13.2771,5.79462 24.73541,12.66463 36.12793,19.86951 -10.5893,-14.56181 -20.82331,-29.14853 -33.11713,-42.12679 -7.13501,-7.53207 -14.73462,-14.45886 -23.34161,-20.29278 -13.76307,-9.32881 -27.47278,-18.73739 -41.14124,-28.20432 -5.22851,-3.621388 -10.85895,-6.185375 -16.91675,-8.138889 C 548.85724,79.204704 502.12,76.147774 454.8432,82.438148 c -22.79028,3.032364 -45.43307,6.151284 -66.6138,17.637902 -35.93204,19.48647 -67.03851,44.34882 -90.12625,77.74594 -26.73575,38.67389 -36.42893,83.59952 -41.51801,129.62015 -0.19784,1.78906 -0.13168,3.55389 2.96509,5.20123 11.59085,-12.03415 27.12546,-18.27646 43.60242,-24.4736 z m 57.06784,200.33197 c 25.93561,8.7792 53.41226,11.75079 78.8916,21.98782 -46.44583,-3.32779 -92.24975,-10.88827 -139.86899,-18.66632 33.42307,69.61145 79.29807,127.758 133.53415,179.86688 -30.90292,-15.50598 -57.18426,-37.51171 -84.23611,-58.47607 20.63891,25.27161 41.97409,49.69189 67.09851,70.60815 21.39294,17.80976 45.28912,28.43616 73.3107,30.38672 43.55191,3.03162 81.97,-7.25622 112.25754,-40.52545 9.16149,-10.06335 18.34991,-20.10278 27.419,-30.24878 1.17121,-1.31018 3.29779,-2.34808 2.61225,-5.4657 -12.58625,9.39862 -25.36377,17.79529 -38.41547,25.78101 -18.94287,11.58997 -34.20618,18.51239 -41.3833,18.35968 42.89288,-35.94031 76.21588,-79.42908 105.62421,-126.36041 -17.36701,8.87658 -34.79187,17.21167 -53.58338,22.68353 20.98071,-25.06433 41.23609,-50.39728 61.34534,-76.92966 -42.44861,7.82199 -83.99762,12.8353 -125.61872,17.86252 18.30677,-10.58148 37.04523,-19.82275 54.80799,-33.40542 -79.03577,-0.46763 -156.37824,-2.6254 -233.79532,2.5415 z m 274.90378,295.52658 c -73.15497,-18.90417 -145.8223,-34.81464 -220.87302,-47.87567 49.92005,35.03473 107.95847,50.90295 167.84586,57.6264 -55.67823,6.93946 -109.15171,-2.39209 -161.46308,-21.60241 34.43256,35.65588 69.04102,71.30029 109.88575,99.75903 9.56176,6.66211 19.39209,13.04339 29.99078,17.94787 8.39715,3.88569 20.60242,10.22559 29.4151,4.34998 8.39862,-5.59961 14.8078,-17.94311 19.66675,-26.5094 5.66711,-9.99109 10.37805,-20.48889 14.93402,-31.02179 -37.2312,8.35767 -79.06403,5.79175 -115.69357,-4.71704 45.71023,-4.78973 92.87631,-13.41602 126.29141,-47.95697 z m 77.60675,-351.02936 c -21.41144,5.3934 -42.62738,9.60318 -64.02533,12.969 -45.42963,7.14575 -90.7901,8.18719 -136.05683,-1.01645 -6.97836,-1.41886 -13.587,-2.38608 -20.75982,-0.49237 -47.53162,12.54916 -95.2937,11.39404 -143.06351,1.43268 -18.16574,-3.78806 -36.21893,-8.11536 -54.64566,-12.26954 -1.87534,4.78208 -4.94391,8.77378 -5.74112,14.29541 3.58112,1.20902 6.83615,2.49973 10.19415,3.41101 24.0626,6.53006 48.29969,12.27948 72.9646,16.09214 33.54541,5.1853 67.1406,6.83236 100.92572,2.22601 12.17261,-1.6597 24.02546,-5.94995 36.59748,-4.50546 51.23709,5.88696 102.13449,3.91601 152.6318,-6.79389 17.92871,-3.80246 35.83039,-7.73156 53.26154,-13.26318 0.87823,-4.29974 0.1112,-7.84427 -2.28302,-12.08536 z M 367.42068,359.86761 c 19.86927,8.39521 241.40983,0.0683 256.14304,-5.9172 -85.80292,-18.52652 -171.03021,-8.474 -256.14304,5.9172 z m 371.17716,410.495 c 3.71735,-2.68073 4.28912,-5.52576 5.39532,-7.96185 16.30494,-35.90747 26.86646,-73.56775 33.82251,-112.28449 2.58783,-14.40393 4.23316,-28.95642 1.34381,-43.51629 -2.23217,-11.24811 -11.66754,-20.31757 -22.36932,-21.78479 -1.31354,61.96197 -7.82019,123.39141 -18.19232,185.54742 z M 465.19061,396.29767 c -12.28375,3.20053 -25.1347,4.00537 -37.64489,1.68493 -11.69703,-2.16958 -21.8624,-7.99636 -33.17551,-11.30487 -13.80625,-4.03765 -25.02973,-0.80807 -38.30927,3.10636 -6.48452,1.91147 -13.0733,3.47516 -19.6134,5.18197 -3.45703,0.90213 -8.80841,1.25409 -10.71036,4.83826 14.04718,1.77005 28.03815,3.41907 42.21631,3.46686 15.15506,0.0512 30.28717,-0.91858 45.18924,2.51321 16.05484,3.69724 54.0593,22.05515 52.04788,-9.48672 z m 59.84272,2.03006 c 0.70605,30.16922 37.55517,9.42706 51.92865,4.94891 12.98614,-4.04596 26.39477,-6.48297 39.82696,-8.4928 13.39093,-2.00369 27.58594,-2.67636 40.22577,-7.91384 -21.06647,-4.74543 -47.95911,-11.6749 -68.98425,-3.76117 -10.90766,4.10556 -18.24591,13.6394 -29.91382,16.03888 -10.60694,2.18127 -22.46607,0.65551 -33.08331,-0.81998 z m 33.07305,20.58682 c 18.42267,14.23596 58.97852,9.40854 69.69019,-7.97571 -9.7489,-7.06717 -16.69623,-8.24463 -31.96326,-5.41736 -7.58838,16.38489 -13.5849,18.69019 -30.76263,11.58536 -2.71326,-1.12225 -4.8078,-1.0953 -6.9643,1.80771 z m -134.95883,-3.14731 c -14.4006,15.35099 -26.00827,8.12198 -35.80566,-7.10068 -7.96222,1.26279 -15.95935,2.7508 -22.70905,8.19779 14.7858,17.67783 55.46994,19.92902 73.74008,4.01358 -5.21075,-1.74905 -10.13192,-3.40094 -15.22537,-5.11069 z M 333.59259,268.27618 c -15.03421,-0.3128 -20.97259,25.55823 -4.51224,27.50785 16.42954,1.94595 22.17432,-27.14041 4.51224,-27.50785 z"
       id="path1" /><path
       d="m 302.12958,949.30292 c -25.08991,-11.91761 -47.93534,-23.34217 -68.97426,-38.07489 -2.64475,-1.85187 -3.88786,-4.53717 -4.81938,-7.45758 -15.1377,-47.45893 -29.532,-95.13849 -42.49718,-143.24176 -0.11842,-0.43927 0.0615,-0.9588 0.96922,-1.91455 17.09151,32.62152 33.56987,65.56982 52.5669,97.14166 19.02093,31.61151 40.10824,61.83832 62.7547,93.54712 z"
       id="path2" /><path
       d="m 494.32556,989.43555 c -10.85666,-18.25641 -21.6188,-36.35388 -33.55508,-56.42578 35.83722,21.11975 71.23788,38.39599 109.34506,50.00958 -6.48993,3.93921 -55.46838,8.09985 -75.78998,6.4162 z"
       id="path3" /></g></svg>
