<?xml version="1.0" encoding="UTF-8" standalone="no"?>
<svg
   version="1.1"
   x="0px"
   y="0px"
   viewBox="0 0 94.15036 94.150345"
   xml:space="preserve"
   id="svg3"
   sodipodi:docname="noun-duo-2851835.svg"
   width="94.15036"
   height="94.150345"
   inkscape:version="1.4.2 (f4327f4, 2025-05-13)"
   xmlns:inkscape="http://www.inkscape.org/namespaces/inkscape"
   xmlns:sodipodi="http://sodipodi.sourceforge.net/DTD/sodipodi-0.dtd"
   xmlns="http://www.w3.org/2000/svg"
   xmlns:svg="http://www.w3.org/2000/svg"><defs
     id="defs3" /><sodipodi:namedview
     id="namedview3"
     pagecolor="#ffffff"
     bordercolor="#000000"
     borderopacity="0.25"
     inkscape:showpageshadow="2"
     inkscape:pageopacity="0.0"
     inkscape:pagecheckerboard="0"
     inkscape:deskcolor="#d1d1d1"
     inkscape:zoom="5.34375"
     inkscape:cx="23.672515"
     inkscape:cy="37.333333"
     inkscape:window-width="2498"
     inkscape:window-height="1057"
     inkscape:window-x="1912"
     inkscape:window-y="-8"
     inkscape:window-maximized="1"
     inkscape:current-layer="svg3" /><path
     style="fill:#c87137;fill-opacity:1;stroke:#333333;stroke-width:0.991549"
     id="path10"
     sodipodi:type="arc"
     sodipodi:cx="47.075188"
     sodipodi:cy="47.07518"
     sodipodi:rx="46.578075"
     sodipodi:ry="46.578075"
     sodipodi:start="1.6287184"
     sodipodi:end="1.6280593"
     sodipodi:open="true"
     sodipodi:arc-type="arc"
     d="M 44.378797,93.575143 A 46.578075,46.578075 0 0 1 0.57478071,44.386452 46.578075,46.578075 0 0 1 49.756254,0.57433067 46.578075,46.578075 0 0 1 93.576478,49.748584 46.578075,46.578075 0 0 1 44.409446,93.57691" /><g
     id="g10"
     transform="translate(15.075186,15.07518)"><rect
       style="fill:#5fd3bc;fill-opacity:1;stroke:none"
       id="rect3"
       width="11.883041"
       height="3.3684211"
       x="11.134503"
       y="30.222221" /><path
       style="fill:#80b3ff;fill-opacity:1;stroke:none"
       d="m 40.755815,26.134005 -7.674796,2.778806 -0.926269,16.209699 29.045135,0.992431 1.389403,-7.608635 -1.058593,-8.071769 -5.292963,-4.035884 -4.366694,-0.33081 c 0,0 -2.514158,2.778806 -2.646482,3.043454 -0.132324,0.264648 -4.366694,0.396972 -4.366694,0.396972 l -2.447996,-3.109616 z"
       id="path7" /><rect
       style="fill:#5fd3bc;fill-opacity:1;stroke:none"
       id="rect4"
       width="11.929825"
       height="3.6491227"
       x="41.076023"
       y="14.081871" /><path
       style="fill:#ffe6d5;stroke:none"
       d="m 8.9824561,34.152047 2.6198829,5.239766 1.263158,4.163743 2.526316,2.19883 3.649123,-0.187135 c 0,0 1.450292,-3.88304 1.450292,-4.116959 0,-0.233918 4.304094,-4.631579 4.304094,-4.631579 l 0.187134,-2.479532 z"
       id="path4" /><path
       style="fill:#80b3ff;fill-opacity:1;stroke:none"
       d="M 57.164001,17.003644 56.700867,5.9545834 51.407904,1.720213 l -6.550042,0.1984861 -5.756098,0.7939445 -2.249509,8.9980374 0.595459,6.417717 3.506588,-0.198486 0.793944,-4.23437 10.850574,0.529296 0.132324,2.778806 c 0,0 0.33081,0.33081 0.595459,0.33081 0.264648,0 3.837398,-0.33081 3.837398,-0.33081 z"
       id="path8" /><path
       style="fill:#ff5555;fill-opacity:1;stroke:none"
       d="m 26.530977,33.477991 0.727783,-10.585926 -3.771237,-4.56518 -10.652088,-0.396973 -4.9621525,3.109616 -1.6540509,7.410148 1.0585926,5.160639 3.1757778,0.198486 0.860107,-3.241939 10.916736,-0.793945 0.793944,2.977292 2.58032,1.389403 z"
       id="path9" /><path
       style="fill:#ff5555;fill-opacity:1;stroke:none"
       d="M 12.438463,41.682084 4.8298288,44.196241 1.9186991,47.768991 2.0510232,61.332209 9.9243057,62.589288 31.82394,61.464533 V 47.239695 l -4.035884,-4.631343 -5.954583,-0.33081 -3.109616,3.837399 -4.035885,-0.132325 z"
       id="path6" /><path
       style="fill:#ffe6d5;stroke:none"
       d="m 38.596491,18.152047 h 16.608187 l -0.374269,2.760234 -3.134503,3.649123 -1.824561,4.39766 -3.649123,0.748538 -2.853801,-1.076023 -1.216374,-4.25731 L 40,21.380117 Z"
       id="path5" /><g
       id="g2"><path
         d="m 57.252,26.12 -4.911,-0.893 c 1.962,-1.454 3.317,-3.678 3.6,-6.227 H 57 c 0.553,0 1,-0.448 1,-1 V 9 C 58,4.589 54.411,1 50,1 h -6 c -4.411,0 -8,3.589 -8,8 v 9 c 0,0.552 0.447,1 1,1 h 1.059 c 0.283,2.549 1.639,4.774 3.6,6.227 L 36.748,26.12 C 33.417,26.726 31,29.623 31,33.007 V 44.143 C 30.013,43.128 28.732,42.389 27.252,42.12 l -4.911,-0.893 c 1.962,-1.454 3.317,-3.678 3.6,-6.227 H 27 c 0.553,0 1,-0.448 1,-1 v -9 c 0,-4.411 -3.589,-8 -8,-8 h -6 c -4.411,0 -8,3.589 -8,8 v 9 c 0,0.552 0.447,1 1,1 h 1.059 c 0.283,2.549 1.639,4.774 3.6,6.227 L 6.748,42.12 C 3.417,42.726 1,45.623 1,49.007 V 62 c 0,0.552 0.447,1 1,1 h 30 c 0.553,0 1,-0.448 1,-1 V 49.007 C 33,48.309 32.875,47.64 32.682,47 H 62 c 0.553,0 1,-0.448 1,-1 V 33.007 C 63,29.623 60.583,26.726 57.252,26.12 Z M 12.153,43.17 C 12.683,45.362 14.648,47 17,47 c 2.352,0 4.317,-1.638 4.847,-3.83 L 25,43.743 V 51 h -1 c -1.302,0 -2.402,0.839 -2.816,2 H 12.815 C 12.401,51.839 11.301,51 9.999,51 H 9 V 43.743 Z M 19.816,43 C 19.402,44.161 18.302,45 17,45 15.698,45 14.598,44.161 14.184,43 Z M 25,55 h -1 c -0.552,0 -1,-0.449 -1,-1 0,-0.551 0.448,-1 1,-1 h 1 z M 9,53 h 1 c 0.552,0 1,0.449 1,1 0,0.551 -0.448,1 -1,1 H 9 Z m 0,4 h 1 c 1.302,0 2.402,-0.839 2.816,-2 h 8.369 c 0.414,1.161 1.514,2 2.816,2 h 1 v 4 H 9 Z M 22,33 H 12 V 31 H 22 Z M 14,19 v 4 c 0,0.552 0.447,1 1,1 h 3 v -2 h -2 v -3 h 4 c 2.215,0 4.149,1.21 5.188,3 H 23 c -0.553,0 -1,0.448 -1,1 v 1 h -2 v 2 h 3 c 0.553,0 1,-0.448 1,-1 v -1 h 1.91 c 0.055,0.326 0.09,0.659 0.09,1 v 8 h -2 v -3 c 0,-0.552 -0.447,-1 -1,-1 H 11 c -0.553,0 -1,0.448 -1,1 v 3 H 8 v -7 h 3 c 0.553,0 1,-0.448 1,-1 v -3 h -2 v 2 H 8.09 C 8.569,21.167 11.033,19 14,19 Z m -3.92,16 h 13.84 c -0.488,3.387 -3.401,6 -6.92,6 -3.519,0 -6.432,-2.613 -6.92,-6 z M 3,49.007 c 0,-2.38 1.678,-4.415 4,-4.89 V 61 H 3 Z M 31,61 H 27 V 44.117 c 2.322,0.475 4,2.51 4,4.89 z M 42.153,27.17 C 42.683,29.362 44.648,31 47,31 c 2.352,0 4.317,-1.638 4.847,-3.83 L 55,27.743 V 35 h -1 c -1.302,0 -2.402,0.839 -2.816,2 h -8.369 c -0.414,-1.161 -1.514,-2 -2.816,-2 h -1 V 27.743 Z M 49.816,27 C 49.402,28.161 48.302,29 47,29 45.698,29 44.598,28.161 44.184,27 Z M 55,39 h -1 c -0.552,0 -1,-0.449 -1,-1 0,-0.551 0.448,-1 1,-1 h 1 z M 39,37 h 1 c 0.552,0 1,0.449 1,1 0,0.551 -0.448,1 -1,1 h -1 z m 0,4 h 1 c 1.302,0 2.402,-0.839 2.816,-2 h 8.369 c 0.414,1.161 1.514,2 2.816,2 h 1 v 4 H 39 Z M 52,17 H 42 V 15 H 52 Z M 44,3 v 4 c 0,0.552 0.447,1 1,1 h 3 V 6 H 46 V 3 h 4 c 2.215,0 4.149,1.21 5.188,3 H 53 c -0.553,0 -1,0.448 -1,1 v 1 h -2 v 2 h 3 c 0.553,0 1,-0.448 1,-1 V 8 h 1.91 C 55.965,8.326 56,8.659 56,9 v 8 h -2 v -3 c 0,-0.552 -0.447,-1 -1,-1 H 41 c -0.553,0 -1,0.448 -1,1 v 3 h -2 v -7 h 3 c 0.553,0 1,-0.448 1,-1 V 6 H 40 V 8 H 38.09 C 38.569,5.167 41.033,3 44,3 Z m -3.92,16 h 13.84 c -0.488,3.387 -3.401,6 -6.92,6 -3.519,0 -6.432,-2.613 -6.92,-6 z M 33,33.007 c 0,-2.38 1.678,-4.415 4,-4.89 V 45 H 33 Z M 61,45 H 57 V 28.117 c 2.322,0.475 4,2.51 4,4.89 z"
         id="path1" /><polygon
         points="11,7 11,5 7,5 7,1 5,1 5,5 1,5 1,7 5,7 5,11 7,11 7,7 "
         id="polygon1" /><polygon
         points="32,11 32,9 28,9 28,5 26,5 26,9 22,9 22,11 26,11 26,15 28,15 28,11 "
         id="polygon2" /></g></g></svg>
