<?xml version="1.0" encoding="UTF-8"?>
<!DOCTYPE svg PUBLIC "-//W3C//DTD SVG 1.1//EN" "http://www.w3.org/Graphics/SVG/1.1/DTD/svg11.dtd">
<!-- Creator: CorelDRAW X7 -->
<svg xmlns="http://www.w3.org/2000/svg" xml:space="preserve" width="8.5in" height="11in" version="1.1" style="shape-rendering:geometricPrecision; text-rendering:geometricPrecision; image-rendering:optimizeQuality; fill-rule:evenodd; clip-rule:evenodd"
viewBox="0 0 8500 11000"
 xmlns:xlink="http://www.w3.org/1999/xlink">
 <defs>
  <style type="text/css">
   <![CDATA[
    .fil0 {fill:#00A29D}
    .fil4 {fill:#80D2EA}
    .fil2 {fill:#81D1E8}
    .fil1 {fill:#B7E4F7}
    .fil3 {fill:white}
   ]]>
  </style>
 </defs>
 <g id="Layer_x0020_1">
  <metadata id="CorelCorpID_0Corel-Layer"/>
  <circle class="fil0" cx="3937" cy="7063" r="3937"/>
  <path class="fil1" d="M3937 3126c1905,0 3493,1353 3858,3150l-282 0c-360,-1644 -1824,-2874 -3576,-2874 -865,0 -1660,300 -2287,802l-140 -241c669,-525 1512,-837 2427,-837zm3898 3386c26,180 39,364 39,551 0,2174 -1763,3937 -3937,3937 -436,0 -855,-71 -1247,-202l141 -244c349,111 720,170 1106,170 2022,0 3661,-1639 3661,-3661 0,-187 -14,-371 -41,-551l278 0zm-5370 4203c-1445,-583 -2465,-1998 -2465,-3652 0,-1173 513,-2226 1326,-2947l141 244c-732,670 -1191,1633 -1191,2703 0,1552 965,2878 2328,3411l-139 241z"/>
  <g id="_870294688">
   <path class="fil2" d="M6033 6512c-315,-807 -1099,-1378 -2017,-1378 -519,0 -994,182 -1367,486l515 892 2869 0z"/>
   <path class="fil3" d="M7006 6276c-447,-1196 -1599,-2048 -2951,-2048 -752,0 -1443,264 -1985,704l776 1344 4160 0z"/>
   <path class="fil4" d="M6890 6197c-474,-1139 -1590,-1890 -2835,-1890 -685,0 -1343,226 -1882,645l718 1245 3999 0z"/>
   <path class="fil1" d="M2982 6197l2898 0c-377,-636 -1071,-1063 -1864,-1063 -519,0 -994,182 -1367,486l333 577z"/>
  </g>
  <g id="_870298848">
   <path class="fil2" d="M2411 5523c-541,676 -643,1641 -184,2436 259,449 655,770 1104,941l515 -892 -1435 -2485z"/>
   <path class="fil3" d="M1720 4799c-812,985 -973,2408 -297,3579 376,652 950,1118 1602,1367l776 -1343 -2081 -3603z"/>
   <path class="fil4" d="M1710 4938c-749,981 -841,2323 -219,3401 343,593 867,1050 1500,1308l719 -1245 -2000 -3464z"/>
   <path class="fil1" d="M3664 8323l-1448 -2509c-363,644 -386,1458 11,2145 259,449 655,770 1104,941l333 -577z"/>
  </g>
  <g id="_870269312">
   <path class="fil2" d="M3366 9154c856,131 1743,-263 2202,-1058 259,-449 340,-952 263,-1427l-1030 0 -1435 2485z"/>
   <path class="fil3" d="M3084 10115c1259,211 2573,-362 3249,-1532 376,-652 493,-1382 382,-2071l-1551 0 -2080 3603z"/>
   <path class="fil4" d="M3210 10054c1224,158 2432,-433 3055,-1511 342,-593 476,-1276 383,-1952l-1438 0 -2000 3463z"/>
   <path class="fil1" d="M5164 6669l-1448 2510c739,-9 1456,-396 1852,-1083 259,-449 340,-952 263,-1427l-667 0z"/>
  </g>
 </g>
</svg>
