<svg xmlns="http://www.w3.org/2000/svg" viewBox="0 0 2048 2048" width="2048" height="2048">
  <g id="olive">
    <path fill="#697551" fill-rule="evenodd" d="M 1876 969 L 1864 974 L 1855 982 L 1848 997 L 1848 1011 L 1854 1025 L 1865 1035 L 1875 1039 L 1891 1039 L 1904 1033 L 1914 1022 L 1918 1011 L 1918 997 L 1913 985 L 1905 976 L 1890 969 Z M 157 969 L 145 974 L 136 982 L 129 997 L 129 1011 L 135 1025 L 146 1035 L 156 1039 L 172 1039 L 185 1033 L 195 1022 L 199 1011 L 199 997 L 196 988 L 186 976 L 171 969 Z M 1117 1066 L 1226 958 L 1291 1022 L 1294 1019 L 1290 1022 L 1226 958 Z M 889 415 L 685 500 L 717 576 L 659 622 L 614 668 L 576 717 L 500 685 L 418 881 L 415 893 L 491 925 L 485 959 L 482 995 L 483 1068 L 491 1122 L 417 1153 L 414 1156 L 500 1362 L 576 1330 L 622 1388 L 668 1433 L 717 1471 L 685 1547 L 881 1629 L 893 1632 L 925 1556 L 959 1562 L 995 1565 L 1068 1564 L 1122 1556 L 1153 1630 L 1156 1633 L 1362 1547 L 1330 1471 L 1388 1425 L 1433 1379 L 1471 1330 L 1547 1362 L 1629 1166 L 1632 1154 L 1556 1122 L 1562 1088 L 1565 1052 L 1564 979 L 1556 925 L 1628 895 L 1633 891 L 1547 685 L 1471 717 L 1425 659 L 1379 614 L 1330 576 L 1362 500 L 1166 418 L 1154 415 L 1122 491 L 1088 485 L 1052 482 L 979 483 L 925 491 L 893 415 Z M 995 563 L 1052 563 L 1084 566 L 1124 573 L 1176 588 L 1218 605 L 1256 625 L 1297 652 L 1329 678 L 1369 718 L 1395 750 L 1422 791 L 1442 829 L 1459 871 L 1470 907 L 1480 956 L 1484 995 L 1484 1052 L 1481 1084 L 1474 1124 L 1459 1176 L 1442 1218 L 1422 1256 L 1395 1297 L 1369 1329 L 1329 1369 L 1297 1395 L 1256 1422 L 1218 1442 L 1176 1459 L 1140 1470 L 1098 1479 L 1052 1484 L 995 1484 L 963 1481 L 923 1474 L 871 1459 L 829 1442 L 791 1422 L 750 1395 L 718 1369 L 689 1341 L 652 1297 L 625 1256 L 605 1218 L 588 1176 L 577 1140 L 568 1098 L 563 1052 L 563 995 L 566 963 L 573 923 L 588 871 L 605 829 L 625 791 L 652 750 L 678 718 L 718 678 L 750 652 L 791 625 L 829 605 L 871 588 L 907 577 L 949 568 Z M 1012 31 L 961 33 L 905 38 L 851 46 L 801 56 L 727 76 L 672 95 L 621 116 L 534 160 L 452 212 L 413 241 L 373 274 L 342 302 L 302 342 L 241 413 L 191 483 L 142 567 L 102 654 L 70 747 L 49 834 L 42 875 L 35 934 L 32 979 L 31 1035 L 33 1086 L 38 1142 L 46 1196 L 56 1246 L 76 1320 L 95 1375 L 116 1426 L 160 1513 L 212 1595 L 237 1629 L 273 1673 L 302 1705 L 342 1745 L 413 1806 L 452 1835 L 494 1863 L 567 1905 L 621 1931 L 672 1952 L 754 1979 L 801 1991 L 851 2001 L 934 2012 L 979 2015 L 1035 2016 L 1086 2014 L 1142 2009 L 1196 2001 L 1246 1991 L 1320 1971 L 1375 1952 L 1426 1931 L 1513 1887 L 1595 1835 L 1673 1774 L 1705 1745 L 1745 1705 L 1774 1673 L 1810 1629 L 1856 1564 L 1905 1480 L 1945 1393 L 1977 1300 L 1998 1213 L 2005 1172 L 2012 1113 L 2015 1068 L 2016 1012 L 2014 961 L 2009 905 L 2001 851 L 1991 801 L 1971 727 L 1952 672 L 1931 621 L 1887 534 L 1835 452 L 1774 374 L 1745 342 L 1705 302 L 1634 241 L 1595 212 L 1553 184 L 1480 142 L 1426 116 L 1375 95 L 1293 68 L 1246 56 L 1196 46 L 1113 35 L 1068 32 Z M 1023 1940 L 1085 1940 L 1085 1962 L 1083 1964 L 1022 1964 Z M 1078 1882 L 1079 1905 L 1077 1907 L 1021 1907 L 1022 1882 Z M 1158 1851 L 1164 1852 L 1177 1951 L 1171 1954 L 1154 1956 L 1146 1955 L 1133 1859 L 1134 1855 Z M 973 1842 L 974 1848 L 959 1962 L 957 1964 L 928 1960 L 937 1887 Z M 1453 1835 L 1464 1857 L 1408 1883 L 1397 1861 Z M 985 1833 L 1015 1834 L 1018 1942 L 1017 1965 L 987 1965 Z M 1082 1832 L 1081 1857 L 1020 1857 L 1020 1833 Z M 976 1834 L 888 1945 L 887 1943 L 893 1898 L 947 1830 Z M 823 1822 L 847 1876 L 837 1947 L 829 1948 L 807 1944 Z M 1193 1819 L 1196 1839 L 1195 1843 L 1105 1855 L 1098 1854 L 1095 1836 L 1096 1830 L 1186 1818 Z M 824 1815 L 831 1814 L 852 1817 L 858 1828 L 887 1896 L 882 1942 L 880 1944 Z M 1271 1795 L 1352 1908 L 1350 1910 L 1319 1918 L 1302 1894 L 1269 1904 L 1267 1902 L 1267 1886 L 1269 1877 L 1289 1872 L 1263 1830 L 1264 1933 L 1262 1935 L 1238 1942 L 1232 1924 L 1238 1805 L 1240 1803 Z M 704 1768 L 715 1773 L 725 1782 L 731 1794 L 732 1804 L 727 1819 L 716 1829 L 703 1833 L 706 1836 L 711 1832 L 736 1843 L 712 1870 L 709 1912 L 686 1903 L 683 1900 L 683 1894 L 665 1894 L 655 1890 L 654 1887 L 661 1869 L 663 1867 L 674 1867 L 682 1859 L 684 1847 L 681 1841 L 674 1836 L 682 1815 L 685 1813 L 692 1814 L 697 1811 L 700 1806 L 701 1800 L 692 1790 L 700 1769 Z M 1347 1765 L 1352 1773 L 1402 1885 L 1375 1898 L 1338 1819 L 1321 1777 Z M 697 1765 L 697 1768 L 689 1788 L 681 1788 L 676 1790 L 671 1798 L 673 1807 L 679 1812 L 671 1834 L 659 1835 L 651 1842 L 649 1855 L 657 1864 L 658 1868 L 651 1886 L 649 1888 L 633 1880 L 622 1868 L 617 1853 L 620 1835 L 625 1826 L 633 1818 L 645 1813 L 651 1813 L 645 1803 L 643 1787 L 646 1778 L 654 1768 L 671 1760 L 680 1760 Z M 591 1725 L 515 1821 L 491 1802 L 537 1744 L 588 1724 Z M 597 1718 L 480 1764 L 464 1768 L 494 1731 L 570 1701 L 575 1700 Z M 1469 1708 L 1490 1690 L 1492 1690 L 1564 1730 L 1599 1770 L 1592 1777 L 1590 1777 L 1477 1714 Z M 1577 1669 L 1611 1688 L 1647 1729 L 1639 1736 L 1592 1709 L 1611 1760 L 1603 1767 L 1569 1728 L 1554 1688 Z M 471 1630 L 472 1634 L 465 1687 L 424 1740 L 418 1745 L 395 1727 Z M 478 1624 L 500 1642 L 489 1727 L 459 1765 L 458 1762 L 475 1630 Z M 470 1615 L 402 1681 L 390 1689 L 381 1692 L 366 1691 L 353 1684 L 343 1673 L 364 1653 L 372 1658 L 379 1658 L 385 1655 L 448 1594 L 450 1594 Z M 1609 1588 L 1659 1719 L 1651 1726 L 1617 1687 L 1587 1607 Z M 273 1550 L 309 1600 L 289 1614 L 253 1564 Z M 403 1545 L 423 1567 L 358 1629 L 355 1639 L 359 1650 L 338 1669 L 328 1658 L 322 1645 L 322 1631 L 328 1617 L 401 1545 Z M 1644 1543 L 1648 1539 L 1667 1555 L 1663 1563 L 1664 1579 L 1670 1592 L 1683 1605 L 1689 1609 L 1704 1614 L 1720 1613 L 1732 1606 L 1751 1621 L 1737 1634 L 1724 1640 L 1709 1643 L 1686 1641 L 1664 1630 L 1650 1617 L 1643 1607 L 1636 1587 L 1636 1563 Z M 320 1517 L 353 1563 L 333 1577 L 300 1531 Z M 1650 1535 L 1667 1521 L 1687 1514 L 1709 1514 L 1725 1519 L 1737 1526 L 1752 1540 L 1760 1553 L 1765 1568 L 1765 1595 L 1757 1614 L 1753 1618 L 1735 1602 L 1739 1594 L 1738 1575 L 1732 1563 L 1720 1551 L 1710 1545 L 1700 1542 L 1684 1542 L 1675 1546 L 1669 1551 Z M 359 1488 L 365 1493 L 396 1538 L 378 1552 L 373 1549 L 340 1502 Z M 342 1460 L 352 1474 L 357 1485 L 250 1560 L 233 1535 L 338 1460 Z M 1709 1455 L 1821 1519 L 1823 1523 L 1811 1544 L 1807 1547 L 1697 1484 L 1694 1480 Z M 310 1407 L 314 1413 L 317 1423 L 317 1444 L 308 1459 L 296 1467 L 282 1444 L 288 1439 L 292 1432 L 290 1418 Z M 1711 1450 L 1725 1426 L 1736 1414 L 1752 1406 L 1763 1406 L 1775 1409 L 1788 1417 L 1799 1430 L 1802 1439 L 1815 1438 L 1844 1449 L 1863 1453 L 1847 1479 L 1835 1478 L 1812 1469 L 1805 1468 L 1799 1470 L 1795 1474 L 1783 1493 L 1763 1481 L 1774 1460 L 1774 1449 L 1772 1445 L 1764 1438 L 1751 1437 L 1747 1439 L 1742 1444 L 1733 1461 L 1730 1463 L 1714 1454 Z M 206 1399 L 219 1419 L 219 1423 L 212 1429 L 210 1434 L 210 1442 L 213 1451 L 212 1454 L 192 1464 L 187 1456 L 183 1444 L 183 1424 L 189 1411 L 198 1402 Z M 286 1377 L 302 1392 L 308 1403 L 289 1414 L 285 1408 L 276 1401 L 269 1402 L 264 1406 L 263 1419 L 273 1457 L 272 1470 L 268 1480 L 257 1491 L 242 1498 L 228 1499 L 217 1495 L 201 1481 L 194 1470 L 195 1467 L 214 1457 L 219 1464 L 227 1470 L 232 1470 L 240 1466 L 242 1462 L 242 1449 L 233 1412 L 234 1399 L 237 1391 L 246 1381 L 262 1373 L 271 1372 Z M 1765 1351 L 1887 1398 L 1887 1403 L 1878 1425 L 1874 1427 L 1756 1381 L 1755 1375 Z M 156 1325 L 159 1329 L 180 1382 L 160 1391 L 156 1390 L 134 1336 L 135 1333 Z M 207 1304 L 211 1305 L 231 1356 L 211 1365 L 207 1364 L 190 1322 L 188 1312 Z M 254 1285 L 257 1286 L 279 1342 L 257 1352 L 236 1303 L 234 1293 Z M 1794 1275 L 1796 1273 L 1829 1348 L 1833 1349 L 1916 1318 L 1918 1323 L 1907 1351 L 1838 1376 L 1808 1364 L 1781 1308 Z M 245 1255 L 254 1278 L 252 1282 L 137 1328 L 131 1328 L 121 1304 L 122 1300 L 237 1254 L 243 1253 Z M 1940 1240 L 1934 1260 L 1920 1276 L 1907 1282 L 1889 1282 L 1887 1279 L 1890 1255 L 1892 1253 L 1902 1253 L 1906 1251 L 1914 1241 L 1916 1235 L 1920 1234 Z M 201 1189 L 207 1213 L 206 1218 L 113 1240 L 107 1239 L 101 1215 L 102 1210 L 192 1189 Z M 1939 1195 L 1944 1213 L 1944 1226 L 1941 1235 L 1920 1231 L 1918 1228 L 1919 1216 L 1917 1212 L 1912 1208 L 1904 1207 L 1900 1209 L 1891 1220 L 1875 1252 L 1860 1265 L 1854 1267 L 1839 1267 L 1824 1261 L 1816 1253 L 1810 1238 L 1810 1216 L 1812 1210 L 1832 1214 L 1834 1216 L 1834 1231 L 1842 1237 L 1847 1237 L 1855 1230 L 1874 1192 L 1884 1182 L 1892 1178 L 1905 1176 L 1919 1179 L 1929 1184 Z M 1862 1169 L 1861 1185 L 1858 1196 L 1846 1197 L 1840 1202 L 1834 1211 L 1814 1207 L 1812 1205 L 1819 1188 L 1831 1174 L 1846 1168 Z M 220 1147 L 223 1153 L 243 1240 L 242 1244 L 220 1249 L 217 1243 L 197 1156 L 199 1152 Z M 1883 886 L 1916 959 L 1989 966 L 1995 968 L 1936 1022 L 1953 1097 L 1952 1100 L 1883 1060 L 1814 1100 L 1814 1093 L 1830 1022 L 1771 968 L 1777 966 L 1850 959 Z M 164 886 L 197 959 L 270 966 L 276 968 L 217 1022 L 233 1093 L 233 1100 L 164 1060 L 95 1100 L 94 1097 L 111 1022 L 52 968 L 58 966 L 131 959 Z M 305 695 L 306 699 L 296 716 L 286 727 L 277 733 L 259 739 L 246 738 L 232 733 L 243 702 L 264 701 L 280 684 Z M 1760 663 L 1792 731 L 1791 734 L 1765 745 L 1740 693 L 1734 675 Z M 1823 634 L 1826 635 L 1854 697 L 1828 710 L 1824 707 L 1797 647 Z M 317 645 L 317 670 L 314 682 L 310 690 L 307 691 L 284 680 L 283 677 L 287 661 L 285 656 L 274 648 L 269 648 L 261 652 L 249 664 L 233 686 L 223 696 L 213 703 L 201 707 L 185 706 L 166 697 L 156 686 L 151 673 L 151 652 L 158 630 L 162 629 L 184 640 L 180 654 L 181 661 L 185 666 L 194 670 L 203 666 L 211 658 L 237 624 L 249 615 L 263 610 L 280 611 L 298 619 L 312 633 Z M 1880 608 L 1912 677 L 1885 690 L 1853 621 Z M 230 591 L 219 623 L 210 621 L 201 622 L 185 635 L 161 623 L 169 609 L 183 595 L 195 588 L 219 587 Z M 1864 570 L 1878 602 L 1876 604 L 1732 670 L 1729 669 L 1715 638 L 1716 635 L 1861 569 Z M 1770 577 L 1765 581 L 1744 590 L 1734 592 L 1714 592 L 1687 584 L 1670 572 L 1662 561 L 1684 545 L 1700 555 L 1718 558 L 1702 533 L 1716 522 L 1727 516 Z M 287 483 L 389 554 L 390 556 L 368 586 L 266 515 L 265 513 Z M 1796 469 L 1805 488 L 1807 498 L 1807 519 L 1801 541 L 1796 551 L 1793 553 L 1765 538 L 1763 534 L 1771 522 L 1775 508 L 1775 498 L 1770 485 L 1792 469 Z M 1791 462 L 1790 465 L 1767 481 L 1752 471 L 1740 469 L 1723 471 L 1703 481 L 1691 492 L 1682 507 L 1679 519 L 1679 529 L 1682 540 L 1662 555 L 1657 556 L 1650 542 L 1647 531 L 1646 510 L 1648 498 L 1657 475 L 1664 465 L 1680 450 L 1704 437 L 1724 433 L 1734 433 L 1756 437 L 1771 444 Z M 281 429 L 305 447 L 240 541 L 235 545 L 211 528 Z M 490 402 L 510 423 L 510 425 L 456 476 L 453 475 L 435 454 Z M 339 363 L 451 481 L 425 506 L 423 506 L 312 388 Z M 437 355 L 457 376 L 456 379 L 406 425 L 386 403 Z M 399 306 L 419 327 L 419 329 L 372 374 L 363 380 L 344 360 L 344 358 Z M 1647 303 L 1669 324 L 1682 341 L 1688 358 L 1687 373 L 1678 392 L 1664 406 L 1649 414 L 1634 416 L 1631 433 L 1605 472 L 1601 486 L 1573 459 L 1578 444 L 1598 413 L 1597 401 L 1575 378 L 1596 356 L 1620 378 L 1634 379 L 1641 376 L 1648 369 L 1651 361 L 1650 349 L 1647 344 L 1626 324 Z M 1019 296 L 1100 300 L 1161 309 L 1234 327 L 1286 345 L 1335 366 L 1374 386 L 1408 406 L 1463 444 L 1523 495 L 1572 546 L 1617 603 L 1661 673 L 1694 741 L 1720 813 L 1738 886 L 1747 947 L 1751 1019 L 1747 1100 L 1738 1161 L 1720 1234 L 1701 1289 L 1668 1361 L 1634 1419 L 1596 1472 L 1552 1523 L 1501 1572 L 1444 1617 L 1374 1661 L 1306 1694 L 1234 1720 L 1161 1738 L 1100 1747 L 1028 1751 L 947 1747 L 886 1738 L 813 1720 L 758 1701 L 686 1668 L 628 1634 L 575 1596 L 524 1552 L 475 1501 L 430 1444 L 386 1374 L 353 1306 L 327 1234 L 309 1161 L 300 1100 L 296 1028 L 300 947 L 309 886 L 327 813 L 346 758 L 379 686 L 413 628 L 451 575 L 495 524 L 546 475 L 603 430 L 673 386 L 741 353 L 813 327 L 886 309 L 947 300 Z M 1616 274 L 1642 300 L 1530 418 L 1503 391 Z M 459 258 L 462 257 L 554 391 L 526 411 L 523 412 L 431 278 Z M 749 250 L 760 274 L 759 277 L 723 294 L 690 307 L 678 281 L 680 279 L 743 250 Z M 467 252 L 503 229 L 521 224 L 538 226 L 552 234 L 566 249 L 574 267 L 575 289 L 588 294 L 622 328 L 635 335 L 604 357 L 591 350 L 565 324 L 561 322 L 551 322 L 526 338 L 523 337 L 508 314 L 534 294 L 537 287 L 537 276 L 533 268 L 522 260 L 513 259 L 505 262 L 484 277 L 481 276 L 472 263 Z M 1525 221 L 1533 235 L 1538 250 L 1540 276 L 1538 288 L 1530 308 L 1520 323 L 1509 334 L 1487 347 L 1469 352 L 1453 353 L 1440 351 L 1424 345 L 1423 343 L 1436 319 L 1439 318 L 1447 321 L 1466 319 L 1484 308 L 1496 293 L 1504 272 L 1504 253 L 1499 239 L 1488 227 L 1500 205 L 1504 202 Z M 1497 198 L 1498 200 L 1483 225 L 1466 223 L 1455 226 L 1440 235 L 1428 249 L 1420 267 L 1418 286 L 1423 304 L 1433 315 L 1418 341 L 1414 339 L 1398 324 L 1392 315 L 1383 291 L 1382 263 L 1385 250 L 1392 234 L 1409 212 L 1419 204 L 1437 195 L 1452 191 L 1469 190 L 1485 193 Z M 1296 179 L 1298 177 L 1304 178 L 1360 197 L 1363 201 L 1356 224 L 1350 227 L 1289 206 L 1288 202 Z M 615 163 L 619 166 L 684 309 L 683 312 L 653 326 L 649 324 L 584 182 L 584 177 Z M 1134 155 L 1136 159 L 1131 183 L 1124 197 L 1116 208 L 1102 221 L 1089 229 L 1074 234 L 1059 234 L 1060 205 L 1075 201 L 1087 190 L 1089 186 L 1061 186 L 1059 184 L 1060 155 Z M 1317 118 L 1388 142 L 1389 145 L 1380 170 L 1376 171 L 1307 147 Z M 807 107 L 853 161 L 866 238 L 866 251 L 836 256 L 830 255 L 806 114 Z M 764 107 L 768 108 L 814 262 L 812 264 L 779 274 L 777 272 L 731 118 Z M 1307 114 L 1311 116 L 1261 267 L 1260 269 L 1256 270 L 1226 260 L 1225 256 L 1275 105 Z M 806 95 L 839 90 L 961 234 L 926 240 L 806 99 Z M 930 74 L 935 75 L 960 223 L 957 223 L 912 169 L 898 86 L 899 80 Z M 1061 72 L 1079 74 L 1101 85 L 1117 100 L 1126 113 L 1129 122 L 1098 138 L 1090 121 L 1078 108 L 1061 102 Z M 1047 72 L 1055 73 L 1054 103 L 1041 107 L 1027 121 L 1020 137 L 1018 156 L 1021 174 L 1029 189 L 1042 201 L 1054 205 L 1053 235 L 1042 234 L 1029 230 L 1016 223 L 1003 212 L 990 195 L 984 182 L 980 166 L 981 135 L 985 122 L 995 104 L 1017 83 L 1033 75 Z"/>
  </g>
  <g id="yellow">
    <path fill="#ffd600" fill-rule="evenodd" d="M 1883 887 L 1851 959 L 1772 968 L 1831 1022 L 1814 1099 L 1883 1059 L 1952 1099 L 1935 1022 L 1994 968 L 1915 959 Z M 1876 968 L 1890 968 L 1905 975 L 1914 985 L 1919 997 L 1919 1011 L 1915 1022 L 1904 1034 L 1891 1040 L 1875 1040 L 1865 1036 L 1853 1025 L 1847 1011 L 1847 997 L 1854 982 L 1864 973 Z M 164 887 L 132 959 L 53 968 L 112 1022 L 95 1099 L 164 1059 L 233 1099 L 216 1022 L 275 968 L 196 959 Z M 157 968 L 171 968 L 186 975 L 197 988 L 200 997 L 200 1011 L 196 1022 L 185 1034 L 172 1040 L 156 1040 L 146 1036 L 134 1025 L 128 1011 L 128 997 L 135 982 L 145 973 Z M 995 564 L 949 569 L 907 578 L 871 589 L 829 606 L 791 626 L 750 653 L 718 679 L 679 718 L 653 750 L 626 791 L 606 829 L 589 871 L 574 923 L 567 963 L 564 995 L 564 1052 L 569 1098 L 578 1140 L 589 1176 L 606 1218 L 626 1256 L 653 1297 L 679 1329 L 718 1368 L 750 1394 L 791 1421 L 829 1441 L 871 1458 L 923 1473 L 963 1480 L 995 1483 L 1052 1483 L 1098 1478 L 1140 1469 L 1176 1458 L 1218 1441 L 1256 1421 L 1297 1394 L 1329 1368 L 1368 1329 L 1394 1297 L 1421 1256 L 1441 1218 L 1458 1176 L 1473 1124 L 1480 1084 L 1483 1052 L 1483 995 L 1479 956 L 1469 907 L 1458 871 L 1441 829 L 1421 791 L 1394 750 L 1368 718 L 1329 679 L 1297 653 L 1256 626 L 1218 606 L 1176 589 L 1124 574 L 1084 567 L 1052 564 Z M 800 692 L 828 691 L 850 695 L 870 702 L 884 709 L 903 722 L 925 744 L 944 774 L 950 789 L 956 815 L 956 855 L 945 894 L 1044 993 L 1152 885 L 1059 792 L 1059 790 L 1080 769 L 1240 798 L 1378 936 L 1290 1023 L 1225 959 L 1118 1067 L 1332 1280 L 1334 1284 L 1261 1356 L 1044 1140 L 827 1356 L 755 1284 L 755 1282 L 971 1066 L 871 966 L 847 975 L 815 979 L 783 976 L 760 969 L 735 956 L 719 944 L 696 919 L 681 893 L 670 856 L 669 847 L 671 822 L 744 895 L 873 895 L 873 765 Z M 1004 359 L 947 363 L 876 375 L 806 395 L 744 420 L 692 447 L 635 484 L 587 522 L 542 565 L 492 624 L 459 672 L 420 744 L 400 792 L 382 848 L 367 918 L 360 981 L 359 1042 L 363 1100 L 375 1171 L 395 1241 L 420 1303 L 447 1355 L 484 1412 L 522 1460 L 565 1505 L 624 1555 L 672 1588 L 744 1627 L 792 1647 L 848 1665 L 918 1680 L 981 1687 L 1043 1688 L 1100 1684 L 1171 1672 L 1241 1652 L 1303 1627 L 1355 1600 L 1412 1563 L 1460 1525 L 1505 1482 L 1555 1423 L 1588 1375 L 1627 1303 L 1647 1255 L 1665 1199 L 1680 1129 L 1687 1066 L 1688 1004 L 1684 947 L 1672 876 L 1652 806 L 1627 744 L 1600 692 L 1563 635 L 1525 587 L 1482 542 L 1423 492 L 1375 459 L 1303 420 L 1255 400 L 1199 382 L 1129 367 L 1066 360 Z M 892 413 L 925 490 L 959 484 L 995 481 L 1068 482 L 1122 490 L 1152 417 L 1156 413 L 1361 498 L 1363 500 L 1331 576 L 1388 621 L 1434 668 L 1471 716 L 1547 684 L 1549 686 L 1634 892 L 1628 896 L 1557 925 L 1563 959 L 1566 995 L 1565 1068 L 1557 1122 L 1630 1152 L 1634 1156 L 1549 1361 L 1547 1363 L 1471 1331 L 1426 1388 L 1379 1434 L 1331 1471 L 1363 1547 L 1361 1549 L 1155 1634 L 1122 1557 L 1088 1563 L 1052 1566 L 979 1565 L 925 1557 L 895 1630 L 891 1634 L 686 1549 L 684 1547 L 716 1471 L 659 1426 L 613 1379 L 576 1331 L 500 1363 L 498 1361 L 413 1155 L 490 1122 L 484 1088 L 481 1052 L 482 979 L 490 925 L 417 895 L 413 891 L 498 686 L 500 684 L 576 716 L 621 659 L 668 613 L 716 576 L 684 500 L 686 498 Z"/>
  </g>
  <g id="black">
    <path fill="#000000" fill-rule="evenodd" d="M 802 692 L 874 765 L 873 896 L 743 896 L 671 824 L 672 859 L 682 892 L 699 921 L 722 945 L 744 960 L 759 967 L 792 976 L 826 977 L 853 972 L 872 965 L 972 1065 L 972 1067 L 756 1283 L 828 1354 L 1045 1138 L 1262 1354 L 1333 1283 L 1116 1066 L 1226 957 L 1291 1021 L 1376 936 L 1239 799 L 1081 770 L 1060 791 L 1153 884 L 1153 886 L 1044 994 L 943 892 L 950 875 L 954 858 L 954 811 L 949 791 L 941 771 L 921 741 L 897 719 L 871 704 L 855 698 L 833 693 Z M 1019 297 L 947 301 L 886 310 L 813 328 L 741 354 L 673 387 L 603 431 L 546 476 L 496 524 L 452 575 L 414 628 L 380 686 L 347 758 L 328 813 L 310 886 L 301 947 L 297 1028 L 301 1100 L 310 1161 L 328 1234 L 354 1306 L 387 1374 L 431 1444 L 476 1501 L 524 1551 L 575 1595 L 628 1633 L 686 1667 L 758 1700 L 813 1719 L 886 1737 L 947 1746 L 1028 1750 L 1100 1746 L 1161 1737 L 1234 1719 L 1306 1693 L 1374 1660 L 1444 1616 L 1501 1571 L 1551 1523 L 1595 1472 L 1633 1419 L 1667 1361 L 1700 1289 L 1719 1234 L 1737 1161 L 1746 1100 L 1750 1019 L 1746 947 L 1737 886 L 1719 813 L 1693 741 L 1660 673 L 1616 603 L 1571 546 L 1523 496 L 1463 445 L 1408 407 L 1361 380 L 1322 361 L 1286 346 L 1234 328 L 1161 310 L 1100 301 Z M 989 358 L 1058 358 L 1126 365 L 1193 379 L 1256 399 L 1310 422 L 1371 455 L 1429 495 L 1473 532 L 1515 574 L 1558 626 L 1592 676 L 1625 737 L 1648 791 L 1668 854 L 1682 921 L 1689 989 L 1689 1058 L 1682 1126 L 1668 1193 L 1648 1256 L 1625 1310 L 1592 1371 L 1552 1429 L 1515 1473 L 1473 1515 L 1421 1558 L 1371 1592 L 1310 1625 L 1256 1648 L 1193 1668 L 1126 1682 L 1058 1689 L 989 1689 L 921 1682 L 854 1668 L 791 1648 L 737 1625 L 676 1592 L 618 1552 L 574 1515 L 532 1473 L 486 1417 L 449 1361 L 422 1310 L 399 1256 L 379 1193 L 365 1126 L 358 1058 L 358 989 L 365 921 L 379 854 L 399 791 L 422 737 L 455 676 L 495 618 L 532 574 L 574 532 L 626 489 L 676 455 L 737 422 L 791 399 L 854 379 L 921 365 Z M 980 0 L 896 7 L 864 13 L 849 14 L 790 26 L 716 46 L 675 60 L 612 85 L 522 130 L 469 162 L 429 189 L 383 224 L 344 257 L 299 299 L 274 325 L 209 402 L 189 429 L 150 488 L 124 533 L 97 586 L 97 589 L 91 599 L 72 643 L 60 675 L 33 761 L 13 855 L 13 864 L 7 896 L 7 910 L 1 963 L 0 1067 L 7 1151 L 13 1183 L 14 1198 L 26 1257 L 46 1331 L 60 1372 L 85 1435 L 130 1525 L 162 1578 L 189 1618 L 224 1664 L 257 1703 L 299 1748 L 325 1773 L 402 1838 L 429 1858 L 488 1897 L 533 1923 L 586 1950 L 589 1950 L 599 1956 L 643 1975 L 675 1987 L 758 2013 L 855 2034 L 864 2034 L 896 2040 L 963 2046 L 1067 2047 L 1151 2040 L 1183 2034 L 1198 2033 L 1257 2021 L 1331 2001 L 1372 1987 L 1435 1962 L 1525 1917 L 1578 1885 L 1618 1858 L 1664 1823 L 1703 1790 L 1748 1748 L 1773 1722 L 1838 1645 L 1858 1618 L 1897 1559 L 1923 1514 L 1950 1461 L 1950 1458 L 1956 1448 L 1975 1404 L 1987 1372 L 2013 1289 L 2034 1192 L 2034 1183 L 2040 1151 L 2046 1084 L 2047 980 L 2040 896 L 2034 864 L 2033 849 L 2021 790 L 1994 695 L 1975 643 L 1956 599 L 1917 522 L 1885 469 L 1858 429 L 1819 378 L 1790 344 L 1748 299 L 1722 274 L 1645 209 L 1618 189 L 1559 150 L 1514 124 L 1461 97 L 1458 97 L 1448 91 L 1404 72 L 1372 60 L 1289 34 L 1192 13 L 1183 13 L 1151 7 L 1137 7 L 1084 1 Z M 1012 30 L 1068 31 L 1113 34 L 1196 45 L 1246 55 L 1293 67 L 1375 94 L 1450 126 L 1495 149 L 1553 183 L 1595 211 L 1634 240 L 1705 301 L 1746 342 L 1775 374 L 1836 452 L 1888 534 L 1932 621 L 1960 691 L 1978 747 L 1992 801 L 2002 851 L 2010 905 L 2015 961 L 2017 1012 L 2016 1068 L 2013 1113 L 2006 1172 L 1999 1213 L 1978 1300 L 1946 1393 L 1906 1480 L 1857 1564 L 1811 1629 L 1775 1673 L 1746 1705 L 1705 1746 L 1673 1775 L 1595 1836 L 1513 1888 L 1426 1932 L 1356 1960 L 1300 1978 L 1246 1992 L 1196 2002 L 1142 2010 L 1086 2015 L 1035 2017 L 979 2016 L 934 2013 L 851 2002 L 801 1992 L 754 1980 L 672 1953 L 597 1921 L 552 1898 L 494 1864 L 452 1836 L 413 1807 L 342 1746 L 301 1705 L 272 1673 L 236 1629 L 211 1595 L 159 1513 L 115 1426 L 87 1356 L 69 1300 L 55 1246 L 45 1196 L 37 1142 L 32 1086 L 30 1035 L 31 979 L 34 934 L 41 875 L 48 834 L 69 747 L 101 654 L 141 567 L 190 483 L 240 413 L 301 342 L 342 301 L 373 273 L 413 240 L 452 211 L 534 159 L 621 115 L 691 87 L 747 69 L 801 55 L 851 45 L 905 37 L 961 32 Z"/>
  </g>
  <g id="cream">
    <path fill="#e7efc6" fill-rule="evenodd" d="M 1023 1941 L 1023 1964 L 1084 1962 L 1084 1940 Z M 1077 1882 L 1022 1883 L 1022 1907 L 1078 1905 Z M 1163 1852 L 1134 1856 L 1147 1955 L 1171 1953 L 1176 1951 Z M 973 1843 L 938 1887 L 929 1960 L 951 1963 L 958 1962 Z M 1453 1836 L 1398 1861 L 1407 1881 L 1409 1882 L 1463 1857 Z M 985 1834 L 988 1965 L 1017 1964 L 1014 1834 Z M 1081 1832 L 1020 1834 L 1021 1857 L 1081 1856 Z M 975 1834 L 955 1831 L 946 1832 L 894 1898 L 888 1944 Z M 823 1823 L 808 1944 L 836 1947 L 846 1875 Z M 1192 1819 L 1096 1831 L 1099 1854 L 1195 1842 Z M 825 1815 L 880 1943 L 886 1896 L 852 1818 Z M 1271 1796 L 1239 1805 L 1233 1924 L 1238 1941 L 1263 1933 L 1263 1829 L 1287 1866 L 1289 1873 L 1269 1878 L 1269 1903 L 1303 1893 L 1318 1916 L 1322 1917 L 1351 1908 Z M 701 1769 L 693 1790 L 700 1796 L 702 1800 L 701 1806 L 694 1814 L 683 1815 L 675 1836 L 682 1841 L 685 1847 L 685 1854 L 682 1861 L 676 1867 L 671 1869 L 662 1869 L 655 1889 L 670 1894 L 683 1893 L 685 1895 L 684 1900 L 686 1902 L 710 1911 L 711 1870 L 735 1843 L 709 1833 L 706 1837 L 702 1833 L 716 1828 L 726 1819 L 730 1810 L 731 1801 L 728 1788 L 724 1782 L 710 1771 Z M 1347 1766 L 1321 1778 L 1372 1892 L 1376 1897 L 1400 1886 L 1401 1884 Z M 696 1765 L 680 1761 L 671 1761 L 654 1769 L 647 1778 L 644 1787 L 646 1803 L 651 1810 L 651 1814 L 645 1814 L 633 1819 L 626 1826 L 621 1835 L 618 1847 L 621 1864 L 625 1871 L 633 1879 L 649 1887 L 657 1868 L 657 1865 L 648 1855 L 650 1842 L 659 1834 L 670 1834 L 678 1814 L 671 1805 L 671 1795 L 678 1788 L 688 1788 Z M 590 1725 L 537 1745 L 492 1802 L 515 1820 Z M 596 1718 L 575 1701 L 570 1702 L 494 1732 L 465 1768 Z M 1470 1708 L 1590 1776 L 1598 1770 L 1564 1731 L 1492 1691 L 1490 1691 Z M 1577 1670 L 1555 1689 L 1570 1728 L 1603 1766 L 1610 1760 L 1592 1714 L 1592 1708 L 1639 1735 L 1646 1729 L 1611 1689 Z M 471 1631 L 396 1727 L 419 1744 L 464 1687 Z M 477 1625 L 459 1764 L 488 1727 L 499 1642 Z M 469 1615 L 450 1595 L 448 1595 L 385 1656 L 379 1659 L 372 1659 L 364 1654 L 344 1674 L 353 1683 L 369 1691 L 381 1691 L 390 1688 L 402 1680 Z M 1609 1589 L 1592 1603 L 1589 1611 L 1618 1687 L 1651 1725 L 1658 1718 Z M 273 1551 L 254 1564 L 284 1607 L 290 1613 L 308 1600 Z M 403 1546 L 401 1546 L 329 1617 L 323 1631 L 323 1645 L 329 1658 L 339 1668 L 357 1651 L 358 1647 L 354 1639 L 357 1629 L 422 1566 Z M 1645 1543 L 1637 1563 L 1637 1587 L 1644 1607 L 1651 1617 L 1664 1629 L 1686 1640 L 1709 1642 L 1724 1639 L 1737 1633 L 1750 1621 L 1732 1607 L 1720 1614 L 1704 1615 L 1689 1610 L 1672 1596 L 1664 1582 L 1662 1575 L 1662 1563 L 1666 1555 L 1648 1540 Z M 320 1518 L 301 1531 L 328 1570 L 334 1576 L 352 1563 Z M 1658 1528 L 1652 1537 L 1669 1550 L 1675 1545 L 1684 1541 L 1700 1541 L 1710 1544 L 1724 1553 L 1733 1563 L 1740 1579 L 1740 1594 L 1736 1603 L 1753 1617 L 1756 1614 L 1764 1595 L 1764 1568 L 1757 1549 L 1742 1531 L 1725 1520 L 1709 1515 L 1687 1515 L 1679 1517 Z M 359 1489 L 341 1502 L 374 1549 L 378 1551 L 395 1537 L 361 1489 Z M 341 1460 L 235 1534 L 235 1538 L 250 1559 L 357 1484 Z M 1709 1456 L 1695 1481 L 1805 1545 L 1808 1546 L 1822 1523 L 1821 1520 Z M 311 1409 L 307 1409 L 291 1418 L 293 1432 L 283 1445 L 297 1467 L 307 1459 L 316 1444 L 317 1429 Z M 1712 1451 L 1732 1461 L 1741 1444 L 1747 1438 L 1751 1436 L 1764 1437 L 1773 1445 L 1775 1449 L 1775 1460 L 1764 1479 L 1765 1482 L 1783 1492 L 1794 1474 L 1799 1469 L 1805 1467 L 1812 1468 L 1835 1477 L 1847 1478 L 1862 1452 L 1851 1452 L 1815 1439 L 1801 1439 L 1798 1430 L 1788 1418 L 1775 1410 L 1763 1407 L 1752 1407 L 1736 1415 L 1726 1426 Z M 205 1399 L 198 1403 L 190 1411 L 184 1424 L 184 1444 L 192 1463 L 212 1453 L 209 1442 L 209 1434 L 211 1429 L 219 1422 Z M 286 1378 L 277 1374 L 262 1374 L 246 1382 L 238 1391 L 235 1399 L 234 1412 L 243 1449 L 243 1462 L 241 1466 L 235 1470 L 227 1471 L 223 1469 L 214 1458 L 195 1468 L 202 1481 L 217 1494 L 228 1498 L 242 1497 L 257 1490 L 267 1480 L 271 1470 L 272 1457 L 262 1419 L 263 1406 L 269 1401 L 276 1400 L 280 1402 L 289 1413 L 307 1402 L 301 1392 Z M 1765 1352 L 1756 1375 L 1756 1380 L 1874 1426 L 1877 1425 L 1887 1399 Z M 152 1327 L 135 1334 L 154 1384 L 157 1390 L 160 1390 L 179 1382 L 157 1327 Z M 207 1305 L 188 1313 L 208 1364 L 211 1364 L 224 1358 L 229 1354 L 210 1305 Z M 234 1294 L 257 1351 L 278 1341 L 256 1286 Z M 1796 1274 L 1782 1308 L 1808 1363 L 1838 1375 L 1906 1351 L 1918 1319 L 1830 1350 L 1825 1342 Z M 243 1254 L 237 1255 L 122 1301 L 132 1328 L 253 1280 Z M 1939 1240 L 1917 1235 L 1915 1241 L 1906 1252 L 1891 1255 L 1889 1281 L 1907 1281 L 1920 1275 L 1933 1260 Z M 200 1189 L 102 1211 L 108 1239 L 206 1217 Z M 1939 1197 L 1929 1185 L 1919 1180 L 1905 1177 L 1892 1179 L 1884 1183 L 1875 1192 L 1856 1230 L 1847 1238 L 1842 1238 L 1833 1231 L 1832 1215 L 1812 1211 L 1811 1238 L 1817 1253 L 1824 1260 L 1839 1266 L 1854 1266 L 1860 1264 L 1874 1252 L 1894 1214 L 1904 1206 L 1912 1207 L 1918 1212 L 1920 1216 L 1920 1230 L 1941 1234 L 1943 1226 L 1943 1213 Z M 1861 1169 L 1846 1169 L 1831 1175 L 1820 1188 L 1813 1205 L 1832 1210 L 1835 1209 L 1839 1202 L 1846 1196 L 1858 1195 Z M 220 1148 L 198 1154 L 218 1243 L 221 1248 L 242 1243 Z M 305 696 L 280 685 L 264 702 L 244 702 L 233 733 L 246 737 L 259 738 L 277 732 L 292 720 L 303 703 Z M 1760 664 L 1734 676 L 1762 739 L 1766 744 L 1791 733 Z M 1798 647 L 1825 707 L 1828 709 L 1853 697 L 1825 635 Z M 316 645 L 311 633 L 298 620 L 280 612 L 263 611 L 249 616 L 237 625 L 212 658 L 203 667 L 194 671 L 185 667 L 180 661 L 179 654 L 183 642 L 182 639 L 159 630 L 152 652 L 152 673 L 157 686 L 166 696 L 185 705 L 201 706 L 213 702 L 223 695 L 232 686 L 248 664 L 261 651 L 269 647 L 274 647 L 280 650 L 286 656 L 288 661 L 284 679 L 309 690 L 316 670 Z M 1877 610 L 1855 620 L 1854 622 L 1883 686 L 1886 689 L 1910 678 L 1911 676 L 1881 610 Z M 228 590 L 219 588 L 195 589 L 183 596 L 170 609 L 162 623 L 186 634 L 201 621 L 210 620 L 219 622 L 229 594 Z M 1863 570 L 1716 636 L 1730 669 L 1876 603 L 1876 598 Z M 1769 577 L 1728 518 L 1725 517 L 1703 534 L 1719 556 L 1718 559 L 1700 556 L 1684 546 L 1664 560 L 1663 563 L 1670 571 L 1687 583 L 1714 591 L 1734 591 L 1744 589 Z M 287 484 L 266 514 L 368 585 L 389 555 Z M 1795 469 L 1771 486 L 1776 498 L 1776 508 L 1772 522 L 1764 534 L 1765 537 L 1783 547 L 1795 551 L 1802 536 L 1806 519 L 1806 498 L 1804 488 Z M 1790 462 L 1771 445 L 1756 438 L 1734 434 L 1724 434 L 1704 438 L 1680 451 L 1665 465 L 1658 475 L 1649 498 L 1647 510 L 1648 531 L 1651 542 L 1658 556 L 1681 540 L 1678 529 L 1678 519 L 1681 507 L 1690 492 L 1703 480 L 1720 471 L 1736 468 L 1752 470 L 1767 480 L 1790 464 Z M 281 430 L 212 528 L 236 544 L 303 449 L 303 445 Z M 490 403 L 436 455 L 454 475 L 456 475 L 509 425 L 509 423 Z M 339 364 L 313 389 L 423 505 L 425 505 L 450 481 Z M 437 356 L 387 404 L 407 424 L 456 378 L 456 376 Z M 399 307 L 345 358 L 345 360 L 363 379 L 372 373 L 418 329 L 418 327 Z M 1647 304 L 1627 324 L 1648 344 L 1651 349 L 1652 361 L 1649 369 L 1637 379 L 1624 380 L 1618 378 L 1596 357 L 1576 378 L 1598 401 L 1599 413 L 1579 444 L 1574 459 L 1602 485 L 1604 472 L 1630 433 L 1634 415 L 1646 414 L 1664 405 L 1673 397 L 1681 386 L 1687 369 L 1686 353 L 1681 341 L 1668 324 Z M 1616 275 L 1504 392 L 1530 417 L 1641 299 Z M 459 259 L 432 278 L 524 411 L 553 390 L 463 259 Z M 748 250 L 679 281 L 691 307 L 759 276 Z M 467 253 L 482 276 L 505 261 L 513 258 L 522 259 L 534 268 L 538 276 L 538 287 L 532 298 L 515 309 L 509 315 L 524 337 L 551 321 L 561 321 L 565 323 L 591 349 L 604 356 L 634 335 L 622 329 L 588 295 L 575 290 L 573 287 L 573 267 L 565 249 L 552 235 L 538 227 L 521 225 L 503 230 Z M 1504 203 L 1501 205 L 1491 223 L 1490 229 L 1500 239 L 1505 253 L 1505 272 L 1497 293 L 1484 309 L 1466 320 L 1447 322 L 1437 319 L 1424 344 L 1440 350 L 1453 352 L 1469 351 L 1487 346 L 1509 333 L 1519 323 L 1529 308 L 1537 288 L 1539 276 L 1537 250 L 1532 235 L 1524 221 Z M 1497 199 L 1485 194 L 1469 191 L 1452 192 L 1437 196 L 1419 205 L 1409 213 L 1393 234 L 1386 250 L 1383 263 L 1384 291 L 1393 315 L 1399 324 L 1414 338 L 1418 340 L 1432 315 L 1422 304 L 1417 286 L 1419 267 L 1427 249 L 1440 234 L 1455 225 L 1466 222 L 1484 223 Z M 1297 179 L 1289 205 L 1354 227 L 1363 199 L 1304 179 Z M 615 164 L 584 178 L 650 324 L 653 325 L 683 311 L 618 166 Z M 1134 156 L 1060 156 L 1061 185 L 1090 187 L 1075 202 L 1060 206 L 1060 234 L 1074 233 L 1089 228 L 1102 220 L 1115 208 L 1123 197 L 1130 183 L 1134 167 Z M 1317 119 L 1308 147 L 1379 170 L 1388 143 Z M 807 108 L 831 255 L 866 250 L 852 161 Z M 732 118 L 779 273 L 809 264 L 812 260 L 767 108 Z M 1276 105 L 1226 256 L 1226 259 L 1256 269 L 1259 269 L 1310 118 L 1310 116 Z M 806 96 L 926 239 L 960 234 L 839 91 Z M 899 81 L 913 169 L 959 223 L 934 75 Z M 1061 73 L 1061 101 L 1078 107 L 1091 121 L 1098 137 L 1127 123 L 1128 119 L 1122 108 L 1105 89 L 1082 76 Z M 1047 73 L 1033 76 L 1017 84 L 996 104 L 986 122 L 982 135 L 981 166 L 987 187 L 1003 211 L 1016 222 L 1029 229 L 1042 233 L 1053 234 L 1053 205 L 1042 202 L 1028 189 L 1020 174 L 1017 156 L 1019 137 L 1026 121 L 1038 108 L 1047 103 L 1054 102 L 1054 73 Z"/>
  </g>
</svg>
