<?xml version="1.0" encoding="UTF-8" standalone="no"?>
<svg
   version="1.1"
   x="0px"
   y="0px"
   viewBox="0 0 94.744034 94.642311"
   xml:space="preserve"
   id="svg11"
   sodipodi:docname="noun-battle-mech-1731140.svg"
   width="94.744034"
   height="94.642311"
   inkscape:version="1.4.2 (f4327f4, 2025-05-13)"
   xmlns:inkscape="http://www.inkscape.org/namespaces/inkscape"
   xmlns:sodipodi="http://sodipodi.sourceforge.net/DTD/sodipodi-0.dtd"
   xmlns="http://www.w3.org/2000/svg"
   xmlns:svg="http://www.w3.org/2000/svg"><defs
     id="defs11" /><sodipodi:namedview
     id="namedview11"
     pagecolor="#ffffff"
     bordercolor="#000000"
     borderopacity="0.25"
     inkscape:showpageshadow="2"
     inkscape:pageopacity="0.0"
     inkscape:pagecheckerboard="0"
     inkscape:deskcolor="#d1d1d1"
     inkscape:zoom="7.5572037"
     inkscape:cx="33.742639"
     inkscape:cy="48.099802"
     inkscape:window-width="2498"
     inkscape:window-height="1057"
     inkscape:window-x="1912"
     inkscape:window-y="-8"
     inkscape:window-maximized="1"
     inkscape:current-layer="svg11" /><path
     style="fill:#aa00d4;stroke-width:0.92268"
     id="path31"
     sodipodi:type="arc"
     sodipodi:cx="47.372017"
     sodipodi:cy="47.372017"
     sodipodi:rx="47.372017"
     sodipodi:ry="47.372017"
     sodipodi:start="1.6363414"
     sodipodi:end="1.4478877"
     sodipodi:open="true"
     sodipodi:arc-type="arc"
     d="M 44.269237,94.642311 A 47.372017,47.372017 0 0 1 0.00804652,46.498922 47.372017,47.372017 0 0 1 46.01349,0.01948382 47.372017,47.372017 0 0 1 94.608025,43.784882 47.372017,47.372017 0 0 1 53.179798,94.386671" /><g
     id="g31"
     transform="translate(15.372017,15.321156)"><rect
       style="fill:#ff5555"
       id="rect11"
       width="3.8362572"
       height="21.520468"
       x="3.0877192"
       y="15.345029" /><rect
       style="fill:#ff5555"
       id="rect12"
       width="3.6491227"
       height="21.146198"
       x="57.356724"
       y="15.625731" /><rect
       style="fill:#ff5555"
       id="rect13"
       width="3.3684211"
       height="10.573099"
       x="53.052631"
       y="17.403509" /><rect
       style="fill:#ff5555"
       id="rect14"
       width="47.906433"
       height="4.6783624"
       x="6.9239764"
       y="16.748537" /><rect
       style="fill:#ff5555"
       id="rect15"
       width="4.5847955"
       height="7.4853802"
       x="6.3625731"
       y="20.397661" /><rect
       style="fill:#ff5555"
       id="rect16"
       width="3.1812866"
       height="18.385965"
       x="11.602339"
       y="42.666668" /><rect
       style="fill:#ff5555"
       id="rect17"
       width="3.8362572"
       height="18.385965"
       x="49.076023"
       y="42.47953" /><rect
       style="fill:#ff5555"
       id="rect18"
       width="27.461988"
       height="3.9298246"
       x="18.292398"
       y="39.064327" /><rect
       style="fill:#ff5555"
       id="rect19"
       width="17.122807"
       height="3.2748537"
       x="23.157894"
       y="35.181286" /><rect
       style="fill:#ff5555"
       id="rect20"
       width="17.076023"
       height="2.8538013"
       x="23.578947"
       y="5.8947368" /><rect
       style="fill:#ff5555"
       id="rect21"
       width="13.660819"
       height="2.9473684"
       x="25.076023"
       y="3.5087719" /><rect
       style="fill:#ff5555"
       id="rect22"
       width="6.128655"
       height="15.251462"
       x="16.795322"
       y="12.725146" /><rect
       style="fill:#ff5555"
       id="rect23"
       width="21.988304"
       height="4.0701756"
       x="20.491228"
       y="10.385965" /><rect
       style="fill:#ff5555"
       id="rect24"
       width="19.134502"
       height="2.9005847"
       x="22.269007"
       y="9.3567247" /><rect
       style="fill:#ff5555"
       id="rect25"
       width="4.9590645"
       height="16.233917"
       x="41.497078"
       y="12.163743" /><path
       style="fill:#ff5555"
       d="m 41.450292,25.076023 -4.538011,4.163743 -10.105263,-0.467836 -3.976609,-3.836257 -6.035087,0.421052 1.637427,3.883041 4.865497,5.239766 17.16959,0.327486 6.643275,-7.391813 z"
       id="path26" /><path
       style="fill:#ffe680"
       id="path28"
       sodipodi:type="arc"
       sodipodi:cx="47.157894"
       sodipodi:cy="6.8070173"
       sodipodi:rx="6.3625731"
       sodipodi:ry="6.1052632"
       sodipodi:start="1.6363414"
       sodipodi:end="1.4478877"
       sodipodi:open="true"
       sodipodi:arc-type="arc"
       d="M 46.741157,12.899171 A 6.3625731,6.1052632 0 0 1 40.796402,6.6944936 6.3625731,6.1052632 0 0 1 46.975429,0.70426515 6.3625731,6.1052632 0 0 1 53.5022,6.3447106 6.3625731,6.1052632 0 0 1 47.937942,12.866224" /><path
       style="fill:#ffe680"
       id="path29"
       sodipodi:type="arc"
       sodipodi:cx="15.040936"
       sodipodi:cy="38.97076"
       sodipodi:rx="4.2807016"
       sodipodi:ry="4.2573099"
       sodipodi:start="1.6363414"
       sodipodi:end="1.4478877"
       sodipodi:open="true"
       sodipodi:arc-type="arc"
       d="m 14.760558,43.218928 a 4.2807016,4.2573099 0 0 1 -3.999596,-4.326632 4.2807016,4.2573099 0 0 1 4.157213,-4.177095 4.2807016,4.2573099 0 0 1 4.391173,3.933185 4.2807016,4.2573099 0 0 1 -3.7436,4.547568" /><rect
       style="fill:#ffe680"
       id="rect30"
       width="17.824562"
       height="9.7309942"
       x="22.97076"
       y="15.064327" /><rect
       style="fill:#ffe680"
       id="rect31"
       width="13.660819"
       height="2.6198831"
       x="25.122807"
       y="25.543859" /><path
       style="fill:#ffe680"
       id="path30"
       sodipodi:type="arc"
       sodipodi:cx="49.239765"
       sodipodi:cy="38.923977"
       sodipodi:rx="4.0935674"
       sodipodi:ry="3.6023393"
       sodipodi:start="1.6363414"
       sodipodi:end="1.4478877"
       sodipodi:open="true"
       sodipodi:arc-type="arc"
       d="m 48.971644,42.518581 a 4.0935674,3.6023393 0 0 1 -3.824751,-3.660997 4.0935674,3.6023393 0 0 1 3.975477,-3.534465 4.0935674,3.6023393 0 0 1 4.19921,3.328079 4.0935674,3.6023393 0 0 1 -3.579946,3.847943" /><path
       style="fill:#ffe680"
       id="path27"
       sodipodi:type="arc"
       sodipodi:cx="17.146198"
       sodipodi:cy="6.8538013"
       sodipodi:rx="5.7309942"
       sodipodi:ry="6.3391814"
       sodipodi:start="1.6363414"
       sodipodi:end="1.4478877"
       sodipodi:open="true"
       sodipodi:arc-type="arc"
       d="M 16.770829,13.17937 A 5.7309942,6.3391814 0 0 1 11.416178,6.7369663 5.7309942,6.3391814 0 0 1 16.981846,0.51722709 5.7309942,6.3391814 0 0 1 22.860738,6.3737816 5.7309942,6.3391814 0 0 1 17.848815,13.145161" /><g
       id="g10"><path
         d="M 58,62 V 60 H 54 V 39 c 0,-2.8 -2.2,-5 -5,-5 -2.4,0 -4.4,1.7 -4.9,4 H 42 v -3.6 l 6,-6 V 22 h 4 v 5.6 l 4,2 V 35 c 0,1.7 1.3,3 3,3 1.7,0 3,-1.3 3,-3 V 17 c 0,-1.7 -1.3,-3 -3,-3 -1.3,0 -2.4,0.8 -2.8,2 H 50 v 2 h 6 v 2 H 48 V 16 H 46 V 27.6 L 39.6,34 H 24.4 L 18,27.6 V 16 h -2 v 4 H 8 v -2 h 6 V 16 H 7.8 C 7.4,14.8 6.3,14 5,14 3.3,14 2,15.3 2,17 v 18 c 0,1.7 1.3,3 3,3 1.7,0 3,-1.3 3,-3 v -5.4 l 4,-2 V 22 h 4 v 6.4 l 6,6 V 38 h -2.1 c -0.5,-2.3 -2.5,-4 -4.9,-4 -2.8,0 -5,2.2 -5,5 V 60 H 6 v 2 H 0 v 2 h 24 v -2 h -6 v -2 h -6 v -4 h 2 v 2 h 2 V 44 h 8 v -2 h -5 c 0.4,-0.6 0.8,-1.3 0.9,-2 H 31 v 2 h -5 v 2 h 22 v 14 h 2 v -2 h 2 v 4 h -6 v 2 H 26 v 2 h 38 v -2 z m 1,-26 c -0.6,0 -1,-0.4 -1,-1 0,-0.6 0.4,-1 1,-1 0.6,0 1,0.4 1,1 0,0.6 -0.4,1 -1,1 z m 0,-20 c 0.6,0 1,0.4 1,1 V 32.2 C 59.7,32.1 59.4,32 59,32 c -0.4,0 -0.7,0.1 -1,0.2 V 17 c 0,-0.6 0.4,-1 1,-1 z m -3,11.4 -2,-1 V 22 h 2 z M 5,16 c 0.6,0 1,0.4 1,1 V 32.2 C 5.7,32.1 5.4,32 5,32 4.6,32 4.3,32.1 4,32.2 V 17 c 0,-0.6 0.4,-1 1,-1 z m 0,20 c -0.6,0 -1,-0.4 -1,-1 0,-0.6 0.4,-1 1,-1 0.6,0 1,0.4 1,1 0,0.6 -0.4,1 -1,1 z m 5,-9.6 -2,1 V 22 h 2 z M 52,43 v 3 h -2 v -2.1 c 0.7,-0.2 1.4,-0.5 2,-0.9 z m -2,5 h 2 v 2 H 50 Z M 49,36 c 1.7,0 3,1.3 3,3 0,1.7 -1.3,3 -3,3 -1.7,0 -3,-1.3 -3,-3 0,-1.7 1.3,-3 3,-3 z m -9,0 v 2 H 33 V 36 Z M 12,48 h 2 v 2 h -2 z m 0,-2 v -3 c 0.6,0.4 1.3,0.8 2,0.9 V 46 Z m 0,8 v -2 h 2 v 2 z m 0,-15 c 0,-1.7 1.3,-3 3,-3 1.7,0 3,1.3 3,3 0,1.7 -1.3,3 -3,3 -1.7,0 -3,-1.3 -3,-3 z m 12,-1 v -2 h 7 v 2 z m 9,2 h 11.1 c 0.2,0.7 0.5,1.4 0.9,2 H 33 Z m 17,14 v -2 h 2 v 2 z"
         id="path1" /><path
         d="m 17,14 c 2.8,0 5.2,-1.6 6.3,-4 h 17.4 c 1.1,2.4 3.5,4 6.3,4 3.9,0 7,-3.1 7,-7 C 54,3.1 50.9,0 47,0 43.9,0 41.2,2.1 40.3,4.9 L 37.4,2 H 26.6 L 23.7,4.9 C 22.8,2.1 20.1,0 17,0 c -3.9,0 -7,3.1 -7,7 0,3.9 3.1,7 7,7 z M 47,2 c 2.8,0 5,2.2 5,5 0,2.8 -2.2,5 -5,5 -2.8,0 -5,-2.2 -5,-5 0,-2.8 2.2,-5 5,-5 z M 27.4,4 h 9.2 L 40,7.4 c 0,0.2 0,0.4 0.1,0.6 H 33 V 6 h -2 v 2 h -7.1 c 0,-0.2 0,-0.4 0.1,-0.6 z M 17,2 c 2.8,0 5,2.2 5,5 0,2.8 -2.2,5 -5,5 -2.8,0 -5,-2.2 -5,-5 0,-2.8 2.2,-5 5,-5 z"
         id="path2" /><path
         d="M 26.6,30 H 37.4 L 42,25.4 V 14 H 22 v 11.4 z m 10,-2 h -9.2 l -2,-2 H 38.6 Z M 40,16 v 8 H 24 v -8 z"
         id="path3" /><rect
         x="26"
         y="18"
         width="2"
         height="2"
         id="rect3" /><rect
         x="36"
         y="18"
         width="2"
         height="2"
         id="rect4" /><rect
         x="44"
         y="7"
         width="2"
         height="2"
         id="rect5" /><rect
         x="48"
         y="7"
         width="2"
         height="2"
         id="rect6" /><rect
         x="46"
         y="4"
         width="2"
         height="2"
         id="rect7" /><rect
         x="14"
         y="7"
         width="2"
         height="2"
         id="rect8" /><rect
         x="18"
         y="7"
         width="2"
         height="2"
         id="rect9" /><rect
         x="16"
         y="4"
         width="2"
         height="2"
         id="rect10" /></g></g><path
     style="fill:#800080"
     id="path32"
     sodipodi:type="arc"
     sodipodi:cx="47.372017"
     sodipodi:cy="47.321297"
     sodipodi:rx="0.33081019"
     sodipodi:ry="0.13232407"
     sodipodi:start="1.6363414"
     sodipodi:end="1.4478877"
     sodipodi:open="true"
     sodipodi:arc-type="arc"
     d="m 47.350349,47.453337 a 0.33081019,0.13232407 0 0 1 -0.309086,-0.134479 0.33081019,0.13232407 0 0 1 0.321267,-0.129831 0.33081019,0.13232407 0 0 1 0.339347,0.12225 0.33081019,0.13232407 0 0 1 -0.289303,0.141346" /></svg>
