<?xml version="1.0" encoding="UTF-8" standalone="no"?>
<svg
   version="1.1"
   viewBox="0 0 1002.6 1002.7"
   x="0px"
   y="0px"
   id="svg3"
   sodipodi:docname="noun-check-3612574.svg"
   width="1002.6"
   height="1002.7"
   inkscape:version="1.4.2 (f4327f4, 2025-05-13)"
   xmlns:inkscape="http://www.inkscape.org/namespaces/inkscape"
   xmlns:sodipodi="http://sodipodi.sourceforge.net/DTD/sodipodi-0.dtd"
   xmlns="http://www.w3.org/2000/svg"
   xmlns:svg="http://www.w3.org/2000/svg"
   xmlns:rdf="http://www.w3.org/1999/02/22-rdf-syntax-ns#"
   xmlns:cc="http://creativecommons.org/ns#"
   xmlns:dc="http://purl.org/dc/elements/1.1/">
  <defs
     id="defs3" />
  <sodipodi:namedview
     id="namedview3"
     pagecolor="#ffffff"
     bordercolor="#000000"
     borderopacity="0.25"
     inkscape:showpageshadow="2"
     inkscape:pageopacity="0.0"
     inkscape:pagecheckerboard="0"
     inkscape:deskcolor="#d1d1d1"
     inkscape:zoom="0.66796875"
     inkscape:cx="345.07602"
     inkscape:cy="370.52632"
     inkscape:window-width="2560"
     inkscape:window-height="1057"
     inkscape:window-x="1912"
     inkscape:window-y="-8"
     inkscape:window-maximized="1"
     inkscape:current-layer="svg3" />
  <title
     id="title1">checked</title>
  <path
     d="m 963.19999,306.40001 c -25.3,-59.7 -61.5,-113.3 -107.5,-159.4 -46.1,-46 -99.7,-82.200004 -159.4,-107.500004 -61.8,-26.2 -127.4,-39.4999998964844 -195,-39.4999998964844 C 224.89999,0.1000061 -1.2207031e-5,225.00001 -1.2207031e-5,501.40001 -1.2207031e-5,777.80001 224.89999,1002.7 501.29999,1002.7 c 276.4,0 501.30001,-224.89999 501.30001,-501.29999 0,-67.6 -13.20001,-133.2 -39.40001,-195 z m -461.9,613.4 c -230.7,0 -418.400002,-187.7 -418.400002,-418.4 0,-230.7 187.700002,-418.400004 418.400002,-418.400004 230.7,0 418.4,187.700004 418.4,418.400004 0,230.7 -187.7,418.4 -418.4,418.4 z"
     id="path2"
     style="fill:#ffffff" />
  <metadata
     id="metadata3">
    <rdf:RDF>
      <cc:Work
         rdf:about="">
        <dc:title>checked</dc:title>
      </cc:Work>
    </rdf:RDF>
  </metadata>
  <path
     style="fill:#00aa00;stroke:none"
     id="path3"
     sodipodi:type="arc"
     sodipodi:cx="501.29999"
     sodipodi:cy="501.35001"
     sodipodi:rx="485.05264"
     sodipodi:ry="485.05264"
     sodipodi:start="1.6287184"
     sodipodi:end="1.6280593"
     sodipodi:open="true"
     sodipodi:arc-type="arc"
     d="M 473.22044,985.58921 A 485.05264,485.05264 0 0 1 17.056165,473.35025 485.05264,485.05264 0 0 1 529.21995,17.101576 485.05264,485.05264 0 0 1 985.55301,529.19018 485.05264,485.05264 0 0 1 473.53961,985.60761" />
  <path
     d="m 785.13195,288.11793 c -12.78409,-12.78409 -29.99345,-19.99562 -48.02229,-19.99562 -18.02885,0 -35.2382,7.04764 -48.02229,19.99562 L 405.0511,570.67912 314.08738,479.0598 c -26.22378,-26.22377 -69.32911,-26.55157 -95.88068,-0.4917 -26.71547,26.05988 -27.04327,69.16521 -0.8195,96.04458 l 138.98601,139.96941 c 12.7841,12.78409 29.99345,19.99562 48.18619,19.99562 18.02885,0 35.0743,-7.04764 47.85839,-19.83173 L 784.80415,384.32641 c 26.22377,-26.22377 26.55157,-69.32911 0.49169,-95.88068 z"
     id="path1"
     style="fill:#f9f9f9;stroke-width:1.63899" />
</svg>
