<?xml version="1.0" encoding="UTF-8" standalone="no"?>
<svg
   version="1.1"
   x="0px"
   y="0px"
   viewBox="0 0 95 95"
   xml:space="preserve"
   id="svg4"
   sodipodi:docname="noun-x-1890844.svg"
   width="95"
   height="95"
   inkscape:version="1.4.2 (f4327f4, 2025-05-13)"
   xmlns:inkscape="http://www.inkscape.org/namespaces/inkscape"
   xmlns:sodipodi="http://sodipodi.sourceforge.net/DTD/sodipodi-0.dtd"
   xmlns="http://www.w3.org/2000/svg"
   xmlns:svg="http://www.w3.org/2000/svg"
   xmlns:i="http://ns.adobe.com/AdobeIllustrator/10.0/"><defs
     id="defs4" /><sodipodi:namedview
     id="namedview4"
     pagecolor="#ffffff"
     bordercolor="#000000"
     borderopacity="0.25"
     inkscape:showpageshadow="2"
     inkscape:pageopacity="0.0"
     inkscape:pagecheckerboard="0"
     inkscape:deskcolor="#d1d1d1"
     inkscape:zoom="6.84"
     inkscape:cx="47.44152"
     inkscape:cy="33.845029"
     inkscape:window-width="2560"
     inkscape:window-height="1057"
     inkscape:window-x="1912"
     inkscape:window-y="-8"
     inkscape:window-maximized="1"
     inkscape:current-layer="svg4" /><switch
     id="switch3"
     transform="translate(-2.5,-2.5)"><foreignObject
       requiredExtensions="http://ns.adobe.com/AdobeIllustrator/10.0/"
       x="0"
       y="0"
       width="1"
       height="1" /><g
       i:extraneous="self"
       id="g3"><g
         id="g2"><path
           d="M 50,2.5 C 23.8,2.5 2.5,23.8 2.5,50 2.5,76.2 23.8,97.5 50,97.5 76.2,97.5 97.5,76.2 97.5,50 97.5,23.8 76.2,2.5 50,2.5 Z m 0,89.7 C 26.7,92.2 7.8,73.3 7.8,50 7.8,26.7 26.7,7.8 50,7.8 73.3,7.8 92.2,26.7 92.2,50 92.2,73.3 73.3,92.2 50,92.2 Z"
           id="path2"
           style="fill:#ffffff" /></g></g></switch><path
     style="fill:#ff0000"
     id="path4"
     sodipodi:type="arc"
     sodipodi:cx="47.5"
     sodipodi:cy="47.5"
     sodipodi:rx="45.97953"
     sodipodi:ry="45.97953"
     sodipodi:start="1.6287184"
     sodipodi:end="1.6280593"
     sodipodi:open="true"
     sodipodi:arc-type="arc"
     d="M 44.838259,93.402422 A 45.97953,45.97953 0 0 1 1.59714,44.845823 45.97953,45.97953 0 0 1 50.146614,1.5967033 45.97953,45.97953 0 0 1 93.403732,50.13905 45.97953,45.97953 0 0 1 44.868514,93.404166" /><path
     d="m 70.5,29.5 c -1,-1 -2.7,-1 -3.8,0 L 50,46.2 33.3,29.5 c -1,-1 -2.7,-1 -3.8,0 -1,1 -1,2.7 0,3.8 L 46.2,50 29.5,66.7 c -1,1 -1,2.7 0,3.8 0.5,0.5 1.2,0.8 1.9,0.8 0.7,0 1.4,-0.3 1.9,-0.8 L 50,53.8 66.7,70.5 c 0.5,0.5 1.2,0.8 1.9,0.8 0.7,0 1.4,-0.3 1.9,-0.8 1,-1 1,-2.7 0,-3.8 L 53.8,50 70.5,33.3 c 1,-1 1,-2.7 0,-3.8 z"
     id="path1"
     transform="translate(-2.5,-2.5)"
     style="fill:#ffffff" /></svg>
