<?xml version="1.0" encoding="UTF-8" standalone="no"?>
<!-- Uploaded to: SVG Repo, www.svgrepo.com, Generator: SVG Repo Mixer Tools -->

<svg
   width="800px"
   height="800px"
   viewBox="0 0 24 24"
   fill="none"
   version="1.1"
   id="svg1"
   sodipodi:docname="cube-alt-2-svgrepo-com.svg"
   xml:space="preserve"
   inkscape:version="1.4.2 (f4327f4, 2025-05-13)"
   xmlns:inkscape="http://www.inkscape.org/namespaces/inkscape"
   xmlns:sodipodi="http://sodipodi.sourceforge.net/DTD/sodipodi-0.dtd"
   xmlns="http://www.w3.org/2000/svg"
   xmlns:svg="http://www.w3.org/2000/svg"><defs
     id="defs1" /><sodipodi:namedview
     id="namedview1"
     pagecolor="#ffffff"
     bordercolor="#000000"
     borderopacity="0.25"
     inkscape:showpageshadow="2"
     inkscape:pageopacity="0.0"
     inkscape:pagecheckerboard="0"
     inkscape:deskcolor="#d1d1d1"
     inkscape:zoom="0.75572037"
     inkscape:cx="318.90102"
     inkscape:cy="404.25005"
     inkscape:window-width="2498"
     inkscape:window-height="1057"
     inkscape:window-x="1912"
     inkscape:window-y="-8"
     inkscape:window-maximized="1"
     inkscape:current-layer="svg1" /><circle
     style="fill:#0c7874;fill-opacity:1;stroke:#f9f9f9;stroke-width:0.03"
     id="path2"
     cx="12"
     cy="12"
     r="12.087805" /><path
     d="M 3.9999997,7.4631377 11.6078,3.1837577 c 0.1431,-0.08048 0.2146,-0.12071 0.2904,-0.13648 0.0672,-0.01395 0.1364,-0.01395 0.2036,0 0.0758,0.01577 0.1473,0.056 0.2904,0.13648 L 20,7.4631377 m -16.0000003,0 v 8.5321003 c 0,0.1704 0,0.2555 0.02499,0.3316 0.02212,0.0673 0.05827,0.1291 0.10607,0.1813 0.05404,0.0591 0.12827,0.1009 0.27673,0.1844 L 12,20.963138 M 3.9999997,7.4631377 12,11.463138 m 0,9.5 7.5922,-4.2706 c 0.1485,-0.0835 0.2227,-0.1253 0.2767,-0.1844 0.0478,-0.0522 0.084,-0.114 0.1061,-0.1813 C 20,16.250738 20,16.165638 20,15.995238 V 7.4631377 M 12,20.963138 v -9.5 m 8,-4.0000003 -8,4.0000003"
     stroke="#000000"
     stroke-width="2"
     stroke-linecap="round"
     stroke-linejoin="round"
     id="path1"
     style="fill:#ffffff;stroke:#000000" /></svg>
