<?xml version="1.0" encoding="UTF-8" standalone="no"?>
<!-- Uploaded to: SVG Repo, www.svgrepo.com, Generator: SVG Repo Mixer Tools -->

<svg
   fill="#000000"
   height="1106.965"
   width="1106.965"
   version="1.1"
   id="Capa_1"
   viewBox="0 0 650.34192 650.34192"
   xml:space="preserve"
   sodipodi:docname="cubes-svgrepo-com.svg"
   inkscape:version="1.4.2 (f4327f4, 2025-05-13)"
   xmlns:inkscape="http://www.inkscape.org/namespaces/inkscape"
   xmlns:sodipodi="http://sodipodi.sourceforge.net/DTD/sodipodi-0.dtd"
   xmlns="http://www.w3.org/2000/svg"
   xmlns:svg="http://www.w3.org/2000/svg"><defs
   id="defs7" /><sodipodi:namedview
   id="namedview7"
   pagecolor="#ffffff"
   bordercolor="#000000"
   borderopacity="0.25"
   inkscape:showpageshadow="2"
   inkscape:pageopacity="0.0"
   inkscape:pagecheckerboard="0"
   inkscape:deskcolor="#d1d1d1"
   inkscape:zoom="0.534375"
   inkscape:cx="372.39766"
   inkscape:cy="558.59649"
   inkscape:window-width="2498"
   inkscape:window-height="1057"
   inkscape:window-x="1912"
   inkscape:window-y="-8"
   inkscape:window-maximized="1"
   inkscape:current-layer="Capa_1" />
<circle
   style="fill:#00ffff;stroke:#808080;stroke-width:0.5875"
   id="path8"
   cx="325.17096"
   cy="325.17096"
   r="324.8772" /><g
   id="g7"
   transform="translate(90.170947,90.170072)">
	<path
   d="m 211.683,151.084 c -2.086,-3.58 -6.679,-4.788 -10.256,-2.705 l -51.978,30.281 c -3.579,2.085 -4.79,6.677 -2.705,10.256 1.394,2.392 3.906,3.726 6.487,3.726 1.282,0 2.581,-0.329 3.769,-1.021 l 51.978,-30.281 c 3.579,-2.085 4.79,-6.677 2.705,-10.256 z"
   id="path1" />
	<path
   d="m 261.021,161.34 51.978,30.28 c 1.188,0.691 2.486,1.021 3.769,1.021 2.581,0 5.094,-1.334 6.487,-3.726 2.085,-3.579 0.874,-8.171 -2.705,-10.256 l -51.978,-30.28 c -3.579,-2.084 -8.17,-0.875 -10.256,2.705 -2.085,3.579 -0.874,8.171 2.705,10.256 z"
   id="path2" />
	<path
   d="m 149.551,356.399 51.877,30.223 c 1.188,0.692 2.486,1.021 3.769,1.021 2.581,0 5.094,-1.334 6.487,-3.726 2.085,-3.579 0.874,-8.171 -2.705,-10.256 l -51.877,-30.223 c -3.579,-2.088 -8.17,-0.874 -10.256,2.705 -2.085,3.58 -0.874,8.171 2.705,10.256 z"
   id="path3" />
	<path
   d="m 465.642,267.424 c -0.006,-0.597 -0.084,-1.196 -0.235,-1.787 -0.019,-0.072 -0.04,-0.142 -0.061,-0.213 -0.063,-0.218 -0.137,-0.434 -0.221,-0.649 -0.029,-0.076 -0.057,-0.151 -0.089,-0.226 -0.102,-0.238 -0.217,-0.472 -0.346,-0.703 -0.018,-0.032 -0.032,-0.067 -0.051,-0.099 -0.16,-0.277 -0.323,-0.515 -0.494,-0.745 -0.04,-0.054 -0.084,-0.104 -0.126,-0.156 -0.148,-0.187 -0.303,-0.366 -0.466,-0.536 -0.053,-0.055 -0.106,-0.109 -0.161,-0.163 -0.185,-0.181 -0.376,-0.352 -0.577,-0.511 -0.034,-0.027 -0.065,-0.056 -0.099,-0.082 -0.243,-0.186 -0.495,-0.356 -0.756,-0.51 -0.039,-0.026 -107.888,-62.857 -107.888,-62.857 V 72.5 c 0,-0.026 -0.005,-0.05 -0.005,-0.076 -0.006,-0.597 -0.084,-1.196 -0.235,-1.787 -0.019,-0.072 -0.04,-0.142 -0.061,-0.213 -0.063,-0.218 -0.137,-0.434 -0.221,-0.649 -0.029,-0.076 -0.057,-0.151 -0.089,-0.226 -0.102,-0.238 -0.217,-0.472 -0.346,-0.703 -0.018,-0.032 -0.032,-0.067 -0.051,-0.099 -0.16,-0.278 -0.323,-0.516 -0.495,-0.746 -0.039,-0.052 -0.082,-0.101 -0.122,-0.152 -0.15,-0.19 -0.307,-0.371 -0.471,-0.542 -0.051,-0.053 -0.102,-0.105 -0.155,-0.156 -0.188,-0.185 -0.384,-0.36 -0.589,-0.522 -0.029,-0.023 -0.056,-0.049 -0.086,-0.071 -0.245,-0.189 -0.5,-0.36 -0.764,-0.516 C 350.349,66.02 238.775,1.02 238.775,1.02 c -2.334,-1.359 -5.217,-1.359 -7.551,0 l -111.573,65 c -0.297,0.178 -0.554,0.351 -0.801,0.54 -0.027,0.021 -0.052,0.044 -0.079,0.066 -0.207,0.164 -0.405,0.34 -0.595,0.527 -0.052,0.051 -0.102,0.102 -0.153,0.155 -0.165,0.172 -0.322,0.354 -0.472,0.544 -0.04,0.051 -0.083,0.099 -0.122,0.151 -0.172,0.23 -0.335,0.468 -0.483,0.722 -0.031,0.056 -0.045,0.09 -0.063,0.123 -0.129,0.231 -0.244,0.465 -0.346,0.703 -0.032,0.074 -0.06,0.15 -0.089,0.226 -0.084,0.214 -0.158,0.43 -0.221,0.649 -0.021,0.071 -0.042,0.141 -0.06,0.213 -0.152,0.591 -0.23,1.19 -0.235,1.787 0,0.025 -0.005,0.05 -0.005,0.076 V 198.191 L 8.078,261.02 c -0.3,0.18 -0.553,0.35 -0.796,0.537 -0.033,0.026 -0.064,0.054 -0.097,0.08 -0.201,0.16 -0.393,0.331 -0.578,0.512 -0.054,0.053 -0.108,0.107 -0.16,0.162 -0.163,0.17 -0.318,0.349 -0.466,0.536 -0.042,0.053 -0.086,0.103 -0.126,0.157 -0.171,0.229 -0.334,0.467 -0.482,0.72 -0.031,0.056 -0.045,0.09 -0.063,0.123 -0.129,0.231 -0.244,0.465 -0.346,0.703 -0.032,0.074 -0.06,0.15 -0.089,0.226 -0.084,0.214 -0.158,0.43 -0.221,0.649 -0.021,0.071 -0.042,0.141 -0.06,0.213 -0.152,0.591 -0.23,1.19 -0.235,1.787 0,0.025 -0.005,0.05 -0.005,0.076 v 130 c 0,2.669 1.419,5.137 3.725,6.48 l 111.573,65 c 0.021,0.012 0.044,0.02 0.065,0.032 0.268,0.153 0.545,0.293 0.833,0.413 0.28,0.116 0.562,0.208 0.85,0.289 0.071,0.02 0.143,0.037 0.215,0.055 0.225,0.056 0.454,0.101 0.687,0.136 0.077,0.012 0.152,0.026 0.229,0.035 0.295,0.035 0.593,0.059 0.897,0.059 0.304,0 0.603,-0.023 0.897,-0.059 0.077,-0.009 0.152,-0.023 0.229,-0.035 0.233,-0.035 0.462,-0.08 0.687,-0.136 0.072,-0.018 0.144,-0.035 0.215,-0.055 0.288,-0.081 0.57,-0.173 0.843,-0.286 0.294,-0.122 0.571,-0.262 0.839,-0.416 0.021,-0.012 0.044,-0.02 0.065,-0.032 L 235,406.18 342.798,468.981 c 0.021,0.012 0.044,0.02 0.065,0.032 0.268,0.153 0.544,0.293 0.832,0.413 0.281,0.116 0.562,0.208 0.849,0.289 0.072,0.02 0.144,0.038 0.216,0.056 0.225,0.056 0.453,0.101 0.686,0.136 0.077,0.012 0.153,0.026 0.23,0.035 0.295,0.035 0.593,0.059 0.897,0.059 0.304,0 0.602,-0.023 0.897,-0.059 0.077,-0.009 0.153,-0.023 0.23,-0.035 0.232,-0.035 0.461,-0.08 0.686,-0.136 0.072,-0.018 0.144,-0.035 0.216,-0.056 0.287,-0.081 0.569,-0.173 0.841,-0.286 0.296,-0.123 0.572,-0.263 0.84,-0.416 0.021,-0.012 0.044,-0.02 0.065,-0.032 l 111.573,-65 c 2.306,-1.344 3.725,-3.812 3.725,-6.48 v -130 c 0,-0.027 -0.004,-0.051 -0.004,-0.077 z m -22.395,0.076 -96.674,56.32 -96.674,-56.32 96.674,-56.32 z M 130.927,85.549 227.5,141.81 V 254.45 L 130.927,198.189 Z M 339.073,198.189 242.5,254.451 V 141.811 L 339.073,85.55 Z m -111.573,195 -96.573,56.262 V 336.811 L 227.5,280.55 Z m 15,-112.64 96.573,56.261 V 449.45 L 242.5,393.189 Z M 235,16.18 331.674,72.5 235,128.82 138.326,72.5 Z m -111.573,195 96.674,56.32 -96.674,56.32 L 26.753,267.5 Z M 19.354,280.549 115.927,336.81 V 449.45 L 19.354,393.188 Z m 334.719,168.902 v -112.64 l 96.573,-56.261 v 112.64 z"
   id="path4" />
	<path
   d="m 323.156,346.142 c -2.086,-3.58 -6.678,-4.788 -10.256,-2.705 l -51.877,30.223 c -3.579,2.085 -4.79,6.677 -2.705,10.256 1.394,2.392 3.906,3.726 6.487,3.726 1.282,0 2.581,-0.329 3.769,-1.021 l 51.877,-30.223 c 3.579,-2.085 4.79,-6.677 2.705,-10.256 z"
   id="path5" />
	<path
   d="m 100.109,346.084 c -2.086,-3.58 -6.679,-4.788 -10.256,-2.705 l -51.877,30.223 c -3.579,2.085 -4.79,6.677 -2.705,10.256 1.394,2.392 3.906,3.726 6.487,3.726 1.282,0 2.581,-0.329 3.769,-1.021 L 97.404,356.34 c 3.579,-2.085 4.79,-6.677 2.705,-10.256 z"
   id="path6" />
	<path
   d="m 432.024,373.603 -51.676,-30.105 c -3.579,-2.087 -8.171,-0.875 -10.256,2.705 -2.085,3.579 -0.874,8.171 2.705,10.256 l 51.676,30.105 c 1.188,0.692 2.486,1.021 3.769,1.021 2.581,0 5.094,-1.334 6.487,-3.726 2.085,-3.58 0.875,-8.171 -2.705,-10.256 z"
   id="path7" />
</g>
</svg>
