<?xml version="1.0" encoding="UTF-8" standalone="no"?>
<svg
   version="1.1"
   viewBox="-12.8 -25.6 175.694 175.668"
   x="0px"
   y="0px"
   id="svg2"
   sodipodi:docname="noun-edit-333556.svg"
   inkscape:version="1.4.2 (f4327f4, 2025-05-13)"
   width="175.694"
   height="175.668"
   xmlns:inkscape="http://www.inkscape.org/namespaces/inkscape"
   xmlns:sodipodi="http://sodipodi.sourceforge.net/DTD/sodipodi-0.dtd"
   xmlns="http://www.w3.org/2000/svg"
   xmlns:svg="http://www.w3.org/2000/svg">
  <defs
     id="defs2" />
  <sodipodi:namedview
     id="namedview2"
     pagecolor="#ffffff"
     bordercolor="#000000"
     borderopacity="0.25"
     inkscape:showpageshadow="2"
     inkscape:pageopacity="0.0"
     inkscape:pagecheckerboard="0"
     inkscape:deskcolor="#d1d1d1"
     inkscape:zoom="0.87467634"
     inkscape:cx="-20.579041"
     inkscape:cy="-69.168442"
     inkscape:window-width="2484"
     inkscape:window-height="1057"
     inkscape:window-x="1988"
     inkscape:window-y="-8"
     inkscape:window-maximized="1"
     inkscape:current-layer="svg2" />
  <path
     style="fill:#ff9955"
     d="M 100.19849,-1.443097 141.07075,38.5717 46.75014,134.60723 c 0,0 -41.443898,8.00296 -42.587178,8.00296 -1.14328,0 -8.00296,-12.8619 -5.7164,-14.57682 2.28656,-1.71492 6.57386,-42.58718 6.57386,-42.58718 z"
     id="path2" />
  <path
     style="fill:#ff80b2"
     d="m 101.91341,-4.872937 36.87078,40.586437 19.43576,-18.5783 -6.00222,-19.435757 -20.29322,-14.576821 -12.00444,-5.14476 z"
     id="path3" />
  <path
     style="fill:#ffeeaa"
     d="M 6.094949,91.28421 45.70758,131.70527 -1.382946,140.8 Z"
     id="path4" />
  <path
     d="m 149.453,-12.16 c -4.224,-4.199 -8.832,-7.526 -13.517,-9.831 -4.685,-2.279 -9.446,-3.609 -14.054,-3.609 -2.279,0 -4.531,0.333 -6.656,1.101 -2.125,0.768 -4.147,1.997 -5.811,3.661 L -1.126,89.677 -12.8,150.068 47.591,138.395 158.132,27.854 c 1.664,-1.664 2.893,-3.661 3.661,-5.785 0.768,-2.124 1.101,-4.377 1.101,-6.656 0,-4.608 -1.331,-9.37 -3.609,-14.055 -2.329,-4.685 -5.632,-9.319 -9.831,-13.517 z M 42.574,128.947 14.516,134.374 c 0,-0.205 0.051,-0.384 0.077,-0.589 0.051,-6.144 -4.813,-11.161 -10.855,-11.213 -0.256,0 -0.512,0.051 -0.768,0.077 L 8.371,94.72 99.251,3.84 133.504,38.093 42.573,128.948 Z M 152.141,18.586 c -0.307,0.845 -0.717,1.485 -1.255,2.022 l -10.214,10.215 -34.227,-34.227 10.214,-10.215 c 0.537,-0.538 1.178,-0.947 2.023,-1.255 0.845,-0.308 1.92,-0.486 3.2,-0.486 2.585,0 5.965,0.819 9.549,2.586 3.584,1.741 7.347,4.403 10.778,7.859 3.456,3.456 6.119,7.219 7.859,10.777 1.767,3.584 2.585,6.963 2.56,9.549 0.025,1.254 -0.179,2.329 -0.487,3.174 z"
     fill="#000000"
     id="path1" />
</svg>
