<?xml version="1.0" encoding="UTF-8" standalone="no"?>
<svg
   version="1.1"
   x="0px"
   y="0px"
   viewBox="0 0 103.92691 103.9269"
   id="svg2"
   sodipodi:docname="noun-trash-1523235.svg"
   width="103.92692"
   height="103.9269"
   inkscape:version="1.4.2 (f4327f4, 2025-05-13)"
   xmlns:inkscape="http://www.inkscape.org/namespaces/inkscape"
   xmlns:sodipodi="http://sodipodi.sourceforge.net/DTD/sodipodi-0.dtd"
   xmlns="http://www.w3.org/2000/svg"
   xmlns:svg="http://www.w3.org/2000/svg">
  <defs
     id="defs2" />
  <sodipodi:namedview
     id="namedview2"
     pagecolor="#ffffff"
     bordercolor="#000000"
     borderopacity="0.25"
     inkscape:showpageshadow="2"
     inkscape:pageopacity="0.0"
     inkscape:pagecheckerboard="0"
     inkscape:deskcolor="#d1d1d1"
     inkscape:zoom="6.84"
     inkscape:cx="28.72807"
     inkscape:cy="48.75731"
     inkscape:window-width="2560"
     inkscape:window-height="1057"
     inkscape:window-x="1912"
     inkscape:window-y="-8"
     inkscape:window-maximized="1"
     inkscape:current-layer="svg2" />
  <path
     style="fill:#ffffff;stroke:#808080"
     id="path2"
     sodipodi:type="arc"
     sodipodi:cx="51.963467"
     sodipodi:cy="51.963459"
     sodipodi:rx="51.461987"
     sodipodi:ry="51.461987"
     sodipodi:start="1.6287184"
     sodipodi:end="1.6280593"
     sodipodi:open="true"
     sodipodi:arc-type="arc"
     d="M 48.984348,103.33914 A 51.461987,51.461987 0 0 1 0.58729241,48.992806 51.461987,51.461987 0 0 1 54.925654,0.58679598 51.461987,51.461987 0 0 1 103.34062,54.917181 51.461987,51.461987 0 0 1 49.018211,103.3411" />
  <g
     transform="translate(1.9634673,-950.39872)"
     id="g1"
     style="fill:#666666">
    <path
       style="color:#000000;fill:#666666;enable-background:accumulate"
       d="m 50.093748,964.36216 c -3.48575,0 -5.90372,1.2963 -7.6875,2.6562 -1.78378,1.3599 -3.0299,2.6528 -5.15625,3.5 a 2.0001999,2.0001999 0 0 0 -1.3125,1.8438 h -18.9375 v 4 h 66.000004 v -4 H 64.062498 a 2.0001999,2.0001999 0 0 0 -1.3125,-1.8438 c -2.14095,-0.8508 -3.45228,-2.1518 -5.21875,-3.5 -1.76647,-1.3482 -4.11544,-2.6562 -7.4375,-2.6562 z m 0,4 c 2.38807,0 3.49086,0.6919 5,1.8437 0.79956,0.6102 1.67157,1.3936 2.75,2.1563 h -15.75 c 1.07797,-0.7711 1.95015,-1.5465 2.75,-2.1563 1.49532,-1.14 2.63902,-1.8437 5.25,-1.8437 z m -27.09375,10 v 53.03124 c 0,5.9829 2.98459,8.9688 9.03125,8.9688 h 36 c 5.95926,0 8.96875,-2.9859 8.96875,-8.9688 v -53.03124 z m 11,13 h 4 v 36.00004 h -4 z m 14,0 h 4 v 36.00004 h -4 z m 14,0 h 4 v 36.00004 h -4 z"
       fill="#000000"
       stroke="none"
       marker="none"
       visibility="visible"
       display="inline"
       overflow="visible"
       id="path1" />
  </g>
</svg>
