<?xml version="1.0" encoding="UTF-8" standalone="no"?>
<svg
   version="1.1"
   viewBox="-5 -10 85.023491 91.663681"
   id="svg2"
   sodipodi:docname="noun-captain-8115950.svg"
   width="85.023491"
   height="91.663681"
   inkscape:version="1.4.2 (f4327f4, 2025-05-13)"
   xmlns:inkscape="http://www.inkscape.org/namespaces/inkscape"
   xmlns:sodipodi="http://sodipodi.sourceforge.net/DTD/sodipodi-0.dtd"
   xmlns="http://www.w3.org/2000/svg"
   xmlns:svg="http://www.w3.org/2000/svg">
  <defs
     id="defs2" />
  <sodipodi:namedview
     id="namedview2"
     pagecolor="#ffffff"
     bordercolor="#000000"
     borderopacity="0.25"
     inkscape:showpageshadow="2"
     inkscape:pageopacity="0.0"
     inkscape:pagecheckerboard="0"
     inkscape:deskcolor="#d1d1d1"
     inkscape:zoom="4.4783429"
     inkscape:cx="21.548149"
     inkscape:cy="43.65454"
     inkscape:window-width="2498"
     inkscape:window-height="1057"
     inkscape:window-x="1974"
     inkscape:window-y="-8"
     inkscape:window-maximized="1"
     inkscape:current-layer="svg2" />
  <path
     style="fill:#d38d5f;stroke:none"
     d="m 15.195691,17.515983 45,0.315789 -2.368422,8.526316 -10.263157,9.631579 -17.842106,2.052631 -12.789473,-10.736842 z"
     id="path2" />
  <path
     style="fill:#d38d5f;stroke:none"
     d="m 28.143059,48.423877 5.131579,10.223685 4.460526,2.052631 10.223684,-11.25 z"
     id="path3" />
  <path
     style="fill:#0055d4;stroke:none"
     d="M 25.496129,50.301281 9.9769958,57.558429 -1.4111452,73.189211 -1.6344422,77.878442 74.0632,79.776472 77.301005,74.305695 64.908028,57.111836 48.272411,49.63139 38.447348,60.237992 Z"
     id="path4" />
  <path
     style="fill:#0055d4;stroke:none"
     d="M 9.8653478,15.913562 61.781872,16.360155 65.46627,10.889382 66.806052,-3.1783212 64.573083,-8.0908532 26.724262,-7.1976652 8.3022688,11.335976 Z"
     id="path5" />
  <path
     style="fill:#ffcc00;stroke:none"
     id="path6"
     sodipodi:type="arc"
     sodipodi:cx="52.626698"
     sodipodi:cy="69.44899"
     sodipodi:rx="4.8008828"
     sodipodi:ry="3.5169258"
     sodipodi:start="1.6287184"
     sodipodi:end="1.6280593"
     sodipodi:open="true"
     sodipodi:arc-type="arc"
     d="m 52.348776,72.960018 a 4.8008828,3.5169258 0 0 1 -4.514956,-3.714043 4.8008828,3.5169258 0 0 1 5.06922,-3.30808 4.8008828,3.5169258 0 0 1 4.516626,3.712953 4.8008828,3.5169258 0 0 1 -5.067731,3.309303" />
  <path
     style="fill:#ffcc00;stroke:none"
     id="path7"
     sodipodi:type="arc"
     sodipodi:cx="52.626698"
     sodipodi:cy="4.8603668"
     sodipodi:rx="2.9028594"
     sodipodi:ry="3.6843984"
     sodipodi:start="1.6287184"
     sodipodi:end="1.6280593"
     sodipodi:open="true"
     sodipodi:arc-type="arc"
     d="m 52.458652,8.5385864 a 2.9028594,3.6843984 0 0 1 -2.729973,-3.8909022 2.9028594,3.6843984 0 0 1 3.065109,-3.4656071 2.9028594,3.6843984 0 0 1 2.730984,3.8897601 2.9028594,3.6843984 0 0 1 -3.06421,3.466889" />
  <path
     d="m 12.59748,19.167772 h -0.08594 c -2.5312002,-0.0039 -4.8164002,-1.5352 -5.7773002,-3.8711 -0.95312,-2.3164 -0.43359,-4.9688 1.3125,-6.7539002 5.4883002,-6.4844 10.6760002,-13.629 18.8630002,-16.359 5.5117,-1.8359 20.602,-2.1523 35.555,-2.1836 h 0.01172 c 2.1055,-0.015625 4.0742,1.0352 5.2383,2.7891 1.1641,1.75 1.3711,3.9688 0.55078,5.8984 -1.7344,4.1953 -2.082,9 -1.6328,13.5550002 0.21484,1.7461 -0.32812,3.5039 -1.4922,4.8242 -0.73047,0.83203 -1.6602,1.4414 -2.6914,1.7852 -0.90625,12.848 -11.688,21.148 -24.938,21.148 -13.145,0 -23.855,-8.1641 -24.914,-20.832 z m 47.906,-4.168 c 0.57812,0 1.125,-0.25 1.5078,-0.68359 0.37891,-0.43359 0.55859,-1.0117 0.48047,-1.582 0,-0.01953 -0.0039,-0.04297 -0.0039,-0.0625 -0.51953,-5.2344002 -0.07031,-10.7580002 1.9258,-15.5820002 0.0039,-0.0078 0.0078,-0.01562 0.01172,-0.02344 0.27734,-0.64453 0.21094,-1.3867 -0.17969,-1.9727 -0.38672,-0.58203 -1.0469,-0.93359 -1.7461,-0.92969 h -0.01563 c -14.402,0.035157 -28.949,0.20312 -34.258,1.9727 -7.4805,2.4961 -12.039,9.2461 -17.059,15.1680002 -0.03906,0.04687 -0.08203,0.08984 -0.125,0.13281 -0.59766,0.59375 -0.78125,1.4922 -0.45703,2.2695 0.32031,0.78125 1.082,1.293 1.9258,1.293 h 47.918 0.07422 z m -43.719,4.168 c 1.0664,10.238 9.9922,16.664 20.727,16.664 10.7348,0 19.66,-6.4258 20.727,-16.664 z m 29.914,-12.5080002 h -6.6289 c -1.1523,0 -2.082,-0.93359 -2.082,-2.082 0,-1.1484 0.92969,-2.0859 2.082,-2.0859 h 6.5938 c 0.84766,-2.42969996 3.1719,-4.1797 5.9062,-4.1797 3.4531,0 6.25,2.793 6.25,6.2188 0,3.4258 -2.7969,6.2148002 -6.25,6.2148002 -2.6992,0 -4.9961,-1.7031002 -5.8711,-4.0859002 z m 3.7891,-2.082 c 0.02344,1.1133 0.95313,2.0039 2.082,2.0039 1.1445,0 2.082,-0.91406 2.082,-2.0508 0,-1.13674 -0.9375,-2.0508 -2.082,-2.0508 -1.1445,0 -2.082,0.91406 -2.082,2.0508 z m -21.527,-2.918 c 0.46094,-1.05469996 1.6875,-1.53519996 2.7422,-1.07419996 1.0547,0.46093996 1.5352,1.68749996 1.0742,2.74219996 -1.9297,4.4141 -6.3359,7.5000002 -11.457,7.5000002 -1.1484,0 -2.082,-0.9335902 -2.082,-2.0859002 0,-1.1484 0.93359,-2.082 2.082,-2.082 3.4141,0 6.3516,-2.0586 7.6406,-5 z m 8.5703,80.0000002 c -14.246,0.0039 -28.4880002,0.0039 -36.2770002,0.0039 -2.13669997,0 -4.125,-1.0859 -5.2734,-2.8867 -1.1484,-1.8008 -1.2969,-4.0586 -0.39844,-5.9961 0.00391,-0.0078 0.00391,-0.01172 0.011719,-0.01953 7.4648,-15.66 23.4450002,-26.512 41.9380002,-26.512 18.492,0 34.469,10.852 41.906,26.531 0.0039,0.0078 0.0039,0.01172 0.0078,0.01563 0.89453,1.9258 0.74219,4.1719 -0.39844,5.9609 -1.1406,1.7891 -3.1172,2.8711 -5.2344,2.8711 -7.793,0.01953 -22.035,0.02734 -36.281,0.03125 z m 2.082,-4.168 c 13.531,-0.0039 26.781,-0.01172 34.191,-0.02734 h 0.0039 c 0.69922,0 1.3477,-0.35547 1.7266,-0.94922 0.375,-0.58594 0.42578,-1.3242 0.13281,-1.9609 -5.1719,-10.898 -14.879,-19.234 -26.68,-22.562 l -6.6523,8.2656 c -0.72266,0.89453 -1.668,1.5625 -2.7227,1.9492 z m 4.8398,-26.512 c -2.2539,-0.37109 -4.5664,-0.56641 -6.9219,-0.56641 -2.457,0 -4.8633,0.21094 -7.2031,0.61328 l 5.5391,6.6445 c 0.40234,0.47656 0.99219,0.75391 1.6172,0.74609 h 0.04687 c 0.60547,-0.01563 1.1758,-0.30078 1.5586,-0.77734 z m -18.676,1.0977 c -11.668,3.3828 -21.2660002,11.668 -26.42600017,22.477 -0.28906,0.64062 -0.23828,1.3867 0.14453,1.9805 0.38281,0.60156 1.043,0.96484 1.75779997,0.96094 H 35.44401 v -15.246 c -1.0703,-0.36719 -2.0352,-1.0234 -2.7773,-1.9102 z m 24.254,8.7539 h -2.0859 c -1.1484,0 -2.082,-0.93359 -2.082,-2.082 0,-1.1523 0.93359,-2.082 2.082,-2.082 h 8.3359 c 1.1484,0 2.082,0.92969 2.082,2.082 0,1.1484 -0.93359,2.082 -2.082,2.082 h -2.0859 v 2.4375 c 2.4297,0.85938 4.168,3.1758 4.168,5.8945 0,3.4492 -2.8008,6.25 -6.25,6.25 -3.4492,0 -6.25,-2.8008 -6.25,-6.25 0,-2.7188 1.7422,-5.0352 4.168,-5.8945 z m 2.082,6.25 c -1.1484,0 -2.082,0.93359 -2.082,2.082 0,1.1523 0.93359,2.0859 2.082,2.0859 1.1484,0 2.082,-0.93359 2.082,-2.0859 0,-1.1484 -0.93359,-2.082 -2.082,-2.082 z m -35.418,2.082 c -1.1484,0 -2.082,-0.93359 -2.082,-2.082 0,-1.14841 0.93359,-2.0859 2.082,-2.0859 h 12.5 c 1.1523,0 2.082,0.9375 2.082,2.0859 0,1.1484 -0.92969,2.082 -2.082,2.082 z m 2.082,6.25 c -1.1484,0 -2.082,-0.92969 -2.082,-2.082 0,-1.1484 0.93359,-2.082 2.082,-2.082 h 8.3359 c 1.1523,0 2.082,0.93359 2.082,2.082 0,1.1523 -0.92969,2.082 -2.082,2.082 z"
     fill-rule="evenodd"
     id="path1" />
</svg>
