<?xml version="1.0" encoding="UTF-8" standalone="no"?>
<svg
   viewBox="0 0 27.999973 28.999968"
   fill="none"
   x="0px"
   y="0px"
   version="1.1"
   id="svg2"
   sodipodi:docname="noun-filter.svg"
   width="27.999973"
   height="28.999968"
   inkscape:version="1.4.2 (f4327f4, 2025-05-13)"
   xmlns:inkscape="http://www.inkscape.org/namespaces/inkscape"
   xmlns:sodipodi="http://sodipodi.sourceforge.net/DTD/sodipodi-0.dtd"
   xmlns="http://www.w3.org/2000/svg"
   xmlns:svg="http://www.w3.org/2000/svg">
  <defs
     id="defs2" />
  <sodipodi:namedview
     id="namedview2"
     pagecolor="#ffffff"
     bordercolor="#000000"
     borderopacity="0.25"
     inkscape:showpageshadow="2"
     inkscape:pageopacity="0.0"
     inkscape:pagecheckerboard="0"
     inkscape:deskcolor="#d1d1d1"
     inkscape:zoom="7.5572037"
     inkscape:cx="10.652088"
     inkscape:cy="-7.8732825"
     inkscape:window-width="2484"
     inkscape:window-height="1057"
     inkscape:window-x="1988"
     inkscape:window-y="-8"
     inkscape:window-maximized="1"
     inkscape:current-layer="svg2" />
  <path
     style="fill:#666666"
     d="M 20.970759,0.9005848 1.6959055,1.4152047 9.5555551,15.02924 l 0.7953209,8 4.444445,3.415204 0.187134,-12.350877 z"
     id="path3" />
  <path
     style="fill:#cccccc"
     d="M 20.59649,1.1345029 14.233917,13.953216 14.421052,25.134503 18.257309,27.660819 18.91228,15.02924 26.725145,1.3684211 Z"
     id="path2" />
  <path
     fill-rule="evenodd"
     clip-rule="evenodd"
     d="m 0.99999911,0 c -0.36581,0 -0.70242,0.19974 -0.87771,0.52081 -0.17529,0.32108 -0.16128,0.71224 0.03653,1.01995 L 8.9999991,15.2937 V 23 c 0,0.3544 0.1875,0.6823 0.493,0.8619 l 8.4999999,5 c 0.3092,0.1819 0.6921,0.1842 1.0035,0.0061 0.3114,-0.178 0.5035,-0.5093 0.5035,-0.868 V 15.2798 l 8.3548,-13.76082 c 0.1874,-0.30876 0.1938,-0.69461 0.0167,-1.0094 C 27.694299,0.19479 27.361199,0 26.999999,0 Z M 10.841199,14.4592 2.8316691,2 H 25.222999 l -7.5778,12.481 c -0.095,0.1565 -0.1452,0.336 -0.1452,0.519 v 11.2516 l -6.5,-3.8235 V 15 c 0,-0.1918 -0.0551,-0.3795 -0.1588,-0.5408 z"
     fill="#000000"
     id="path1" />
</svg>
