<?xml version="1.0" encoding="UTF-8" standalone="no"?>
<svg
   viewBox="0 0 473.22198 473.22198"
   version="1.1"
   xml:space="preserve"
   x="0px"
   y="0px"
   fill-rule="evenodd"
   clip-rule="evenodd"
   stroke-linejoin="round"
   stroke-miterlimit="1.41421"
   id="svg2"
   sodipodi:docname="noun-circle-arrow-803872.svg"
   inkscape:version="1.4.2 (f4327f4, 2025-05-13)"
   width="473.22198"
   height="473.22198"
   xmlns:inkscape="http://www.inkscape.org/namespaces/inkscape"
   xmlns:sodipodi="http://sodipodi.sourceforge.net/DTD/sodipodi-0.dtd"
   xmlns="http://www.w3.org/2000/svg"
   xmlns:svg="http://www.w3.org/2000/svg"><defs
     id="defs2" /><sodipodi:namedview
     id="namedview2"
     pagecolor="#ffffff"
     bordercolor="#000000"
     borderopacity="0.25"
     inkscape:showpageshadow="2"
     inkscape:pageopacity="0.0"
     inkscape:pagecheckerboard="0"
     inkscape:deskcolor="#d1d1d1"
     inkscape:zoom="1.2302158"
     inkscape:cx="98.356727"
     inkscape:cy="276.78071"
     inkscape:window-width="2498"
     inkscape:window-height="1057"
     inkscape:window-x="1912"
     inkscape:window-y="-8"
     inkscape:window-maximized="1"
     inkscape:current-layer="svg2" /><circle
     style="fill:#008000;stroke:#808080"
     id="path2"
     cx="236.61099"
     cy="237.71028"
     r="234.5117" /><g
     id="g1"
     transform="rotate(180,257.1945,257.1945)"
     style="fill:#ffffff;stroke:#ffffff"><path
       d="m 41.667,277.778 c 0,130.191 105.919,236.111 236.111,236.111 130.191,0 236.111,-105.92 236.111,-236.111 0,-130.192 -105.92,-236.111 -236.111,-236.111 -130.192,0 -236.111,105.919 -236.111,236.111 z m 441.646,0 c 0,113.334 -92.206,205.535 -205.535,205.535 -113.329,0 -205.536,-92.201 -205.536,-205.535 0,-113.334 92.207,-205.536 205.536,-205.536 113.329,0 205.535,92.202 205.535,205.536 z M 248.446,163.121 v 155.162 c 0,0 -37.618,-37.613 -60.907,-60.912 -9.952,-9.947 -26.086,-9.947 -36.039,0 -1.64,1.641 -3.297,3.302 -4.938,4.943 -9.952,9.947 -9.952,26.081 0,36.034 30.49,30.494 91.009,91.008 112.112,112.106 4.774,4.78 11.257,7.465 18.014,7.465 h 2.181 c 6.752,0 13.234,-2.685 18.014,-7.465 21.097,-21.098 81.617,-81.612 112.106,-112.106 9.952,-9.953 9.952,-26.087 0,-36.034 -1.636,-1.641 -3.302,-3.302 -4.938,-4.943 -9.952,-9.947 -26.081,-9.947 -36.033,0 -23.294,23.299 -60.912,60.912 -60.912,60.912 V 163.121 c 0,-14.075 -11.41,-25.48 -25.48,-25.48 h -7.7 c -14.075,0 -25.48,11.405 -25.48,25.48 z"
       fill="#030405"
       id="path1"
       style="fill:#ffffff;stroke:#ffffff" /></g></svg>
