<?xml version="1.0" encoding="UTF-8" standalone="no"?>
<svg
   version="1.1"
   x="0px"
   y="0px"
   viewBox="0 0 120 120"
   xml:space="preserve"
   id="svg3"
   sodipodi:docname="noun-mad-face.svg"
   width="120"
   height="120"
   inkscape:version="1.4.3 (0d15f75042, 2025-12-25)"
   xmlns:inkscape="http://www.inkscape.org/namespaces/inkscape"
   xmlns:sodipodi="http://sodipodi.sourceforge.net/DTD/sodipodi-0.dtd"
   xmlns="http://www.w3.org/2000/svg"
   xmlns:svg="http://www.w3.org/2000/svg"><defs
     id="defs3" /><sodipodi:namedview
     id="namedview3"
     pagecolor="#ffffff"
     bordercolor="#000000"
     borderopacity="0.25"
     inkscape:showpageshadow="2"
     inkscape:pageopacity="0.0"
     inkscape:pagecheckerboard="0"
     inkscape:deskcolor="#d1d1d1"
     showgrid="false"
     inkscape:zoom="3.524"
     inkscape:cx="50.227015"
     inkscape:cy="116.77072"
     inkscape:window-width="1607"
     inkscape:window-height="1131"
     inkscape:window-x="20"
     inkscape:window-y="20"
     inkscape:window-maximized="0"
     inkscape:current-layer="svg3" /><circle
     style="fill:#cc0000"
     id="path3"
     cx="60"
     cy="60"
     r="60" /><circle
     style="fill:#ef2929"
     id="path4"
     cx="60"
     cy="60"
     r="44.551647" /><g
     id="g1"
     transform="translate(10,10)"
     style="fill:#204a87"><g
       id="g3"
       style="fill:#204a87"><path
         d="M 50,2.5 C 23.80978,2.5 2.5,23.80837 2.5,50 c 0,8.57592 2.31371,16.98176 6.68812,24.30945 1.62494,2.72698 5.16158,3.62098 7.89418,1.99182 2.72979,-1.63056 3.62098,-5.16579 1.99041,-7.89558 C 15.76379,62.86318 14.01515,56.49836 14.01515,50 14.01515,30.15773 30.15773,14.01515 50,14.01515 c 19.84227,0 35.98485,16.14258 35.98485,35.98485 0,19.84227 -16.14258,35.98485 -35.98485,35.98485 -4.51497,0 -8.92031,-0.82652 -13.0923,-2.45428 -2.97156,-1.16811 -6.30297,0.31065 -7.45842,3.26815 -1.15545,2.96172 0.30924,6.30157 3.26956,7.45702 C 38.23183,96.40921 44.04563,97.5 50,97.5 76.19022,97.5 97.5,76.19163 97.5,50 97.5,23.80837 76.19022,2.5 50,2.5 Z m 33.8848,22.78291 c -0.26427,0.20663 -0.57632,0.30643 -0.88837,0.30643 -0.42732,0 -0.84902,-0.18976 -1.13297,-0.55102 -2.89565,-3.69547 -6.40137,-6.84274 -10.41874,-9.35465 -0.67471,-0.42029 -0.87994,-1.30867 -0.45824,-1.98338 0.4217,-0.67472 1.3157,-0.87713 1.98198,-0.45684 4.30413,2.68902 8.06004,6.05979 11.16093,10.01812 0.48916,0.62692 0.37952,1.53076 -0.24459,2.02134 z M 50,93.34206 c -5.07161,0 -10.04202,-0.8687 -14.77347,-2.5836 -0.745,-0.27129 -1.13296,-1.09641 -0.86026,-1.84422 0.26989,-0.7464 1.09641,-1.12593 1.84422,-0.86308 4.41377,1.60105 9.05244,2.41211 13.78951,2.41211 22.31342,0 40.46609,-18.15126 40.46609,-40.46327 0,-6.20879 -1.37193,-12.16878 -4.0736,-17.71129 -0.3486,-0.71408 -0.05341,-1.57574 0.66348,-1.92435 0.70283,-0.3486 1.57153,-0.05482 1.92294,0.66207 2.89846,5.94031 4.36596,12.3234 4.36596,18.97357 0,23.899 -19.44306,43.34206 -43.34487,43.34206 z"
         id="path1-3"
         style="fill:#204a87" /><path
         d="m 71.71461,35.32493 -13.65738,7.88574 2.87879,4.98727 3.10194,-1.79116 c 0.31628,1.62441 1.67994,2.8751 3.39713,2.8751 1.94894,0 3.52908,-1.58014 3.52908,-3.52908 0,-1.06232 -0.49303,-1.98462 -1.23576,-2.63157 l 4.86498,-2.80903 z"
         id="path2"
         style="fill:#204a87" /><path
         d="m 29.03848,45.7528 c 0,1.94894 1.57996,3.52908 3.52908,3.52908 1.71719,0 3.08085,-1.25051 3.39713,-2.8751 l 3.10211,1.79116 2.87879,-4.98727 -13.65739,-7.88574 -2.87879,4.98727 4.86481,2.80886 c -0.74271,0.64695 -1.23574,1.56942 -1.23574,2.63174 z"
         id="path3-6"
         style="fill:#204a87" /><rect
         x="33.837742"
         y="61.79628"
         width="33.598042"
         height="5.7575798"
         id="rect3"
         style="fill:#204a87" /></g></g></svg>
