<?xml version="1.0" encoding="UTF-8" standalone="no"?>
<svg
   viewBox="0 0 28.274853 28.274853"
   x="0px"
   y="0px"
   version="1.1"
   id="svg3"
   sodipodi:docname="noun-upload-2450840.svg"
   inkscape:version="1.4.2 (f4327f4, 2025-05-13)"
   width="28.274853"
   height="28.274853"
   xmlns:inkscape="http://www.inkscape.org/namespaces/inkscape"
   xmlns:sodipodi="http://sodipodi.sourceforge.net/DTD/sodipodi-0.dtd"
   xmlns="http://www.w3.org/2000/svg"
   xmlns:svg="http://www.w3.org/2000/svg"
   xmlns:rdf="http://www.w3.org/1999/02/22-rdf-syntax-ns#"
   xmlns:cc="http://creativecommons.org/ns#"
   xmlns:dc="http://purl.org/dc/elements/1.1/">
  <defs
     id="defs3" />
  <sodipodi:namedview
     id="namedview3"
     pagecolor="#ffffff"
     bordercolor="#000000"
     borderopacity="0.25"
     inkscape:showpageshadow="2"
     inkscape:pageopacity="0.0"
     inkscape:pagecheckerboard="0"
     inkscape:deskcolor="#d1d1d1"
     inkscape:zoom="21.375"
     inkscape:cx="14.128655"
     inkscape:cy="14.105263"
     inkscape:window-width="2498"
     inkscape:window-height="1057"
     inkscape:window-x="1912"
     inkscape:window-y="-8"
     inkscape:window-maximized="1"
     inkscape:current-layer="svg3" />
  <title
     id="title1">upload</title>
  <circle
     style="fill:#0044aa;stroke:#ffffff;stroke-width:0.825226"
     id="path3"
     cx="14.137426"
     cy="14.137426"
     r="13.724813" />
  <g
     id="g2"
     style="fill:#ffffff;stroke:none"
     transform="translate(-1.8625735,-1.8625735)">
    <path
       d="M 22,25 H 10 a 1,1 0 0 0 0,2 h 12 a 1,1 0 0 0 0,-2 z"
       id="path1"
       style="fill:#ffffff;stroke:none" />
    <path
       d="m 11,12.26 a 1,1 0 0 0 0.73,-0.31 L 15,8.5 V 23 a 1,1 0 0 0 2,0 V 8.5 l 3.27,3.5 a 1.0044899,1.0044899 0 1 0 1.46,-1.38 l -5,-5.26 v 0 c 0,0 0,0 -0.05,0 A 1.58,1.58 0 0 0 16.44,5.21 h -0.1 A 0.86,0.86 0 0 0 16,5 v 0 a 1,1 0 0 0 -0.33,0.06 v 0 0 a 1,1 0 0 0 -0.24,0.17 h -0.05 l -5,5.26 A 1,1 0 0 0 11,12.26 Z"
       id="path2"
       style="fill:#ffffff;stroke:none" />
  </g>
  <metadata
     id="metadata1">
    <rdf:RDF>
      <cc:Work
         rdf:about="">
        <dc:title>upload</dc:title>
      </cc:Work>
    </rdf:RDF>
  </metadata>
</svg>
