<?xml version="1.0" encoding="UTF-8" standalone="no"?>
<svg
   version="1.1"
   viewBox="-5 -10 136.76779 136.76779"
   id="svg3"
   sodipodi:docname="noun-double-arrows-7302616.svg"
   inkscape:version="1.4.2 (f4327f4, 2025-05-13)"
   width="136.76779"
   height="136.76779"
   xmlns:inkscape="http://www.inkscape.org/namespaces/inkscape"
   xmlns:sodipodi="http://sodipodi.sourceforge.net/DTD/sodipodi-0.dtd"
   xmlns="http://www.w3.org/2000/svg"
   xmlns:svg="http://www.w3.org/2000/svg">
  <defs
     id="defs3" />
  <sodipodi:namedview
     id="namedview3"
     pagecolor="#ffffff"
     bordercolor="#000000"
     borderopacity="0.25"
     inkscape:showpageshadow="2"
     inkscape:pageopacity="0.0"
     inkscape:pagecheckerboard="0"
     inkscape:deskcolor="#d1d1d1"
     inkscape:zoom="4.4783429"
     inkscape:cx="59.620267"
     inkscape:cy="61.294994"
     inkscape:window-width="2498"
     inkscape:window-height="1057"
     inkscape:window-x="1912"
     inkscape:window-y="-8"
     inkscape:window-maximized="1"
     inkscape:current-layer="svg3" />
  <circle
     style="fill:#ff80e5;stroke-width:1.10063"
     id="path3"
     cx="63.383896"
     cy="58.383896"
     r="68.383896" />
  <g
     id="g3"
     transform="translate(13.382921,8.3822712)">
    <path
       d="M 63.266,65.555 H 21.532 l 7.1758,-6.1992 c 2.4141,-2 2.6953,-5.8906 0.60156,-8.2188 -2,-2.4141 -5.8906,-2.6992 -8.2188,-0.60156 l -19.09,16.492 c -2.7031,2.2227 -2.6562,6.7344 0.09375,8.9023 l 19.441,16.078 c 2.4609,2.0391 6.1484,1.707 8.2031,-0.77734 2.0469,-2.3711 1.6797,-6.2578 -0.77734,-8.2031 l -7.0312,-5.8125 h 41.336 c 3.2148,0 5.8281,-2.6133 5.8281,-5.8281 0,-3.2148 -2.6133,-5.832 -5.8281,-5.832 z"
       id="path1"
       style="fill:#ffffff" />
    <path
       d="M 98,24.566 78.91,8.078 c -2.4297,-2.1016 -6.1172,-1.832 -8.2188,0.60156 -2.1016,2.4297 -1.832,6.1172 0.60156,8.2188 l 7.1758,6.1992 -41.734,-0.0039 c -3.2148,0 -5.8281,2.6133 -5.8281,5.8281 0,3.2148 2.6133,5.8281 5.8281,5.8281 h 41.336 l -7.0312,5.8125 c -2.4766,2.0469 -2.8242,5.7266 -0.77734,8.2031 2.0547,2.4844 5.7422,2.8164 8.2031,0.77734 l 19.441,-16.078 c 2.75,-2.1641 2.8008,-6.6758 0.09375,-8.8984 z"
       id="path2"
       style="fill:#ffffff" />
  </g>
</svg>
