<?xml version="1.0" encoding="UTF-8" standalone="no"?>
<svg
   version="1.1"
   viewBox="-5 -10 90.00174 72"
   id="svg2"
   sodipodi:docname="noun-open-file-8064123.svg"
   width="90.00174"
   height="72"
   inkscape:version="1.4.2 (f4327f4, 2025-05-13)"
   xmlns:inkscape="http://www.inkscape.org/namespaces/inkscape"
   xmlns:sodipodi="http://sodipodi.sourceforge.net/DTD/sodipodi-0.dtd"
   xmlns="http://www.w3.org/2000/svg"
   xmlns:svg="http://www.w3.org/2000/svg">
  <defs
     id="defs2" />
  <sodipodi:namedview
     id="namedview2"
     pagecolor="#ffffff"
     bordercolor="#000000"
     borderopacity="0.25"
     inkscape:showpageshadow="2"
     inkscape:pageopacity="0.0"
     inkscape:pagecheckerboard="0"
     inkscape:deskcolor="#d1d1d1"
     inkscape:zoom="6.3333333"
     inkscape:cx="45.078947"
     inkscape:cy="49.815789"
     inkscape:window-width="2560"
     inkscape:window-height="1057"
     inkscape:window-x="1912"
     inkscape:window-y="-8"
     inkscape:window-maximized="1"
     inkscape:current-layer="svg2" />
  <path
     style="fill:#ffcc00"
     d="M -1e-4,-4.947168 -0.315889,59.473884 68.9999,58.842305 80.368321,16.052832 61.105163,15.263358 54.789374,0.579147 29.9999,1.684411 19.105163,-5.262958 Z"
     id="path2" />
  <path
     d="M 84.1449,14.5312 C 83.38709,13.56636 82.2269,13 81.0004,13 h -18 V 2 c 0,-2.2109 -1.793,-4 -4,-4 H 28.8164 L 23.0117,-8.6328 C 22.24998,-9.49999 21.1523,-10 20,-10 H -1 c -2.2109,0 -4,1.7891 -4,4 v 64 c 0,2.2109 1.793,4 4,4 h 72 c 1.8438,0 3.4492,-1.2617 3.8867,-3.0508 l 10,-41 c 0.29297,-1.1953 0.01953,-2.4531 -0.74219,-3.418 z M 2.9999,-1.9998 h 15.184 l 5.8047,6.6328 c 0.76172,0.86719 1.8594,1.3672 3.0117,1.3672 h 28 v 7 h -34 c -1.8438,0 -3.4492,1.2617 -3.8867,3.0508 L 7.8597,54 H 3.0003 Z m 64.859,56 h -51.766 l 8.0508,-33 h 51.766 z"
     id="path1" />
</svg>
