<?xml version="1.0" encoding="UTF-8" standalone="no"?>
<svg
   version="1.1"
   x="0px"
   y="0px"
   viewBox="0 0 120 120"
   xml:space="preserve"
   id="svg3"
   sodipodi:docname="noun-knocked-out-face.svg"
   width="120"
   height="120"
   inkscape:version="1.4.3 (0d15f75042, 2025-12-25)"
   xmlns:inkscape="http://www.inkscape.org/namespaces/inkscape"
   xmlns:sodipodi="http://sodipodi.sourceforge.net/DTD/sodipodi-0.dtd"
   xmlns="http://www.w3.org/2000/svg"
   xmlns:svg="http://www.w3.org/2000/svg"><defs
     id="defs3" /><sodipodi:namedview
     id="namedview3"
     pagecolor="#ffffff"
     bordercolor="#000000"
     borderopacity="0.25"
     inkscape:showpageshadow="2"
     inkscape:pageopacity="0.0"
     inkscape:pagecheckerboard="0"
     inkscape:deskcolor="#d1d1d1"
     showgrid="false"
     inkscape:zoom="3.524"
     inkscape:cx="50.227015"
     inkscape:cy="94.069239"
     inkscape:window-width="1026"
     inkscape:window-height="907"
     inkscape:window-x="26"
     inkscape:window-y="23"
     inkscape:window-maximized="0"
     inkscape:current-layer="svg3" /><circle
     style="fill:#800000"
     id="path3"
     cx="60"
     cy="60"
     r="60" /><circle
     style="fill:#ffffff"
     id="path4"
     cx="60"
     cy="60"
     r="44.551647" /><g
     id="g2"
     transform="translate(10,10)"
     style="fill:#999999"><path
       d="M 50,2.5 C 23.80978,2.5 2.5,23.80837 2.5,50 c 0,8.57592 2.31371,16.98176 6.68812,24.30945 1.62494,2.72698 5.16158,3.62098 7.89418,1.99182 2.72979,-1.63056 3.62098,-5.16579 1.99041,-7.89558 C 15.76379,62.86318 14.01515,56.49836 14.01515,50 14.01515,30.15773 30.15773,14.01515 50,14.01515 c 19.84227,0 35.98485,16.14258 35.98485,35.98485 0,19.84227 -16.14258,35.98485 -35.98485,35.98485 -4.51497,0 -8.92031,-0.82652 -13.0923,-2.45428 -2.97156,-1.16811 -6.30297,0.31065 -7.45842,3.26815 -1.15545,2.96172 0.30924,6.30157 3.26956,7.45702 C 38.23183,96.40921 44.04563,97.5 50,97.5 76.19022,97.5 97.5,76.19163 97.5,50 97.5,23.80837 76.19022,2.5 50,2.5 Z m 33.8848,22.78273 c -0.26427,0.20663 -0.57632,0.30643 -0.88837,0.30643 -0.42732,0 -0.84902,-0.18976 -1.13297,-0.55102 -2.89565,-3.69547 -6.40137,-6.84274 -10.41874,-9.35448 -0.67471,-0.42029 -0.87994,-1.30867 -0.45824,-1.98338 0.4217,-0.67472 1.3157,-0.87713 1.98198,-0.45684 4.30413,2.68885 8.06004,6.05962 11.16093,10.01795 0.48916,0.62693 0.37952,1.53077 -0.24459,2.02134 z M 50,93.34189 c -5.07144,0 -10.04185,-0.8687 -14.77329,-2.5836 -0.745,-0.27129 -1.13296,-1.09641 -0.86026,-1.84422 0.26989,-0.7464 1.09641,-1.12593 1.84422,-0.86308 4.41377,1.60105 9.05244,2.41211 13.78933,2.41211 22.31342,0 40.46609,-18.15126 40.46609,-40.46327 0,-6.20879 -1.37193,-12.16878 -4.0736,-17.71129 -0.3486,-0.71408 -0.05341,-1.57574 0.66348,-1.92435 0.70283,-0.3486 1.57153,-0.05482 1.92294,0.66207 2.89847,5.94031 4.36597,12.3234 4.36597,18.97357 C 93.34487,73.89883 73.90181,93.34189 50,93.34189 Z"
       id="path1"
       style="fill:#999999" /><polygon
       points="70.39504,44.64198 73.9359,41.10113 69.86511,37.03034 66.32426,40.5712 62.78341,37.03034 58.71262,41.10113 62.25348,44.64198 58.71262,48.18283 62.78341,52.25362 66.32426,48.71277 69.86511,52.25362 73.9359,48.18283 "
       id="polygon1"
       style="fill:#999999" /><polygon
       points="37.74811,44.64198 41.28808,41.10113 37.2173,37.03034 33.67785,40.57067 30.1384,37.03034 26.06762,41.10113 29.60759,44.64198 26.06762,48.18283 30.1384,52.25362 33.67785,48.71329 37.2173,52.25362 41.28808,48.18283 "
       id="polygon2"
       style="fill:#999999" /><rect
       x="33.20274"
       y="61.796631"
       width="33.598042"
       height="5.7575798"
       id="rect2"
       style="fill:#999999" /></g></svg>
