<?xml version="1.0" encoding="UTF-8" standalone="no"?>
<svg
   version="1.1"
   x="0px"
   y="0px"
   viewBox="0 0 99.391808 99.391808"
   enable-background="new 0 0 100 100"
   xml:space="preserve"
   id="svg2"
   sodipodi:docname="noun-fire-131591.svg"
   inkscape:version="1.4.2 (f4327f4, 2025-05-13)"
   width="99.391808"
   height="99.391808"
   xmlns:inkscape="http://www.inkscape.org/namespaces/inkscape"
   xmlns:sodipodi="http://sodipodi.sourceforge.net/DTD/sodipodi-0.dtd"
   xmlns="http://www.w3.org/2000/svg"
   xmlns:svg="http://www.w3.org/2000/svg"><defs
     id="defs2" /><sodipodi:namedview
     id="namedview2"
     pagecolor="#ffffff"
     bordercolor="#000000"
     borderopacity="0.25"
     inkscape:showpageshadow="2"
     inkscape:pageopacity="0.0"
     inkscape:pagecheckerboard="0"
     inkscape:deskcolor="#d1d1d1"
     inkscape:zoom="6.84"
     inkscape:cx="30.701754"
     inkscape:cy="39.400585"
     inkscape:window-width="2498"
     inkscape:window-height="1057"
     inkscape:window-x="1912"
     inkscape:window-y="-8"
     inkscape:window-maximized="1"
     inkscape:current-layer="svg2" /><circle
     style="fill:#ff0000;stroke:#ffffff;stroke-width:0.837406"
     id="path2"
     cx="49.695904"
     cy="49.695904"
     r="49.277203" /><path
     d="m 40.263555,93.695906 c -4.9,-2.9 -8.4,-8 -8.6,-14 -0.3,-11.2 7.5,-16.7 12.1,-24.2 6.6,-10.8 4.8,-17.5 4.8,-17.5 0,0 5.5,3.1 8.7,14.6 1,3.4 1.2,6.8 0.9,10 -0.5,8.1 -4,15.4 -4,15.4 0,0 6.1,-1.3 7.8,-12.4 2.8,2.9 5.4,7.1 5.7,11.5 0.5,7.6 -4,14.6 -10.8,17.6 11.8,-2.7 20.2,-12.7 23.1,-20 3.7,-9.2 2.7,-17.4 2.1,-24.5 -0.8,-9.7 2.6,-16.9 2.6,-16.9 0,0 -6.5,1.9 -11.3,9.8 -2.2,3.6 -3.1,8.9 -3.1,8.9 0,0 0.5,-4.7 -2.6,-13.3 -3.1,-8.4 -5.9,-11.4 -7.6,-17.6 -2.2,-8.3 2.7,-16.4000004 2.7,-16.4000004 0,0 -19.4,3.6 -28.2,20.5000004 -7.8,15 -4.6,24 -4.6,24 0,0 -3.3,-3.1 -5,-7.4 -1.7,-4.3 -1.3,-8.2 -1.3,-8.2 0,0 -13.8000004,15.2 -7.1,34.3 4.5,13.4 13.2,22.2 23.7,25.8 z"
     id="path1"
     style="fill:#ffffff" /></svg>
