<?xml version="1.0" encoding="UTF-8" standalone="no"?>
<svg
   version="1.1"
   x="0px"
   y="0px"
   viewBox="0 0 117.37427 117.37427"
   enable-background="new 0 0 100 100"
   xml:space="preserve"
   id="svg2"
   sodipodi:docname="noun-arrow-963008.svg"
   inkscape:version="1.4.2 (f4327f4, 2025-05-13)"
   width="117.37427"
   height="117.37427"
   xmlns:inkscape="http://www.inkscape.org/namespaces/inkscape"
   xmlns:sodipodi="http://sodipodi.sourceforge.net/DTD/sodipodi-0.dtd"
   xmlns="http://www.w3.org/2000/svg"
   xmlns:svg="http://www.w3.org/2000/svg"><defs
     id="defs2" /><sodipodi:namedview
     id="namedview2"
     pagecolor="#ffffff"
     bordercolor="#000000"
     borderopacity="0.25"
     inkscape:showpageshadow="2"
     inkscape:pageopacity="0.0"
     inkscape:pagecheckerboard="0"
     inkscape:deskcolor="#d1d1d1"
     inkscape:zoom="6.84"
     inkscape:cx="39.912281"
     inkscape:cy="63.669591"
     inkscape:window-width="2498"
     inkscape:window-height="1057"
     inkscape:window-x="1912"
     inkscape:window-y="-8"
     inkscape:window-maximized="1"
     inkscape:current-layer="svg2" /><circle
     style="fill:#ffcc00;stroke:#f9f9f9"
     id="path2"
     cx="58.687134"
     cy="58.687134"
     r="58.187134" /><g
     id="g1"
     transform="matrix(1.1835608,0,0,1.1835608,-0.49090621,-0.49090636)"
     style="fill:#ffffff"><path
       d="m 95,49.167 -24.654,-15.382 4.236,10.55 c -7.686,0.516 -11.143,4.685 -14.471,8.699 -2.092,2.524 -4.105,4.952 -7.635,4.952 -3.531,0 -5.544,-2.428 -7.636,-4.952 -3.555,-4.288 -7.256,-8.753 -16.102,-8.753 -8.846,0 -12.547,4.465 -16.102,8.753 C 10.543,55.558 8.53,57.986 5,57.986 v 8.229 c 7.384,0 10.612,-3.894 13.968,-7.941 2.341,-2.824 4.778,-5.764 9.77,-5.764 4.992,0 7.429,2.94 9.77,5.764 3.355,4.047 6.583,7.941 13.968,7.941 7.384,0 10.612,-3.894 13.968,-7.941 2.087,-2.517 4.256,-5.121 8.237,-5.658 L 70.346,64.55 Z"
       id="path1"
       style="fill:#ffffff" /></g></svg>
