<?xml version="1.0" encoding="UTF-8" standalone="no"?>
<svg
   version="1.1"
   viewBox="-5 -10 145.57895 145.57895"
   id="svg2"
   sodipodi:docname="noun-circuit-8241852.svg"
   width="145.57895"
   height="145.57895"
   inkscape:version="1.4.2 (f4327f4, 2025-05-13)"
   xmlns:inkscape="http://www.inkscape.org/namespaces/inkscape"
   xmlns:sodipodi="http://sodipodi.sourceforge.net/DTD/sodipodi-0.dtd"
   xmlns="http://www.w3.org/2000/svg"
   xmlns:svg="http://www.w3.org/2000/svg">
  <defs
     id="defs2" />
  <sodipodi:namedview
     id="namedview2"
     pagecolor="#ffffff"
     bordercolor="#000000"
     borderopacity="0.25"
     inkscape:showpageshadow="2"
     inkscape:pageopacity="0.0"
     inkscape:pagecheckerboard="0"
     inkscape:deskcolor="#d1d1d1"
     inkscape:zoom="3.1666667"
     inkscape:cx="69.473684"
     inkscape:cy="61.105263"
     inkscape:window-width="2498"
     inkscape:window-height="1057"
     inkscape:window-x="1912"
     inkscape:window-y="-8"
     inkscape:window-maximized="1"
     inkscape:current-layer="svg2" />
  <circle
     style="fill:#bcd35f"
     id="path3"
     cx="67.789474"
     cy="62.789474"
     r="72.789474" />
  <rect
     style="fill:#999999"
     id="rect3"
     width="114.94736"
     height="77.368423"
     x="10.473684"
     y="23.789473" />
  <path
     d="M 120.69236,22.399245 H 14.881293 c -4.034293,0 -7.3166455,3.282488 -7.3166455,7.316645 v 66.147168 c 0,4.034292 3.2824885,7.316642 7.3166455,7.316642 H 120.69236 c 4.03429,0 7.31664,-3.282485 7.31664,-7.316642 l 0.005,-66.141746 c -0.005,-4.039579 -3.28777,-7.321931 -7.32193,-7.321931 z m 4.14014,73.468692 c 0,2.281843 -1.8583,4.140143 -4.14014,4.140143 l -105.811067,0.005 c -2.287129,0 -4.140145,-1.8583 -4.140145,-4.140143 V 29.720634 c 0,-2.287129 1.858301,-4.140144 4.140145,-4.140144 H 120.69236 c 2.28184,0 4.14014,1.858301 4.14014,4.140144 l 0.005,66.147167 z m -6.0513,-50.957918 h -8.75668 c -0.87886,0 -1.58832,0.709437 -1.58832,1.588318 v 2.790094 h -3.74832 c -0.33353,0 -0.65648,0.105893 -0.92649,0.29648 l -4.261858,3.060077 H 82.462961 v -2.948939 c 0,-0.878854 -0.709437,-1.588319 -1.588319,-1.588319 h -6.818965 v -6.755536 l 2.943654,-2.943654 h 9.789184 v 2.790095 c 0,0.878854 0.709437,1.588318 1.588318,1.588318 h 8.75669 c 0.878854,0 1.588318,-0.709437 1.588318,-1.588318 V 38.40854 h 12.700989 c 0.57179,1.069442 1.6836,1.800022 2.97537,1.800022 1.86887,0 3.38834,-1.519467 3.38834,-3.38834 0,-1.868872 -1.51947,-3.388339 -3.38834,-3.388339 -1.2918,0 -2.40355,0.735906 -2.97537,1.800021 H 98.721841 V 32.44181 c 0,-0.878854 -0.709437,-1.588318 -1.588318,-1.588318 h -8.75669 c -0.878854,0 -1.588318,0.709437 -1.588318,1.588318 v 2.790094 H 76.337656 c -0.423543,0 -0.825915,0.169417 -1.122381,0.465897 l -3.875447,3.875447 c -0.29648,0.29648 -0.465897,0.704138 -0.465897,1.122381 v 7.412061 h -6.204863 v -7.412061 c 0,-0.423542 -0.169417,-0.825901 -0.465897,-1.122381 l -3.875447,-3.875447 c -0.29648,-0.29648 -0.704138,-0.465897 -1.122381,-0.465897 H 48.754484 V 32.44181 c 0,-0.878854 -0.709438,-1.588318 -1.588319,-1.588318 h -8.751403 c -0.878854,0 -1.588318,0.709437 -1.588318,1.588318 v 2.790094 H 24.125456 c -0.571789,-1.069441 -1.683598,-1.800021 -2.975369,-1.800021 -1.868872,0 -3.388339,1.519467 -3.388339,3.388339 0,1.868873 1.519467,3.38834 3.388339,3.38834 1.291798,0 2.403553,-0.735907 2.975369,-1.800022 h 12.700988 v 2.790095 c 0,0.878854 0.709437,1.588318 1.588318,1.588318 h 8.751403 c 0.878854,0 1.588319,-0.709437 1.588319,-1.588318 V 38.40854 h 9.789184 l 2.943654,2.943654 v 6.755536 h -6.818966 c -0.878854,0 -1.588318,0.709437 -1.588318,1.588319 v 2.948939 H 36.048887 l -4.267139,-3.060077 c -0.27001,-0.195887 -0.592959,-0.29648 -0.926494,-0.29648 h -3.748317 v -2.790094 c 0,-0.878854 -0.709437,-1.588318 -1.588318,-1.588318 h -8.724974 c -0.878854,0 -1.588318,0.709437 -1.588318,1.588318 v 8.751404 c 0,0.878854 0.709437,1.588318 1.588318,1.588318 h 8.751403 c 0.878854,0 1.588319,-0.709437 1.588319,-1.588318 v -2.784809 h 3.234779 l 4.26714,3.060077 c 0.27001,0.195887 0.592959,0.29648 0.926494,0.29648 h 17.544823 v 5.384343 H 32.607148 c -0.57179,-1.069442 -1.683599,-1.800022 -2.975369,-1.800022 -1.868873,0 -3.38834,1.519467 -3.38834,3.38834 0,1.868873 1.519467,3.38834 3.38834,3.38834 1.291797,0 2.403552,-0.735907 2.975369,-1.800022 h 20.499455 v 5.384343 H 35.56178 c -0.333535,0 -0.656498,0.105892 -0.926494,0.29648 l -4.26714,3.065363 h -3.234779 v -2.790095 c 0,-0.878854 -0.709437,-1.588318 -1.588319,-1.588318 h -8.751403 c -0.878854,0 -1.588318,0.709437 -1.588318,1.588318 v 8.75669 c 0,0.878854 0.709437,1.588318 1.588318,1.588318 h 8.751403 c 0.878854,0 1.588319,-0.709437 1.588319,-1.588318 v -2.790095 h 3.748316 c 0.333535,0 0.656498,-0.105892 0.926494,-0.296479 l 4.267139,-3.065364 h 17.031151 v 2.94894 c 0,0.878854 0.709437,1.588318 1.588318,1.588318 h 6.818966 v 6.755536 l -2.943654,2.943654 h -9.789184 v -2.784808 c 0,-0.878854 -0.709437,-1.588318 -1.588319,-1.588318 h -8.751403 c -0.878854,0 -1.588318,0.709437 -1.588318,1.588318 v 2.784808 H 24.151885 c -0.571789,-1.069441 -1.683598,-1.800021 -2.975369,-1.800021 -1.868872,0 -3.388339,1.519467 -3.388339,3.38834 0,1.868872 1.519467,3.393625 3.388339,3.393625 1.291798,0 2.403553,-0.735907 2.975369,-1.805307 h 12.700988 v 2.790094 c 0,0.878854 0.709437,1.588318 1.588318,1.588318 h 8.751403 c 0.878854,0 1.588319,-0.709437 1.588319,-1.588318 v -2.790094 h 10.450859 c 0.423542,0 0.825914,-0.169417 1.122381,-0.465897 L 64.2296,86.015052 c 0.29648,-0.29648 0.465897,-0.698839 0.465897,-1.122381 V 77.48061 h 6.204863 v 7.412061 c 0,0.423542 0.169417,0.825901 0.465897,1.122381 l 3.875447,3.875447 c 0.29648,0.29648 0.698838,0.465897 1.122381,0.465897 h 10.450859 v 2.790094 c 0,0.878854 0.709437,1.588318 1.588318,1.588318 h 8.75669 c 0.878854,0 1.588318,-0.709437 1.588318,-1.588318 v -2.790094 h 12.70099 c 0.57179,1.069441 1.6836,1.805307 2.97537,1.805307 1.86887,0 3.38833,-1.524753 3.38833,-3.393625 0,-1.868873 -1.51946,-3.38834 -3.38833,-3.38834 -1.2918,0 -2.40356,0.735907 -2.97537,1.800021 H 98.74827 v -2.784808 c 0,-0.878854 -0.709437,-1.588318 -1.588318,-1.588318 h -8.75669 c -0.878854,0 -1.588318,0.709437 -1.588318,1.588318 v 2.784808 H 77.02576 l -2.943654,-2.943654 v -6.755536 h 6.818966 c 0.878854,0 1.588318,-0.709437 1.588318,-1.588318 v -2.94894 h 17.036571 l 4.261859,3.065364 c 0.27001,0.190587 0.59296,0.296479 0.92649,0.296479 h 3.74832 v 2.784809 c 0,0.878854 0.70943,1.588318 1.58831,1.588318 h 8.75669 c 0.87885,0 1.58832,-0.709437 1.58832,-1.588318 v -8.75669 c 0,-0.878854 -0.70944,-1.588318 -1.58832,-1.588318 h -8.75669 c -0.87885,0 -1.58831,0.709437 -1.58831,1.588318 v 2.790095 h -3.23478 l -4.26186,-3.065363 c -0.27001,-0.190588 -0.59296,-0.29648 -0.92649,-0.29648 H 82.494675 l -0.02117,-5.379057 h 20.499455 c 0.57178,1.069441 1.6836,1.800022 2.97537,1.800022 1.86887,0 3.38834,-1.519467 3.38834,-3.38834 0,-1.868873 -1.51947,-3.38834 -3.38834,-3.38834 -1.2918,0 -2.40355,0.735907 -2.97537,1.800022 H 82.473505 v -5.384343 h 17.544825 c 0.33353,0 0.6565,-0.105892 0.92649,-0.29648 l 4.26186,-3.060077 h 3.23478 v 2.784809 c 0,0.878854 0.70943,1.588318 1.58831,1.588318 h 8.75669 c 0.87885,0 1.58832,-0.709437 1.58832,-1.588318 v -8.751404 c -0.005,-0.878854 -0.71473,-1.588318 -1.59361,-1.588318 z M 89.974896,34.035617 h 5.580189 v 5.580189 H 89.974896 Z M 45.598489,39.61052 h -5.574903 v -5.580189 h 5.574903 z M 23.955131,53.661287 h -5.574903 v -5.574903 h 5.574903 z m 0,23.840358 h -5.574903 v -5.580189 h 5.574903 z m 21.643358,14.050767 h -5.574903 v -5.580189 h 5.574903 z m 44.376407,-5.574903 h 5.580189 v 5.580189 H 89.974896 Z M 111.61826,71.926742 h 5.58018 v 5.580189 h -5.58018 z M 79.296205,74.303865 H 56.27718 V 51.284841 H 79.290783 V 74.303865 Z M 117.19275,53.6621 h -5.58019 v -5.574903 h 5.58019 z"
     id="path1"
     style="fill:#ffff00;stroke-width:1.35534" />
</svg>
