<?xml version="1.0" encoding="UTF-8" standalone="no"?>
<svg
   version="1.1"
   x="0px"
   y="0px"
   viewBox="0 0 89.646034 65.707268"
   enable-background="new 0 0 100 100"
   xml:space="preserve"
   id="svg2"
   sodipodi:docname="noun-flags.svg"
   width="89.646034"
   height="65.707268"
   inkscape:version="1.4.2 (f4327f4, 2025-05-13)"
   xmlns:inkscape="http://www.inkscape.org/namespaces/inkscape"
   xmlns:sodipodi="http://sodipodi.sourceforge.net/DTD/sodipodi-0.dtd"
   xmlns="http://www.w3.org/2000/svg"
   xmlns:svg="http://www.w3.org/2000/svg"><defs
     id="defs2" /><sodipodi:namedview
     id="namedview2"
     pagecolor="#ffffff"
     bordercolor="#000000"
     borderopacity="0.25"
     inkscape:showpageshadow="2"
     inkscape:pageopacity="0.0"
     inkscape:pagecheckerboard="0"
     inkscape:deskcolor="#d1d1d1"
     inkscape:zoom="6.84"
     inkscape:cx="44.883041"
     inkscape:cy="45.394737"
     inkscape:window-width="2560"
     inkscape:window-height="1057"
     inkscape:window-x="1912"
     inkscape:window-y="-8"
     inkscape:window-maximized="1"
     inkscape:current-layer="svg2" /><rect
     style="fill:#ff0000;stroke-width:1.12799"
     id="rect2"
     width="30.393427"
     height="22.049358"
     x="-5.2502656"
     y="16.997986"
     ry="0"
     transform="matrix(0.86615307,-0.49977881,0.39604689,0.91823029,0,0)" /><rect
     style="fill:#0000ff;stroke-width:1.11097"
     id="rect2-9"
     width="29.635973"
     height="21.935608"
     x="-88.447838"
     y="-28.312782"
     ry="0"
     transform="matrix(-0.85865591,-0.51255247,-0.38481936,0.92299191,0,0)" /><path
     d="m 87.587015,15.24827 -22.14,-11.4369999 0.376,-0.729 c 0.535,-1.036 0.129,-2.311 -0.907,-2.846 -1.035,-0.534 -2.31,-0.13 -2.846,0.907 l -17.247,33.3879999 -5.994,-11.603 v -0.001 l -9.13,-17.6739999 c -10e-4,-0.001 -10e-4,-0.002 -0.002,-0.003 l -2.122,-4.107 c -0.536,-1.036 -1.81,-1.443 -2.846,-0.907 -1.036,0.535 -1.443,1.81 -0.907,2.846 l 0.376,0.729 L 2.0590152,15.24827 c -1.86499996,0.963 -2.59799996,3.264 -1.63499996,5.129 l 9.12999996,17.673 c 0.4669998,0.904 1.2569998,1.571 2.2259998,1.88 0.381,0.121 0.771,0.182 1.16,0.182 0.6,0 1.195,-0.144 1.743,-0.427 l 22.14,-11.436 5.623,10.885 -12.134,23.49 c -0.535,1.036 -0.129,2.311 0.907,2.846 0.31,0.161 0.641,0.237 0.968,0.237 0.765,0 1.503,-0.417 1.878,-1.144 l 10.758,-20.827 10.758,20.827 c 0.375,0.726 1.113,1.144 1.878,1.144 0.326,0 0.658,-0.076 0.968,-0.237 1.036,-0.535 1.443,-1.809 0.907,-2.846 l -12.134,-23.49 5.623,-10.885 22.14,11.437 c 0.548,0.283 1.143,0.427 1.743,0.427 0.389,0 0.779,-0.06 1.16,-0.182 0.969,-0.309 1.759,-0.976 2.226,-1.88 l 9.13,-17.674 c 0.963,-1.865 0.23,-4.166 -1.635,-5.129 z m -74.472,20.492 -8.7459998,-16.931 21.7689998,-11.2449999 8.746,16.9309999 z M 54.337238,24.366001 63.427495,6.9964042 85.635091,18.850819 76.544834,36.220416 Z"
     id="path1"
     sodipodi:nodetypes="ccccccccccccccccccscccccscccscccccscccccccccccccc" /></svg>
