<?xml version="1.0" encoding="UTF-8" standalone="no"?>
<svg
   version="1.1"
   viewBox="-5 -10 122.14339 122.14339"
   id="svg2"
   sodipodi:docname="noun-options-6682476.svg"
   width="122.14339"
   height="122.14339"
   inkscape:version="1.4.2 (f4327f4, 2025-05-13)"
   xmlns:inkscape="http://www.inkscape.org/namespaces/inkscape"
   xmlns:sodipodi="http://sodipodi.sourceforge.net/DTD/sodipodi-0.dtd"
   xmlns="http://www.w3.org/2000/svg"
   xmlns:svg="http://www.w3.org/2000/svg">
  <defs
     id="defs2" />
  <sodipodi:namedview
     id="namedview2"
     pagecolor="#ffffff"
     bordercolor="#000000"
     borderopacity="0.25"
     inkscape:showpageshadow="2"
     inkscape:pageopacity="0.0"
     inkscape:pagecheckerboard="0"
     inkscape:deskcolor="#d1d1d1"
     inkscape:zoom="3.1666667"
     inkscape:cx="100.26316"
     inkscape:cy="35.526316"
     inkscape:window-width="2484"
     inkscape:window-height="1057"
     inkscape:window-x="1988"
     inkscape:window-y="-8"
     inkscape:window-maximized="1"
     inkscape:current-layer="svg2" />
  <path
     style="fill:#892ca0"
     id="path3"
     sodipodi:type="arc"
     sodipodi:cx="56.071697"
     sodipodi:cy="51.071697"
     sodipodi:rx="61.071697"
     sodipodi:ry="61.071697"
     sodipodi:start="1.6287184"
     sodipodi:end="1.6280593"
     sodipodi:open="true"
     sodipodi:arc-type="arc"
     d="M 52.536276,112.04098 A 61.071697,61.071697 0 0 1 -4.8981636,47.546322 61.071697,61.071697 0 0 1 59.587026,-9.8987437 61.071697,61.071697 0 0 1 117.04272,54.57698 61.071697,61.071697 0 0 1 52.576461,112.04329" />
  <g
     id="g3"
     transform="translate(6.0712954,1.0728679)">
    <path
       style="fill:#d38d5f"
       d="m 87.444908,56.319173 -29.921782,17.528805 -14.849242,-5.694071 11.164843,-1.563078 -0.111648,-7.257148 -7.368797,-3.126157 -11.164844,1.45143 -5.582422,-2.456266 -7.927039,0.78154 -3.684399,1.563078 -2.344617,0.558242 0.446594,21.4365 33.717829,8.038688 42.426407,-22.106391 3.349449,-5.135828 -4.465934,-4.130993 z"
       id="path2" />
    <rect
       style="fill:#0000ff"
       id="rect2"
       width="9.2668209"
       height="33.047939"
       x="5.1600084"
       y="51.741589" />
    <path
       d="m 16.66,55.207 h 3.6211 c 2.3477,-1.375 4.9727,-2.0625 7.5938,-2.0625 2.6211,0 5.2461,0.6875 7.5938,2.0625 h 12.898 c 2.3945,0 4.5781,0.98438 6.1602,2.5664 1.582,1.5742 2.5664,3.7578 2.5664,6.1602 0,1.4766 -0.60547,2.8164 -1.5742,3.7891 l -0.14062,0.12891 c -0.96094,0.89453 -2.2461,1.4453 -3.6445,1.4453 h -3.2344 l 7.8984,2.375 28.082,-16.215 c 2.0781,-1.2031 4.457,-1.4453 6.6133,-0.87109 2.2305,0.59766 4.2969,2.1406 5.375,4.2031 0.66797,1.2422 0.79688,2.6406 0.45703,3.9102 -0.35547,1.3281 -1.2148,2.5195 -2.4961,3.2578 l -37.793,21.859 c -1.3828,0.80078 -2.8203,1.3086 -4.3047,1.5195 -1.4805,0.21094 -2.9961,0.125 -4.5469,-0.25391 l -30.379,-7.4453 h -0.74219 v 3.1484 c 0,1.1055 -0.89453,2 -2,2 h -9.7695 c -1.1055,0 -2,-0.89453 -2,-2 v -32.297 c 0,-1.1055 0.89453,-2 2,-2 h 9.7695 c 1.1055,0 2,0.89453 2,2 v 2.7109 z m 15.465,-4.7734 c -2.582,-1.6914 -4.7344,-4.1406 -6.2227,-7.0781 -1.418,-2.8047 -2.2305,-6.0586 -2.2305,-9.5156 0,-3.457 0.8125,-6.707 2.2344,-9.5156 1.4844,-2.9375 3.6367,-5.3867 6.2188,-7.0781 l 2.1875,3.3438 c -2,1.3086 -3.6797,3.2266 -4.8438,5.5312 -1.1406,2.2578 -1.7969,4.8945 -1.7969,7.7148 0,2.8242 0.65625,5.4609 1.7969,7.7148 1.1641,2.3047 2.8438,4.2227 4.8477,5.5352 l -2.1875,3.3438 z m 27.477,-35.898 c -1.1016,-0.04297 -1.957,-0.96875 -1.9141,-2.0703 0.04297,-1.1016 0.96875,-1.957 2.0703,-1.9141 l 7.2344,0.29297 c 0.53906,-0.01953 1.082,0.17188 1.4922,0.58203 0.41016,0.41016 0.60547,0.95703 0.58203,1.4922 l 0.29297,7.2305 c 0.04297,1.1016 -0.8125,2.0273 -1.9141,2.0703 -1.1016,0.04297 -2.0273,-0.8125 -2.0703,-1.9141 l -0.11328,-2.832 -8.4727,8.4727 c -0.78125,0.78125 -2.0469,0.78125 -2.8281,0 -0.7812,-0.78125 -0.78125,-2.0469 0,-2.8281 l 8.4727,-8.4727 -2.832,-0.11328 z m 5.7773,32.84 c 0.04297,-1.1016 0.96875,-1.957 2.0703,-1.9141 1.1016,0.04297 1.957,0.96875 1.9141,2.0703 l -0.29297,7.2344 c 0.01953,0.53906 -0.17187,1.082 -0.58203,1.4922 -0.41016,0.41016 -0.95312,0.60547 -1.4922,0.58203 l -7.2344,0.29297 c -1.1016,0.04297 -2.0273,-0.8125 -2.0703,-1.9141 -0.04297,-1.1016 0.8125,-2.0273 1.9141,-2.0703 l 2.832,-0.11328 -8.4727,-8.4727 c -0.78125,-0.78125 -0.78125,-2.0469 0,-2.8281 0.78125,-0.7812 2.0469,-0.78125 2.8281,0 l 8.4727,8.4727 z m 3.9102,-17.617 c -0.74609,-0.80859 -0.69141,-2.0742 0.11719,-2.8203 0.8086,-0.7461 2.0742,-0.69141 2.8203,0.11719 l 4.918,5.3359 c 0.38281,0.36328 0.625,0.87891 0.625,1.4531 0,0.57031 -0.23828,1.0859 -0.625,1.4492 l -4.9219,5.3359 c -0.74609,0.80859 -2.0078,0.86328 -2.8203,0.11719 -0.80859,-0.74609 -0.86328,-2.0078 -0.11719,-2.8203 l 1.9219,-2.0859 h -11.98 c -1.1055,0 -2,-0.89453 -2,-2 0,-1.1055 0.89453,-2 2,-2 h 11.98 l -1.9219,-2.0859 z m -19.09,2.0977 3.6133,-0.0039 v 3.9844 l -3.6133,0.0039 z m -5.9336,0 3.6133,-0.0039 v 3.9844 l -3.6133,0.0039 z m -5.9336,0 3.6133,-0.0039 v 3.9844 l -3.6133,0.0039 z m 9.5547,18.902 h -0.17188 c -4.6797,0.0078 -8.9102,-1.8867 -11.973,-4.9492 -3.0628,-3.0625 -4.957,-7.293 -4.957,-11.965 0,-4.6211 1.8594,-8.8125 4.8672,-11.867 3.0078,-3.0586 7.1836,-4.9766 11.801,-5.043 l 0.04687,3.9844 c -3.5156,0.05078 -6.7031,1.5195 -9.0039,3.8594 -2.293,2.3281 -3.7109,5.5352 -3.7109,9.0703 0,3.5664 1.4453,6.8008 3.7852,9.1367 2.3359,2.3359 5.5703,3.7852 9.1367,3.7852 l 0.16406,0.0078 0.01563,3.9844 z m -31.223,26.891 h 0.95703 c 0.15625,0.0078 0.3125,0.02344 0.46875,0.0625 l 30.633,7.5078 c 1.0469,0.25781 2.0664,0.31641 3.0469,0.17578 0.97266,-0.13672 1.9336,-0.48047 2.8672,-1.0234 l 37.797,-21.855 c 0.32422,-0.18359 0.54297,-0.48828 0.63672,-0.83203 0.08594,-0.32031 0.05859,-0.66797 -0.09375,-0.97266 -0.6875,-1.1406 -1.6094,-1.9141 -2.9141,-2.2617 -1.1719,-0.3125 -2.4648,-0.18359 -3.5859,0.46094 l -28.723,16.578 c -0.47656,0.32031 -1.0898,0.43359 -1.6836,0.25781 l -21.621,-6.5 c -0.88281,-0.21094 -1.5352,-1 -1.5352,-1.9453 0,-1.1055 0.89453,-2 2,-2 h 16.82 c 0.34375,0 0.65625,-0.125 0.89062,-0.33203 l 0.07031,-0.07031 c 0.24609,-0.24609 0.40234,-0.58984 0.40234,-0.96094 0,-1.2969 -0.53125,-2.4805 -1.3906,-3.3359 -0.85156,-0.85937 -2.0352,-1.3906 -3.3359,-1.3906 h -13.457 c -0.37109,-0.0039 -0.74219,-0.10547 -1.0781,-0.32031 -1.8125,-1.1641 -3.8828,-1.7422 -5.957,-1.7422 -2.0391,0 -4.0742,0.5625 -5.8633,1.6836 -0.32812,0.23828 -0.73438,0.37891 -1.1719,0.37891 h -4.1758 v 18.438 z m -4,-23.148 H 6.8945 v 28.301 h 5.7695 z"
       id="path1"
       style="fill:#000000" />
  </g>
  <path
     d="m 38.196295,51.506468 c -2.582,-1.6914 -4.7344,-4.1406 -6.2227,-7.0781 -1.418,-2.8047 -2.2305,-6.0586 -2.2305,-9.5156 0,-3.457 0.8125,-6.707 2.2344,-9.5156 1.4844,-2.9375 3.6367,-5.3867 6.2188,-7.0781 l 2.1875,3.3438 c -2,1.3086 -3.6797,3.2266 -4.8438,5.5312 -1.1406,2.2578 -1.7969,4.8945 -1.7969,7.7148 0,2.8242 0.65625,5.4609 1.7969,7.7148 1.1641,2.3047 2.8438,4.2227 4.8477,5.5352 l -2.1875,3.3438 z m 27.477,-35.898 c -1.1016,-0.04297 -1.957,-0.96875 -1.9141,-2.0703 0.04297,-1.1016 0.96875,-1.957 2.0703,-1.9141 l 7.2344,0.29297 c 0.53906,-0.01953 1.082,0.17188 1.4922,0.58203 0.41016,0.41016 0.60547,0.95703 0.58203,1.4922 l 0.29297,7.2305 c 0.04297,1.1016 -0.8125,2.0273 -1.9141,2.0703 -1.1016,0.04297 -2.0273,-0.8125 -2.0703,-1.9141 l -0.11328,-2.832 -8.4727,8.4727 c -0.78125,0.78125 -2.0469,0.78125 -2.8281,0 -0.7812,-0.78125 -0.78125,-2.0469 0,-2.8281 l 8.4727,-8.4727 -2.832,-0.11328 z m 5.7773,32.84 c 0.04297,-1.1016 0.96875,-1.957 2.0703,-1.9141 1.1016,0.04297 1.957,0.96875 1.9141,2.0703 l -0.29297,7.2344 c 0.01953,0.53906 -0.17187,1.082 -0.58203,1.4922 -0.41016,0.41016 -0.95312,0.60547 -1.4922,0.58203 l -7.2344,0.29297 c -1.1016,0.04297 -2.0273,-0.8125 -2.0703,-1.9141 -0.04297,-1.1016 0.8125,-2.0273 1.9141,-2.0703 l 2.832,-0.11328 -8.4727,-8.4727 c -0.78125,-0.78125 -0.78125,-2.0469 0,-2.8281 0.78125,-0.7812 2.0469,-0.78125 2.8281,0 l 8.4727,8.4727 z m 3.9102,-17.617 c -0.74609,-0.80859 -0.69141,-2.0742 0.11719,-2.8203 0.8086,-0.7461 2.0742,-0.69141 2.8203,0.11719 l 4.918,5.3359 c 0.38281,0.36328 0.625,0.87891 0.625,1.4531 0,0.57031 -0.23828,1.0859 -0.625,1.4492 l -4.9219,5.3359 c -0.74609,0.80859 -2.0078,0.86328 -2.8203,0.11719 -0.80859,-0.74609 -0.86328,-2.0078 -0.11719,-2.8203 l 1.9219,-2.0859 h -11.98 c -1.1055,0 -2,-0.89453 -2,-2 0,-1.1055 0.89453,-2 2,-2 h 11.98 l -1.9219,-2.0859 z m -19.09,2.0977 3.6133,-0.0039 v 3.9844 l -3.6133,0.0039 z m -5.9336,0 3.6133,-0.0039 v 3.9844 l -3.6133,0.0039 z m -5.9336,0 3.6133,-0.0039 v 3.9844 l -3.6133,0.0039 z m 9.5547,18.902 h -0.17188 c -4.6797,0.0078 -8.9102,-1.8867 -11.973,-4.9492 -3.0628,-3.0625 -4.957,-7.293 -4.957,-11.965 0,-4.6211 1.8594,-8.8125 4.8672,-11.867 3.0078,-3.0586 7.1836,-4.9766 11.801,-5.043 l 0.04687,3.9844 c -3.5156,0.05078 -6.7031,1.5195 -9.0039,3.8594 -2.293,2.3281 -3.7109,5.5352 -3.7109,9.0703 0,3.5664 1.4453,6.8008 3.7852,9.1367 2.3359,2.3359 5.5703,3.7852 9.1367,3.7852 l 0.16406,0.0078 0.01563,3.9844 z"
     id="path1-8"
     style="fill:#ffe680"
     sodipodi:nodetypes="ccsccccsccccccccccccccssccccccccccccccssccccsccscccccsssccccccccccccccccccccssccccsccccc" />
</svg>
