<svg xmlns="http://www.w3.org/2000/svg" xmlns:xlink="http://www.w3.org/1999/xlink" xmlns:serif="http://www.serif.com/" viewBox="0 0 32 40" version="1.1" xml:space="preserve" style="" x="0px" y="0px" fill-rule="evenodd" clip-rule="evenodd" stroke-linejoin="round" stroke-miterlimit="2"><g transform="matrix(1,0,0,1,-48,-9)"><g><g transform="matrix(-1.08241,0,0,1.08241,128.098,-120.72)"><path d="M63.576,135.089C63.636,134.906 63.807,134.781 64,134.781C64.193,134.781 64.364,134.906 64.424,135.089L65.171,137.388C65.171,137.388 67.588,137.388 67.588,137.388C67.781,137.388 67.953,137.513 68.012,137.696C68.072,137.88 68.007,138.081 67.85,138.195L65.895,139.616C65.895,139.616 66.642,141.914 66.642,141.914C66.701,142.098 66.636,142.299 66.48,142.413C66.323,142.527 66.112,142.527 65.955,142.413L64,140.992C64,140.992 62.045,142.413 62.045,142.413C61.888,142.527 61.677,142.527 61.52,142.413C61.364,142.299 61.299,142.098 61.358,141.914L62.105,139.616C62.105,139.616 60.15,138.195 60.15,138.195C59.993,138.081 59.928,137.88 59.988,137.696C60.047,137.513 60.219,137.388 60.412,137.388L62.829,137.388C62.829,137.388 63.576,135.089 63.576,135.089ZM64,136.671L63.577,137.972C63.517,138.156 63.346,138.28 63.153,138.28L61.785,138.28C61.785,138.28 62.892,139.084 62.892,139.084C63.048,139.198 63.113,139.399 63.054,139.583L62.631,140.885C62.631,140.885 63.738,140.08 63.738,140.08C63.894,139.967 64.106,139.967 64.262,140.08L65.369,140.885C65.369,140.885 64.946,139.583 64.946,139.583C64.887,139.399 64.952,139.198 65.108,139.084L66.215,138.28C66.215,138.28 64.847,138.28 64.847,138.28C64.654,138.28 64.483,138.156 64.423,137.972L64,136.671Z"/></g><g transform="matrix(-1.08241,0,0,1.08241,138.353,-120.72)"><path d="M63.576,135.089C63.636,134.906 63.807,134.781 64,134.781C64.193,134.781 64.364,134.906 64.424,135.089L65.171,137.388C65.171,137.388 67.588,137.388 67.588,137.388C67.781,137.388 67.953,137.513 68.012,137.696C68.072,137.88 68.007,138.081 67.85,138.195L65.895,139.616C65.895,139.616 66.642,141.914 66.642,141.914C66.701,142.098 66.636,142.299 66.48,142.413C66.323,142.527 66.112,142.527 65.955,142.413L64,140.992C64,140.992 62.045,142.413 62.045,142.413C61.888,142.527 61.677,142.527 61.52,142.413C61.364,142.299 61.299,142.098 61.358,141.914L62.105,139.616C62.105,139.616 60.15,138.195 60.15,138.195C59.993,138.081 59.928,137.88 59.988,137.696C60.047,137.513 60.219,137.388 60.412,137.388L62.829,137.388C62.829,137.388 63.576,135.089 63.576,135.089ZM64,136.671L63.577,137.972C63.517,138.156 63.346,138.28 63.153,138.28L61.785,138.28C61.785,138.28 62.892,139.084 62.892,139.084C63.048,139.198 63.113,139.399 63.054,139.583L62.631,140.885C62.631,140.885 63.738,140.08 63.738,140.08C63.894,139.967 64.106,139.967 64.262,140.08L65.369,140.885C65.369,140.885 64.946,139.583 64.946,139.583C64.887,139.399 64.952,139.198 65.108,139.084L66.215,138.28C66.215,138.28 64.847,138.28 64.847,138.28C64.654,138.28 64.483,138.156 64.423,137.972L64,136.671Z"/></g><g transform="matrix(-1.08241,0,0,1.08241,123.592,-129.41)"><path d="M63.576,135.089C63.636,134.906 63.807,134.781 64,134.781C64.193,134.781 64.364,134.906 64.424,135.089L65.171,137.388C65.171,137.388 67.588,137.388 67.588,137.388C67.781,137.388 67.953,137.513 68.012,137.696C68.072,137.88 68.007,138.081 67.85,138.195L65.895,139.616C65.895,139.616 66.642,141.914 66.642,141.914C66.701,142.098 66.636,142.299 66.48,142.413C66.323,142.527 66.112,142.527 65.955,142.413L64,140.992C64,140.992 62.045,142.413 62.045,142.413C61.888,142.527 61.677,142.527 61.52,142.413C61.364,142.299 61.299,142.098 61.358,141.914L62.105,139.616C62.105,139.616 60.15,138.195 60.15,138.195C59.993,138.081 59.928,137.88 59.988,137.696C60.047,137.513 60.219,137.388 60.412,137.388L62.829,137.388C62.829,137.388 63.576,135.089 63.576,135.089ZM64,136.671L63.577,137.972C63.517,138.156 63.346,138.28 63.153,138.28L61.785,138.28C61.785,138.28 62.892,139.084 62.892,139.084C63.048,139.198 63.113,139.399 63.054,139.583L62.631,140.885C62.631,140.885 63.738,140.08 63.738,140.08C63.894,139.967 64.106,139.967 64.262,140.08L65.369,140.885C65.369,140.885 64.946,139.583 64.946,139.583C64.887,139.399 64.952,139.198 65.108,139.084L66.215,138.28C66.215,138.28 64.847,138.28 64.847,138.28C64.654,138.28 64.483,138.156 64.423,137.972L64,136.671Z"/></g><g transform="matrix(-1.08241,0,0,1.08241,133.226,-128.448)"><path d="M63.576,135.089C63.636,134.906 63.807,134.781 64,134.781C64.193,134.781 64.364,134.906 64.424,135.089L65.171,137.388C65.171,137.388 67.588,137.388 67.588,137.388C67.781,137.388 67.953,137.513 68.012,137.696C68.072,137.88 68.007,138.081 67.85,138.195L65.895,139.616C65.895,139.616 66.642,141.914 66.642,141.914C66.701,142.098 66.636,142.299 66.48,142.413C66.323,142.527 66.112,142.527 65.955,142.413L64,140.992C64,140.992 62.045,142.413 62.045,142.413C61.888,142.527 61.677,142.527 61.52,142.413C61.364,142.299 61.299,142.098 61.358,141.914L62.105,139.616C62.105,139.616 60.15,138.195 60.15,138.195C59.993,138.081 59.928,137.88 59.988,137.696C60.047,137.513 60.219,137.388 60.412,137.388L62.829,137.388C62.829,137.388 63.576,135.089 63.576,135.089ZM64,136.671L63.577,137.972C63.517,138.156 63.346,138.28 63.153,138.28L61.785,138.28C61.785,138.28 62.892,139.084 62.892,139.084C63.048,139.198 63.113,139.399 63.054,139.583L62.631,140.885C62.631,140.885 63.738,140.08 63.738,140.08C63.894,139.967 64.106,139.967 64.262,140.08L65.369,140.885C65.369,140.885 64.946,139.583 64.946,139.583C64.887,139.399 64.952,139.198 65.108,139.084L66.215,138.28C66.215,138.28 64.847,138.28 64.847,138.28C64.654,138.28 64.483,138.156 64.423,137.972L64,136.671Z"/></g><g transform="matrix(-1.08241,0,0,1.08241,142.859,-129.41)"><path d="M63.576,135.089C63.636,134.906 63.807,134.781 64,134.781C64.193,134.781 64.364,134.906 64.424,135.089L65.171,137.388C65.171,137.388 67.588,137.388 67.588,137.388C67.781,137.388 67.953,137.513 68.012,137.696C68.072,137.88 68.007,138.081 67.85,138.195L65.895,139.616C65.895,139.616 66.642,141.914 66.642,141.914C66.701,142.098 66.636,142.299 66.48,142.413C66.323,142.527 66.112,142.527 65.955,142.413L64,140.992C64,140.992 62.045,142.413 62.045,142.413C61.888,142.527 61.677,142.527 61.52,142.413C61.364,142.299 61.299,142.098 61.358,141.914L62.105,139.616C62.105,139.616 60.15,138.195 60.15,138.195C59.993,138.081 59.928,137.88 59.988,137.696C60.047,137.513 60.219,137.388 60.412,137.388L62.829,137.388C62.829,137.388 63.576,135.089 63.576,135.089ZM64,136.671L63.577,137.972C63.517,138.156 63.346,138.28 63.153,138.28L61.785,138.28C61.785,138.28 62.892,139.084 62.892,139.084C63.048,139.198 63.113,139.399 63.054,139.583L62.631,140.885C62.631,140.885 63.738,140.08 63.738,140.08C63.894,139.967 64.106,139.967 64.262,140.08L65.369,140.885C65.369,140.885 64.946,139.583 64.946,139.583C64.887,139.399 64.952,139.198 65.108,139.084L66.215,138.28C66.215,138.28 64.847,138.28 64.847,138.28C64.654,138.28 64.483,138.156 64.423,137.972L64,136.671Z"/></g></g></g><text x="0" y="47" fill="#000000" font-size="5px" font-weight="bold" font-family="'Helvetica Neue', Helvetica, Arial-Unicode, Arial, Sans-serif">Created by Siti Norhayah Rahmatiah</text><text x="0" y="52" fill="#000000" font-size="5px" font-weight="bold" font-family="'Helvetica Neue', Helvetica, Arial-Unicode, Arial, Sans-serif">from the Noun Project</text></svg>