<?xml version="1.0" encoding="UTF-8" standalone="no"?>
<svg
   version="1.1"
   x="0px"
   y="0px"
   viewBox="0 0 120 120"
   xml:space="preserve"
   id="svg3"
   sodipodi:docname="noun-gravestone.svg"
   width="120"
   height="120"
   inkscape:version="1.4.3 (0d15f75042, 2025-12-25)"
   xmlns:inkscape="http://www.inkscape.org/namespaces/inkscape"
   xmlns:sodipodi="http://sodipodi.sourceforge.net/DTD/sodipodi-0.dtd"
   xmlns="http://www.w3.org/2000/svg"
   xmlns:svg="http://www.w3.org/2000/svg"><defs
     id="defs3" /><sodipodi:namedview
     id="namedview3"
     pagecolor="#ffffff"
     bordercolor="#000000"
     borderopacity="0.25"
     inkscape:showpageshadow="2"
     inkscape:pageopacity="0.0"
     inkscape:pagecheckerboard="0"
     inkscape:deskcolor="#d1d1d1"
     showgrid="false"
     inkscape:zoom="1.762"
     inkscape:cx="-30.93076"
     inkscape:cy="62.145289"
     inkscape:window-width="1853"
     inkscape:window-height="1131"
     inkscape:window-x="0"
     inkscape:window-y="0"
     inkscape:window-maximized="1"
     inkscape:current-layer="svg3" /><circle
     style="fill:#000000"
     id="path3"
     cx="60"
     cy="60"
     r="60" /><circle
     style="fill:#d3d7cf;stroke-width:1.18916"
     id="path4"
     cx="60"
     cy="60"
     r="52.979141" /><ellipse
     style="fill:#babdb6;stroke-width:1.11703"
     id="path8"
     cx="72.4319"
     cy="53.986946"
     rx="23.056189"
     ry="35.68388" /><rect
     style="fill:#babdb6"
     id="rect8"
     width="18.303064"
     height="34.761635"
     x="77.326904"
     y="56.895573" /><rect
     style="fill:#555753"
     id="rect6"
     width="53.348469"
     height="38.450623"
     x="32.349602"
     y="53.916004" /><ellipse
     style="fill:#555753;stroke-width:1.00354"
     id="path6"
     cx="58.591137"
     cy="53.976086"
     rx="28.492952"
     ry="35.515862" /><ellipse
     style="fill:#ffffff"
     id="path7"
     cx="58.527241"
     cy="47.389332"
     rx="15.252554"
     ry="14.046538" /><rect
     style="fill:#ffffff"
     id="rect7"
     width="13.620885"
     height="27.667423"
     x="51.503971"
     y="38.59251" /><path
     style="fill:#4e9a06"
     d="M 90.522134,76.759364 86.265607,82.009081 83.00227,92.224745 H 72.92849 l -4.256526,-12.202044 4.682179,1.135074 3.68899,3.547106 4.114642,-4.824064 z"
     id="path10" /><path
     style="fill:#4e9a06"
     d="m 19.15437,71.083995 5.817253,8.37117 2.553916,13.337116 14.472191,-0.141884 1.986379,-8.654937 5.675369,-9.364359 -4.965948,0.99319 -8.371169,5.675368 -5.533485,-5.959137 -6.38479,-4.114642 z"
     id="path9" /><g
     id="g5"
     transform="matrix(1.1730998,0,0,1.1730998,-2.4696072,-3.2708081)"><path
       d="m 60.371,17.266 c 6.4727,0 12.68,2.5703 17.258,7.1484 4.5742,4.5742 7.1484,10.781 7.1484,17.254 v 39.895 c 0,0.64844 -0.52734,1.1719 -1.1719,1.1719 h -58.34 c -0.32031,0 -0.625,-0.12891 -0.84766,-0.36328 -0.22266,-0.23047 -0.33594,-0.54297 -0.32422,-0.86328 0.01953,-0.34375 0.02734,-0.6875 0.02734,-1.0391 0,-7.418 -3.7031,-13.988 -8.3281,-16.781 -0.45312,-0.27344 -0.66406,-0.8125 -0.52344,-1.3164 0.14062,-0.50781 0.60156,-0.85938 1.1289,-0.85938 4.125,0 7.9453,1.3203 11.059,3.5625 v -23.406 c 0,-13.477 10.926,-24.402 24.402,-24.402 1.4336,0 2.8516,0.125 4.2461,0.37109 1.3867,-0.24219 2.8125,-0.37109 4.2656,-0.37109 z m -8.5117,2.3438 c -12.184,0 -22.059,9.875 -22.059,22.059 l -0.0039,25.398 c 1.1719,1.168 2.1914,2.4922 3.0273,3.9336 3.1758,-3.5547 7.7969,-5.793 12.938,-5.793 0.52344,0 0.98438,0.35156 1.1289,0.85938 0.14062,0.50391 -0.07422,1.043 -0.52344,1.3125 -3.7266,2.25 -6.7812,7.2188 -7.4062,13.012 h 24.148 c -0.51562,-3.8086 -2.5469,-7.0547 -5.0195,-8.5469 -0.44922,-0.26953 -0.66406,-0.8125 -0.52344,-1.3164 0.14062,-0.50781 0.60156,-0.85938 1.1289,-0.85938 3.5625,0 6.7852,1.4844 9.0781,3.8672 1.457,-2.3398 3.6016,-4.207 6.1484,-5.3242 v -26.543 c 0,-5.8477 -2.3242,-11.461 -6.4609,-15.598 -3.1758,-3.1758 -7.2188,-5.2812 -11.57,-6.0898 -1.3203,-0.24609 -2.668,-0.37109 -4.0312,-0.37109 z m 24.402,60.781 h 6.1719 v -38.723 c 0,-5.8477 -2.3281,-11.461 -6.4609,-15.598 -3.6328,-3.6289 -8.3945,-5.8633 -13.461,-6.3555 2.4258,1.1758 4.6641,2.7539 6.6055,4.6992 4.5742,4.5742 7.1445,10.781 7.1445,17.254 v 25.758 c 1.0195,-0.23828 2.0781,-0.36719 3.168,-0.36719 0.52734,0 0.98828,0.35156 1.1289,0.85938 0.14062,0.50781 -0.07031,1.043 -0.52344,1.3164 -1.4531,0.87891 -2.7656,2.3086 -3.7734,4.0859 z m -48.441,-11.98 c -2.0859,-1.9766 -4.6875,-3.4219 -7.5781,-4.1055 3.6016,3.7461 6.1992,9.6094 6.2227,16.086 h 6.5469 C 33.00008,77.9811 32.47664,75.6921 31.5391,73.6257 30.64457,71.6491 29.375,69.8835 27.8203,68.4109 Z m 37.648,11.98 h 0.23438 c 0.04687,-1.6211 0.375,-3.1719 0.9375,-4.6055 -1.1094,-1.3555 -2.5586,-2.4258 -4.2148,-3.0703 1.5547,2.0391 2.6992,4.7148 3.043,7.6758 z m -30.113,0 h 1.25 c 0.48047,-4.9336 2.5586,-9.332 5.3359,-12.348 -3.207,0.84375 -5.9961,2.7227 -7.9883,5.2578 0.89453,2.1914 1.3945,4.582 1.4023,7.0898 z m 32.691,0 h 3.9336 c 0.06641,-2.918 0.85156,-5.6523 2.0781,-7.9297 0.47656,-0.87891 1.0156,-1.6914 1.6094,-2.4219 l -0.17188,0.0625 c -2.8672,1.0547 -5.1914,3.2344 -6.4453,5.9961 -0.59766,1.3203 -0.94922,2.7695 -1.0039,4.293 z m -13.07,-18.688 h -6.2344 c -2.293,0 -4.1523,-1.8594 -4.1523,-4.1602 V 54.984 c 0,-0.83203 -0.4375,-1.6055 -1.1523,-2.0312 -3.5078,-2.0352 -5.7188,-4.1914 -5.7188,-8.9297 0,-7.8047 6.3359,-14.141 14.141,-14.141 7.8051,0 14.141,6.3359 14.141,14.141 0,4.7383 -2.2109,6.8945 -5.7148,8.9375 -0.71094,0.42187 -1.1484,1.1914 -1.1484,2.0234 v 0.0039 c -0.0039,0.78906 -0.0039,1.7031 -0.0039,2.5547 0,2.3008 -1.8633,4.1602 -4.1562,4.1602 z m 0.46875,-2.4062 c 0.77344,-0.20703 1.3438,-0.91016 1.3438,-1.7539 0,-0.85547 0,-1.7734 0.0039,-2.5586 0,-1.6602 0.87109,-3.1953 2.2969,-4.0391 l 0.0078,-0.0078 c 2.7383,-1.5938 4.5586,-3.2148 4.5586,-6.9141 0,-6.5078 -5.2852,-11.797 -11.797,-11.797 -6.5118,0 -11.797,5.2891 -11.797,11.797 0,3.6992 1.8203,5.3203 4.5586,6.9102 l 0.01172,0.0078 c 1.4258,0.84766 2.2969,2.3828 2.2969,4.043 v 2.5586 c 0.0039,0.89844 0.64844,1.6406 1.5039,1.7891 v -1.543 c 0,-0.64844 0.52344,-1.1719 1.1719,-1.1719 0.64453,0 1.1719,0.52344 1.1719,1.1719 v 1.5703 h 2.3242 v -1.5703 c 0,-0.64844 0.52344,-1.1719 1.1719,-1.1719 0.64453,0 1.1719,0.52344 1.1719,1.1719 z m -4.7578,-9.3789 c 0,-0.64844 0.52734,-1.1719 1.1719,-1.1719 0.64844,0 1.1719,0.52344 1.1719,1.1719 v 2.7422 c 0,0.64453 -0.52344,1.1719 -1.1719,1.1719 -0.64453,0 -1.1719,-0.52734 -1.1719,-1.1719 z m -0.29688,-8.0469 c 0.45312,1.3789 0.22266,2.8906 -0.62891,4.0664 -0.84766,1.1758 -2.2109,1.8711 -3.6602,1.8711 h -0.21875 c -2.2773,0 -4.1211,-1.8438 -4.1211,-4.1211 0,-1.0898 0.43359,-2.1406 1.207,-2.9102 0.77344,-0.77734 1.8203,-1.2109 2.9141,-1.2109 h 1.3164 c 1.4492,0 2.7344,0.93359 3.1914,2.3047 z m -2.2266,0.73828 c -0.13672,-0.41406 -0.52344,-0.69922 -0.96484,-0.69922 h -1.3164 c -0.47266,0 -0.92578,0.1875 -1.2578,0.52344 -0.33203,0.33203 -0.51953,0.78125 -0.51953,1.2539 0,0.98438 0.79297,1.7773 1.7773,1.7773 h 0.21875 c 0.69922,0 1.3516,-0.33594 1.7617,-0.89844 0.41016,-0.56641 0.51953,-1.293 0.30078,-1.957 z m 5.1641,-0.73828 c 0.45703,-1.3711 1.7422,-2.3047 3.1914,-2.3047 h 1.3203 c 1.0898,0 2.1406,0.43359 2.9102,1.2109 0.77344,0.76953 1.207,1.8203 1.207,2.9102 0,2.2773 -1.8438,4.1211 -4.1172,4.1211 h -0.22266 c -1.4492,0 -2.8125,-0.69531 -3.6602,-1.8711 -0.84766,-1.1758 -1.082,-2.6875 -0.62891,-4.0664 z m 2.2266,0.73828 c -0.21875,0.66406 -0.10547,1.3906 0.30078,1.957 0.41016,0.5625 1.0664,0.89844 1.7617,0.89844 h 0.22266 c 0.98047,0 1.7734,-0.79297 1.7734,-1.7773 0,-0.47266 -0.18359,-0.92188 -0.51953,-1.2539 -0.33203,-0.33594 -0.78516,-0.52344 -1.2539,-0.52344 h -1.3203 c -0.4375,0 -0.82812,0.28516 -0.96484,0.69922 z"
       fill-rule="evenodd"
       id="path1" /></g></svg>
