<?xml version="1.0" encoding="UTF-8" standalone="no"?>
<svg
   version="1.1"
   x="0px"
   y="0px"
   viewBox="0 0 120 120"
   xml:space="preserve"
   id="svg3"
   sodipodi:docname="noun-sad-face.svg"
   width="120"
   height="120"
   inkscape:version="1.4.3 (0d15f75042, 2025-12-25)"
   xmlns:inkscape="http://www.inkscape.org/namespaces/inkscape"
   xmlns:sodipodi="http://sodipodi.sourceforge.net/DTD/sodipodi-0.dtd"
   xmlns="http://www.w3.org/2000/svg"
   xmlns:svg="http://www.w3.org/2000/svg"><defs
     id="defs3" /><sodipodi:namedview
     id="namedview3"
     pagecolor="#ffffff"
     bordercolor="#000000"
     borderopacity="0.25"
     inkscape:showpageshadow="2"
     inkscape:pageopacity="0.0"
     inkscape:pagecheckerboard="0"
     inkscape:deskcolor="#d1d1d1"
     showgrid="false"
     inkscape:zoom="0.881"
     inkscape:cx="-56.186152"
     inkscape:cy="39.160045"
     inkscape:window-width="1853"
     inkscape:window-height="1131"
     inkscape:window-x="0"
     inkscape:window-y="0"
     inkscape:window-maximized="1"
     inkscape:current-layer="svg3" /><circle
     style="fill:#f57900"
     id="path3"
     cx="60"
     cy="60"
     r="60" /><circle
     style="fill:#fce94f"
     id="path4"
     cx="60"
     cy="60"
     r="44.551647" /><g
     id="g5"
     transform="translate(32.215,127.205)"
     style="fill:#8f5902"><g
       id="g4"
       transform="translate(-22.215,-117.205)"
       style="fill:#8f5902"><path
         d="M 50,2.5 C 23.80978,2.5 2.5,23.80837 2.5,50 c 0,8.57592 2.31371,16.98176 6.68812,24.30945 1.62494,2.72698 5.16158,3.62098 7.89418,1.99182 2.72979,-1.63056 3.62098,-5.16579 1.99041,-7.89558 C 15.76379,62.86318 14.01515,56.49836 14.01515,50 14.01515,30.15773 30.15773,14.01515 50,14.01515 c 19.84227,-1.8e-4 35.98485,16.1424 35.98485,35.98467 0,19.84227 -16.14258,35.98485 -35.98485,35.98503 -4.51497,0 -8.92031,-0.82652 -13.0923,-2.45428 -2.97156,-1.16811 -6.30297,0.31065 -7.45842,3.26815 -1.15545,2.96172 0.30924,6.30157 3.26956,7.45702 C 38.23183,96.40921 44.04563,97.5 50,97.5 76.19022,97.49982 97.5,76.19145 97.5,49.99982 97.5,23.80819 76.19022,2.49982 50,2.5 Z m 33.88445,22.78361 c -0.26427,0.20663 -0.57632,0.30643 -0.88837,0.30643 -0.42732,0 -0.84902,-0.18976 -1.13297,-0.55102 -2.89565,-3.69548 -6.40137,-6.84274 -10.41874,-9.35466 -0.67471,-0.42029 -0.87994,-1.30867 -0.45824,-1.98338 0.4217,-0.67472 1.3157,-0.87713 1.98198,-0.45684 4.30412,2.68902 8.06004,6.05979 11.16093,10.01813 0.48915,0.62693 0.37951,1.53077 -0.24459,2.02134 z m -33.8848,68.05916 c -5.07161,0 -10.04202,-0.8687 -14.77347,-2.5836 -0.745,-0.27129 -1.13296,-1.09641 -0.86026,-1.84422 0.26989,-0.7464 1.09642,-1.12593 1.84423,-0.86307 4.41376,1.60104 9.05244,2.41211 13.78951,2.41211 22.31342,0 40.46609,-18.15127 40.46609,-40.46328 0,-6.20879 -1.37193,-12.16878 -4.0736,-17.71129 -0.3486,-0.71407 -0.05341,-1.57574 0.66348,-1.92435 0.70283,-0.3486 1.57153,-0.05482 1.92294,0.66207 2.89847,5.94031 4.36597,12.3234 4.36597,18.97357 -2e-5,23.89899 -19.44308,43.34206 -43.34489,43.34206 z"
         id="path1"
         style="fill:#8f5902" /><path
         d="m 30.79783,68.61864 h 5.75758 c 0,-1.69944 4.7455,-5.00695 13.44653,-5.00695 8.69821,0 13.44371,3.30751 13.44371,5.00695 h 5.75758 c 0,-6.1371 -8.25402,-10.76453 -19.20129,-10.76453 -10.94727,0 -19.20411,4.62743 -19.20411,10.76453 z"
         id="path2"
         style="fill:#8f5902" /><path
         d="m 65.88552,49.28223 c 1.59437,0 2.8895,-1.07726 3.32719,-2.52878 l 2.50102,1.44379 2.87878,-4.98727 -13.65737,-7.88434 -2.87879,4.98728 5.26858,3.04149 c -0.59073,0.63096 -0.9685,1.46628 -0.9685,2.39875 10e-6,1.94895 1.57997,3.52908 3.52909,3.52908 z"
         id="path3-7"
         style="fill:#8f5902" /><path
         d="m 34.11641,49.28223 c 1.94912,0 3.52908,-1.58014 3.52908,-3.52908 0,-0.93266 -0.37777,-1.76814 -0.96868,-2.39911 l 5.26788,-3.04114 -2.87879,-4.98728 -13.65738,7.88434 2.87879,4.98727 2.5019,-1.44431 c 0.43752,1.4517 1.73284,2.52931 3.3272,2.52931 z"
         id="path4-5"
         style="fill:#8f5902" /></g></g></svg>
