<?xml version="1.0" encoding="UTF-8" standalone="no"?>
<svg
   version="1.1"
   viewBox="-5.0 -10.0 110.0 135.0"
   id="svg3"
   sodipodi:docname="noun-reject-8230150.svg"
   inkscape:version="1.4.2 (f4327f4, 2025-05-13)"
   xmlns:inkscape="http://www.inkscape.org/namespaces/inkscape"
   xmlns:sodipodi="http://sodipodi.sourceforge.net/DTD/sodipodi-0.dtd"
   xmlns="http://www.w3.org/2000/svg"
   xmlns:svg="http://www.w3.org/2000/svg">
  <defs
     id="defs3" />
  <sodipodi:namedview
     id="namedview3"
     pagecolor="#ffffff"
     bordercolor="#000000"
     borderopacity="0.25"
     inkscape:showpageshadow="2"
     inkscape:pageopacity="0.0"
     inkscape:pagecheckerboard="0"
     inkscape:deskcolor="#d1d1d1"
     inkscape:zoom="6.3333333"
     inkscape:cx="42.710526"
     inkscape:cy="59.763158"
     inkscape:window-width="2484"
     inkscape:window-height="1057"
     inkscape:window-x="1988"
     inkscape:window-y="-8"
     inkscape:window-maximized="1"
     inkscape:current-layer="svg3" />
  <path
     style="fill:#ff0000"
     id="path3"
     sodipodi:type="arc"
     sodipodi:cx="50"
     sodipodi:cy="57.5"
     sodipodi:rx="35.13158"
     sodipodi:ry="35.289474"
     sodipodi:start="1.6287184"
     sodipodi:end="1.6280593"
     sodipodi:open="true"
     sodipodi:arc-type="arc"
     d="M 47.966244,92.730294 A 35.13158,35.289474 0 0 1 14.927001,55.462908 35.13158,35.289474 0 0 1 52.022198,22.269035 35.13158,35.289474 0 0 1 85.073665,59.525481 35.13158,35.289474 0 0 1 47.989361,92.731632" />
  <path
     style="fill:#ffffff;fill-opacity:1"
     d="m 39.684211,38 10.578947,10.105263 c 0,0 10.736842,-9.315789 10.973684,-9.789474 0.236842,-0.473684 6.236842,-0.157894 6.236842,-0.157894 L 70,45.026316 59.894737,56.947368 l 10.736842,14.131579 -2.447368,5.289474 -5.447369,1.5 L 50.5,67.210526 38.342105,77 l -5.921052,-0.473684 -3,-6.789474 11.052631,-11.763158 -10.815789,-12.394737 1.973684,-7.342105 z"
     id="path6" />
  <path
     d="M 50,21 C 29.871,21 13.5,37.371 13.5,57.5 13.5,77.629 29.871,94 50,94 70.129,94 86.5,77.629 86.5,57.5 86.5,37.371 70.129,21 50,21 Z m 0,70 C 31.531,91 16.5,75.969 16.5,57.5 16.5,39.031 31.531,24 50,24 68.469,24 83.5,39.031 83.5,57.5 83.5,75.969 68.469,91 50,91 Z"
     id="path1"
     style="fill:#ffffff" />
  <path
     d="m 69.6212,37.876363 c -3.0195,-3.0195 -7.9414,-3.0195 -10.961,0 l -8.6602,8.6602 -8.6602,-8.6602 c -3.0195,-3.0195 -7.9414,-3.0195 -10.961,0 -3.0195,3.0195 -3.0195,7.9414 0,10.961 l 8.6602,8.6602 -8.6602,8.6602 c -3.0195,3.0195 -3.0195,7.9414 0,10.961 3.0195,3.0195 7.9414,3.0195 10.961,0 L 50,68.458562 l 8.6602,8.660201 c 1.5117,1.5117 3.5,2.269499 5.4805,2.269499 1.9805,0 3.9688,-0.76172 5.4805,-2.269499 3.0195,-3.0195 3.0195,-7.941401 0,-10.961 l -8.6602,-8.6602 8.6602,-8.6602 c 3.0195,-3.0195 3.0195,-7.9414 0,-10.961 z m -2.1211,8.8398 -9.7188,9.7188 c -0.58984,0.58984 -0.58984,1.5391 0,2.1211 l 9.7188,9.7188 c 1.8516,1.8516 1.8516,4.8711 0,6.7188 -1.8516,1.8516 -4.8711,1.8516 -6.7188,0 l -9.7188,-9.7188 c -0.28906,-0.28906 -0.67969,-0.44141 -1.0586,-0.44141 -0.37891,0 -0.76953,0.14844 -1.0586,0.44141 l -9.7188,9.7188 c -1.8516,1.8516 -4.8711,1.8516 -6.7188,0 -1.8516,-1.8516 -1.8516,-4.8711 0,-6.7188 l 9.7188,-9.7188 c 0.58984,-0.58984 0.58984,-1.5391 0,-2.1211 l -9.7188,-9.7188 c -1.8516,-1.8516 -1.8516,-4.8711 0,-6.7188 1.8516,-1.8516 4.8711,-1.8516 6.7188,0 l 9.7188,9.7188 c 0.58984,0.58984 1.5391,0.58984 2.1211,0 l 9.7188,-9.7188 c 1.8516,-1.8516 4.8711,-1.8516 6.7188,0 1.8516,1.8516 1.8516,4.8711 0,6.7188 z"
     id="path2"
     style="fill:#ff0000;fill-opacity:1" />
</svg>
