<?xml version="1.0" encoding="UTF-8" standalone="no"?>
<svg
   viewBox="0 0 28.000055 24.8025"
   version="1.1"
   xml:space="preserve"
   x="0px"
   y="0px"
   fill-rule="evenodd"
   clip-rule="evenodd"
   stroke-linejoin="round"
   stroke-miterlimit="2"
   id="svg8"
   sodipodi:docname="noun-5-stars.svg"
   inkscape:version="1.4.2 (f4327f4, 2025-05-13)"
   width="28.000055"
   height="24.8025"
   xmlns:inkscape="http://www.inkscape.org/namespaces/inkscape"
   xmlns:sodipodi="http://sodipodi.sourceforge.net/DTD/sodipodi-0.dtd"
   xmlns="http://www.w3.org/2000/svg"
   xmlns:svg="http://www.w3.org/2000/svg"><defs
     id="defs8" /><sodipodi:namedview
     id="namedview8"
     pagecolor="#ffffff"
     bordercolor="#000000"
     borderopacity="0.25"
     inkscape:showpageshadow="2"
     inkscape:pageopacity="0.0"
     inkscape:pagecheckerboard="0"
     inkscape:deskcolor="#d1d1d1"
     inkscape:zoom="21.375"
     inkscape:cx="11.906433"
     inkscape:cy="14.526316"
     inkscape:window-width="2498"
     inkscape:window-height="1057"
     inkscape:window-x="1974"
     inkscape:window-y="-8"
     inkscape:window-maximized="1"
     inkscape:current-layer="g6" /><g
     transform="translate(-49.951232,-8.7193022)"
     id="g7"><g
       id="g6"><g
         transform="matrix(-1.08241,0,0,1.08241,128.098,-120.72)"
         id="g1"
         style="fill:#d4c46a;fill-opacity:1"><path
           d="m 63.576,135.089 c 0.06,-0.183 0.231,-0.308 0.424,-0.308 0.193,0 0.364,0.125 0.424,0.308 l 0.747,2.299 c 0,0 2.417,0 2.417,0 0.193,0 0.365,0.125 0.424,0.308 0.06,0.184 -0.005,0.385 -0.162,0.499 l -1.955,1.421 c 0,0 0.747,2.298 0.747,2.298 0.059,0.184 -0.006,0.385 -0.162,0.499 -0.157,0.114 -0.368,0.114 -0.525,0 L 64,140.992 c 0,0 -1.955,1.421 -1.955,1.421 -0.157,0.114 -0.368,0.114 -0.525,0 -0.156,-0.114 -0.221,-0.315 -0.162,-0.499 l 0.747,-2.298 c 0,0 -1.955,-1.421 -1.955,-1.421 -0.157,-0.114 -0.222,-0.315 -0.162,-0.499 0.059,-0.183 0.231,-0.308 0.424,-0.308 h 2.417 z m 0.424,1.582 -0.423,1.301 c -0.06,0.184 -0.231,0.308 -0.424,0.308 h -1.368 c 0,0 1.107,0.804 1.107,0.804 0.156,0.114 0.221,0.315 0.162,0.499 l -0.423,1.302 c 0,0 1.107,-0.805 1.107,-0.805 0.156,-0.113 0.368,-0.113 0.524,0 l 1.107,0.805 c 0,0 -0.423,-1.302 -0.423,-1.302 -0.059,-0.184 0.006,-0.385 0.162,-0.499 l 1.107,-0.804 c 0,0 -1.368,0 -1.368,0 -0.193,0 -0.364,-0.124 -0.424,-0.308 z"
           id="path1"
           style="fill:#d4c46a;fill-opacity:1" /></g><g
         transform="matrix(-1.08241,0,0,1.08241,138.353,-120.72)"
         id="g2"
         style="fill:#d4c46a;fill-opacity:1"><path
           d="m 63.576,135.089 c 0.06,-0.183 0.231,-0.308 0.424,-0.308 0.193,0 0.364,0.125 0.424,0.308 l 0.747,2.299 c 0,0 2.417,0 2.417,0 0.193,0 0.365,0.125 0.424,0.308 0.06,0.184 -0.005,0.385 -0.162,0.499 l -1.955,1.421 c 0,0 0.747,2.298 0.747,2.298 0.059,0.184 -0.006,0.385 -0.162,0.499 -0.157,0.114 -0.368,0.114 -0.525,0 L 64,140.992 c 0,0 -1.955,1.421 -1.955,1.421 -0.157,0.114 -0.368,0.114 -0.525,0 -0.156,-0.114 -0.221,-0.315 -0.162,-0.499 l 0.747,-2.298 c 0,0 -1.955,-1.421 -1.955,-1.421 -0.157,-0.114 -0.222,-0.315 -0.162,-0.499 0.059,-0.183 0.231,-0.308 0.424,-0.308 h 2.417 z m 0.424,1.582 -0.423,1.301 c -0.06,0.184 -0.231,0.308 -0.424,0.308 h -1.368 c 0,0 1.107,0.804 1.107,0.804 0.156,0.114 0.221,0.315 0.162,0.499 l -0.423,1.302 c 0,0 1.107,-0.805 1.107,-0.805 0.156,-0.113 0.368,-0.113 0.524,0 l 1.107,0.805 c 0,0 -0.423,-1.302 -0.423,-1.302 -0.059,-0.184 0.006,-0.385 0.162,-0.499 l 1.107,-0.804 c 0,0 -1.368,0 -1.368,0 -0.193,0 -0.364,-0.124 -0.424,-0.308 z"
           id="path2"
           style="fill:#d4c46a;fill-opacity:1" /></g><g
         transform="matrix(-1.08241,0,0,1.08241,123.592,-129.41)"
         id="g3"
         style="fill:#d4c46a;fill-opacity:1"><path
           d="m 63.576,135.089 c 0.06,-0.183 0.231,-0.308 0.424,-0.308 0.193,0 0.364,0.125 0.424,0.308 l 0.747,2.299 c 0,0 2.417,0 2.417,0 0.193,0 0.365,0.125 0.424,0.308 0.06,0.184 -0.005,0.385 -0.162,0.499 l -1.955,1.421 c 0,0 0.747,2.298 0.747,2.298 0.059,0.184 -0.006,0.385 -0.162,0.499 -0.157,0.114 -0.368,0.114 -0.525,0 L 64,140.992 c 0,0 -1.955,1.421 -1.955,1.421 -0.157,0.114 -0.368,0.114 -0.525,0 -0.156,-0.114 -0.221,-0.315 -0.162,-0.499 l 0.747,-2.298 c 0,0 -1.955,-1.421 -1.955,-1.421 -0.157,-0.114 -0.222,-0.315 -0.162,-0.499 0.059,-0.183 0.231,-0.308 0.424,-0.308 h 2.417 z m 0.424,1.582 -0.423,1.301 c -0.06,0.184 -0.231,0.308 -0.424,0.308 h -1.368 c 0,0 1.107,0.804 1.107,0.804 0.156,0.114 0.221,0.315 0.162,0.499 l -0.423,1.302 c 0,0 1.107,-0.805 1.107,-0.805 0.156,-0.113 0.368,-0.113 0.524,0 l 1.107,0.805 c 0,0 -0.423,-1.302 -0.423,-1.302 -0.059,-0.184 0.006,-0.385 0.162,-0.499 l 1.107,-0.804 c 0,0 -1.368,0 -1.368,0 -0.193,0 -0.364,-0.124 -0.424,-0.308 z"
           id="path3"
           style="fill:#d4c46a;fill-opacity:1" /></g><g
         transform="matrix(-1.08241,0,0,1.08241,133.226,-128.448)"
         id="g4"
         style="fill:#d4c46a;fill-opacity:1"><path
           d="m 63.576,135.089 c 0.06,-0.183 0.231,-0.308 0.424,-0.308 0.193,0 0.364,0.125 0.424,0.308 l 0.747,2.299 c 0,0 2.417,0 2.417,0 0.193,0 0.365,0.125 0.424,0.308 0.06,0.184 -0.005,0.385 -0.162,0.499 l -1.955,1.421 c 0,0 0.747,2.298 0.747,2.298 0.059,0.184 -0.006,0.385 -0.162,0.499 -0.157,0.114 -0.368,0.114 -0.525,0 L 64,140.992 c 0,0 -1.955,1.421 -1.955,1.421 -0.157,0.114 -0.368,0.114 -0.525,0 -0.156,-0.114 -0.221,-0.315 -0.162,-0.499 l 0.747,-2.298 c 0,0 -1.955,-1.421 -1.955,-1.421 -0.157,-0.114 -0.222,-0.315 -0.162,-0.499 0.059,-0.183 0.231,-0.308 0.424,-0.308 h 2.417 z m 0.424,1.582 -0.423,1.301 c -0.06,0.184 -0.231,0.308 -0.424,0.308 h -1.368 c 0,0 1.107,0.804 1.107,0.804 0.156,0.114 0.221,0.315 0.162,0.499 l -0.423,1.302 c 0,0 1.107,-0.805 1.107,-0.805 0.156,-0.113 0.368,-0.113 0.524,0 l 1.107,0.805 c 0,0 -0.423,-1.302 -0.423,-1.302 -0.059,-0.184 0.006,-0.385 0.162,-0.499 l 1.107,-0.804 c 0,0 -1.368,0 -1.368,0 -0.193,0 -0.364,-0.124 -0.424,-0.308 z"
           id="path4"
           style="fill:#d4c46a;fill-opacity:1" /></g><g
         transform="matrix(-1.08241,0,0,1.08241,142.859,-129.41)"
         id="g5"
         style="fill:#d4c46a;fill-opacity:1"><path
           d="m 63.576,135.089 c 0.06,-0.183 0.231,-0.308 0.424,-0.308 0.193,0 0.364,0.125 0.424,0.308 l 0.747,2.299 c 0,0 2.417,0 2.417,0 0.193,0 0.365,0.125 0.424,0.308 0.06,0.184 -0.005,0.385 -0.162,0.499 l -1.955,1.421 c 0,0 0.747,2.298 0.747,2.298 0.059,0.184 -0.006,0.385 -0.162,0.499 -0.157,0.114 -0.368,0.114 -0.525,0 L 64,140.992 c 0,0 -1.955,1.421 -1.955,1.421 -0.157,0.114 -0.368,0.114 -0.525,0 -0.156,-0.114 -0.221,-0.315 -0.162,-0.499 l 0.747,-2.298 c 0,0 -1.955,-1.421 -1.955,-1.421 -0.157,-0.114 -0.222,-0.315 -0.162,-0.499 0.059,-0.183 0.231,-0.308 0.424,-0.308 h 2.417 z m 0.424,1.582 -0.423,1.301 c -0.06,0.184 -0.231,0.308 -0.424,0.308 h -1.368 c 0,0 1.107,0.804 1.107,0.804 0.156,0.114 0.221,0.315 0.162,0.499 l -0.423,1.302 c 0,0 1.107,-0.805 1.107,-0.805 0.156,-0.113 0.368,-0.113 0.524,0 l 1.107,0.805 c 0,0 -0.423,-1.302 -0.423,-1.302 -0.059,-0.184 0.006,-0.385 0.162,-0.499 l 1.107,-0.804 c 0,0 -1.368,0 -1.368,0 -0.193,0 -0.364,-0.124 -0.424,-0.308 z"
           id="path5"
           style="fill:#d4c46a;fill-opacity:1" /></g><path
         sodipodi:type="star"
         style="fill:#d4c46a;fill-opacity:1"
         id="path6"
         inkscape:flatsided="false"
         sodipodi:sides="5"
         sodipodi:cx="51.635445"
         sodipodi:cy="18.730997"
         sodipodi:r1="3.672142"
         sodipodi:r2="1.8360713"
         sodipodi:arg1="0.9757267"
         sodipodi:arg2="1.6040452"
         inkscape:rounded="0"
         inkscape:randomized="0"
         d="m 53.693924,21.771933 -2.119515,-1.205879 -2.194961,1.062374 0.491893,-2.388416 -1.688658,-1.75924 2.423522,-0.270243 1.151312,-2.149644 1.005926,2.221396 2.400208,0.430687 -1.801825,1.643141 z"
         inkscape:transform-center-x="-0.03772239"
         inkscape:transform-center-y="-0.31458844"
         transform="translate(12.444444,3.3216375)" /><path
         sodipodi:type="star"
         style="fill:#d4c46a;fill-opacity:1"
         id="path6-9"
         inkscape:flatsided="false"
         sodipodi:sides="5"
         sodipodi:cx="51.635445"
         sodipodi:cy="18.730997"
         sodipodi:r1="3.672142"
         sodipodi:r2="1.8360713"
         sodipodi:arg1="0.9757267"
         sodipodi:arg2="1.6040452"
         inkscape:rounded="0"
         inkscape:randomized="0"
         d="m 53.693924,21.771933 -2.119515,-1.205879 -2.194961,1.062374 0.491893,-2.388416 -1.688658,-1.75924 2.423522,-0.270243 1.151312,-2.149644 1.005926,2.221396 2.400208,0.430687 -1.801825,1.643141 z"
         inkscape:transform-center-x="-0.03772239"
         inkscape:transform-center-y="-0.31458844"
         transform="translate(2.4936952,2.500523)" /><path
         sodipodi:type="star"
         style="fill:#d4c46a;fill-opacity:1"
         id="path6-8"
         inkscape:flatsided="false"
         sodipodi:sides="5"
         sodipodi:cx="51.635445"
         sodipodi:cy="18.730997"
         sodipodi:r1="3.672142"
         sodipodi:r2="1.8360713"
         sodipodi:arg1="0.9757267"
         sodipodi:arg2="1.6040452"
         inkscape:rounded="0"
         inkscape:randomized="0"
         d="m 53.693924,21.771933 -2.119515,-1.205879 -2.194961,1.062374 0.491893,-2.388416 -1.688658,-1.75924 2.423522,-0.270243 1.151312,-2.149644 1.005926,2.221396 2.400208,0.430687 -1.801825,1.643141 z"
         inkscape:transform-center-x="-0.03772239"
         inkscape:transform-center-y="-0.31458844"
         transform="translate(22.078491,2.4069557)" /><path
         sodipodi:type="star"
         style="fill:#d4c46a;fill-opacity:1"
         id="path6-2"
         inkscape:flatsided="false"
         sodipodi:sides="5"
         sodipodi:cx="51.635445"
         sodipodi:cy="18.730997"
         sodipodi:r1="3.672142"
         sodipodi:r2="1.8360713"
         sodipodi:arg1="0.9757267"
         sodipodi:arg2="1.6040452"
         inkscape:rounded="0"
         inkscape:randomized="0"
         d="m 53.693924,21.771933 -2.119515,-1.205879 -2.194961,1.062374 0.491893,-2.388416 -1.688658,-1.75924 2.423522,-0.270243 1.151312,-2.149644 1.005926,2.221396 2.400208,0.430687 -1.801825,1.643141 z"
         inkscape:transform-center-x="-0.03772239"
         inkscape:transform-center-y="-0.31458844"
         transform="translate(17.154514,11.07947)" /><path
         sodipodi:type="star"
         style="fill:#d4c46a;fill-opacity:1"
         id="path6-5"
         inkscape:flatsided="false"
         sodipodi:sides="5"
         sodipodi:cx="51.635445"
         sodipodi:cy="18.730997"
         sodipodi:r1="3.672142"
         sodipodi:r2="1.8360713"
         sodipodi:arg1="0.9757267"
         sodipodi:arg2="1.6040452"
         inkscape:rounded="0"
         inkscape:randomized="0"
         d="m 53.693924,21.771933 -2.119515,-1.205879 -2.194961,1.062374 0.491893,-2.388416 -1.688658,-1.75924 2.423522,-0.270243 1.151312,-2.149644 1.005926,2.221396 2.400208,0.430687 -1.801825,1.643141 z"
         inkscape:transform-center-x="-0.03772239"
         inkscape:transform-center-y="-0.31458844"
         transform="translate(7.0843385,10.863096)" /></g></g></svg>
