<?xml version="1.0" encoding="UTF-8" standalone="no"?>
<svg
   viewBox="0 0 28.000055 24.8025"
   version="1.1"
   xml:space="preserve"
   x="0px"
   y="0px"
   fill-rule="evenodd"
   clip-rule="evenodd"
   stroke-linejoin="round"
   stroke-miterlimit="2"
   id="svg8"
   sodipodi:docname="noun-1-stars.svg"
   inkscape:version="1.4.2 (f4327f4, 2025-05-13)"
   width="28.000055"
   height="24.8025"
   xmlns:inkscape="http://www.inkscape.org/namespaces/inkscape"
   xmlns:sodipodi="http://sodipodi.sourceforge.net/DTD/sodipodi-0.dtd"
   xmlns="http://www.w3.org/2000/svg"
   xmlns:svg="http://www.w3.org/2000/svg"><defs
     id="defs8" /><sodipodi:namedview
     id="namedview8"
     pagecolor="#ffffff"
     bordercolor="#000000"
     borderopacity="0.25"
     inkscape:showpageshadow="2"
     inkscape:pageopacity="0.0"
     inkscape:pagecheckerboard="0"
     inkscape:deskcolor="#d1d1d1"
     inkscape:zoom="21.375"
     inkscape:cx="14.035088"
     inkscape:cy="18.736842"
     inkscape:window-width="2498"
     inkscape:window-height="1057"
     inkscape:window-x="1974"
     inkscape:window-y="-8"
     inkscape:window-maximized="1"
     inkscape:current-layer="g6" /><g
     transform="translate(-49.951232,-8.7193022)"
     id="g7"><g
       id="g6"><g
         transform="matrix(-1.08241,0,0,1.08241,142.859,-129.41)"
         id="g5"
         style="fill:#cd7f32;fill-opacity:1"><path
           d="m 63.576,135.089 c 0.06,-0.183 0.231,-0.308 0.424,-0.308 0.193,0 0.364,0.125 0.424,0.308 l 0.747,2.299 c 0,0 2.417,0 2.417,0 0.193,0 0.365,0.125 0.424,0.308 0.06,0.184 -0.005,0.385 -0.162,0.499 l -1.955,1.421 c 0,0 0.747,2.298 0.747,2.298 0.059,0.184 -0.006,0.385 -0.162,0.499 -0.157,0.114 -0.368,0.114 -0.525,0 L 64,140.992 c 0,0 -1.955,1.421 -1.955,1.421 -0.157,0.114 -0.368,0.114 -0.525,0 -0.156,-0.114 -0.221,-0.315 -0.162,-0.499 l 0.747,-2.298 c 0,0 -1.955,-1.421 -1.955,-1.421 -0.157,-0.114 -0.222,-0.315 -0.162,-0.499 0.059,-0.183 0.231,-0.308 0.424,-0.308 h 2.417 z m 0.424,1.582 -0.423,1.301 c -0.06,0.184 -0.231,0.308 -0.424,0.308 h -1.368 c 0,0 1.107,0.804 1.107,0.804 0.156,0.114 0.221,0.315 0.162,0.499 l -0.423,1.302 c 0,0 1.107,-0.805 1.107,-0.805 0.156,-0.113 0.368,-0.113 0.524,0 l 1.107,0.805 c 0,0 -0.423,-1.302 -0.423,-1.302 -0.059,-0.184 0.006,-0.385 0.162,-0.499 l 1.107,-0.804 c 0,0 -1.368,0 -1.368,0 -0.193,0 -0.364,-0.124 -0.424,-0.308 z"
           id="path5"
           style="fill:#cd7f32;fill-opacity:1" /></g><path
         sodipodi:type="star"
         style="fill:#cd7f32;fill-opacity:1"
         id="path1"
         inkscape:flatsided="false"
         sodipodi:sides="5"
         sodipodi:cx="70.442459"
         sodipodi:cy="17.233921"
         sodipodi:r1="3.9865029"
         sodipodi:r2="1.9932522"
         sodipodi:arg1="0.94372566"
         sodipodi:arg2="1.5720442"
         inkscape:rounded="0"
         inkscape:randomized="0"
         d="m 72.78164,20.461991 -2.341668,-1.234819 -2.344743,1.228971 0.450768,-2.608639 -1.893387,-1.85021 2.620258,-0.377409 1.174566,-2.372464 1.168641,2.375388 2.619308,0.383947 -1.897999,1.845479 z"
         inkscape:transform-center-x="-0.0015372448"
         inkscape:transform-center-y="-0.37921486"
         transform="translate(3.0409357,3.8362574)" /></g></g></svg>
